G04 #@! TF.GenerationSoftware,KiCad,Pcbnew,6.0.11+dfsg-1~bpo11+1*
G04 #@! TF.CreationDate,2023-05-24T11:45:56-04:00*
G04 #@! TF.ProjectId,RUSP_Mainboard,52555350-5f4d-4616-996e-626f6172642e,rev?*
G04 #@! TF.SameCoordinates,Original*
G04 #@! TF.FileFunction,Soldermask,Top*
G04 #@! TF.FilePolarity,Negative*
%FSLAX46Y46*%
G04 Gerber Fmt 4.6, Leading zero omitted, Abs format (unit mm)*
G04 Created by KiCad (PCBNEW 6.0.11+dfsg-1~bpo11+1) date 2023-05-24 11:45:56*
%MOMM*%
%LPD*%
G01*
G04 APERTURE LIST*
G04 Aperture macros list*
%AMRoundRect*
0 Rectangle with rounded corners*
0 $1 Rounding radius*
0 $2 $3 $4 $5 $6 $7 $8 $9 X,Y pos of 4 corners*
0 Add a 4 corners polygon primitive as box body*
4,1,4,$2,$3,$4,$5,$6,$7,$8,$9,$2,$3,0*
0 Add four circle primitives for the rounded corners*
1,1,$1+$1,$2,$3*
1,1,$1+$1,$4,$5*
1,1,$1+$1,$6,$7*
1,1,$1+$1,$8,$9*
0 Add four rect primitives between the rounded corners*
20,1,$1+$1,$2,$3,$4,$5,0*
20,1,$1+$1,$4,$5,$6,$7,0*
20,1,$1+$1,$6,$7,$8,$9,0*
20,1,$1+$1,$8,$9,$2,$3,0*%
%AMRotRect*
0 Rectangle, with rotation*
0 The origin of the aperture is its center*
0 $1 length*
0 $2 width*
0 $3 Rotation angle, in degrees counterclockwise*
0 Add horizontal line*
21,1,$1,$2,0,0,$3*%
G04 Aperture macros list end*
%ADD10C,0.010000*%
%ADD11RoundRect,0.147500X0.172500X-0.147500X0.172500X0.147500X-0.172500X0.147500X-0.172500X-0.147500X0*%
%ADD12RoundRect,0.225000X-0.225000X-0.250000X0.225000X-0.250000X0.225000X0.250000X-0.225000X0.250000X0*%
%ADD13RoundRect,0.218750X-0.218750X-0.256250X0.218750X-0.256250X0.218750X0.256250X-0.218750X0.256250X0*%
%ADD14C,1.020000*%
%ADD15R,0.600000X2.250000*%
%ADD16C,2.300000*%
%ADD17R,0.800000X1.600000*%
%ADD18R,0.600000X1.600000*%
%ADD19R,1.200000X0.900000*%
%ADD20RoundRect,0.243750X-0.243750X-0.456250X0.243750X-0.456250X0.243750X0.456250X-0.243750X0.456250X0*%
%ADD21RoundRect,0.243750X0.456250X-0.243750X0.456250X0.243750X-0.456250X0.243750X-0.456250X-0.243750X0*%
%ADD22RoundRect,0.243750X0.243750X0.456250X-0.243750X0.456250X-0.243750X-0.456250X0.243750X-0.456250X0*%
%ADD23C,1.600000*%
%ADD24RoundRect,0.225000X0.225000X0.250000X-0.225000X0.250000X-0.225000X-0.250000X0.225000X-0.250000X0*%
%ADD25C,1.500000*%
%ADD26RoundRect,0.212500X-0.449585X-0.055039X0.297279X-0.341733X0.449585X0.055039X-0.297279X0.341733X0*%
%ADD27RoundRect,0.218750X-0.256250X0.218750X-0.256250X-0.218750X0.256250X-0.218750X0.256250X0.218750X0*%
%ADD28R,1.360000X1.460000*%
%ADD29R,0.750000X0.280000*%
%ADD30C,0.700000*%
%ADD31R,0.280000X0.890000*%
%ADD32C,0.600000*%
%ADD33O,1.000000X2.000000*%
%ADD34O,1.500000X2.500000*%
%ADD35C,1.100000*%
%ADD36R,0.800000X1.500000*%
%ADD37R,1.500000X0.800000*%
%ADD38R,1.100000X1.100000*%
%ADD39RoundRect,0.218750X0.256250X-0.218750X0.256250X0.218750X-0.256250X0.218750X-0.256250X-0.218750X0*%
%ADD40RoundRect,0.218750X-0.319536X0.106829X-0.155646X-0.298814X0.319536X-0.106829X0.155646X0.298814X0*%
%ADD41RoundRect,0.218750X0.084438X-0.326168X0.335378X0.032211X-0.084438X0.326168X-0.335378X-0.032211X0*%
%ADD42RoundRect,0.218750X-0.084438X0.326168X-0.335378X-0.032211X0.084438X-0.326168X0.335378X0.032211X0*%
%ADD43RoundRect,0.218750X0.218750X0.256250X-0.218750X0.256250X-0.218750X-0.256250X0.218750X-0.256250X0*%
%ADD44RoundRect,0.218750X0.319536X-0.106829X0.155646X0.298814X-0.319536X0.106829X-0.155646X-0.298814X0*%
%ADD45RoundRect,0.147500X-0.147500X-0.172500X0.147500X-0.172500X0.147500X0.172500X-0.147500X0.172500X0*%
%ADD46R,1.000000X1.000000*%
%ADD47R,1.050000X2.200000*%
%ADD48RotRect,1.000000X1.000000X45.000000*%
%ADD49RotRect,1.050000X2.200000X45.000000*%
%ADD50RoundRect,0.212500X-0.452942X0.000162X0.253416X-0.375415X0.452942X-0.000162X-0.253416X0.375415X0*%
%ADD51R,5.000000X0.700000*%
%ADD52R,5.000000X1.000000*%
%ADD53C,2.375000*%
%ADD54C,0.991000*%
%ADD55C,0.787000*%
%ADD56RoundRect,0.218750X-0.106829X-0.319536X0.298814X-0.155646X0.106829X0.319536X-0.298814X0.155646X0*%
%ADD57R,1.060000X0.650000*%
%ADD58RoundRect,0.243750X-0.456250X0.243750X-0.456250X-0.243750X0.456250X-0.243750X0.456250X0.243750X0*%
%ADD59R,0.700000X0.450000*%
%ADD60R,2.200000X6.300000*%
%ADD61R,2.200000X1.050000*%
%ADD62RoundRect,0.218750X0.101392X-0.321302X0.333232X0.049719X-0.101392X0.321302X-0.333232X-0.049719X0*%
%ADD63RotRect,0.800000X0.500000X53.000000*%
%ADD64RotRect,2.400000X1.750000X53.000000*%
%ADD65RotRect,2.150000X0.600000X53.000000*%
%ADD66RoundRect,0.150000X-0.587500X-0.150000X0.587500X-0.150000X0.587500X0.150000X-0.587500X0.150000X0*%
%ADD67R,0.950000X0.400000*%
%ADD68R,0.800000X0.300000*%
%ADD69R,0.650000X0.300000*%
%ADD70RoundRect,0.250000X-0.375000X-0.625000X0.375000X-0.625000X0.375000X0.625000X-0.375000X0.625000X0*%
%ADD71R,3.500000X2.610000*%
%ADD72RoundRect,0.147500X-0.172500X0.147500X-0.172500X-0.147500X0.172500X-0.147500X0.172500X0.147500X0*%
%ADD73RoundRect,0.225000X-0.250000X0.225000X-0.250000X-0.225000X0.250000X-0.225000X0.250000X0.225000X0*%
%ADD74RotRect,1.600000X2.300000X330.000000*%
%ADD75RoundRect,0.062500X0.312500X0.062500X-0.312500X0.062500X-0.312500X-0.062500X0.312500X-0.062500X0*%
%ADD76RoundRect,0.062500X0.062500X0.312500X-0.062500X0.312500X-0.062500X-0.312500X0.062500X-0.312500X0*%
%ADD77RoundRect,0.249999X1.575001X1.575001X-1.575001X1.575001X-1.575001X-1.575001X1.575001X-1.575001X0*%
%ADD78RoundRect,0.250000X-0.250000X-0.475000X0.250000X-0.475000X0.250000X0.475000X-0.250000X0.475000X0*%
%ADD79RoundRect,0.250000X0.250000X0.475000X-0.250000X0.475000X-0.250000X-0.475000X0.250000X-0.475000X0*%
%ADD80RoundRect,0.150000X0.512500X0.150000X-0.512500X0.150000X-0.512500X-0.150000X0.512500X-0.150000X0*%
%ADD81RoundRect,0.100000X0.637500X0.100000X-0.637500X0.100000X-0.637500X-0.100000X0.637500X-0.100000X0*%
%ADD82RotRect,0.500000X0.800000X112.000000*%
%ADD83RotRect,1.500000X1.000000X112.000000*%
%ADD84R,0.900000X1.200000*%
%ADD85R,2.000000X2.000000*%
%ADD86C,2.000000*%
%ADD87RotRect,0.500000X0.800000X55.000000*%
%ADD88RotRect,1.500000X1.000000X55.000000*%
%ADD89C,5.900000*%
%ADD90O,3.000000X2.000000*%
%ADD91C,2.200000*%
%ADD92C,4.500000*%
G04 APERTURE END LIST*
G36*
X163505234Y-78797637D02*
G01*
X163510453Y-78798048D01*
X163515643Y-78798731D01*
X163520791Y-78799685D01*
X163525882Y-78800907D01*
X163530902Y-78802394D01*
X163535837Y-78804142D01*
X163540674Y-78806145D01*
X163545399Y-78808399D01*
X163550000Y-78810897D01*
X163554464Y-78813633D01*
X163558779Y-78816598D01*
X163562932Y-78819785D01*
X163566913Y-78823186D01*
X163570711Y-78826789D01*
X163574314Y-78830587D01*
X163577715Y-78834568D01*
X163580902Y-78838721D01*
X163583867Y-78843036D01*
X163586603Y-78847500D01*
X163589101Y-78852101D01*
X163591355Y-78856826D01*
X163593358Y-78861663D01*
X163595106Y-78866598D01*
X163596593Y-78871618D01*
X163597815Y-78876709D01*
X163598769Y-78881857D01*
X163599452Y-78887047D01*
X163599863Y-78892266D01*
X163600000Y-78897500D01*
X163600000Y-79097500D01*
X163599863Y-79102734D01*
X163599452Y-79107953D01*
X163598769Y-79113143D01*
X163597815Y-79118291D01*
X163596593Y-79123382D01*
X163595106Y-79128402D01*
X163593358Y-79133337D01*
X163591355Y-79138174D01*
X163589101Y-79142899D01*
X163586603Y-79147500D01*
X163583867Y-79151964D01*
X163580902Y-79156279D01*
X163577715Y-79160432D01*
X163574314Y-79164413D01*
X163570711Y-79168211D01*
X163566913Y-79171814D01*
X163562932Y-79175215D01*
X163558779Y-79178402D01*
X163554464Y-79181367D01*
X163550000Y-79184103D01*
X163545399Y-79186601D01*
X163540674Y-79188855D01*
X163535837Y-79190858D01*
X163530902Y-79192606D01*
X163525882Y-79194093D01*
X163520791Y-79195315D01*
X163515643Y-79196269D01*
X163510453Y-79196952D01*
X163505234Y-79197363D01*
X163500000Y-79197500D01*
X163150000Y-79197500D01*
X163144766Y-79197363D01*
X163139547Y-79196952D01*
X163134357Y-79196269D01*
X163129209Y-79195315D01*
X163124118Y-79194093D01*
X163119098Y-79192606D01*
X163114163Y-79190858D01*
X163109326Y-79188855D01*
X163104601Y-79186601D01*
X163100000Y-79184103D01*
X163095536Y-79181367D01*
X163091221Y-79178402D01*
X163087068Y-79175215D01*
X163083087Y-79171814D01*
X163079289Y-79168211D01*
X163075686Y-79164413D01*
X163072285Y-79160432D01*
X163069098Y-79156279D01*
X163066133Y-79151964D01*
X163063397Y-79147500D01*
X163060899Y-79142899D01*
X163058645Y-79138174D01*
X163056642Y-79133337D01*
X163054894Y-79128402D01*
X163053407Y-79123382D01*
X163052185Y-79118291D01*
X163051231Y-79113143D01*
X163050548Y-79107953D01*
X163050137Y-79102734D01*
X163050000Y-79097500D01*
X163050000Y-78897500D01*
X163050137Y-78892266D01*
X163050548Y-78887047D01*
X163051231Y-78881857D01*
X163052185Y-78876709D01*
X163053407Y-78871618D01*
X163054894Y-78866598D01*
X163056642Y-78861663D01*
X163058645Y-78856826D01*
X163060899Y-78852101D01*
X163063397Y-78847500D01*
X163066133Y-78843036D01*
X163069098Y-78838721D01*
X163072285Y-78834568D01*
X163075686Y-78830587D01*
X163079289Y-78826789D01*
X163083087Y-78823186D01*
X163087068Y-78819785D01*
X163091221Y-78816598D01*
X163095536Y-78813633D01*
X163100000Y-78810897D01*
X163104601Y-78808399D01*
X163109326Y-78806145D01*
X163114163Y-78804142D01*
X163119098Y-78802394D01*
X163124118Y-78800907D01*
X163129209Y-78799685D01*
X163134357Y-78798731D01*
X163139547Y-78798048D01*
X163144766Y-78797637D01*
X163150000Y-78797500D01*
X163500000Y-78797500D01*
X163505234Y-78797637D01*
G37*
D10*
X163505234Y-78797637D02*
X163510453Y-78798048D01*
X163515643Y-78798731D01*
X163520791Y-78799685D01*
X163525882Y-78800907D01*
X163530902Y-78802394D01*
X163535837Y-78804142D01*
X163540674Y-78806145D01*
X163545399Y-78808399D01*
X163550000Y-78810897D01*
X163554464Y-78813633D01*
X163558779Y-78816598D01*
X163562932Y-78819785D01*
X163566913Y-78823186D01*
X163570711Y-78826789D01*
X163574314Y-78830587D01*
X163577715Y-78834568D01*
X163580902Y-78838721D01*
X163583867Y-78843036D01*
X163586603Y-78847500D01*
X163589101Y-78852101D01*
X163591355Y-78856826D01*
X163593358Y-78861663D01*
X163595106Y-78866598D01*
X163596593Y-78871618D01*
X163597815Y-78876709D01*
X163598769Y-78881857D01*
X163599452Y-78887047D01*
X163599863Y-78892266D01*
X163600000Y-78897500D01*
X163600000Y-79097500D01*
X163599863Y-79102734D01*
X163599452Y-79107953D01*
X163598769Y-79113143D01*
X163597815Y-79118291D01*
X163596593Y-79123382D01*
X163595106Y-79128402D01*
X163593358Y-79133337D01*
X163591355Y-79138174D01*
X163589101Y-79142899D01*
X163586603Y-79147500D01*
X163583867Y-79151964D01*
X163580902Y-79156279D01*
X163577715Y-79160432D01*
X163574314Y-79164413D01*
X163570711Y-79168211D01*
X163566913Y-79171814D01*
X163562932Y-79175215D01*
X163558779Y-79178402D01*
X163554464Y-79181367D01*
X163550000Y-79184103D01*
X163545399Y-79186601D01*
X163540674Y-79188855D01*
X163535837Y-79190858D01*
X163530902Y-79192606D01*
X163525882Y-79194093D01*
X163520791Y-79195315D01*
X163515643Y-79196269D01*
X163510453Y-79196952D01*
X163505234Y-79197363D01*
X163500000Y-79197500D01*
X163150000Y-79197500D01*
X163144766Y-79197363D01*
X163139547Y-79196952D01*
X163134357Y-79196269D01*
X163129209Y-79195315D01*
X163124118Y-79194093D01*
X163119098Y-79192606D01*
X163114163Y-79190858D01*
X163109326Y-79188855D01*
X163104601Y-79186601D01*
X163100000Y-79184103D01*
X163095536Y-79181367D01*
X163091221Y-79178402D01*
X163087068Y-79175215D01*
X163083087Y-79171814D01*
X163079289Y-79168211D01*
X163075686Y-79164413D01*
X163072285Y-79160432D01*
X163069098Y-79156279D01*
X163066133Y-79151964D01*
X163063397Y-79147500D01*
X163060899Y-79142899D01*
X163058645Y-79138174D01*
X163056642Y-79133337D01*
X163054894Y-79128402D01*
X163053407Y-79123382D01*
X163052185Y-79118291D01*
X163051231Y-79113143D01*
X163050548Y-79107953D01*
X163050137Y-79102734D01*
X163050000Y-79097500D01*
X163050000Y-78897500D01*
X163050137Y-78892266D01*
X163050548Y-78887047D01*
X163051231Y-78881857D01*
X163052185Y-78876709D01*
X163053407Y-78871618D01*
X163054894Y-78866598D01*
X163056642Y-78861663D01*
X163058645Y-78856826D01*
X163060899Y-78852101D01*
X163063397Y-78847500D01*
X163066133Y-78843036D01*
X163069098Y-78838721D01*
X163072285Y-78834568D01*
X163075686Y-78830587D01*
X163079289Y-78826789D01*
X163083087Y-78823186D01*
X163087068Y-78819785D01*
X163091221Y-78816598D01*
X163095536Y-78813633D01*
X163100000Y-78810897D01*
X163104601Y-78808399D01*
X163109326Y-78806145D01*
X163114163Y-78804142D01*
X163119098Y-78802394D01*
X163124118Y-78800907D01*
X163129209Y-78799685D01*
X163134357Y-78798731D01*
X163139547Y-78798048D01*
X163144766Y-78797637D01*
X163150000Y-78797500D01*
X163500000Y-78797500D01*
X163505234Y-78797637D01*
G36*
X164755234Y-78147637D02*
G01*
X164760453Y-78148048D01*
X164765643Y-78148731D01*
X164770791Y-78149685D01*
X164775882Y-78150907D01*
X164780902Y-78152394D01*
X164785837Y-78154142D01*
X164790674Y-78156145D01*
X164795399Y-78158399D01*
X164800000Y-78160897D01*
X164804464Y-78163633D01*
X164808779Y-78166598D01*
X164812932Y-78169785D01*
X164816913Y-78173186D01*
X164820711Y-78176789D01*
X164824314Y-78180587D01*
X164827715Y-78184568D01*
X164830902Y-78188721D01*
X164833867Y-78193036D01*
X164836603Y-78197500D01*
X164839101Y-78202101D01*
X164841355Y-78206826D01*
X164843358Y-78211663D01*
X164845106Y-78216598D01*
X164846593Y-78221618D01*
X164847815Y-78226709D01*
X164848769Y-78231857D01*
X164849452Y-78237047D01*
X164849863Y-78242266D01*
X164850000Y-78247500D01*
X164850000Y-79097500D01*
X164849863Y-79102734D01*
X164849452Y-79107953D01*
X164848769Y-79113143D01*
X164847815Y-79118291D01*
X164846593Y-79123382D01*
X164845106Y-79128402D01*
X164843358Y-79133337D01*
X164841355Y-79138174D01*
X164839101Y-79142899D01*
X164836603Y-79147500D01*
X164833867Y-79151964D01*
X164830902Y-79156279D01*
X164827715Y-79160432D01*
X164824314Y-79164413D01*
X164820711Y-79168211D01*
X164816913Y-79171814D01*
X164812932Y-79175215D01*
X164808779Y-79178402D01*
X164804464Y-79181367D01*
X164800000Y-79184103D01*
X164795399Y-79186601D01*
X164790674Y-79188855D01*
X164785837Y-79190858D01*
X164780902Y-79192606D01*
X164775882Y-79194093D01*
X164770791Y-79195315D01*
X164765643Y-79196269D01*
X164760453Y-79196952D01*
X164755234Y-79197363D01*
X164750000Y-79197500D01*
X163850000Y-79197500D01*
X163844766Y-79197363D01*
X163839547Y-79196952D01*
X163834357Y-79196269D01*
X163829209Y-79195315D01*
X163824118Y-79194093D01*
X163819098Y-79192606D01*
X163814163Y-79190858D01*
X163809326Y-79188855D01*
X163804601Y-79186601D01*
X163800000Y-79184103D01*
X163795536Y-79181367D01*
X163791221Y-79178402D01*
X163787068Y-79175215D01*
X163783087Y-79171814D01*
X163779289Y-79168211D01*
X163775686Y-79164413D01*
X163772285Y-79160432D01*
X163769098Y-79156279D01*
X163766133Y-79151964D01*
X163763397Y-79147500D01*
X163760899Y-79142899D01*
X163758645Y-79138174D01*
X163756642Y-79133337D01*
X163754894Y-79128402D01*
X163753407Y-79123382D01*
X163752185Y-79118291D01*
X163751231Y-79113143D01*
X163750548Y-79107953D01*
X163750137Y-79102734D01*
X163750000Y-79097500D01*
X163750000Y-78247500D01*
X163750137Y-78242266D01*
X163750548Y-78237047D01*
X163751231Y-78231857D01*
X163752185Y-78226709D01*
X163753407Y-78221618D01*
X163754894Y-78216598D01*
X163756642Y-78211663D01*
X163758645Y-78206826D01*
X163760899Y-78202101D01*
X163763397Y-78197500D01*
X163766133Y-78193036D01*
X163769098Y-78188721D01*
X163772285Y-78184568D01*
X163775686Y-78180587D01*
X163779289Y-78176789D01*
X163783087Y-78173186D01*
X163787068Y-78169785D01*
X163791221Y-78166598D01*
X163795536Y-78163633D01*
X163800000Y-78160897D01*
X163804601Y-78158399D01*
X163809326Y-78156145D01*
X163814163Y-78154142D01*
X163819098Y-78152394D01*
X163824118Y-78150907D01*
X163829209Y-78149685D01*
X163834357Y-78148731D01*
X163839547Y-78148048D01*
X163844766Y-78147637D01*
X163850000Y-78147500D01*
X164750000Y-78147500D01*
X164755234Y-78147637D01*
G37*
X164755234Y-78147637D02*
X164760453Y-78148048D01*
X164765643Y-78148731D01*
X164770791Y-78149685D01*
X164775882Y-78150907D01*
X164780902Y-78152394D01*
X164785837Y-78154142D01*
X164790674Y-78156145D01*
X164795399Y-78158399D01*
X164800000Y-78160897D01*
X164804464Y-78163633D01*
X164808779Y-78166598D01*
X164812932Y-78169785D01*
X164816913Y-78173186D01*
X164820711Y-78176789D01*
X164824314Y-78180587D01*
X164827715Y-78184568D01*
X164830902Y-78188721D01*
X164833867Y-78193036D01*
X164836603Y-78197500D01*
X164839101Y-78202101D01*
X164841355Y-78206826D01*
X164843358Y-78211663D01*
X164845106Y-78216598D01*
X164846593Y-78221618D01*
X164847815Y-78226709D01*
X164848769Y-78231857D01*
X164849452Y-78237047D01*
X164849863Y-78242266D01*
X164850000Y-78247500D01*
X164850000Y-79097500D01*
X164849863Y-79102734D01*
X164849452Y-79107953D01*
X164848769Y-79113143D01*
X164847815Y-79118291D01*
X164846593Y-79123382D01*
X164845106Y-79128402D01*
X164843358Y-79133337D01*
X164841355Y-79138174D01*
X164839101Y-79142899D01*
X164836603Y-79147500D01*
X164833867Y-79151964D01*
X164830902Y-79156279D01*
X164827715Y-79160432D01*
X164824314Y-79164413D01*
X164820711Y-79168211D01*
X164816913Y-79171814D01*
X164812932Y-79175215D01*
X164808779Y-79178402D01*
X164804464Y-79181367D01*
X164800000Y-79184103D01*
X164795399Y-79186601D01*
X164790674Y-79188855D01*
X164785837Y-79190858D01*
X164780902Y-79192606D01*
X164775882Y-79194093D01*
X164770791Y-79195315D01*
X164765643Y-79196269D01*
X164760453Y-79196952D01*
X164755234Y-79197363D01*
X164750000Y-79197500D01*
X163850000Y-79197500D01*
X163844766Y-79197363D01*
X163839547Y-79196952D01*
X163834357Y-79196269D01*
X163829209Y-79195315D01*
X163824118Y-79194093D01*
X163819098Y-79192606D01*
X163814163Y-79190858D01*
X163809326Y-79188855D01*
X163804601Y-79186601D01*
X163800000Y-79184103D01*
X163795536Y-79181367D01*
X163791221Y-79178402D01*
X163787068Y-79175215D01*
X163783087Y-79171814D01*
X163779289Y-79168211D01*
X163775686Y-79164413D01*
X163772285Y-79160432D01*
X163769098Y-79156279D01*
X163766133Y-79151964D01*
X163763397Y-79147500D01*
X163760899Y-79142899D01*
X163758645Y-79138174D01*
X163756642Y-79133337D01*
X163754894Y-79128402D01*
X163753407Y-79123382D01*
X163752185Y-79118291D01*
X163751231Y-79113143D01*
X163750548Y-79107953D01*
X163750137Y-79102734D01*
X163750000Y-79097500D01*
X163750000Y-78247500D01*
X163750137Y-78242266D01*
X163750548Y-78237047D01*
X163751231Y-78231857D01*
X163752185Y-78226709D01*
X163753407Y-78221618D01*
X163754894Y-78216598D01*
X163756642Y-78211663D01*
X163758645Y-78206826D01*
X163760899Y-78202101D01*
X163763397Y-78197500D01*
X163766133Y-78193036D01*
X163769098Y-78188721D01*
X163772285Y-78184568D01*
X163775686Y-78180587D01*
X163779289Y-78176789D01*
X163783087Y-78173186D01*
X163787068Y-78169785D01*
X163791221Y-78166598D01*
X163795536Y-78163633D01*
X163800000Y-78160897D01*
X163804601Y-78158399D01*
X163809326Y-78156145D01*
X163814163Y-78154142D01*
X163819098Y-78152394D01*
X163824118Y-78150907D01*
X163829209Y-78149685D01*
X163834357Y-78148731D01*
X163839547Y-78148048D01*
X163844766Y-78147637D01*
X163850000Y-78147500D01*
X164750000Y-78147500D01*
X164755234Y-78147637D01*
G36*
X165455234Y-79447637D02*
G01*
X165460453Y-79448048D01*
X165465643Y-79448731D01*
X165470791Y-79449685D01*
X165475882Y-79450907D01*
X165480902Y-79452394D01*
X165485837Y-79454142D01*
X165490674Y-79456145D01*
X165495399Y-79458399D01*
X165500000Y-79460897D01*
X165504464Y-79463633D01*
X165508779Y-79466598D01*
X165512932Y-79469785D01*
X165516913Y-79473186D01*
X165520711Y-79476789D01*
X165524314Y-79480587D01*
X165527715Y-79484568D01*
X165530902Y-79488721D01*
X165533867Y-79493036D01*
X165536603Y-79497500D01*
X165539101Y-79502101D01*
X165541355Y-79506826D01*
X165543358Y-79511663D01*
X165545106Y-79516598D01*
X165546593Y-79521618D01*
X165547815Y-79526709D01*
X165548769Y-79531857D01*
X165549452Y-79537047D01*
X165549863Y-79542266D01*
X165550000Y-79547500D01*
X165550000Y-79747500D01*
X165549863Y-79752734D01*
X165549452Y-79757953D01*
X165548769Y-79763143D01*
X165547815Y-79768291D01*
X165546593Y-79773382D01*
X165545106Y-79778402D01*
X165543358Y-79783337D01*
X165541355Y-79788174D01*
X165539101Y-79792899D01*
X165536603Y-79797500D01*
X165533867Y-79801964D01*
X165530902Y-79806279D01*
X165527715Y-79810432D01*
X165524314Y-79814413D01*
X165520711Y-79818211D01*
X165516913Y-79821814D01*
X165512932Y-79825215D01*
X165508779Y-79828402D01*
X165504464Y-79831367D01*
X165500000Y-79834103D01*
X165495399Y-79836601D01*
X165490674Y-79838855D01*
X165485837Y-79840858D01*
X165480902Y-79842606D01*
X165475882Y-79844093D01*
X165470791Y-79845315D01*
X165465643Y-79846269D01*
X165460453Y-79846952D01*
X165455234Y-79847363D01*
X165450000Y-79847500D01*
X165100000Y-79847500D01*
X165094766Y-79847363D01*
X165089547Y-79846952D01*
X165084357Y-79846269D01*
X165079209Y-79845315D01*
X165074118Y-79844093D01*
X165069098Y-79842606D01*
X165064163Y-79840858D01*
X165059326Y-79838855D01*
X165054601Y-79836601D01*
X165050000Y-79834103D01*
X165045536Y-79831367D01*
X165041221Y-79828402D01*
X165037068Y-79825215D01*
X165033087Y-79821814D01*
X165029289Y-79818211D01*
X165025686Y-79814413D01*
X165022285Y-79810432D01*
X165019098Y-79806279D01*
X165016133Y-79801964D01*
X165013397Y-79797500D01*
X165010899Y-79792899D01*
X165008645Y-79788174D01*
X165006642Y-79783337D01*
X165004894Y-79778402D01*
X165003407Y-79773382D01*
X165002185Y-79768291D01*
X165001231Y-79763143D01*
X165000548Y-79757953D01*
X165000137Y-79752734D01*
X165000000Y-79747500D01*
X165000000Y-79547500D01*
X165000137Y-79542266D01*
X165000548Y-79537047D01*
X165001231Y-79531857D01*
X165002185Y-79526709D01*
X165003407Y-79521618D01*
X165004894Y-79516598D01*
X165006642Y-79511663D01*
X165008645Y-79506826D01*
X165010899Y-79502101D01*
X165013397Y-79497500D01*
X165016133Y-79493036D01*
X165019098Y-79488721D01*
X165022285Y-79484568D01*
X165025686Y-79480587D01*
X165029289Y-79476789D01*
X165033087Y-79473186D01*
X165037068Y-79469785D01*
X165041221Y-79466598D01*
X165045536Y-79463633D01*
X165050000Y-79460897D01*
X165054601Y-79458399D01*
X165059326Y-79456145D01*
X165064163Y-79454142D01*
X165069098Y-79452394D01*
X165074118Y-79450907D01*
X165079209Y-79449685D01*
X165084357Y-79448731D01*
X165089547Y-79448048D01*
X165094766Y-79447637D01*
X165100000Y-79447500D01*
X165450000Y-79447500D01*
X165455234Y-79447637D01*
G37*
X165455234Y-79447637D02*
X165460453Y-79448048D01*
X165465643Y-79448731D01*
X165470791Y-79449685D01*
X165475882Y-79450907D01*
X165480902Y-79452394D01*
X165485837Y-79454142D01*
X165490674Y-79456145D01*
X165495399Y-79458399D01*
X165500000Y-79460897D01*
X165504464Y-79463633D01*
X165508779Y-79466598D01*
X165512932Y-79469785D01*
X165516913Y-79473186D01*
X165520711Y-79476789D01*
X165524314Y-79480587D01*
X165527715Y-79484568D01*
X165530902Y-79488721D01*
X165533867Y-79493036D01*
X165536603Y-79497500D01*
X165539101Y-79502101D01*
X165541355Y-79506826D01*
X165543358Y-79511663D01*
X165545106Y-79516598D01*
X165546593Y-79521618D01*
X165547815Y-79526709D01*
X165548769Y-79531857D01*
X165549452Y-79537047D01*
X165549863Y-79542266D01*
X165550000Y-79547500D01*
X165550000Y-79747500D01*
X165549863Y-79752734D01*
X165549452Y-79757953D01*
X165548769Y-79763143D01*
X165547815Y-79768291D01*
X165546593Y-79773382D01*
X165545106Y-79778402D01*
X165543358Y-79783337D01*
X165541355Y-79788174D01*
X165539101Y-79792899D01*
X165536603Y-79797500D01*
X165533867Y-79801964D01*
X165530902Y-79806279D01*
X165527715Y-79810432D01*
X165524314Y-79814413D01*
X165520711Y-79818211D01*
X165516913Y-79821814D01*
X165512932Y-79825215D01*
X165508779Y-79828402D01*
X165504464Y-79831367D01*
X165500000Y-79834103D01*
X165495399Y-79836601D01*
X165490674Y-79838855D01*
X165485837Y-79840858D01*
X165480902Y-79842606D01*
X165475882Y-79844093D01*
X165470791Y-79845315D01*
X165465643Y-79846269D01*
X165460453Y-79846952D01*
X165455234Y-79847363D01*
X165450000Y-79847500D01*
X165100000Y-79847500D01*
X165094766Y-79847363D01*
X165089547Y-79846952D01*
X165084357Y-79846269D01*
X165079209Y-79845315D01*
X165074118Y-79844093D01*
X165069098Y-79842606D01*
X165064163Y-79840858D01*
X165059326Y-79838855D01*
X165054601Y-79836601D01*
X165050000Y-79834103D01*
X165045536Y-79831367D01*
X165041221Y-79828402D01*
X165037068Y-79825215D01*
X165033087Y-79821814D01*
X165029289Y-79818211D01*
X165025686Y-79814413D01*
X165022285Y-79810432D01*
X165019098Y-79806279D01*
X165016133Y-79801964D01*
X165013397Y-79797500D01*
X165010899Y-79792899D01*
X165008645Y-79788174D01*
X165006642Y-79783337D01*
X165004894Y-79778402D01*
X165003407Y-79773382D01*
X165002185Y-79768291D01*
X165001231Y-79763143D01*
X165000548Y-79757953D01*
X165000137Y-79752734D01*
X165000000Y-79747500D01*
X165000000Y-79547500D01*
X165000137Y-79542266D01*
X165000548Y-79537047D01*
X165001231Y-79531857D01*
X165002185Y-79526709D01*
X165003407Y-79521618D01*
X165004894Y-79516598D01*
X165006642Y-79511663D01*
X165008645Y-79506826D01*
X165010899Y-79502101D01*
X165013397Y-79497500D01*
X165016133Y-79493036D01*
X165019098Y-79488721D01*
X165022285Y-79484568D01*
X165025686Y-79480587D01*
X165029289Y-79476789D01*
X165033087Y-79473186D01*
X165037068Y-79469785D01*
X165041221Y-79466598D01*
X165045536Y-79463633D01*
X165050000Y-79460897D01*
X165054601Y-79458399D01*
X165059326Y-79456145D01*
X165064163Y-79454142D01*
X165069098Y-79452394D01*
X165074118Y-79450907D01*
X165079209Y-79449685D01*
X165084357Y-79448731D01*
X165089547Y-79448048D01*
X165094766Y-79447637D01*
X165100000Y-79447500D01*
X165450000Y-79447500D01*
X165455234Y-79447637D01*
G36*
X163505234Y-79447637D02*
G01*
X163510453Y-79448048D01*
X163515643Y-79448731D01*
X163520791Y-79449685D01*
X163525882Y-79450907D01*
X163530902Y-79452394D01*
X163535837Y-79454142D01*
X163540674Y-79456145D01*
X163545399Y-79458399D01*
X163550000Y-79460897D01*
X163554464Y-79463633D01*
X163558779Y-79466598D01*
X163562932Y-79469785D01*
X163566913Y-79473186D01*
X163570711Y-79476789D01*
X163574314Y-79480587D01*
X163577715Y-79484568D01*
X163580902Y-79488721D01*
X163583867Y-79493036D01*
X163586603Y-79497500D01*
X163589101Y-79502101D01*
X163591355Y-79506826D01*
X163593358Y-79511663D01*
X163595106Y-79516598D01*
X163596593Y-79521618D01*
X163597815Y-79526709D01*
X163598769Y-79531857D01*
X163599452Y-79537047D01*
X163599863Y-79542266D01*
X163600000Y-79547500D01*
X163600000Y-79747500D01*
X163599863Y-79752734D01*
X163599452Y-79757953D01*
X163598769Y-79763143D01*
X163597815Y-79768291D01*
X163596593Y-79773382D01*
X163595106Y-79778402D01*
X163593358Y-79783337D01*
X163591355Y-79788174D01*
X163589101Y-79792899D01*
X163586603Y-79797500D01*
X163583867Y-79801964D01*
X163580902Y-79806279D01*
X163577715Y-79810432D01*
X163574314Y-79814413D01*
X163570711Y-79818211D01*
X163566913Y-79821814D01*
X163562932Y-79825215D01*
X163558779Y-79828402D01*
X163554464Y-79831367D01*
X163550000Y-79834103D01*
X163545399Y-79836601D01*
X163540674Y-79838855D01*
X163535837Y-79840858D01*
X163530902Y-79842606D01*
X163525882Y-79844093D01*
X163520791Y-79845315D01*
X163515643Y-79846269D01*
X163510453Y-79846952D01*
X163505234Y-79847363D01*
X163500000Y-79847500D01*
X163150000Y-79847500D01*
X163144766Y-79847363D01*
X163139547Y-79846952D01*
X163134357Y-79846269D01*
X163129209Y-79845315D01*
X163124118Y-79844093D01*
X163119098Y-79842606D01*
X163114163Y-79840858D01*
X163109326Y-79838855D01*
X163104601Y-79836601D01*
X163100000Y-79834103D01*
X163095536Y-79831367D01*
X163091221Y-79828402D01*
X163087068Y-79825215D01*
X163083087Y-79821814D01*
X163079289Y-79818211D01*
X163075686Y-79814413D01*
X163072285Y-79810432D01*
X163069098Y-79806279D01*
X163066133Y-79801964D01*
X163063397Y-79797500D01*
X163060899Y-79792899D01*
X163058645Y-79788174D01*
X163056642Y-79783337D01*
X163054894Y-79778402D01*
X163053407Y-79773382D01*
X163052185Y-79768291D01*
X163051231Y-79763143D01*
X163050548Y-79757953D01*
X163050137Y-79752734D01*
X163050000Y-79747500D01*
X163050000Y-79547500D01*
X163050137Y-79542266D01*
X163050548Y-79537047D01*
X163051231Y-79531857D01*
X163052185Y-79526709D01*
X163053407Y-79521618D01*
X163054894Y-79516598D01*
X163056642Y-79511663D01*
X163058645Y-79506826D01*
X163060899Y-79502101D01*
X163063397Y-79497500D01*
X163066133Y-79493036D01*
X163069098Y-79488721D01*
X163072285Y-79484568D01*
X163075686Y-79480587D01*
X163079289Y-79476789D01*
X163083087Y-79473186D01*
X163087068Y-79469785D01*
X163091221Y-79466598D01*
X163095536Y-79463633D01*
X163100000Y-79460897D01*
X163104601Y-79458399D01*
X163109326Y-79456145D01*
X163114163Y-79454142D01*
X163119098Y-79452394D01*
X163124118Y-79450907D01*
X163129209Y-79449685D01*
X163134357Y-79448731D01*
X163139547Y-79448048D01*
X163144766Y-79447637D01*
X163150000Y-79447500D01*
X163500000Y-79447500D01*
X163505234Y-79447637D01*
G37*
X163505234Y-79447637D02*
X163510453Y-79448048D01*
X163515643Y-79448731D01*
X163520791Y-79449685D01*
X163525882Y-79450907D01*
X163530902Y-79452394D01*
X163535837Y-79454142D01*
X163540674Y-79456145D01*
X163545399Y-79458399D01*
X163550000Y-79460897D01*
X163554464Y-79463633D01*
X163558779Y-79466598D01*
X163562932Y-79469785D01*
X163566913Y-79473186D01*
X163570711Y-79476789D01*
X163574314Y-79480587D01*
X163577715Y-79484568D01*
X163580902Y-79488721D01*
X163583867Y-79493036D01*
X163586603Y-79497500D01*
X163589101Y-79502101D01*
X163591355Y-79506826D01*
X163593358Y-79511663D01*
X163595106Y-79516598D01*
X163596593Y-79521618D01*
X163597815Y-79526709D01*
X163598769Y-79531857D01*
X163599452Y-79537047D01*
X163599863Y-79542266D01*
X163600000Y-79547500D01*
X163600000Y-79747500D01*
X163599863Y-79752734D01*
X163599452Y-79757953D01*
X163598769Y-79763143D01*
X163597815Y-79768291D01*
X163596593Y-79773382D01*
X163595106Y-79778402D01*
X163593358Y-79783337D01*
X163591355Y-79788174D01*
X163589101Y-79792899D01*
X163586603Y-79797500D01*
X163583867Y-79801964D01*
X163580902Y-79806279D01*
X163577715Y-79810432D01*
X163574314Y-79814413D01*
X163570711Y-79818211D01*
X163566913Y-79821814D01*
X163562932Y-79825215D01*
X163558779Y-79828402D01*
X163554464Y-79831367D01*
X163550000Y-79834103D01*
X163545399Y-79836601D01*
X163540674Y-79838855D01*
X163535837Y-79840858D01*
X163530902Y-79842606D01*
X163525882Y-79844093D01*
X163520791Y-79845315D01*
X163515643Y-79846269D01*
X163510453Y-79846952D01*
X163505234Y-79847363D01*
X163500000Y-79847500D01*
X163150000Y-79847500D01*
X163144766Y-79847363D01*
X163139547Y-79846952D01*
X163134357Y-79846269D01*
X163129209Y-79845315D01*
X163124118Y-79844093D01*
X163119098Y-79842606D01*
X163114163Y-79840858D01*
X163109326Y-79838855D01*
X163104601Y-79836601D01*
X163100000Y-79834103D01*
X163095536Y-79831367D01*
X163091221Y-79828402D01*
X163087068Y-79825215D01*
X163083087Y-79821814D01*
X163079289Y-79818211D01*
X163075686Y-79814413D01*
X163072285Y-79810432D01*
X163069098Y-79806279D01*
X163066133Y-79801964D01*
X163063397Y-79797500D01*
X163060899Y-79792899D01*
X163058645Y-79788174D01*
X163056642Y-79783337D01*
X163054894Y-79778402D01*
X163053407Y-79773382D01*
X163052185Y-79768291D01*
X163051231Y-79763143D01*
X163050548Y-79757953D01*
X163050137Y-79752734D01*
X163050000Y-79747500D01*
X163050000Y-79547500D01*
X163050137Y-79542266D01*
X163050548Y-79537047D01*
X163051231Y-79531857D01*
X163052185Y-79526709D01*
X163053407Y-79521618D01*
X163054894Y-79516598D01*
X163056642Y-79511663D01*
X163058645Y-79506826D01*
X163060899Y-79502101D01*
X163063397Y-79497500D01*
X163066133Y-79493036D01*
X163069098Y-79488721D01*
X163072285Y-79484568D01*
X163075686Y-79480587D01*
X163079289Y-79476789D01*
X163083087Y-79473186D01*
X163087068Y-79469785D01*
X163091221Y-79466598D01*
X163095536Y-79463633D01*
X163100000Y-79460897D01*
X163104601Y-79458399D01*
X163109326Y-79456145D01*
X163114163Y-79454142D01*
X163119098Y-79452394D01*
X163124118Y-79450907D01*
X163129209Y-79449685D01*
X163134357Y-79448731D01*
X163139547Y-79448048D01*
X163144766Y-79447637D01*
X163150000Y-79447500D01*
X163500000Y-79447500D01*
X163505234Y-79447637D01*
G36*
X163505234Y-78147637D02*
G01*
X163510453Y-78148048D01*
X163515643Y-78148731D01*
X163520791Y-78149685D01*
X163525882Y-78150907D01*
X163530902Y-78152394D01*
X163535837Y-78154142D01*
X163540674Y-78156145D01*
X163545399Y-78158399D01*
X163550000Y-78160897D01*
X163554464Y-78163633D01*
X163558779Y-78166598D01*
X163562932Y-78169785D01*
X163566913Y-78173186D01*
X163570711Y-78176789D01*
X163574314Y-78180587D01*
X163577715Y-78184568D01*
X163580902Y-78188721D01*
X163583867Y-78193036D01*
X163586603Y-78197500D01*
X163589101Y-78202101D01*
X163591355Y-78206826D01*
X163593358Y-78211663D01*
X163595106Y-78216598D01*
X163596593Y-78221618D01*
X163597815Y-78226709D01*
X163598769Y-78231857D01*
X163599452Y-78237047D01*
X163599863Y-78242266D01*
X163600000Y-78247500D01*
X163600000Y-78447500D01*
X163599863Y-78452734D01*
X163599452Y-78457953D01*
X163598769Y-78463143D01*
X163597815Y-78468291D01*
X163596593Y-78473382D01*
X163595106Y-78478402D01*
X163593358Y-78483337D01*
X163591355Y-78488174D01*
X163589101Y-78492899D01*
X163586603Y-78497500D01*
X163583867Y-78501964D01*
X163580902Y-78506279D01*
X163577715Y-78510432D01*
X163574314Y-78514413D01*
X163570711Y-78518211D01*
X163566913Y-78521814D01*
X163562932Y-78525215D01*
X163558779Y-78528402D01*
X163554464Y-78531367D01*
X163550000Y-78534103D01*
X163545399Y-78536601D01*
X163540674Y-78538855D01*
X163535837Y-78540858D01*
X163530902Y-78542606D01*
X163525882Y-78544093D01*
X163520791Y-78545315D01*
X163515643Y-78546269D01*
X163510453Y-78546952D01*
X163505234Y-78547363D01*
X163500000Y-78547500D01*
X163150000Y-78547500D01*
X163144766Y-78547363D01*
X163139547Y-78546952D01*
X163134357Y-78546269D01*
X163129209Y-78545315D01*
X163124118Y-78544093D01*
X163119098Y-78542606D01*
X163114163Y-78540858D01*
X163109326Y-78538855D01*
X163104601Y-78536601D01*
X163100000Y-78534103D01*
X163095536Y-78531367D01*
X163091221Y-78528402D01*
X163087068Y-78525215D01*
X163083087Y-78521814D01*
X163079289Y-78518211D01*
X163075686Y-78514413D01*
X163072285Y-78510432D01*
X163069098Y-78506279D01*
X163066133Y-78501964D01*
X163063397Y-78497500D01*
X163060899Y-78492899D01*
X163058645Y-78488174D01*
X163056642Y-78483337D01*
X163054894Y-78478402D01*
X163053407Y-78473382D01*
X163052185Y-78468291D01*
X163051231Y-78463143D01*
X163050548Y-78457953D01*
X163050137Y-78452734D01*
X163050000Y-78447500D01*
X163050000Y-78247500D01*
X163050137Y-78242266D01*
X163050548Y-78237047D01*
X163051231Y-78231857D01*
X163052185Y-78226709D01*
X163053407Y-78221618D01*
X163054894Y-78216598D01*
X163056642Y-78211663D01*
X163058645Y-78206826D01*
X163060899Y-78202101D01*
X163063397Y-78197500D01*
X163066133Y-78193036D01*
X163069098Y-78188721D01*
X163072285Y-78184568D01*
X163075686Y-78180587D01*
X163079289Y-78176789D01*
X163083087Y-78173186D01*
X163087068Y-78169785D01*
X163091221Y-78166598D01*
X163095536Y-78163633D01*
X163100000Y-78160897D01*
X163104601Y-78158399D01*
X163109326Y-78156145D01*
X163114163Y-78154142D01*
X163119098Y-78152394D01*
X163124118Y-78150907D01*
X163129209Y-78149685D01*
X163134357Y-78148731D01*
X163139547Y-78148048D01*
X163144766Y-78147637D01*
X163150000Y-78147500D01*
X163500000Y-78147500D01*
X163505234Y-78147637D01*
G37*
X163505234Y-78147637D02*
X163510453Y-78148048D01*
X163515643Y-78148731D01*
X163520791Y-78149685D01*
X163525882Y-78150907D01*
X163530902Y-78152394D01*
X163535837Y-78154142D01*
X163540674Y-78156145D01*
X163545399Y-78158399D01*
X163550000Y-78160897D01*
X163554464Y-78163633D01*
X163558779Y-78166598D01*
X163562932Y-78169785D01*
X163566913Y-78173186D01*
X163570711Y-78176789D01*
X163574314Y-78180587D01*
X163577715Y-78184568D01*
X163580902Y-78188721D01*
X163583867Y-78193036D01*
X163586603Y-78197500D01*
X163589101Y-78202101D01*
X163591355Y-78206826D01*
X163593358Y-78211663D01*
X163595106Y-78216598D01*
X163596593Y-78221618D01*
X163597815Y-78226709D01*
X163598769Y-78231857D01*
X163599452Y-78237047D01*
X163599863Y-78242266D01*
X163600000Y-78247500D01*
X163600000Y-78447500D01*
X163599863Y-78452734D01*
X163599452Y-78457953D01*
X163598769Y-78463143D01*
X163597815Y-78468291D01*
X163596593Y-78473382D01*
X163595106Y-78478402D01*
X163593358Y-78483337D01*
X163591355Y-78488174D01*
X163589101Y-78492899D01*
X163586603Y-78497500D01*
X163583867Y-78501964D01*
X163580902Y-78506279D01*
X163577715Y-78510432D01*
X163574314Y-78514413D01*
X163570711Y-78518211D01*
X163566913Y-78521814D01*
X163562932Y-78525215D01*
X163558779Y-78528402D01*
X163554464Y-78531367D01*
X163550000Y-78534103D01*
X163545399Y-78536601D01*
X163540674Y-78538855D01*
X163535837Y-78540858D01*
X163530902Y-78542606D01*
X163525882Y-78544093D01*
X163520791Y-78545315D01*
X163515643Y-78546269D01*
X163510453Y-78546952D01*
X163505234Y-78547363D01*
X163500000Y-78547500D01*
X163150000Y-78547500D01*
X163144766Y-78547363D01*
X163139547Y-78546952D01*
X163134357Y-78546269D01*
X163129209Y-78545315D01*
X163124118Y-78544093D01*
X163119098Y-78542606D01*
X163114163Y-78540858D01*
X163109326Y-78538855D01*
X163104601Y-78536601D01*
X163100000Y-78534103D01*
X163095536Y-78531367D01*
X163091221Y-78528402D01*
X163087068Y-78525215D01*
X163083087Y-78521814D01*
X163079289Y-78518211D01*
X163075686Y-78514413D01*
X163072285Y-78510432D01*
X163069098Y-78506279D01*
X163066133Y-78501964D01*
X163063397Y-78497500D01*
X163060899Y-78492899D01*
X163058645Y-78488174D01*
X163056642Y-78483337D01*
X163054894Y-78478402D01*
X163053407Y-78473382D01*
X163052185Y-78468291D01*
X163051231Y-78463143D01*
X163050548Y-78457953D01*
X163050137Y-78452734D01*
X163050000Y-78447500D01*
X163050000Y-78247500D01*
X163050137Y-78242266D01*
X163050548Y-78237047D01*
X163051231Y-78231857D01*
X163052185Y-78226709D01*
X163053407Y-78221618D01*
X163054894Y-78216598D01*
X163056642Y-78211663D01*
X163058645Y-78206826D01*
X163060899Y-78202101D01*
X163063397Y-78197500D01*
X163066133Y-78193036D01*
X163069098Y-78188721D01*
X163072285Y-78184568D01*
X163075686Y-78180587D01*
X163079289Y-78176789D01*
X163083087Y-78173186D01*
X163087068Y-78169785D01*
X163091221Y-78166598D01*
X163095536Y-78163633D01*
X163100000Y-78160897D01*
X163104601Y-78158399D01*
X163109326Y-78156145D01*
X163114163Y-78154142D01*
X163119098Y-78152394D01*
X163124118Y-78150907D01*
X163129209Y-78149685D01*
X163134357Y-78148731D01*
X163139547Y-78148048D01*
X163144766Y-78147637D01*
X163150000Y-78147500D01*
X163500000Y-78147500D01*
X163505234Y-78147637D01*
G36*
X165455234Y-78147637D02*
G01*
X165460453Y-78148048D01*
X165465643Y-78148731D01*
X165470791Y-78149685D01*
X165475882Y-78150907D01*
X165480902Y-78152394D01*
X165485837Y-78154142D01*
X165490674Y-78156145D01*
X165495399Y-78158399D01*
X165500000Y-78160897D01*
X165504464Y-78163633D01*
X165508779Y-78166598D01*
X165512932Y-78169785D01*
X165516913Y-78173186D01*
X165520711Y-78176789D01*
X165524314Y-78180587D01*
X165527715Y-78184568D01*
X165530902Y-78188721D01*
X165533867Y-78193036D01*
X165536603Y-78197500D01*
X165539101Y-78202101D01*
X165541355Y-78206826D01*
X165543358Y-78211663D01*
X165545106Y-78216598D01*
X165546593Y-78221618D01*
X165547815Y-78226709D01*
X165548769Y-78231857D01*
X165549452Y-78237047D01*
X165549863Y-78242266D01*
X165550000Y-78247500D01*
X165550000Y-78447500D01*
X165549863Y-78452734D01*
X165549452Y-78457953D01*
X165548769Y-78463143D01*
X165547815Y-78468291D01*
X165546593Y-78473382D01*
X165545106Y-78478402D01*
X165543358Y-78483337D01*
X165541355Y-78488174D01*
X165539101Y-78492899D01*
X165536603Y-78497500D01*
X165533867Y-78501964D01*
X165530902Y-78506279D01*
X165527715Y-78510432D01*
X165524314Y-78514413D01*
X165520711Y-78518211D01*
X165516913Y-78521814D01*
X165512932Y-78525215D01*
X165508779Y-78528402D01*
X165504464Y-78531367D01*
X165500000Y-78534103D01*
X165495399Y-78536601D01*
X165490674Y-78538855D01*
X165485837Y-78540858D01*
X165480902Y-78542606D01*
X165475882Y-78544093D01*
X165470791Y-78545315D01*
X165465643Y-78546269D01*
X165460453Y-78546952D01*
X165455234Y-78547363D01*
X165450000Y-78547500D01*
X165100000Y-78547500D01*
X165094766Y-78547363D01*
X165089547Y-78546952D01*
X165084357Y-78546269D01*
X165079209Y-78545315D01*
X165074118Y-78544093D01*
X165069098Y-78542606D01*
X165064163Y-78540858D01*
X165059326Y-78538855D01*
X165054601Y-78536601D01*
X165050000Y-78534103D01*
X165045536Y-78531367D01*
X165041221Y-78528402D01*
X165037068Y-78525215D01*
X165033087Y-78521814D01*
X165029289Y-78518211D01*
X165025686Y-78514413D01*
X165022285Y-78510432D01*
X165019098Y-78506279D01*
X165016133Y-78501964D01*
X165013397Y-78497500D01*
X165010899Y-78492899D01*
X165008645Y-78488174D01*
X165006642Y-78483337D01*
X165004894Y-78478402D01*
X165003407Y-78473382D01*
X165002185Y-78468291D01*
X165001231Y-78463143D01*
X165000548Y-78457953D01*
X165000137Y-78452734D01*
X165000000Y-78447500D01*
X165000000Y-78247500D01*
X165000137Y-78242266D01*
X165000548Y-78237047D01*
X165001231Y-78231857D01*
X165002185Y-78226709D01*
X165003407Y-78221618D01*
X165004894Y-78216598D01*
X165006642Y-78211663D01*
X165008645Y-78206826D01*
X165010899Y-78202101D01*
X165013397Y-78197500D01*
X165016133Y-78193036D01*
X165019098Y-78188721D01*
X165022285Y-78184568D01*
X165025686Y-78180587D01*
X165029289Y-78176789D01*
X165033087Y-78173186D01*
X165037068Y-78169785D01*
X165041221Y-78166598D01*
X165045536Y-78163633D01*
X165050000Y-78160897D01*
X165054601Y-78158399D01*
X165059326Y-78156145D01*
X165064163Y-78154142D01*
X165069098Y-78152394D01*
X165074118Y-78150907D01*
X165079209Y-78149685D01*
X165084357Y-78148731D01*
X165089547Y-78148048D01*
X165094766Y-78147637D01*
X165100000Y-78147500D01*
X165450000Y-78147500D01*
X165455234Y-78147637D01*
G37*
X165455234Y-78147637D02*
X165460453Y-78148048D01*
X165465643Y-78148731D01*
X165470791Y-78149685D01*
X165475882Y-78150907D01*
X165480902Y-78152394D01*
X165485837Y-78154142D01*
X165490674Y-78156145D01*
X165495399Y-78158399D01*
X165500000Y-78160897D01*
X165504464Y-78163633D01*
X165508779Y-78166598D01*
X165512932Y-78169785D01*
X165516913Y-78173186D01*
X165520711Y-78176789D01*
X165524314Y-78180587D01*
X165527715Y-78184568D01*
X165530902Y-78188721D01*
X165533867Y-78193036D01*
X165536603Y-78197500D01*
X165539101Y-78202101D01*
X165541355Y-78206826D01*
X165543358Y-78211663D01*
X165545106Y-78216598D01*
X165546593Y-78221618D01*
X165547815Y-78226709D01*
X165548769Y-78231857D01*
X165549452Y-78237047D01*
X165549863Y-78242266D01*
X165550000Y-78247500D01*
X165550000Y-78447500D01*
X165549863Y-78452734D01*
X165549452Y-78457953D01*
X165548769Y-78463143D01*
X165547815Y-78468291D01*
X165546593Y-78473382D01*
X165545106Y-78478402D01*
X165543358Y-78483337D01*
X165541355Y-78488174D01*
X165539101Y-78492899D01*
X165536603Y-78497500D01*
X165533867Y-78501964D01*
X165530902Y-78506279D01*
X165527715Y-78510432D01*
X165524314Y-78514413D01*
X165520711Y-78518211D01*
X165516913Y-78521814D01*
X165512932Y-78525215D01*
X165508779Y-78528402D01*
X165504464Y-78531367D01*
X165500000Y-78534103D01*
X165495399Y-78536601D01*
X165490674Y-78538855D01*
X165485837Y-78540858D01*
X165480902Y-78542606D01*
X165475882Y-78544093D01*
X165470791Y-78545315D01*
X165465643Y-78546269D01*
X165460453Y-78546952D01*
X165455234Y-78547363D01*
X165450000Y-78547500D01*
X165100000Y-78547500D01*
X165094766Y-78547363D01*
X165089547Y-78546952D01*
X165084357Y-78546269D01*
X165079209Y-78545315D01*
X165074118Y-78544093D01*
X165069098Y-78542606D01*
X165064163Y-78540858D01*
X165059326Y-78538855D01*
X165054601Y-78536601D01*
X165050000Y-78534103D01*
X165045536Y-78531367D01*
X165041221Y-78528402D01*
X165037068Y-78525215D01*
X165033087Y-78521814D01*
X165029289Y-78518211D01*
X165025686Y-78514413D01*
X165022285Y-78510432D01*
X165019098Y-78506279D01*
X165016133Y-78501964D01*
X165013397Y-78497500D01*
X165010899Y-78492899D01*
X165008645Y-78488174D01*
X165006642Y-78483337D01*
X165004894Y-78478402D01*
X165003407Y-78473382D01*
X165002185Y-78468291D01*
X165001231Y-78463143D01*
X165000548Y-78457953D01*
X165000137Y-78452734D01*
X165000000Y-78447500D01*
X165000000Y-78247500D01*
X165000137Y-78242266D01*
X165000548Y-78237047D01*
X165001231Y-78231857D01*
X165002185Y-78226709D01*
X165003407Y-78221618D01*
X165004894Y-78216598D01*
X165006642Y-78211663D01*
X165008645Y-78206826D01*
X165010899Y-78202101D01*
X165013397Y-78197500D01*
X165016133Y-78193036D01*
X165019098Y-78188721D01*
X165022285Y-78184568D01*
X165025686Y-78180587D01*
X165029289Y-78176789D01*
X165033087Y-78173186D01*
X165037068Y-78169785D01*
X165041221Y-78166598D01*
X165045536Y-78163633D01*
X165050000Y-78160897D01*
X165054601Y-78158399D01*
X165059326Y-78156145D01*
X165064163Y-78154142D01*
X165069098Y-78152394D01*
X165074118Y-78150907D01*
X165079209Y-78149685D01*
X165084357Y-78148731D01*
X165089547Y-78148048D01*
X165094766Y-78147637D01*
X165100000Y-78147500D01*
X165450000Y-78147500D01*
X165455234Y-78147637D01*
G36*
X164725234Y-79447637D02*
G01*
X164730453Y-79448048D01*
X164735643Y-79448731D01*
X164740791Y-79449685D01*
X164745882Y-79450907D01*
X164750902Y-79452394D01*
X164755837Y-79454142D01*
X164760674Y-79456145D01*
X164765399Y-79458399D01*
X164770000Y-79460897D01*
X164774464Y-79463633D01*
X164778779Y-79466598D01*
X164782932Y-79469785D01*
X164786913Y-79473186D01*
X164790711Y-79476789D01*
X164794314Y-79480587D01*
X164797715Y-79484568D01*
X164800902Y-79488721D01*
X164803867Y-79493036D01*
X164806603Y-79497500D01*
X164809101Y-79502101D01*
X164811355Y-79506826D01*
X164813358Y-79511663D01*
X164815106Y-79516598D01*
X164816593Y-79521618D01*
X164817815Y-79526709D01*
X164818769Y-79531857D01*
X164819452Y-79537047D01*
X164819863Y-79542266D01*
X164820000Y-79547500D01*
X164820000Y-79747500D01*
X164819863Y-79752734D01*
X164819452Y-79757953D01*
X164818769Y-79763143D01*
X164817815Y-79768291D01*
X164816593Y-79773382D01*
X164815106Y-79778402D01*
X164813358Y-79783337D01*
X164811355Y-79788174D01*
X164809101Y-79792899D01*
X164806603Y-79797500D01*
X164803867Y-79801964D01*
X164800902Y-79806279D01*
X164797715Y-79810432D01*
X164794314Y-79814413D01*
X164790711Y-79818211D01*
X164786913Y-79821814D01*
X164782932Y-79825215D01*
X164778779Y-79828402D01*
X164774464Y-79831367D01*
X164770000Y-79834103D01*
X164765399Y-79836601D01*
X164760674Y-79838855D01*
X164755837Y-79840858D01*
X164750902Y-79842606D01*
X164745882Y-79844093D01*
X164740791Y-79845315D01*
X164735643Y-79846269D01*
X164730453Y-79846952D01*
X164725234Y-79847363D01*
X164720000Y-79847500D01*
X164070000Y-79847500D01*
X164064766Y-79847363D01*
X164059547Y-79846952D01*
X164054357Y-79846269D01*
X164049209Y-79845315D01*
X164044118Y-79844093D01*
X164039098Y-79842606D01*
X164034163Y-79840858D01*
X164029326Y-79838855D01*
X164024601Y-79836601D01*
X164020000Y-79834103D01*
X164015536Y-79831367D01*
X164011221Y-79828402D01*
X164007068Y-79825215D01*
X164003087Y-79821814D01*
X163999289Y-79818211D01*
X163995686Y-79814413D01*
X163992285Y-79810432D01*
X163989098Y-79806279D01*
X163986133Y-79801964D01*
X163983397Y-79797500D01*
X163980899Y-79792899D01*
X163978645Y-79788174D01*
X163976642Y-79783337D01*
X163974894Y-79778402D01*
X163973407Y-79773382D01*
X163972185Y-79768291D01*
X163971231Y-79763143D01*
X163970548Y-79757953D01*
X163970137Y-79752734D01*
X163970000Y-79747500D01*
X163970000Y-79547500D01*
X163970137Y-79542266D01*
X163970548Y-79537047D01*
X163971231Y-79531857D01*
X163972185Y-79526709D01*
X163973407Y-79521618D01*
X163974894Y-79516598D01*
X163976642Y-79511663D01*
X163978645Y-79506826D01*
X163980899Y-79502101D01*
X163983397Y-79497500D01*
X163986133Y-79493036D01*
X163989098Y-79488721D01*
X163992285Y-79484568D01*
X163995686Y-79480587D01*
X163999289Y-79476789D01*
X164003087Y-79473186D01*
X164007068Y-79469785D01*
X164011221Y-79466598D01*
X164015536Y-79463633D01*
X164020000Y-79460897D01*
X164024601Y-79458399D01*
X164029326Y-79456145D01*
X164034163Y-79454142D01*
X164039098Y-79452394D01*
X164044118Y-79450907D01*
X164049209Y-79449685D01*
X164054357Y-79448731D01*
X164059547Y-79448048D01*
X164064766Y-79447637D01*
X164070000Y-79447500D01*
X164720000Y-79447500D01*
X164725234Y-79447637D01*
G37*
X164725234Y-79447637D02*
X164730453Y-79448048D01*
X164735643Y-79448731D01*
X164740791Y-79449685D01*
X164745882Y-79450907D01*
X164750902Y-79452394D01*
X164755837Y-79454142D01*
X164760674Y-79456145D01*
X164765399Y-79458399D01*
X164770000Y-79460897D01*
X164774464Y-79463633D01*
X164778779Y-79466598D01*
X164782932Y-79469785D01*
X164786913Y-79473186D01*
X164790711Y-79476789D01*
X164794314Y-79480587D01*
X164797715Y-79484568D01*
X164800902Y-79488721D01*
X164803867Y-79493036D01*
X164806603Y-79497500D01*
X164809101Y-79502101D01*
X164811355Y-79506826D01*
X164813358Y-79511663D01*
X164815106Y-79516598D01*
X164816593Y-79521618D01*
X164817815Y-79526709D01*
X164818769Y-79531857D01*
X164819452Y-79537047D01*
X164819863Y-79542266D01*
X164820000Y-79547500D01*
X164820000Y-79747500D01*
X164819863Y-79752734D01*
X164819452Y-79757953D01*
X164818769Y-79763143D01*
X164817815Y-79768291D01*
X164816593Y-79773382D01*
X164815106Y-79778402D01*
X164813358Y-79783337D01*
X164811355Y-79788174D01*
X164809101Y-79792899D01*
X164806603Y-79797500D01*
X164803867Y-79801964D01*
X164800902Y-79806279D01*
X164797715Y-79810432D01*
X164794314Y-79814413D01*
X164790711Y-79818211D01*
X164786913Y-79821814D01*
X164782932Y-79825215D01*
X164778779Y-79828402D01*
X164774464Y-79831367D01*
X164770000Y-79834103D01*
X164765399Y-79836601D01*
X164760674Y-79838855D01*
X164755837Y-79840858D01*
X164750902Y-79842606D01*
X164745882Y-79844093D01*
X164740791Y-79845315D01*
X164735643Y-79846269D01*
X164730453Y-79846952D01*
X164725234Y-79847363D01*
X164720000Y-79847500D01*
X164070000Y-79847500D01*
X164064766Y-79847363D01*
X164059547Y-79846952D01*
X164054357Y-79846269D01*
X164049209Y-79845315D01*
X164044118Y-79844093D01*
X164039098Y-79842606D01*
X164034163Y-79840858D01*
X164029326Y-79838855D01*
X164024601Y-79836601D01*
X164020000Y-79834103D01*
X164015536Y-79831367D01*
X164011221Y-79828402D01*
X164007068Y-79825215D01*
X164003087Y-79821814D01*
X163999289Y-79818211D01*
X163995686Y-79814413D01*
X163992285Y-79810432D01*
X163989098Y-79806279D01*
X163986133Y-79801964D01*
X163983397Y-79797500D01*
X163980899Y-79792899D01*
X163978645Y-79788174D01*
X163976642Y-79783337D01*
X163974894Y-79778402D01*
X163973407Y-79773382D01*
X163972185Y-79768291D01*
X163971231Y-79763143D01*
X163970548Y-79757953D01*
X163970137Y-79752734D01*
X163970000Y-79747500D01*
X163970000Y-79547500D01*
X163970137Y-79542266D01*
X163970548Y-79537047D01*
X163971231Y-79531857D01*
X163972185Y-79526709D01*
X163973407Y-79521618D01*
X163974894Y-79516598D01*
X163976642Y-79511663D01*
X163978645Y-79506826D01*
X163980899Y-79502101D01*
X163983397Y-79497500D01*
X163986133Y-79493036D01*
X163989098Y-79488721D01*
X163992285Y-79484568D01*
X163995686Y-79480587D01*
X163999289Y-79476789D01*
X164003087Y-79473186D01*
X164007068Y-79469785D01*
X164011221Y-79466598D01*
X164015536Y-79463633D01*
X164020000Y-79460897D01*
X164024601Y-79458399D01*
X164029326Y-79456145D01*
X164034163Y-79454142D01*
X164039098Y-79452394D01*
X164044118Y-79450907D01*
X164049209Y-79449685D01*
X164054357Y-79448731D01*
X164059547Y-79448048D01*
X164064766Y-79447637D01*
X164070000Y-79447500D01*
X164720000Y-79447500D01*
X164725234Y-79447637D01*
G36*
X165455234Y-78797637D02*
G01*
X165460453Y-78798048D01*
X165465643Y-78798731D01*
X165470791Y-78799685D01*
X165475882Y-78800907D01*
X165480902Y-78802394D01*
X165485837Y-78804142D01*
X165490674Y-78806145D01*
X165495399Y-78808399D01*
X165500000Y-78810897D01*
X165504464Y-78813633D01*
X165508779Y-78816598D01*
X165512932Y-78819785D01*
X165516913Y-78823186D01*
X165520711Y-78826789D01*
X165524314Y-78830587D01*
X165527715Y-78834568D01*
X165530902Y-78838721D01*
X165533867Y-78843036D01*
X165536603Y-78847500D01*
X165539101Y-78852101D01*
X165541355Y-78856826D01*
X165543358Y-78861663D01*
X165545106Y-78866598D01*
X165546593Y-78871618D01*
X165547815Y-78876709D01*
X165548769Y-78881857D01*
X165549452Y-78887047D01*
X165549863Y-78892266D01*
X165550000Y-78897500D01*
X165550000Y-79097500D01*
X165549863Y-79102734D01*
X165549452Y-79107953D01*
X165548769Y-79113143D01*
X165547815Y-79118291D01*
X165546593Y-79123382D01*
X165545106Y-79128402D01*
X165543358Y-79133337D01*
X165541355Y-79138174D01*
X165539101Y-79142899D01*
X165536603Y-79147500D01*
X165533867Y-79151964D01*
X165530902Y-79156279D01*
X165527715Y-79160432D01*
X165524314Y-79164413D01*
X165520711Y-79168211D01*
X165516913Y-79171814D01*
X165512932Y-79175215D01*
X165508779Y-79178402D01*
X165504464Y-79181367D01*
X165500000Y-79184103D01*
X165495399Y-79186601D01*
X165490674Y-79188855D01*
X165485837Y-79190858D01*
X165480902Y-79192606D01*
X165475882Y-79194093D01*
X165470791Y-79195315D01*
X165465643Y-79196269D01*
X165460453Y-79196952D01*
X165455234Y-79197363D01*
X165450000Y-79197500D01*
X165100000Y-79197500D01*
X165094766Y-79197363D01*
X165089547Y-79196952D01*
X165084357Y-79196269D01*
X165079209Y-79195315D01*
X165074118Y-79194093D01*
X165069098Y-79192606D01*
X165064163Y-79190858D01*
X165059326Y-79188855D01*
X165054601Y-79186601D01*
X165050000Y-79184103D01*
X165045536Y-79181367D01*
X165041221Y-79178402D01*
X165037068Y-79175215D01*
X165033087Y-79171814D01*
X165029289Y-79168211D01*
X165025686Y-79164413D01*
X165022285Y-79160432D01*
X165019098Y-79156279D01*
X165016133Y-79151964D01*
X165013397Y-79147500D01*
X165010899Y-79142899D01*
X165008645Y-79138174D01*
X165006642Y-79133337D01*
X165004894Y-79128402D01*
X165003407Y-79123382D01*
X165002185Y-79118291D01*
X165001231Y-79113143D01*
X165000548Y-79107953D01*
X165000137Y-79102734D01*
X165000000Y-79097500D01*
X165000000Y-78897500D01*
X165000137Y-78892266D01*
X165000548Y-78887047D01*
X165001231Y-78881857D01*
X165002185Y-78876709D01*
X165003407Y-78871618D01*
X165004894Y-78866598D01*
X165006642Y-78861663D01*
X165008645Y-78856826D01*
X165010899Y-78852101D01*
X165013397Y-78847500D01*
X165016133Y-78843036D01*
X165019098Y-78838721D01*
X165022285Y-78834568D01*
X165025686Y-78830587D01*
X165029289Y-78826789D01*
X165033087Y-78823186D01*
X165037068Y-78819785D01*
X165041221Y-78816598D01*
X165045536Y-78813633D01*
X165050000Y-78810897D01*
X165054601Y-78808399D01*
X165059326Y-78806145D01*
X165064163Y-78804142D01*
X165069098Y-78802394D01*
X165074118Y-78800907D01*
X165079209Y-78799685D01*
X165084357Y-78798731D01*
X165089547Y-78798048D01*
X165094766Y-78797637D01*
X165100000Y-78797500D01*
X165450000Y-78797500D01*
X165455234Y-78797637D01*
G37*
X165455234Y-78797637D02*
X165460453Y-78798048D01*
X165465643Y-78798731D01*
X165470791Y-78799685D01*
X165475882Y-78800907D01*
X165480902Y-78802394D01*
X165485837Y-78804142D01*
X165490674Y-78806145D01*
X165495399Y-78808399D01*
X165500000Y-78810897D01*
X165504464Y-78813633D01*
X165508779Y-78816598D01*
X165512932Y-78819785D01*
X165516913Y-78823186D01*
X165520711Y-78826789D01*
X165524314Y-78830587D01*
X165527715Y-78834568D01*
X165530902Y-78838721D01*
X165533867Y-78843036D01*
X165536603Y-78847500D01*
X165539101Y-78852101D01*
X165541355Y-78856826D01*
X165543358Y-78861663D01*
X165545106Y-78866598D01*
X165546593Y-78871618D01*
X165547815Y-78876709D01*
X165548769Y-78881857D01*
X165549452Y-78887047D01*
X165549863Y-78892266D01*
X165550000Y-78897500D01*
X165550000Y-79097500D01*
X165549863Y-79102734D01*
X165549452Y-79107953D01*
X165548769Y-79113143D01*
X165547815Y-79118291D01*
X165546593Y-79123382D01*
X165545106Y-79128402D01*
X165543358Y-79133337D01*
X165541355Y-79138174D01*
X165539101Y-79142899D01*
X165536603Y-79147500D01*
X165533867Y-79151964D01*
X165530902Y-79156279D01*
X165527715Y-79160432D01*
X165524314Y-79164413D01*
X165520711Y-79168211D01*
X165516913Y-79171814D01*
X165512932Y-79175215D01*
X165508779Y-79178402D01*
X165504464Y-79181367D01*
X165500000Y-79184103D01*
X165495399Y-79186601D01*
X165490674Y-79188855D01*
X165485837Y-79190858D01*
X165480902Y-79192606D01*
X165475882Y-79194093D01*
X165470791Y-79195315D01*
X165465643Y-79196269D01*
X165460453Y-79196952D01*
X165455234Y-79197363D01*
X165450000Y-79197500D01*
X165100000Y-79197500D01*
X165094766Y-79197363D01*
X165089547Y-79196952D01*
X165084357Y-79196269D01*
X165079209Y-79195315D01*
X165074118Y-79194093D01*
X165069098Y-79192606D01*
X165064163Y-79190858D01*
X165059326Y-79188855D01*
X165054601Y-79186601D01*
X165050000Y-79184103D01*
X165045536Y-79181367D01*
X165041221Y-79178402D01*
X165037068Y-79175215D01*
X165033087Y-79171814D01*
X165029289Y-79168211D01*
X165025686Y-79164413D01*
X165022285Y-79160432D01*
X165019098Y-79156279D01*
X165016133Y-79151964D01*
X165013397Y-79147500D01*
X165010899Y-79142899D01*
X165008645Y-79138174D01*
X165006642Y-79133337D01*
X165004894Y-79128402D01*
X165003407Y-79123382D01*
X165002185Y-79118291D01*
X165001231Y-79113143D01*
X165000548Y-79107953D01*
X165000137Y-79102734D01*
X165000000Y-79097500D01*
X165000000Y-78897500D01*
X165000137Y-78892266D01*
X165000548Y-78887047D01*
X165001231Y-78881857D01*
X165002185Y-78876709D01*
X165003407Y-78871618D01*
X165004894Y-78866598D01*
X165006642Y-78861663D01*
X165008645Y-78856826D01*
X165010899Y-78852101D01*
X165013397Y-78847500D01*
X165016133Y-78843036D01*
X165019098Y-78838721D01*
X165022285Y-78834568D01*
X165025686Y-78830587D01*
X165029289Y-78826789D01*
X165033087Y-78823186D01*
X165037068Y-78819785D01*
X165041221Y-78816598D01*
X165045536Y-78813633D01*
X165050000Y-78810897D01*
X165054601Y-78808399D01*
X165059326Y-78806145D01*
X165064163Y-78804142D01*
X165069098Y-78802394D01*
X165074118Y-78800907D01*
X165079209Y-78799685D01*
X165084357Y-78798731D01*
X165089547Y-78798048D01*
X165094766Y-78797637D01*
X165100000Y-78797500D01*
X165450000Y-78797500D01*
X165455234Y-78797637D01*
D11*
X151800000Y-140185000D03*
X151800000Y-139215000D03*
D12*
X146850000Y-83350000D03*
X148400000Y-83350000D03*
D13*
X167732500Y-79660000D03*
X169307500Y-79660000D03*
D12*
X171740000Y-58400000D03*
X173290000Y-58400000D03*
D13*
X151802500Y-56040000D03*
X153377500Y-56040000D03*
D14*
X160660000Y-135200000D03*
X165740000Y-135200000D03*
D15*
X160025000Y-137000000D03*
X160025000Y-133400000D03*
X161300000Y-137000000D03*
X161295000Y-133400000D03*
X162565000Y-137000000D03*
X162565000Y-133400000D03*
X163835000Y-137000000D03*
X163835000Y-133400000D03*
X165105000Y-137000000D03*
X165105000Y-133400000D03*
X166375000Y-137000000D03*
X166375000Y-133400000D03*
D16*
X178930000Y-133100000D03*
X173850000Y-133100000D03*
X168770000Y-133100000D03*
D17*
X167100000Y-144500000D03*
X153600000Y-144500000D03*
X167100000Y-141600000D03*
X153600000Y-141600000D03*
D18*
X154600000Y-144500000D03*
X155100000Y-141600000D03*
X155600000Y-144500000D03*
X156100000Y-141600000D03*
X156600000Y-144500000D03*
X157100000Y-141600000D03*
X157600000Y-144500000D03*
X158100000Y-141600000D03*
X158600000Y-144500000D03*
X159100000Y-141600000D03*
X159600000Y-144500000D03*
X160100000Y-141600000D03*
X160600000Y-144500000D03*
X161100000Y-141600000D03*
X161600000Y-144500000D03*
X162100000Y-141600000D03*
X162600000Y-144500000D03*
X163100000Y-141600000D03*
X163600000Y-144500000D03*
X164100000Y-141600000D03*
X164600000Y-144500000D03*
X165100000Y-141600000D03*
X165600000Y-144500000D03*
X166100000Y-141600000D03*
D19*
X168000000Y-149670000D03*
X168000000Y-146370000D03*
D20*
X169062500Y-137700000D03*
X170937500Y-137700000D03*
D21*
X158000000Y-138237500D03*
X158000000Y-136362500D03*
D22*
X155337500Y-139020000D03*
X153462500Y-139020000D03*
D20*
X139462500Y-144400000D03*
X141337500Y-144400000D03*
D21*
X128400000Y-139937500D03*
X128400000Y-138062500D03*
D23*
X147510000Y-154972500D03*
X150010000Y-154972500D03*
X152510000Y-154972500D03*
X147510000Y-151672500D03*
X150010000Y-151672500D03*
X152510000Y-151672500D03*
D24*
X134390000Y-56000000D03*
X132840000Y-56000000D03*
D13*
X131012500Y-114600000D03*
X132587500Y-114600000D03*
D25*
X122750000Y-59000000D03*
D26*
X138241466Y-152108826D03*
X139758534Y-152691174D03*
D27*
X137200000Y-130612500D03*
X137200000Y-132187500D03*
D28*
X139060000Y-118800000D03*
D29*
X137560000Y-118050000D03*
X137560000Y-118550000D03*
X137560000Y-119050000D03*
X137560000Y-119550000D03*
X140560000Y-119550000D03*
X140560000Y-119050000D03*
X140560000Y-118550000D03*
X140560000Y-118050000D03*
D19*
X142450000Y-122350000D03*
X142450000Y-119050000D03*
D30*
X155775000Y-148930000D03*
X163225000Y-148930000D03*
D31*
X156750000Y-147025000D03*
X157250000Y-147025000D03*
X157750000Y-147025000D03*
X158250000Y-147025000D03*
X158750000Y-147025000D03*
X159250000Y-147025000D03*
X159750000Y-147025000D03*
X160250000Y-147025000D03*
X160750000Y-147025000D03*
X161250000Y-147025000D03*
X161750000Y-147025000D03*
X162250000Y-147025000D03*
D32*
X162550000Y-148230000D03*
X161900000Y-148930000D03*
X161100000Y-148930000D03*
X160700000Y-148230000D03*
X160300000Y-148930000D03*
X159900000Y-148230000D03*
X159100000Y-148230000D03*
X158700000Y-148930000D03*
X158300000Y-148230000D03*
X157900000Y-148930000D03*
X157100000Y-148930000D03*
X156450000Y-148230000D03*
D33*
X164000000Y-147280000D03*
D34*
X164000000Y-153030000D03*
D33*
X155000000Y-147280000D03*
D34*
X155000000Y-153030000D03*
D35*
X163550000Y-147830000D03*
X155450000Y-147830000D03*
D36*
X132200000Y-76850000D03*
X133300000Y-76850000D03*
X134400000Y-76850000D03*
X135500000Y-76850000D03*
X136600000Y-76850000D03*
X137700000Y-76850000D03*
X138800000Y-76850000D03*
X139900000Y-76850000D03*
X141000000Y-76850000D03*
X142100000Y-76850000D03*
X143200000Y-76850000D03*
X144300000Y-76850000D03*
X145400000Y-76850000D03*
X146500000Y-76850000D03*
X147600000Y-76850000D03*
X148700000Y-76850000D03*
X149800000Y-76850000D03*
X150900000Y-76850000D03*
X152000000Y-76850000D03*
X153100000Y-76850000D03*
X154200000Y-76850000D03*
D37*
X155150000Y-75400000D03*
X155150000Y-74300000D03*
X155150000Y-73200000D03*
X155150000Y-72100000D03*
X155150000Y-71000000D03*
X155150000Y-69900000D03*
X155150000Y-68800000D03*
X155150000Y-67700000D03*
X155150000Y-66600000D03*
X155150000Y-65500000D03*
X155150000Y-64400000D03*
D36*
X154200000Y-62950000D03*
X153100000Y-62950000D03*
X152000000Y-62950000D03*
X150900000Y-62950000D03*
X149800000Y-62950000D03*
X148700000Y-62950000D03*
X147600000Y-62950000D03*
X146500000Y-62950000D03*
X145400000Y-62950000D03*
X144300000Y-62950000D03*
X143200000Y-62950000D03*
X142100000Y-62950000D03*
X141000000Y-62950000D03*
X139900000Y-62950000D03*
X138800000Y-62950000D03*
X137700000Y-62950000D03*
X136600000Y-62950000D03*
X135500000Y-62950000D03*
X134400000Y-62950000D03*
X133300000Y-62950000D03*
X132200000Y-62950000D03*
D37*
X131250000Y-64400000D03*
X131250000Y-65500000D03*
X131250000Y-66600000D03*
X131250000Y-67700000D03*
X131250000Y-68800000D03*
X131250000Y-69900000D03*
X131250000Y-71000000D03*
X131250000Y-72100000D03*
X131250000Y-73200000D03*
X131250000Y-74300000D03*
X131250000Y-75400000D03*
D38*
X132950000Y-75150000D03*
X132950000Y-73050000D03*
X132950000Y-70950000D03*
X132950000Y-68850000D03*
X132950000Y-66750000D03*
X132950000Y-64650000D03*
X134750000Y-75150000D03*
X134750000Y-73050000D03*
X134750000Y-70950000D03*
X134750000Y-68850000D03*
X134750000Y-66750000D03*
X134750000Y-64650000D03*
X136550000Y-75150000D03*
X136550000Y-64650000D03*
X140200000Y-75150000D03*
X140150000Y-64650000D03*
X146250000Y-75150000D03*
X146200000Y-64650000D03*
X149850000Y-75150000D03*
X149850000Y-64650000D03*
X151650000Y-75150000D03*
X151650000Y-73050000D03*
X151650000Y-70950000D03*
X151650000Y-68850000D03*
X151650000Y-66750000D03*
X151650000Y-64650000D03*
X153450000Y-75150000D03*
X153450000Y-73050000D03*
X153450000Y-70950000D03*
X153450000Y-68850000D03*
X153450000Y-66750000D03*
X153450000Y-64650000D03*
X136550000Y-70950000D03*
X136550000Y-68850000D03*
X149850000Y-70950000D03*
X149850000Y-68850000D03*
D27*
X179900000Y-98412500D03*
X179900000Y-99987500D03*
D39*
X177350000Y-113362500D03*
X177350000Y-111787500D03*
D40*
X177304997Y-101869843D03*
X177895003Y-103330157D03*
D41*
X177798309Y-117945082D03*
X178701691Y-116654918D03*
D42*
X176826691Y-119354918D03*
X175923309Y-120645082D03*
D43*
X177845000Y-77610000D03*
X176270000Y-77610000D03*
D44*
X179120003Y-106330157D03*
X178529997Y-104869843D03*
D43*
X154762500Y-83275000D03*
X153187500Y-83275000D03*
D13*
X137012500Y-116900000D03*
X138587500Y-116900000D03*
X133952500Y-116740000D03*
X135527500Y-116740000D03*
D45*
X159515000Y-77070000D03*
X160485000Y-77070000D03*
D43*
X137887500Y-149250000D03*
X136312500Y-149250000D03*
X142487500Y-151200000D03*
X140912500Y-151200000D03*
D27*
X136500000Y-110812500D03*
X136500000Y-112387500D03*
D46*
X126500000Y-62500000D03*
D47*
X127975000Y-61000000D03*
D46*
X126500000Y-59500000D03*
D47*
X125025000Y-61000000D03*
D48*
X123560660Y-68560660D03*
D49*
X123542983Y-66457017D03*
D48*
X121439340Y-66439340D03*
D49*
X121457017Y-68542983D03*
D50*
X133178959Y-149718554D03*
X134613749Y-150481446D03*
D51*
X132500000Y-112800000D03*
D52*
X132500000Y-111300000D03*
D51*
X132500000Y-109800000D03*
D25*
X176750000Y-59000000D03*
D46*
X114450000Y-123350000D03*
D53*
X117175000Y-107160000D03*
D54*
X119080000Y-108684000D03*
D53*
X114000000Y-112240000D03*
D54*
X114000000Y-109700000D03*
D53*
X114000000Y-107160000D03*
D54*
X119080000Y-110716000D03*
D53*
X117175000Y-112240000D03*
D55*
X115270000Y-110335000D03*
X115270000Y-109065000D03*
X116540000Y-110335000D03*
X116540000Y-109065000D03*
X117810000Y-110335000D03*
X117810000Y-109065000D03*
D21*
X145100000Y-149377500D03*
X145100000Y-147502500D03*
D13*
X175612500Y-90800000D03*
X177187500Y-90800000D03*
D56*
X176669843Y-100395003D03*
X178130157Y-99804997D03*
D46*
X142600000Y-134100000D03*
D25*
X176300000Y-134600000D03*
D13*
X163012500Y-81150000D03*
X164587500Y-81150000D03*
D43*
X158975000Y-83250000D03*
X157400000Y-83250000D03*
D57*
X159875000Y-80750000D03*
X159875000Y-79800000D03*
X159875000Y-78850000D03*
X157675000Y-78850000D03*
X157675000Y-80750000D03*
D43*
X169327500Y-78040000D03*
X167752500Y-78040000D03*
D25*
X116250000Y-129250000D03*
D58*
X170550000Y-146782500D03*
X170550000Y-148657500D03*
D59*
X146800000Y-139550000D03*
X146800000Y-138250000D03*
X144800000Y-138900000D03*
D60*
X130100000Y-131500000D03*
X134200000Y-131500000D03*
D46*
X162510000Y-59440000D03*
X165510000Y-59440000D03*
D61*
X164010000Y-57965000D03*
X164010000Y-60915000D03*
D46*
X162490000Y-66680000D03*
D61*
X163990000Y-68155000D03*
X163990000Y-65205000D03*
D46*
X165490000Y-66680000D03*
X169040000Y-73530000D03*
D61*
X170540000Y-75005000D03*
D46*
X172040000Y-73530000D03*
D61*
X170540000Y-72055000D03*
D22*
X128337500Y-80300000D03*
X126462500Y-80300000D03*
D62*
X129956618Y-147038913D03*
X130791240Y-145703237D03*
D46*
X162500000Y-73500000D03*
D61*
X164000000Y-72025000D03*
X164000000Y-74975000D03*
D46*
X165500000Y-73500000D03*
D63*
X126931535Y-142152959D03*
D64*
X127830000Y-142830000D03*
D65*
X129107817Y-143792905D03*
D63*
X129547067Y-144123903D03*
D66*
X172382500Y-78180000D03*
X172382500Y-80080000D03*
X174257500Y-79130000D03*
D58*
X126900000Y-127062500D03*
X126900000Y-128937500D03*
X126400000Y-131000000D03*
X126400000Y-132875000D03*
D20*
X125162500Y-134850000D03*
X127037500Y-134850000D03*
D67*
X121762500Y-121050000D03*
X121762500Y-131450000D03*
D68*
X121487500Y-130750000D03*
D69*
X124362500Y-130450000D03*
D68*
X121487500Y-130150000D03*
D69*
X124362500Y-129850000D03*
D68*
X121487500Y-129550000D03*
D69*
X124362500Y-129250000D03*
D68*
X121487500Y-128950000D03*
D69*
X124362500Y-128650000D03*
D68*
X121487500Y-128350000D03*
D69*
X124362500Y-128050000D03*
D68*
X121487500Y-127750000D03*
D69*
X124362500Y-127450000D03*
D68*
X121487500Y-127150000D03*
D69*
X124362500Y-126850000D03*
D68*
X121487500Y-126550000D03*
D69*
X124362500Y-126250000D03*
D68*
X121487500Y-125950000D03*
D69*
X124362500Y-125650000D03*
D68*
X121487500Y-125350000D03*
D69*
X124362500Y-125050000D03*
D68*
X121487500Y-124750000D03*
D69*
X124362500Y-124450000D03*
D68*
X121487500Y-124150000D03*
D69*
X124362500Y-123850000D03*
D68*
X121487500Y-123550000D03*
D69*
X124362500Y-123250000D03*
D68*
X121487500Y-122950000D03*
D69*
X124362500Y-122650000D03*
D68*
X121487500Y-122350000D03*
D69*
X124362500Y-122050000D03*
D68*
X121487500Y-121750000D03*
D13*
X121762500Y-134550000D03*
X123337500Y-134550000D03*
D70*
X145100000Y-120200000D03*
X147900000Y-120200000D03*
D14*
X160660000Y-127500000D03*
X165740000Y-127500000D03*
D15*
X160025000Y-129300000D03*
X160025000Y-125700000D03*
X161300000Y-129300000D03*
X161295000Y-125700000D03*
X162565000Y-129300000D03*
X162565000Y-125700000D03*
X163835000Y-129300000D03*
X163835000Y-125700000D03*
X165105000Y-129300000D03*
X165105000Y-125700000D03*
X166375000Y-129300000D03*
X166375000Y-125700000D03*
D36*
X130345000Y-89540000D03*
X131615000Y-89540000D03*
X132885000Y-89540000D03*
X134155000Y-89540000D03*
X134155000Y-84460000D03*
X132885000Y-84460000D03*
X131615000Y-84460000D03*
X130345000Y-84460000D03*
D71*
X132250000Y-87000000D03*
D20*
X126462500Y-78050000D03*
X128337500Y-78050000D03*
D39*
X150050000Y-123287500D03*
X150050000Y-121712500D03*
D27*
X120150000Y-136112500D03*
X120150000Y-137687500D03*
D72*
X134000000Y-146515000D03*
X134000000Y-147485000D03*
D73*
X136350000Y-146125000D03*
X136350000Y-147675000D03*
D12*
X138825000Y-139400000D03*
X140375000Y-139400000D03*
X138825000Y-141100000D03*
X140375000Y-141100000D03*
D54*
X144412000Y-128524000D03*
X144412000Y-126492000D03*
X139332000Y-127508000D03*
D55*
X140602000Y-128143000D03*
X140602000Y-126873000D03*
X141872000Y-128143000D03*
X141872000Y-126873000D03*
X143142000Y-128143000D03*
X143142000Y-126873000D03*
D13*
X142712500Y-142100000D03*
X144287500Y-142100000D03*
D51*
X149600000Y-149350000D03*
D52*
X149600000Y-147850000D03*
D51*
X149600000Y-146350000D03*
D74*
X172342339Y-90289359D03*
X170642339Y-93233846D03*
X169744263Y-88789359D03*
X168044263Y-91733846D03*
D75*
X136755000Y-143770000D03*
X136755000Y-143270000D03*
X136755000Y-142770000D03*
X136755000Y-142270000D03*
X136755000Y-141770000D03*
X136755000Y-141270000D03*
X136755000Y-140770000D03*
X136755000Y-140270000D03*
D76*
X136030000Y-139545000D03*
X135530000Y-139545000D03*
X135030000Y-139545000D03*
X134530000Y-139545000D03*
X134030000Y-139545000D03*
X133530000Y-139545000D03*
X133030000Y-139545000D03*
X132530000Y-139545000D03*
D75*
X131805000Y-140270000D03*
X131805000Y-140770000D03*
X131805000Y-141270000D03*
X131805000Y-141770000D03*
X131805000Y-142270000D03*
X131805000Y-142770000D03*
X131805000Y-143270000D03*
X131805000Y-143770000D03*
D76*
X132530000Y-144495000D03*
X133030000Y-144495000D03*
X133530000Y-144495000D03*
X134030000Y-144495000D03*
X134530000Y-144495000D03*
X135030000Y-144495000D03*
X135530000Y-144495000D03*
X136030000Y-144495000D03*
D77*
X134280000Y-142020000D03*
D13*
X129062500Y-119450000D03*
X130637500Y-119450000D03*
D27*
X124850000Y-109162500D03*
X124850000Y-110737500D03*
D78*
X124900000Y-116600000D03*
X126800000Y-116600000D03*
D79*
X121500000Y-116500000D03*
X119600000Y-116500000D03*
D27*
X123100000Y-109162500D03*
X123100000Y-110737500D03*
D80*
X125337500Y-114250000D03*
X125337500Y-113300000D03*
X125337500Y-112350000D03*
X123062500Y-112350000D03*
X123062500Y-114250000D03*
D13*
X175512500Y-88100000D03*
X177087500Y-88100000D03*
D27*
X114750000Y-126012500D03*
X114750000Y-127587500D03*
D81*
X135172500Y-127285000D03*
X135172500Y-126635000D03*
X135172500Y-125985000D03*
X135172500Y-125335000D03*
X135172500Y-124685000D03*
X135172500Y-124035000D03*
X135172500Y-123385000D03*
X135172500Y-122735000D03*
X135172500Y-122085000D03*
X135172500Y-121435000D03*
X129447500Y-121435000D03*
X129447500Y-122085000D03*
X129447500Y-122735000D03*
X129447500Y-123385000D03*
X129447500Y-124035000D03*
X129447500Y-124685000D03*
X129447500Y-125335000D03*
X129447500Y-125985000D03*
X129447500Y-126635000D03*
X129447500Y-127285000D03*
D82*
X173250157Y-98229126D03*
X173549843Y-98970874D03*
D83*
X172531186Y-97063588D03*
X173842309Y-100308731D03*
D46*
X158300000Y-66270000D03*
D84*
X139650000Y-148000000D03*
X142950000Y-148000000D03*
D85*
X165250000Y-90500000D03*
D46*
X151175000Y-82875000D03*
D84*
X142850000Y-144700000D03*
X146150000Y-144700000D03*
D82*
X175685385Y-104267967D03*
X175985071Y-105009715D03*
D83*
X174966414Y-103102429D03*
X176277537Y-106347572D03*
D46*
X158300000Y-72150000D03*
D86*
X128100000Y-89460000D03*
X123100000Y-89460000D03*
D87*
X175839077Y-117437778D03*
X175380215Y-118093100D03*
D88*
X176425000Y-116200000D03*
X174417482Y-119067032D03*
D12*
X137545000Y-125100000D03*
X139095000Y-125100000D03*
D85*
X161940000Y-92420000D03*
D24*
X126975000Y-121900000D03*
X125425000Y-121900000D03*
D46*
X175050000Y-73550000D03*
X178050000Y-73550000D03*
D61*
X176550000Y-72075000D03*
X176550000Y-75025000D03*
D46*
X157750000Y-76120000D03*
D89*
X176500000Y-95500000D03*
X164000000Y-86000000D03*
X141000000Y-113500000D03*
X138000000Y-86000000D03*
D35*
X148700000Y-141550000D03*
X148700000Y-143450000D03*
D90*
X119700000Y-86400000D03*
X119700000Y-98600000D03*
D23*
X119700000Y-96500000D03*
X119700000Y-92500000D03*
X119700000Y-90500000D03*
X119700000Y-88500000D03*
D91*
X118400000Y-71900000D03*
X124000000Y-85100000D03*
D23*
X119950000Y-73500000D03*
X119950000Y-75500000D03*
X119950000Y-77500000D03*
X119950000Y-79500000D03*
X119950000Y-81500000D03*
X119950000Y-83500000D03*
X122450000Y-73500000D03*
X122450000Y-75500000D03*
X122450000Y-77500000D03*
X122450000Y-79500000D03*
X122450000Y-81500000D03*
X122450000Y-83500000D03*
D92*
X156700000Y-124450000D03*
X156700000Y-124450000D03*
X145400000Y-115450000D03*
X145400000Y-115450000D03*
M02*
