G04 #@! TF.GenerationSoftware,KiCad,Pcbnew,6.0.11+dfsg-1~bpo11+1*
G04 #@! TF.CreationDate,2023-03-04T16:09:41-05:00*
G04 #@! TF.ProjectId,RUSP_Faceplate,52555350-5f46-4616-9365-706c6174652e,rev?*
G04 #@! TF.SameCoordinates,Original*
G04 #@! TF.FileFunction,Copper,L2,Bot*
G04 #@! TF.FilePolarity,Positive*
%FSLAX46Y46*%
G04 Gerber Fmt 4.6, Leading zero omitted, Abs format (unit mm)*
G04 Created by KiCad (PCBNEW 6.0.11+dfsg-1~bpo11+1) date 2023-03-04 16:09:41*
%MOMM*%
%LPD*%
G01*
G04 APERTURE LIST*
G04 Aperture macros list*
%AMRoundRect*
0 Rectangle with rounded corners*
0 $1 Rounding radius*
0 $2 $3 $4 $5 $6 $7 $8 $9 X,Y pos of 4 corners*
0 Add a 4 corners polygon primitive as box body*
4,1,4,$2,$3,$4,$5,$6,$7,$8,$9,$2,$3,0*
0 Add four circle primitives for the rounded corners*
1,1,$1+$1,$2,$3*
1,1,$1+$1,$4,$5*
1,1,$1+$1,$6,$7*
1,1,$1+$1,$8,$9*
0 Add four rect primitives between the rounded corners*
20,1,$1+$1,$2,$3,$4,$5,0*
20,1,$1+$1,$4,$5,$6,$7,0*
20,1,$1+$1,$6,$7,$8,$9,0*
20,1,$1+$1,$8,$9,$2,$3,0*%
G04 Aperture macros list end*
G04 #@! TA.AperFunction,ComponentPad*
%ADD10C,5.000000*%
G04 #@! TD*
G04 #@! TA.AperFunction,ComponentPad*
%ADD11C,6.200000*%
G04 #@! TD*
G04 #@! TA.AperFunction,SMDPad,CuDef*
%ADD12C,0.750000*%
G04 #@! TD*
G04 #@! TA.AperFunction,SMDPad,CuDef*
%ADD13RoundRect,0.225000X-0.250000X0.225000X-0.250000X-0.225000X0.250000X-0.225000X0.250000X0.225000X0*%
G04 #@! TD*
G04 #@! TA.AperFunction,SMDPad,CuDef*
%ADD14R,0.900000X0.800000*%
G04 #@! TD*
G04 #@! TA.AperFunction,ViaPad*
%ADD15C,0.800000*%
G04 #@! TD*
G04 #@! TA.AperFunction,Conductor*
%ADD16C,0.400000*%
G04 #@! TD*
G04 #@! TA.AperFunction,Conductor*
%ADD17C,0.250000*%
G04 #@! TD*
G04 APERTURE END LIST*
D10*
G04 #@! TO.P,H4,1*
G04 #@! TO.N,N/C*
X149392000Y-101280000D03*
G04 #@! TD*
D11*
G04 #@! TO.P,H2,1,1*
G04 #@! TO.N,/HALL_OUT*
X118292000Y-81180000D03*
G04 #@! TD*
G04 #@! TO.P,H1,1,1*
G04 #@! TO.N,/Vdd*
X130792000Y-71680000D03*
G04 #@! TD*
G04 #@! TO.P,H3,1,1*
G04 #@! TO.N,/HALL_OUT*
X153792000Y-99180000D03*
G04 #@! TD*
G04 #@! TO.P,H5,1,1*
G04 #@! TO.N,/GND*
X156792000Y-71680000D03*
G04 #@! TD*
D12*
G04 #@! TO.P,FID3,*
G04 #@! TO.N,*
X144792000Y-68680000D03*
G04 #@! TD*
G04 #@! TO.P,FID1,*
G04 #@! TO.N,*
X122792000Y-104680000D03*
G04 #@! TD*
G04 #@! TO.P,FID2,*
G04 #@! TO.N,*
X165292000Y-104680000D03*
G04 #@! TD*
D13*
G04 #@! TO.P,C1,1*
G04 #@! TO.N,/Vdd*
X136292000Y-99905000D03*
G04 #@! TO.P,C1,2*
G04 #@! TO.N,/GND*
X136292000Y-101455000D03*
G04 #@! TD*
D14*
G04 #@! TO.P,U1,1,Vdd*
G04 #@! TO.N,/Vdd*
X140992000Y-99730000D03*
G04 #@! TO.P,U1,2,GND*
G04 #@! TO.N,/GND*
X138592000Y-100680000D03*
G04 #@! TO.P,U1,3,OUT*
G04 #@! TO.N,/HALL_OUT*
X140992000Y-101630000D03*
G04 #@! TD*
D15*
G04 #@! TO.N,/HALL_OUT*
X141592000Y-102380000D03*
G04 #@! TD*
D16*
G04 #@! TO.N,/GND*
X156792000Y-71680000D02*
X159542000Y-74430000D01*
X159542000Y-74430000D02*
X159542000Y-99930000D01*
X159542000Y-99930000D02*
X154892000Y-104580000D01*
X154892000Y-104580000D02*
X141692000Y-104580000D01*
X141692000Y-104580000D02*
X138592000Y-101480000D01*
X138592000Y-101480000D02*
X138592000Y-100680000D01*
G04 #@! TO.N,/HALL_OUT*
X140992000Y-101630000D02*
X141592000Y-102230000D01*
X141592000Y-102230000D02*
X141592000Y-102380000D01*
G04 #@! TO.N,/Vdd*
X135267000Y-99905000D02*
X133542000Y-98180000D01*
X133542000Y-98180000D02*
X133542000Y-95930000D01*
X130792000Y-77180000D02*
X130792000Y-71680000D01*
X125292000Y-87680000D02*
X125292000Y-82680000D01*
X133542000Y-95930000D02*
X125292000Y-87680000D01*
X140042000Y-99430000D02*
X140342000Y-99730000D01*
X125292000Y-82680000D02*
X130792000Y-77180000D01*
X136767000Y-99430000D02*
X140042000Y-99430000D01*
X136292000Y-99905000D02*
X135267000Y-99905000D01*
X140342000Y-99730000D02*
X140992000Y-99730000D01*
X136292000Y-99905000D02*
X136767000Y-99430000D01*
D17*
G04 #@! TO.N,/GND*
X137517000Y-101455000D02*
X138292000Y-100680000D01*
X136292000Y-101455000D02*
X137517000Y-101455000D01*
X138292000Y-100680000D02*
X138592000Y-100680000D01*
G04 #@! TD*
M02*
