G04 #@! TF.GenerationSoftware,KiCad,Pcbnew,6.0.11+dfsg-1~bpo11+1*
G04 #@! TF.CreationDate,2023-05-24T11:45:56-04:00*
G04 #@! TF.ProjectId,RUSP_Mainboard,52555350-5f4d-4616-996e-626f6172642e,rev?*
G04 #@! TF.SameCoordinates,Original*
G04 #@! TF.FileFunction,Paste,Bot*
G04 #@! TF.FilePolarity,Positive*
%FSLAX46Y46*%
G04 Gerber Fmt 4.6, Leading zero omitted, Abs format (unit mm)*
G04 Created by KiCad (PCBNEW 6.0.11+dfsg-1~bpo11+1) date 2023-05-24 11:45:56*
%MOMM*%
%LPD*%
G01*
G04 APERTURE LIST*
G04 Aperture macros list*
%AMRoundRect*
0 Rectangle with rounded corners*
0 $1 Rounding radius*
0 $2 $3 $4 $5 $6 $7 $8 $9 X,Y pos of 4 corners*
0 Add a 4 corners polygon primitive as box body*
4,1,4,$2,$3,$4,$5,$6,$7,$8,$9,$2,$3,0*
0 Add four circle primitives for the rounded corners*
1,1,$1+$1,$2,$3*
1,1,$1+$1,$4,$5*
1,1,$1+$1,$6,$7*
1,1,$1+$1,$8,$9*
0 Add four rect primitives between the rounded corners*
20,1,$1+$1,$2,$3,$4,$5,0*
20,1,$1+$1,$4,$5,$6,$7,0*
20,1,$1+$1,$6,$7,$8,$9,0*
20,1,$1+$1,$8,$9,$2,$3,0*%
%AMRotRect*
0 Rectangle, with rotation*
0 The origin of the aperture is its center*
0 $1 length*
0 $2 width*
0 $3 Rotation angle, in degrees counterclockwise*
0 Add horizontal line*
21,1,$1,$2,0,0,$3*%
%AMFreePoly0*
4,1,10,0.140000,0.000000,0.121244,-0.070000,0.070000,-0.121244,0.000000,-0.140000,-0.070000,-0.121244,-0.121244,-0.070000,-0.140000,0.000000,-0.140000,0.710000,0.140000,0.710000,0.140000,0.000000,0.140000,0.000000,$1*%
G04 Aperture macros list end*
%ADD10C,0.010000*%
%ADD11C,0.100000*%
%ADD12R,0.900000X0.800000*%
%ADD13RoundRect,0.218750X-0.218750X-0.256250X0.218750X-0.256250X0.218750X0.256250X-0.218750X0.256250X0*%
%ADD14RoundRect,0.218750X0.218750X0.256250X-0.218750X0.256250X-0.218750X-0.256250X0.218750X-0.256250X0*%
%ADD15RoundRect,0.218750X0.256250X-0.218750X0.256250X0.218750X-0.256250X0.218750X-0.256250X-0.218750X0*%
%ADD16RoundRect,0.147500X0.172500X-0.147500X0.172500X0.147500X-0.172500X0.147500X-0.172500X-0.147500X0*%
%ADD17RoundRect,0.147500X0.147500X0.172500X-0.147500X0.172500X-0.147500X-0.172500X0.147500X-0.172500X0*%
%ADD18RoundRect,0.147500X-0.172500X0.147500X-0.172500X-0.147500X0.172500X-0.147500X0.172500X0.147500X0*%
%ADD19RoundRect,0.225000X0.225000X0.250000X-0.225000X0.250000X-0.225000X-0.250000X0.225000X-0.250000X0*%
%ADD20RoundRect,0.218750X-0.256250X0.218750X-0.256250X-0.218750X0.256250X-0.218750X0.256250X0.218750X0*%
%ADD21R,2.400000X1.100000*%
%ADD22R,1.600000X1.600000*%
%ADD23R,1.800000X1.600000*%
%ADD24RoundRect,0.243750X-0.243750X-0.456250X0.243750X-0.456250X0.243750X0.456250X-0.243750X0.456250X0*%
%ADD25RoundRect,0.225000X-0.250000X0.225000X-0.250000X-0.225000X0.250000X-0.225000X0.250000X0.225000X0*%
%ADD26RotRect,0.500000X0.800000X292.000000*%
%ADD27RotRect,1.500000X1.000000X292.000000*%
%ADD28RoundRect,0.250000X0.375000X0.625000X-0.375000X0.625000X-0.375000X-0.625000X0.375000X-0.625000X0*%
%ADD29R,1.100000X1.100000*%
%ADD30FreePoly0,90.000000*%
%ADD31FreePoly0,0.000000*%
%ADD32FreePoly0,270.000000*%
%ADD33FreePoly0,180.000000*%
%ADD34RoundRect,0.218750X-0.319536X0.106829X-0.155646X-0.298814X0.319536X-0.106829X0.155646X0.298814X0*%
%ADD35RoundRect,0.218750X0.334028X0.044059X0.008902X0.336803X-0.334028X-0.044059X-0.008902X-0.336803X0*%
%ADD36RoundRect,0.200000X-0.200000X-0.275000X0.200000X-0.275000X0.200000X0.275000X-0.200000X0.275000X0*%
%ADD37RoundRect,0.147500X-0.147500X-0.172500X0.147500X-0.172500X0.147500X0.172500X-0.147500X0.172500X0*%
%ADD38RoundRect,0.212500X0.425571X-0.155068X-0.109734X0.439448X-0.425571X0.155068X0.109734X-0.439448X0*%
%ADD39R,1.600000X3.500000*%
%ADD40R,0.280000X0.750000*%
%ADD41R,0.450000X0.400000*%
%ADD42R,3.400000X1.200000*%
%ADD43RoundRect,0.243750X-0.456250X0.243750X-0.456250X-0.243750X0.456250X-0.243750X0.456250X0.243750X0*%
%ADD44R,2.370000X2.550000*%
%ADD45R,1.200000X0.900000*%
%ADD46RoundRect,0.100000X0.100000X-0.637500X0.100000X0.637500X-0.100000X0.637500X-0.100000X-0.637500X0*%
%ADD47RoundRect,0.100000X-0.100000X0.637500X-0.100000X-0.637500X0.100000X-0.637500X0.100000X0.637500X0*%
%ADD48RoundRect,0.249999X0.325001X0.450001X-0.325001X0.450001X-0.325001X-0.450001X0.325001X-0.450001X0*%
%ADD49R,0.800000X0.900000*%
%ADD50RoundRect,0.250000X0.625000X-0.375000X0.625000X0.375000X-0.625000X0.375000X-0.625000X-0.375000X0*%
%ADD51RoundRect,0.212500X0.449546X-0.055361X-0.205776X0.403500X-0.449546X0.055361X0.205776X-0.403500X0*%
%ADD52RoundRect,0.200000X-0.275000X0.200000X-0.275000X-0.200000X0.275000X-0.200000X0.275000X0.200000X0*%
%ADD53R,0.800000X0.500000*%
%ADD54R,1.000000X1.500000*%
%ADD55RoundRect,0.070000X0.070000X-0.667500X0.070000X0.667500X-0.070000X0.667500X-0.070000X-0.667500X0*%
%ADD56RoundRect,0.070000X0.667500X-0.070000X0.667500X0.070000X-0.667500X0.070000X-0.667500X-0.070000X0*%
%ADD57RoundRect,0.500000X1.470460X-0.581159X-0.827673X1.347204X-1.470460X0.581159X0.827673X-1.347204X0*%
%ADD58RoundRect,0.200000X0.200000X0.275000X-0.200000X0.275000X-0.200000X-0.275000X0.200000X-0.275000X0*%
%ADD59RoundRect,0.200000X0.275000X-0.200000X0.275000X0.200000X-0.275000X0.200000X-0.275000X-0.200000X0*%
%ADD60R,1.050000X0.600000*%
%ADD61R,0.280000X0.650000*%
G04 APERTURE END LIST*
G36*
X164697617Y-76205069D02*
G01*
X164700226Y-76205274D01*
X164702822Y-76205616D01*
X164705396Y-76206093D01*
X164707941Y-76206704D01*
X164710451Y-76207447D01*
X164712918Y-76208321D01*
X164715337Y-76209323D01*
X164717700Y-76210450D01*
X164720000Y-76211699D01*
X164722232Y-76213066D01*
X164724389Y-76214549D01*
X164726466Y-76216143D01*
X164728457Y-76217843D01*
X164730355Y-76219645D01*
X164732157Y-76221543D01*
X164733857Y-76223534D01*
X164735451Y-76225611D01*
X164736934Y-76227768D01*
X164738301Y-76230000D01*
X164739550Y-76232300D01*
X164740677Y-76234663D01*
X164741679Y-76237082D01*
X164742553Y-76239549D01*
X164743296Y-76242059D01*
X164743907Y-76244604D01*
X164744384Y-76247178D01*
X164744726Y-76249774D01*
X164744931Y-76252383D01*
X164745000Y-76255000D01*
X164745000Y-76445000D01*
X164744931Y-76447617D01*
X164744726Y-76450226D01*
X164744384Y-76452822D01*
X164743907Y-76455396D01*
X164743296Y-76457941D01*
X164742553Y-76460451D01*
X164741679Y-76462918D01*
X164740677Y-76465337D01*
X164739550Y-76467700D01*
X164738301Y-76470000D01*
X164736934Y-76472232D01*
X164735451Y-76474389D01*
X164733857Y-76476466D01*
X164732157Y-76478457D01*
X164730355Y-76480355D01*
X164728457Y-76482157D01*
X164726466Y-76483857D01*
X164724389Y-76485451D01*
X164722232Y-76486934D01*
X164720000Y-76488301D01*
X164717700Y-76489550D01*
X164715337Y-76490677D01*
X164712918Y-76491679D01*
X164710451Y-76492553D01*
X164707941Y-76493296D01*
X164705396Y-76493907D01*
X164702822Y-76494384D01*
X164700226Y-76494726D01*
X164697617Y-76494931D01*
X164695000Y-76495000D01*
X164095000Y-76495000D01*
X164092383Y-76494931D01*
X164089774Y-76494726D01*
X164087178Y-76494384D01*
X164084604Y-76493907D01*
X164082059Y-76493296D01*
X164079549Y-76492553D01*
X164077082Y-76491679D01*
X164074663Y-76490677D01*
X164072300Y-76489550D01*
X164070000Y-76488301D01*
X164067768Y-76486934D01*
X164065611Y-76485451D01*
X164063534Y-76483857D01*
X164061543Y-76482157D01*
X164059645Y-76480355D01*
X164057843Y-76478457D01*
X164056143Y-76476466D01*
X164054549Y-76474389D01*
X164053066Y-76472232D01*
X164051699Y-76470000D01*
X164050450Y-76467700D01*
X164049323Y-76465337D01*
X164048321Y-76462918D01*
X164047447Y-76460451D01*
X164046704Y-76457941D01*
X164046093Y-76455396D01*
X164045616Y-76452822D01*
X164045274Y-76450226D01*
X164045069Y-76447617D01*
X164045000Y-76445000D01*
X164045000Y-76255000D01*
X164045069Y-76252383D01*
X164045274Y-76249774D01*
X164045616Y-76247178D01*
X164046093Y-76244604D01*
X164046704Y-76242059D01*
X164047447Y-76239549D01*
X164048321Y-76237082D01*
X164049323Y-76234663D01*
X164050450Y-76232300D01*
X164051699Y-76230000D01*
X164053066Y-76227768D01*
X164054549Y-76225611D01*
X164056143Y-76223534D01*
X164057843Y-76221543D01*
X164059645Y-76219645D01*
X164061543Y-76217843D01*
X164063534Y-76216143D01*
X164065611Y-76214549D01*
X164067768Y-76213066D01*
X164070000Y-76211699D01*
X164072300Y-76210450D01*
X164074663Y-76209323D01*
X164077082Y-76208321D01*
X164079549Y-76207447D01*
X164082059Y-76206704D01*
X164084604Y-76206093D01*
X164087178Y-76205616D01*
X164089774Y-76205274D01*
X164092383Y-76205069D01*
X164095000Y-76205000D01*
X164695000Y-76205000D01*
X164697617Y-76205069D01*
G37*
D10*
X164697617Y-76205069D02*
X164700226Y-76205274D01*
X164702822Y-76205616D01*
X164705396Y-76206093D01*
X164707941Y-76206704D01*
X164710451Y-76207447D01*
X164712918Y-76208321D01*
X164715337Y-76209323D01*
X164717700Y-76210450D01*
X164720000Y-76211699D01*
X164722232Y-76213066D01*
X164724389Y-76214549D01*
X164726466Y-76216143D01*
X164728457Y-76217843D01*
X164730355Y-76219645D01*
X164732157Y-76221543D01*
X164733857Y-76223534D01*
X164735451Y-76225611D01*
X164736934Y-76227768D01*
X164738301Y-76230000D01*
X164739550Y-76232300D01*
X164740677Y-76234663D01*
X164741679Y-76237082D01*
X164742553Y-76239549D01*
X164743296Y-76242059D01*
X164743907Y-76244604D01*
X164744384Y-76247178D01*
X164744726Y-76249774D01*
X164744931Y-76252383D01*
X164745000Y-76255000D01*
X164745000Y-76445000D01*
X164744931Y-76447617D01*
X164744726Y-76450226D01*
X164744384Y-76452822D01*
X164743907Y-76455396D01*
X164743296Y-76457941D01*
X164742553Y-76460451D01*
X164741679Y-76462918D01*
X164740677Y-76465337D01*
X164739550Y-76467700D01*
X164738301Y-76470000D01*
X164736934Y-76472232D01*
X164735451Y-76474389D01*
X164733857Y-76476466D01*
X164732157Y-76478457D01*
X164730355Y-76480355D01*
X164728457Y-76482157D01*
X164726466Y-76483857D01*
X164724389Y-76485451D01*
X164722232Y-76486934D01*
X164720000Y-76488301D01*
X164717700Y-76489550D01*
X164715337Y-76490677D01*
X164712918Y-76491679D01*
X164710451Y-76492553D01*
X164707941Y-76493296D01*
X164705396Y-76493907D01*
X164702822Y-76494384D01*
X164700226Y-76494726D01*
X164697617Y-76494931D01*
X164695000Y-76495000D01*
X164095000Y-76495000D01*
X164092383Y-76494931D01*
X164089774Y-76494726D01*
X164087178Y-76494384D01*
X164084604Y-76493907D01*
X164082059Y-76493296D01*
X164079549Y-76492553D01*
X164077082Y-76491679D01*
X164074663Y-76490677D01*
X164072300Y-76489550D01*
X164070000Y-76488301D01*
X164067768Y-76486934D01*
X164065611Y-76485451D01*
X164063534Y-76483857D01*
X164061543Y-76482157D01*
X164059645Y-76480355D01*
X164057843Y-76478457D01*
X164056143Y-76476466D01*
X164054549Y-76474389D01*
X164053066Y-76472232D01*
X164051699Y-76470000D01*
X164050450Y-76467700D01*
X164049323Y-76465337D01*
X164048321Y-76462918D01*
X164047447Y-76460451D01*
X164046704Y-76457941D01*
X164046093Y-76455396D01*
X164045616Y-76452822D01*
X164045274Y-76450226D01*
X164045069Y-76447617D01*
X164045000Y-76445000D01*
X164045000Y-76255000D01*
X164045069Y-76252383D01*
X164045274Y-76249774D01*
X164045616Y-76247178D01*
X164046093Y-76244604D01*
X164046704Y-76242059D01*
X164047447Y-76239549D01*
X164048321Y-76237082D01*
X164049323Y-76234663D01*
X164050450Y-76232300D01*
X164051699Y-76230000D01*
X164053066Y-76227768D01*
X164054549Y-76225611D01*
X164056143Y-76223534D01*
X164057843Y-76221543D01*
X164059645Y-76219645D01*
X164061543Y-76217843D01*
X164063534Y-76216143D01*
X164065611Y-76214549D01*
X164067768Y-76213066D01*
X164070000Y-76211699D01*
X164072300Y-76210450D01*
X164074663Y-76209323D01*
X164077082Y-76208321D01*
X164079549Y-76207447D01*
X164082059Y-76206704D01*
X164084604Y-76206093D01*
X164087178Y-76205616D01*
X164089774Y-76205274D01*
X164092383Y-76205069D01*
X164095000Y-76205000D01*
X164695000Y-76205000D01*
X164697617Y-76205069D01*
G36*
X164702617Y-76895069D02*
G01*
X164705226Y-76895274D01*
X164707822Y-76895616D01*
X164710396Y-76896093D01*
X164712941Y-76896704D01*
X164715451Y-76897447D01*
X164717918Y-76898321D01*
X164720337Y-76899323D01*
X164722700Y-76900450D01*
X164725000Y-76901699D01*
X164727232Y-76903066D01*
X164729389Y-76904549D01*
X164731466Y-76906143D01*
X164733457Y-76907843D01*
X164735355Y-76909645D01*
X164737157Y-76911543D01*
X164738857Y-76913534D01*
X164740451Y-76915611D01*
X164741934Y-76917768D01*
X164743301Y-76920000D01*
X164744550Y-76922300D01*
X164745677Y-76924663D01*
X164746679Y-76927082D01*
X164747553Y-76929549D01*
X164748296Y-76932059D01*
X164748907Y-76934604D01*
X164749384Y-76937178D01*
X164749726Y-76939774D01*
X164749931Y-76942383D01*
X164750000Y-76945000D01*
X164750000Y-77705000D01*
X164749931Y-77707617D01*
X164749726Y-77710226D01*
X164749384Y-77712822D01*
X164748907Y-77715396D01*
X164748296Y-77717941D01*
X164747553Y-77720451D01*
X164746679Y-77722918D01*
X164745677Y-77725337D01*
X164744550Y-77727700D01*
X164743301Y-77730000D01*
X164741934Y-77732232D01*
X164740451Y-77734389D01*
X164738857Y-77736466D01*
X164737157Y-77738457D01*
X164735355Y-77740355D01*
X164733457Y-77742157D01*
X164731466Y-77743857D01*
X164729389Y-77745451D01*
X164727232Y-77746934D01*
X164725000Y-77748301D01*
X164722700Y-77749550D01*
X164720337Y-77750677D01*
X164717918Y-77751679D01*
X164715451Y-77752553D01*
X164712941Y-77753296D01*
X164710396Y-77753907D01*
X164707822Y-77754384D01*
X164705226Y-77754726D01*
X164702617Y-77754931D01*
X164700000Y-77755000D01*
X163900000Y-77755000D01*
X163897383Y-77754931D01*
X163894774Y-77754726D01*
X163892178Y-77754384D01*
X163889604Y-77753907D01*
X163887059Y-77753296D01*
X163884549Y-77752553D01*
X163882082Y-77751679D01*
X163879663Y-77750677D01*
X163877300Y-77749550D01*
X163875000Y-77748301D01*
X163872768Y-77746934D01*
X163870611Y-77745451D01*
X163868534Y-77743857D01*
X163866543Y-77742157D01*
X163864645Y-77740355D01*
X163862843Y-77738457D01*
X163861143Y-77736466D01*
X163859549Y-77734389D01*
X163858066Y-77732232D01*
X163856699Y-77730000D01*
X163855450Y-77727700D01*
X163854323Y-77725337D01*
X163853321Y-77722918D01*
X163852447Y-77720451D01*
X163851704Y-77717941D01*
X163851093Y-77715396D01*
X163850616Y-77712822D01*
X163850274Y-77710226D01*
X163850069Y-77707617D01*
X163850000Y-77705000D01*
X163850000Y-76945000D01*
X163850069Y-76942383D01*
X163850274Y-76939774D01*
X163850616Y-76937178D01*
X163851093Y-76934604D01*
X163851704Y-76932059D01*
X163852447Y-76929549D01*
X163853321Y-76927082D01*
X163854323Y-76924663D01*
X163855450Y-76922300D01*
X163856699Y-76920000D01*
X163858066Y-76917768D01*
X163859549Y-76915611D01*
X163861143Y-76913534D01*
X163862843Y-76911543D01*
X163864645Y-76909645D01*
X163866543Y-76907843D01*
X163868534Y-76906143D01*
X163870611Y-76904549D01*
X163872768Y-76903066D01*
X163875000Y-76901699D01*
X163877300Y-76900450D01*
X163879663Y-76899323D01*
X163882082Y-76898321D01*
X163884549Y-76897447D01*
X163887059Y-76896704D01*
X163889604Y-76896093D01*
X163892178Y-76895616D01*
X163894774Y-76895274D01*
X163897383Y-76895069D01*
X163900000Y-76895000D01*
X164700000Y-76895000D01*
X164702617Y-76895069D01*
G37*
X164702617Y-76895069D02*
X164705226Y-76895274D01*
X164707822Y-76895616D01*
X164710396Y-76896093D01*
X164712941Y-76896704D01*
X164715451Y-76897447D01*
X164717918Y-76898321D01*
X164720337Y-76899323D01*
X164722700Y-76900450D01*
X164725000Y-76901699D01*
X164727232Y-76903066D01*
X164729389Y-76904549D01*
X164731466Y-76906143D01*
X164733457Y-76907843D01*
X164735355Y-76909645D01*
X164737157Y-76911543D01*
X164738857Y-76913534D01*
X164740451Y-76915611D01*
X164741934Y-76917768D01*
X164743301Y-76920000D01*
X164744550Y-76922300D01*
X164745677Y-76924663D01*
X164746679Y-76927082D01*
X164747553Y-76929549D01*
X164748296Y-76932059D01*
X164748907Y-76934604D01*
X164749384Y-76937178D01*
X164749726Y-76939774D01*
X164749931Y-76942383D01*
X164750000Y-76945000D01*
X164750000Y-77705000D01*
X164749931Y-77707617D01*
X164749726Y-77710226D01*
X164749384Y-77712822D01*
X164748907Y-77715396D01*
X164748296Y-77717941D01*
X164747553Y-77720451D01*
X164746679Y-77722918D01*
X164745677Y-77725337D01*
X164744550Y-77727700D01*
X164743301Y-77730000D01*
X164741934Y-77732232D01*
X164740451Y-77734389D01*
X164738857Y-77736466D01*
X164737157Y-77738457D01*
X164735355Y-77740355D01*
X164733457Y-77742157D01*
X164731466Y-77743857D01*
X164729389Y-77745451D01*
X164727232Y-77746934D01*
X164725000Y-77748301D01*
X164722700Y-77749550D01*
X164720337Y-77750677D01*
X164717918Y-77751679D01*
X164715451Y-77752553D01*
X164712941Y-77753296D01*
X164710396Y-77753907D01*
X164707822Y-77754384D01*
X164705226Y-77754726D01*
X164702617Y-77754931D01*
X164700000Y-77755000D01*
X163900000Y-77755000D01*
X163897383Y-77754931D01*
X163894774Y-77754726D01*
X163892178Y-77754384D01*
X163889604Y-77753907D01*
X163887059Y-77753296D01*
X163884549Y-77752553D01*
X163882082Y-77751679D01*
X163879663Y-77750677D01*
X163877300Y-77749550D01*
X163875000Y-77748301D01*
X163872768Y-77746934D01*
X163870611Y-77745451D01*
X163868534Y-77743857D01*
X163866543Y-77742157D01*
X163864645Y-77740355D01*
X163862843Y-77738457D01*
X163861143Y-77736466D01*
X163859549Y-77734389D01*
X163858066Y-77732232D01*
X163856699Y-77730000D01*
X163855450Y-77727700D01*
X163854323Y-77725337D01*
X163853321Y-77722918D01*
X163852447Y-77720451D01*
X163851704Y-77717941D01*
X163851093Y-77715396D01*
X163850616Y-77712822D01*
X163850274Y-77710226D01*
X163850069Y-77707617D01*
X163850000Y-77705000D01*
X163850000Y-76945000D01*
X163850069Y-76942383D01*
X163850274Y-76939774D01*
X163850616Y-76937178D01*
X163851093Y-76934604D01*
X163851704Y-76932059D01*
X163852447Y-76929549D01*
X163853321Y-76927082D01*
X163854323Y-76924663D01*
X163855450Y-76922300D01*
X163856699Y-76920000D01*
X163858066Y-76917768D01*
X163859549Y-76915611D01*
X163861143Y-76913534D01*
X163862843Y-76911543D01*
X163864645Y-76909645D01*
X163866543Y-76907843D01*
X163868534Y-76906143D01*
X163870611Y-76904549D01*
X163872768Y-76903066D01*
X163875000Y-76901699D01*
X163877300Y-76900450D01*
X163879663Y-76899323D01*
X163882082Y-76898321D01*
X163884549Y-76897447D01*
X163887059Y-76896704D01*
X163889604Y-76896093D01*
X163892178Y-76895616D01*
X163894774Y-76895274D01*
X163897383Y-76895069D01*
X163900000Y-76895000D01*
X164700000Y-76895000D01*
X164702617Y-76895069D01*
G36*
X156350000Y-123200000D02*
G01*
X156050000Y-123300000D01*
X155800000Y-123500000D01*
X155575000Y-123775000D01*
X155450000Y-124025000D01*
X155400000Y-124250000D01*
X154525000Y-124250000D01*
X154575000Y-123925000D01*
X154675000Y-123625000D01*
X154900000Y-123200000D01*
X155150000Y-122900000D01*
X155450000Y-122650000D01*
X155900000Y-122400000D01*
X156350000Y-122275000D01*
X156350000Y-123200000D01*
G37*
D11*
X156350000Y-123200000D02*
X156050000Y-123300000D01*
X155800000Y-123500000D01*
X155575000Y-123775000D01*
X155450000Y-124025000D01*
X155400000Y-124250000D01*
X154525000Y-124250000D01*
X154575000Y-123925000D01*
X154675000Y-123625000D01*
X154900000Y-123200000D01*
X155150000Y-122900000D01*
X155450000Y-122650000D01*
X155900000Y-122400000D01*
X156350000Y-122275000D01*
X156350000Y-123200000D01*
G36*
X157225000Y-122325000D02*
G01*
X157525000Y-122425000D01*
X157950000Y-122650000D01*
X158250000Y-122900000D01*
X158500000Y-123200000D01*
X158750000Y-123650000D01*
X158875000Y-124100000D01*
X157950000Y-124100000D01*
X157850000Y-123800000D01*
X157650000Y-123550000D01*
X157375000Y-123325000D01*
X157125000Y-123200000D01*
X156900000Y-123150000D01*
X156900000Y-122275000D01*
X157225000Y-122325000D01*
G37*
X157225000Y-122325000D02*
X157525000Y-122425000D01*
X157950000Y-122650000D01*
X158250000Y-122900000D01*
X158500000Y-123200000D01*
X158750000Y-123650000D01*
X158875000Y-124100000D01*
X157950000Y-124100000D01*
X157850000Y-123800000D01*
X157650000Y-123550000D01*
X157375000Y-123325000D01*
X157125000Y-123200000D01*
X156900000Y-123150000D01*
X156900000Y-122275000D01*
X157225000Y-122325000D01*
G36*
X158825000Y-124975000D02*
G01*
X158725000Y-125275000D01*
X158500000Y-125700000D01*
X158250000Y-126000000D01*
X157950000Y-126250000D01*
X157500000Y-126500000D01*
X157050000Y-126625000D01*
X157050000Y-125700000D01*
X157350000Y-125600000D01*
X157600000Y-125400000D01*
X157825000Y-125125000D01*
X157950000Y-124875000D01*
X158000000Y-124650000D01*
X158875000Y-124650000D01*
X158825000Y-124975000D01*
G37*
X158825000Y-124975000D02*
X158725000Y-125275000D01*
X158500000Y-125700000D01*
X158250000Y-126000000D01*
X157950000Y-126250000D01*
X157500000Y-126500000D01*
X157050000Y-126625000D01*
X157050000Y-125700000D01*
X157350000Y-125600000D01*
X157600000Y-125400000D01*
X157825000Y-125125000D01*
X157950000Y-124875000D01*
X158000000Y-124650000D01*
X158875000Y-124650000D01*
X158825000Y-124975000D01*
G36*
X156350000Y-123200000D02*
G01*
X156050000Y-123300000D01*
X155800000Y-123500000D01*
X155575000Y-123775000D01*
X155450000Y-124025000D01*
X155400000Y-124250000D01*
X154525000Y-124250000D01*
X154575000Y-123925000D01*
X154675000Y-123625000D01*
X154900000Y-123200000D01*
X155150000Y-122900000D01*
X155450000Y-122650000D01*
X155900000Y-122400000D01*
X156350000Y-122275000D01*
X156350000Y-123200000D01*
G37*
X156350000Y-123200000D02*
X156050000Y-123300000D01*
X155800000Y-123500000D01*
X155575000Y-123775000D01*
X155450000Y-124025000D01*
X155400000Y-124250000D01*
X154525000Y-124250000D01*
X154575000Y-123925000D01*
X154675000Y-123625000D01*
X154900000Y-123200000D01*
X155150000Y-122900000D01*
X155450000Y-122650000D01*
X155900000Y-122400000D01*
X156350000Y-122275000D01*
X156350000Y-123200000D01*
G36*
X155550000Y-125125000D02*
G01*
X155750000Y-125375000D01*
X156025000Y-125600000D01*
X156275000Y-125725000D01*
X156500000Y-125775000D01*
X156500000Y-126650000D01*
X156175000Y-126600000D01*
X155875000Y-126500000D01*
X155450000Y-126275000D01*
X155150000Y-126025000D01*
X154900000Y-125725000D01*
X154650000Y-125275000D01*
X154525000Y-124825000D01*
X155450000Y-124825000D01*
X155550000Y-125125000D01*
G37*
X155550000Y-125125000D02*
X155750000Y-125375000D01*
X156025000Y-125600000D01*
X156275000Y-125725000D01*
X156500000Y-125775000D01*
X156500000Y-126650000D01*
X156175000Y-126600000D01*
X155875000Y-126500000D01*
X155450000Y-126275000D01*
X155150000Y-126025000D01*
X154900000Y-125725000D01*
X154650000Y-125275000D01*
X154525000Y-124825000D01*
X155450000Y-124825000D01*
X155550000Y-125125000D01*
G36*
X145050000Y-114200000D02*
G01*
X144750000Y-114300000D01*
X144500000Y-114500000D01*
X144275000Y-114775000D01*
X144150000Y-115025000D01*
X144100000Y-115250000D01*
X143225000Y-115250000D01*
X143275000Y-114925000D01*
X143375000Y-114625000D01*
X143600000Y-114200000D01*
X143850000Y-113900000D01*
X144150000Y-113650000D01*
X144600000Y-113400000D01*
X145050000Y-113275000D01*
X145050000Y-114200000D01*
G37*
X145050000Y-114200000D02*
X144750000Y-114300000D01*
X144500000Y-114500000D01*
X144275000Y-114775000D01*
X144150000Y-115025000D01*
X144100000Y-115250000D01*
X143225000Y-115250000D01*
X143275000Y-114925000D01*
X143375000Y-114625000D01*
X143600000Y-114200000D01*
X143850000Y-113900000D01*
X144150000Y-113650000D01*
X144600000Y-113400000D01*
X145050000Y-113275000D01*
X145050000Y-114200000D01*
G36*
X144250000Y-116125000D02*
G01*
X144450000Y-116375000D01*
X144725000Y-116600000D01*
X144975000Y-116725000D01*
X145200000Y-116775000D01*
X145200000Y-117650000D01*
X144875000Y-117600000D01*
X144575000Y-117500000D01*
X144150000Y-117275000D01*
X143850000Y-117025000D01*
X143600000Y-116725000D01*
X143350000Y-116275000D01*
X143225000Y-115825000D01*
X144150000Y-115825000D01*
X144250000Y-116125000D01*
G37*
X144250000Y-116125000D02*
X144450000Y-116375000D01*
X144725000Y-116600000D01*
X144975000Y-116725000D01*
X145200000Y-116775000D01*
X145200000Y-117650000D01*
X144875000Y-117600000D01*
X144575000Y-117500000D01*
X144150000Y-117275000D01*
X143850000Y-117025000D01*
X143600000Y-116725000D01*
X143350000Y-116275000D01*
X143225000Y-115825000D01*
X144150000Y-115825000D01*
X144250000Y-116125000D01*
G36*
X145050000Y-114200000D02*
G01*
X144750000Y-114300000D01*
X144500000Y-114500000D01*
X144275000Y-114775000D01*
X144150000Y-115025000D01*
X144100000Y-115250000D01*
X143225000Y-115250000D01*
X143275000Y-114925000D01*
X143375000Y-114625000D01*
X143600000Y-114200000D01*
X143850000Y-113900000D01*
X144150000Y-113650000D01*
X144600000Y-113400000D01*
X145050000Y-113275000D01*
X145050000Y-114200000D01*
G37*
X145050000Y-114200000D02*
X144750000Y-114300000D01*
X144500000Y-114500000D01*
X144275000Y-114775000D01*
X144150000Y-115025000D01*
X144100000Y-115250000D01*
X143225000Y-115250000D01*
X143275000Y-114925000D01*
X143375000Y-114625000D01*
X143600000Y-114200000D01*
X143850000Y-113900000D01*
X144150000Y-113650000D01*
X144600000Y-113400000D01*
X145050000Y-113275000D01*
X145050000Y-114200000D01*
G36*
X147525000Y-115975000D02*
G01*
X147425000Y-116275000D01*
X147200000Y-116700000D01*
X146950000Y-117000000D01*
X146650000Y-117250000D01*
X146200000Y-117500000D01*
X145750000Y-117625000D01*
X145750000Y-116700000D01*
X146050000Y-116600000D01*
X146300000Y-116400000D01*
X146525000Y-116125000D01*
X146650000Y-115875000D01*
X146700000Y-115650000D01*
X147575000Y-115650000D01*
X147525000Y-115975000D01*
G37*
X147525000Y-115975000D02*
X147425000Y-116275000D01*
X147200000Y-116700000D01*
X146950000Y-117000000D01*
X146650000Y-117250000D01*
X146200000Y-117500000D01*
X145750000Y-117625000D01*
X145750000Y-116700000D01*
X146050000Y-116600000D01*
X146300000Y-116400000D01*
X146525000Y-116125000D01*
X146650000Y-115875000D01*
X146700000Y-115650000D01*
X147575000Y-115650000D01*
X147525000Y-115975000D01*
G36*
X145925000Y-113325000D02*
G01*
X146225000Y-113425000D01*
X146650000Y-113650000D01*
X146950000Y-113900000D01*
X147200000Y-114200000D01*
X147450000Y-114650000D01*
X147575000Y-115100000D01*
X146650000Y-115100000D01*
X146550000Y-114800000D01*
X146350000Y-114550000D01*
X146075000Y-114325000D01*
X145825000Y-114200000D01*
X145600000Y-114150000D01*
X145600000Y-113275000D01*
X145925000Y-113325000D01*
G37*
X145925000Y-113325000D02*
X146225000Y-113425000D01*
X146650000Y-113650000D01*
X146950000Y-113900000D01*
X147200000Y-114200000D01*
X147450000Y-114650000D01*
X147575000Y-115100000D01*
X146650000Y-115100000D01*
X146550000Y-114800000D01*
X146350000Y-114550000D01*
X146075000Y-114325000D01*
X145825000Y-114200000D01*
X145600000Y-114150000D01*
X145600000Y-113275000D01*
X145925000Y-113325000D01*
D12*
X133825000Y-114525000D03*
X133825000Y-112625000D03*
X135825000Y-113575000D03*
X126450000Y-114525000D03*
X126450000Y-112625000D03*
X128450000Y-113575000D03*
D13*
X161792500Y-71350000D03*
X163367500Y-71350000D03*
X130662500Y-112850000D03*
X132237500Y-112850000D03*
D14*
X132237500Y-114700000D03*
X130662500Y-114700000D03*
X123037500Y-113200000D03*
X121462500Y-113200000D03*
D15*
X124700000Y-114337500D03*
X124700000Y-112762500D03*
X119575000Y-116637500D03*
X119575000Y-115062500D03*
D16*
X160700000Y-67635000D03*
X160700000Y-66665000D03*
D14*
X150087500Y-65900000D03*
X148512500Y-65900000D03*
D17*
X151285000Y-72250000D03*
X150315000Y-72250000D03*
X151285000Y-71200000D03*
X150315000Y-71200000D03*
D18*
X154525000Y-74740000D03*
X154525000Y-75710000D03*
X155550000Y-74715000D03*
X155550000Y-75685000D03*
D19*
X151975000Y-78650000D03*
X150425000Y-78650000D03*
D13*
X153712500Y-77050000D03*
X155287500Y-77050000D03*
D20*
X141330000Y-73652500D03*
X141330000Y-75227500D03*
D21*
X129346000Y-138497000D03*
X122946000Y-138497000D03*
X129346000Y-142497000D03*
X122946000Y-142497000D03*
X126800000Y-63000000D03*
X133200000Y-63000000D03*
X126800000Y-59000000D03*
X133200000Y-59000000D03*
X156800000Y-140000000D03*
X163200000Y-140000000D03*
X156800000Y-144000000D03*
X163200000Y-144000000D03*
X143027000Y-143886000D03*
X136627000Y-143886000D03*
X143027000Y-147886000D03*
X136627000Y-147886000D03*
X160800000Y-63000000D03*
X167200000Y-63000000D03*
X167200000Y-59000000D03*
X160800000Y-59000000D03*
D22*
X180800000Y-61450000D03*
D23*
X171400000Y-69450000D03*
X175600000Y-69450000D03*
X178600000Y-69450000D03*
X171400000Y-61450000D03*
X175600000Y-61450000D03*
X178450000Y-61450000D03*
D14*
X158157500Y-129160000D03*
X156582500Y-129160000D03*
D24*
X170862500Y-136120000D03*
X172737500Y-136120000D03*
D15*
X166000000Y-125387500D03*
X166000000Y-123812500D03*
D14*
X173312500Y-122775000D03*
X171737500Y-122775000D03*
X141200000Y-123200000D03*
X139625000Y-123200000D03*
D15*
X116200000Y-130287500D03*
X116200000Y-128712500D03*
D14*
X131637500Y-84750000D03*
X130062500Y-84750000D03*
D15*
X138350000Y-141037500D03*
X138350000Y-139462500D03*
D25*
X169600000Y-147725000D03*
X169600000Y-149275000D03*
D26*
X175958459Y-104986587D03*
X175658774Y-104244840D03*
D27*
X176250926Y-106324445D03*
X174939803Y-103079301D03*
D28*
X133400000Y-110400000D03*
X130600000Y-110400000D03*
D29*
X154900000Y-71850000D03*
X156300000Y-70450000D03*
X156300000Y-71850000D03*
X154900000Y-70450000D03*
D30*
X153910000Y-72400000D03*
X153910000Y-71900000D03*
X153910000Y-71400000D03*
X153910000Y-70900000D03*
X153910000Y-70400000D03*
X153910000Y-69900000D03*
D31*
X154350000Y-69460000D03*
X154850000Y-69460000D03*
X155350000Y-69460000D03*
X155850000Y-69460000D03*
X156350000Y-69460000D03*
X156850000Y-69460000D03*
D32*
X157290000Y-69900000D03*
X157290000Y-70400000D03*
X157290000Y-70900000D03*
X157290000Y-71400000D03*
X157290000Y-71900000D03*
X157290000Y-72400000D03*
D33*
X156850000Y-72840000D03*
X156350000Y-72840000D03*
X155850000Y-72840000D03*
X155350000Y-72840000D03*
X154850000Y-72840000D03*
X154350000Y-72840000D03*
D20*
X177650000Y-124662500D03*
X177650000Y-126237500D03*
X177600000Y-127975000D03*
X177600000Y-129550000D03*
D15*
X178610000Y-86197500D03*
X178610000Y-84622500D03*
D20*
X178700000Y-88012500D03*
X178700000Y-89587500D03*
D14*
X176187500Y-82050000D03*
X174612500Y-82050000D03*
D20*
X177300000Y-114962500D03*
X177300000Y-116537500D03*
D34*
X176804997Y-101894843D03*
X177395003Y-103355157D03*
D20*
X178650000Y-76212500D03*
X178650000Y-77787500D03*
D35*
X169785227Y-77756940D03*
X168614773Y-76703060D03*
D14*
X161037500Y-73100000D03*
X159462500Y-73100000D03*
D16*
X152450000Y-75685000D03*
X152450000Y-74715000D03*
D13*
X151512500Y-65850000D03*
X153087500Y-65850000D03*
D36*
X153675000Y-78650000D03*
X155325000Y-78650000D03*
D15*
X117650000Y-119887500D03*
X117650000Y-118312500D03*
D37*
X160315000Y-74450000D03*
X161285000Y-74450000D03*
D15*
X157530000Y-77117500D03*
X157530000Y-75542500D03*
D14*
X132287500Y-136300000D03*
X130712500Y-136300000D03*
D15*
X133800000Y-137937500D03*
X133800000Y-136362500D03*
X158300000Y-152337500D03*
X158300000Y-150762500D03*
X159900000Y-152322500D03*
X159900000Y-150747500D03*
D17*
X158335000Y-146900000D03*
X157365000Y-146900000D03*
D37*
X163415000Y-150100000D03*
X164385000Y-150100000D03*
D15*
X117700000Y-130887500D03*
X117700000Y-129312500D03*
D37*
X145915000Y-66500000D03*
X146885000Y-66500000D03*
D18*
X153525000Y-74735000D03*
X153525000Y-75705000D03*
D38*
X172543669Y-80523805D03*
X171456331Y-79316195D03*
D20*
X141350000Y-65912500D03*
X141350000Y-67487500D03*
X142800000Y-69012500D03*
X142800000Y-70587500D03*
D25*
X142850000Y-65925000D03*
X142850000Y-67475000D03*
X141300000Y-69025000D03*
X141300000Y-70575000D03*
D16*
X161750000Y-67635000D03*
X161750000Y-66665000D03*
D14*
X140317500Y-77100000D03*
X138742500Y-77100000D03*
D20*
X161500000Y-150772500D03*
X161500000Y-152347500D03*
X159090000Y-75532500D03*
X159090000Y-77107500D03*
D21*
X176200000Y-140000000D03*
X169800000Y-140000000D03*
X169800000Y-144000000D03*
X176200000Y-144000000D03*
D39*
X128750000Y-75300000D03*
X128750000Y-69700000D03*
D40*
X161600000Y-77575000D03*
X161100000Y-77575000D03*
X160600000Y-77575000D03*
X160600000Y-76425000D03*
X161100000Y-76425000D03*
X161600000Y-76425000D03*
D41*
X163325000Y-77650000D03*
X163325000Y-77000000D03*
X163325000Y-76350000D03*
X165275000Y-76350000D03*
X165275000Y-77000000D03*
X165275000Y-77650000D03*
D42*
X123700000Y-111150000D03*
X123700000Y-109150000D03*
D13*
X118212500Y-69945000D03*
X119787500Y-69945000D03*
D20*
X151100000Y-73562500D03*
X151100000Y-75137500D03*
D43*
X166600000Y-142882500D03*
X166600000Y-144757500D03*
D44*
X133325000Y-80570000D03*
X127075000Y-80570000D03*
D24*
X175862500Y-136120000D03*
X177737500Y-136120000D03*
D45*
X166500000Y-140870000D03*
X166500000Y-137570000D03*
D15*
X147600000Y-71187500D03*
X147600000Y-69612500D03*
X152810000Y-129097500D03*
X152810000Y-127522500D03*
D46*
X156825000Y-137132500D03*
X156175000Y-137132500D03*
X155525000Y-137132500D03*
X154875000Y-137132500D03*
X154225000Y-137132500D03*
X153575000Y-137132500D03*
X152925000Y-137132500D03*
X152275000Y-137132500D03*
X151625000Y-137132500D03*
X150975000Y-137132500D03*
X150975000Y-131407500D03*
X151625000Y-131407500D03*
X152275000Y-131407500D03*
X152925000Y-131407500D03*
X153575000Y-131407500D03*
X154225000Y-131407500D03*
X154875000Y-131407500D03*
X155525000Y-131407500D03*
X156175000Y-131407500D03*
X156825000Y-131407500D03*
D47*
X142815000Y-72887500D03*
X143465000Y-72887500D03*
X144115000Y-72887500D03*
X144765000Y-72887500D03*
X145415000Y-72887500D03*
X146065000Y-72887500D03*
X146715000Y-72887500D03*
X147365000Y-72887500D03*
X148015000Y-72887500D03*
X148665000Y-72887500D03*
X148665000Y-78612500D03*
X148015000Y-78612500D03*
X147365000Y-78612500D03*
X146715000Y-78612500D03*
X146065000Y-78612500D03*
X145415000Y-78612500D03*
X144765000Y-78612500D03*
X144115000Y-78612500D03*
X143465000Y-78612500D03*
X142815000Y-78612500D03*
D48*
X167825000Y-148050000D03*
X165775000Y-148050000D03*
D20*
X178600000Y-81112500D03*
X178600000Y-82687500D03*
D14*
X131637500Y-86750000D03*
X130062500Y-86750000D03*
D49*
X137375000Y-137800000D03*
X135475000Y-137800000D03*
X136425000Y-135800000D03*
D14*
X136587500Y-134175000D03*
X135012500Y-134175000D03*
D16*
X116250000Y-132835000D03*
X116250000Y-131865000D03*
X116450000Y-127485000D03*
X116450000Y-126515000D03*
D50*
X157000000Y-65600000D03*
X157000000Y-62800000D03*
D20*
X163250000Y-73112500D03*
X163250000Y-74687500D03*
X178425000Y-105512500D03*
X178425000Y-107087500D03*
X156700000Y-150762500D03*
X156700000Y-152337500D03*
D14*
X151337500Y-69800000D03*
X149762500Y-69800000D03*
D15*
X154950000Y-65987500D03*
X154950000Y-64412500D03*
D51*
X166865561Y-75366031D03*
X165534439Y-74433969D03*
D15*
X116100000Y-119887500D03*
X116100000Y-118312500D03*
D37*
X145915000Y-68100000D03*
X146885000Y-68100000D03*
D52*
X139800000Y-65875000D03*
X139800000Y-67525000D03*
D53*
X180075000Y-87406428D03*
X180075000Y-88206428D03*
D54*
X180305000Y-86056428D03*
X180305000Y-89556428D03*
D55*
X133825000Y-133687500D03*
X133325000Y-133687500D03*
X132825000Y-133687500D03*
X132325000Y-133687500D03*
X131825000Y-133687500D03*
X131325000Y-133687500D03*
X130825000Y-133687500D03*
X130325000Y-133687500D03*
X129825000Y-133687500D03*
X129325000Y-133687500D03*
X128825000Y-133687500D03*
X128325000Y-133687500D03*
X127825000Y-133687500D03*
X127325000Y-133687500D03*
X126825000Y-133687500D03*
X126325000Y-133687500D03*
X125825000Y-133687500D03*
X125325000Y-133687500D03*
X124825000Y-133687500D03*
X124325000Y-133687500D03*
X123825000Y-133687500D03*
X123325000Y-133687500D03*
X122825000Y-133687500D03*
X122325000Y-133687500D03*
X121825000Y-133687500D03*
D56*
X120162500Y-132025000D03*
X120162500Y-131525000D03*
X120162500Y-131025000D03*
X120162500Y-130525000D03*
X120162500Y-130025000D03*
X120162500Y-129525000D03*
X120162500Y-129025000D03*
X120162500Y-128525000D03*
X120162500Y-128025000D03*
X120162500Y-127525000D03*
X120162500Y-127025000D03*
X120162500Y-126525000D03*
X120162500Y-126025000D03*
X120162500Y-125525000D03*
X120162500Y-125025000D03*
X120162500Y-124525000D03*
X120162500Y-124025000D03*
X120162500Y-123525000D03*
X120162500Y-123025000D03*
X120162500Y-122525000D03*
X120162500Y-122025000D03*
X120162500Y-121525000D03*
X120162500Y-121025000D03*
X120162500Y-120525000D03*
X120162500Y-120025000D03*
D55*
X121825000Y-118362500D03*
X122325000Y-118362500D03*
X122825000Y-118362500D03*
X123325000Y-118362500D03*
X123825000Y-118362500D03*
X124325000Y-118362500D03*
X124825000Y-118362500D03*
X125325000Y-118362500D03*
X125825000Y-118362500D03*
X126325000Y-118362500D03*
X126825000Y-118362500D03*
X127325000Y-118362500D03*
X127825000Y-118362500D03*
X128325000Y-118362500D03*
X128825000Y-118362500D03*
X129325000Y-118362500D03*
X129825000Y-118362500D03*
X130325000Y-118362500D03*
X130825000Y-118362500D03*
X131325000Y-118362500D03*
X131825000Y-118362500D03*
X132325000Y-118362500D03*
X132825000Y-118362500D03*
X133325000Y-118362500D03*
X133825000Y-118362500D03*
D56*
X135487500Y-120025000D03*
X135487500Y-120525000D03*
X135487500Y-121025000D03*
X135487500Y-121525000D03*
X135487500Y-122025000D03*
X135487500Y-122525000D03*
X135487500Y-123025000D03*
X135487500Y-123525000D03*
X135487500Y-124025000D03*
X135487500Y-124525000D03*
X135487500Y-125025000D03*
X135487500Y-125525000D03*
X135487500Y-126025000D03*
X135487500Y-126525000D03*
X135487500Y-127025000D03*
X135487500Y-127525000D03*
X135487500Y-128025000D03*
X135487500Y-128525000D03*
X135487500Y-129025000D03*
X135487500Y-129525000D03*
X135487500Y-130025000D03*
X135487500Y-130525000D03*
X135487500Y-131025000D03*
X135487500Y-131525000D03*
X135487500Y-132025000D03*
D26*
X173498459Y-98956587D03*
X173198774Y-98214840D03*
D27*
X173790926Y-100294445D03*
X172479803Y-97049301D03*
D53*
X180055000Y-81990000D03*
X180055000Y-82790000D03*
D54*
X180285000Y-80640000D03*
X180285000Y-84140000D03*
D57*
X176132498Y-78706677D03*
X164871644Y-69257699D03*
D58*
X170800000Y-129425000D03*
X169150000Y-129425000D03*
D49*
X174875000Y-127100000D03*
X172975000Y-127100000D03*
X173925000Y-125100000D03*
D53*
X180175000Y-125800000D03*
X180175000Y-126600000D03*
D54*
X180405000Y-124450000D03*
X180405000Y-127950000D03*
D52*
X138100000Y-65875000D03*
X138100000Y-67525000D03*
D53*
X180037500Y-76560000D03*
X180037500Y-77360000D03*
D54*
X180267500Y-75210000D03*
X180267500Y-78710000D03*
D58*
X174675000Y-129400000D03*
X173025000Y-129400000D03*
D59*
X139800000Y-70625000D03*
X139800000Y-68975000D03*
X136400000Y-73925000D03*
X136400000Y-72275000D03*
D52*
X139700000Y-73575000D03*
X139700000Y-75225000D03*
D49*
X170975000Y-127100000D03*
X169075000Y-127100000D03*
X170025000Y-125100000D03*
D58*
X152045000Y-77050000D03*
X150395000Y-77050000D03*
D52*
X144350000Y-65875000D03*
X144350000Y-67525000D03*
D53*
X177525000Y-111550000D03*
X177525000Y-110750000D03*
D54*
X177295000Y-112900000D03*
X177295000Y-109400000D03*
D52*
X144300000Y-68975000D03*
X144300000Y-70625000D03*
X138100000Y-68975000D03*
X138100000Y-70625000D03*
D60*
X134920000Y-68612500D03*
X133680000Y-68612500D03*
X134920000Y-69387500D03*
X133680000Y-69387500D03*
D61*
X133300000Y-67450000D03*
X133800000Y-67450000D03*
X134300000Y-67450000D03*
X134800000Y-67450000D03*
X135300000Y-67450000D03*
X135300000Y-70550000D03*
X134800000Y-70550000D03*
X134300000Y-70550000D03*
X133800000Y-70550000D03*
X133300000Y-70550000D03*
D59*
X138100000Y-73925000D03*
X138100000Y-72275000D03*
M02*
