G04 #@! TF.GenerationSoftware,KiCad,Pcbnew,6.0.11+dfsg-1~bpo11+1*
G04 #@! TF.CreationDate,2023-05-24T11:45:56-04:00*
G04 #@! TF.ProjectId,RUSP_Mainboard,52555350-5f4d-4616-996e-626f6172642e,rev?*
G04 #@! TF.SameCoordinates,Original*
G04 #@! TF.FileFunction,Soldermask,Bot*
G04 #@! TF.FilePolarity,Negative*
%FSLAX46Y46*%
G04 Gerber Fmt 4.6, Leading zero omitted, Abs format (unit mm)*
G04 Created by KiCad (PCBNEW 6.0.11+dfsg-1~bpo11+1) date 2023-05-24 11:45:56*
%MOMM*%
%LPD*%
G01*
G04 APERTURE LIST*
G04 Aperture macros list*
%AMRoundRect*
0 Rectangle with rounded corners*
0 $1 Rounding radius*
0 $2 $3 $4 $5 $6 $7 $8 $9 X,Y pos of 4 corners*
0 Add a 4 corners polygon primitive as box body*
4,1,4,$2,$3,$4,$5,$6,$7,$8,$9,$2,$3,0*
0 Add four circle primitives for the rounded corners*
1,1,$1+$1,$2,$3*
1,1,$1+$1,$4,$5*
1,1,$1+$1,$6,$7*
1,1,$1+$1,$8,$9*
0 Add four rect primitives between the rounded corners*
20,1,$1+$1,$2,$3,$4,$5,0*
20,1,$1+$1,$4,$5,$6,$7,0*
20,1,$1+$1,$6,$7,$8,$9,0*
20,1,$1+$1,$8,$9,$2,$3,0*%
%AMRotRect*
0 Rectangle, with rotation*
0 The origin of the aperture is its center*
0 $1 length*
0 $2 width*
0 $3 Rotation angle, in degrees counterclockwise*
0 Add horizontal line*
21,1,$1,$2,0,0,$3*%
%AMFreePoly0*
4,1,10,0.140000,0.000000,0.121244,-0.070000,0.070000,-0.121244,0.000000,-0.140000,-0.070000,-0.121244,-0.121244,-0.070000,-0.140000,0.000000,-0.140000,0.710000,0.140000,0.710000,0.140000,0.000000,0.140000,0.000000,$1*%
G04 Aperture macros list end*
%ADD10C,0.010000*%
%ADD11C,1.020000*%
%ADD12C,2.300000*%
%ADD13C,1.600000*%
%ADD14C,0.700000*%
%ADD15C,0.600000*%
%ADD16O,1.000000X2.000000*%
%ADD17O,1.500000X2.500000*%
%ADD18C,1.100000*%
%ADD19C,2.375000*%
%ADD20C,0.991000*%
%ADD21C,2.000000*%
%ADD22R,0.900000X0.800000*%
%ADD23RoundRect,0.218750X-0.218750X-0.256250X0.218750X-0.256250X0.218750X0.256250X-0.218750X0.256250X0*%
%ADD24RoundRect,0.218750X0.218750X0.256250X-0.218750X0.256250X-0.218750X-0.256250X0.218750X-0.256250X0*%
%ADD25RoundRect,0.218750X0.256250X-0.218750X0.256250X0.218750X-0.256250X0.218750X-0.256250X-0.218750X0*%
%ADD26RoundRect,0.147500X0.172500X-0.147500X0.172500X0.147500X-0.172500X0.147500X-0.172500X-0.147500X0*%
%ADD27RoundRect,0.147500X0.147500X0.172500X-0.147500X0.172500X-0.147500X-0.172500X0.147500X-0.172500X0*%
%ADD28RoundRect,0.147500X-0.172500X0.147500X-0.172500X-0.147500X0.172500X-0.147500X0.172500X0.147500X0*%
%ADD29RoundRect,0.225000X0.225000X0.250000X-0.225000X0.250000X-0.225000X-0.250000X0.225000X-0.250000X0*%
%ADD30RoundRect,0.218750X-0.256250X0.218750X-0.256250X-0.218750X0.256250X-0.218750X0.256250X0.218750X0*%
%ADD31R,2.400000X1.100000*%
%ADD32R,1.000000X1.000000*%
%ADD33C,5.900000*%
%ADD34R,1.600000X1.600000*%
%ADD35R,1.800000X1.600000*%
%ADD36RoundRect,0.243750X-0.243750X-0.456250X0.243750X-0.456250X0.243750X0.456250X-0.243750X0.456250X0*%
%ADD37RoundRect,0.225000X-0.250000X0.225000X-0.250000X-0.225000X0.250000X-0.225000X0.250000X0.225000X0*%
%ADD38RotRect,0.500000X0.800000X292.000000*%
%ADD39RotRect,1.500000X1.000000X292.000000*%
%ADD40RoundRect,0.250000X0.375000X0.625000X-0.375000X0.625000X-0.375000X-0.625000X0.375000X-0.625000X0*%
%ADD41FreePoly0,90.000000*%
%ADD42FreePoly0,0.000000*%
%ADD43FreePoly0,270.000000*%
%ADD44FreePoly0,180.000000*%
%ADD45R,2.700000X2.700000*%
%ADD46RoundRect,0.218750X-0.319536X0.106829X-0.155646X-0.298814X0.319536X-0.106829X0.155646X0.298814X0*%
%ADD47RoundRect,0.218750X0.334028X0.044059X0.008902X0.336803X-0.334028X-0.044059X-0.008902X-0.336803X0*%
%ADD48RoundRect,0.200000X-0.200000X-0.275000X0.200000X-0.275000X0.200000X0.275000X-0.200000X0.275000X0*%
%ADD49RoundRect,0.147500X-0.147500X-0.172500X0.147500X-0.172500X0.147500X0.172500X-0.147500X0.172500X0*%
%ADD50RoundRect,0.212500X0.425571X-0.155068X-0.109734X0.439448X-0.425571X0.155068X0.109734X-0.439448X0*%
%ADD51O,3.000000X2.000000*%
%ADD52R,1.500000X3.000000*%
%ADD53R,1.600000X3.500000*%
%ADD54R,0.280000X0.750000*%
%ADD55R,3.400000X1.200000*%
%ADD56C,1.500000*%
%ADD57RoundRect,0.243750X-0.456250X0.243750X-0.456250X-0.243750X0.456250X-0.243750X0.456250X0.243750X0*%
%ADD58R,2.370000X2.550000*%
%ADD59R,1.200000X0.900000*%
%ADD60RoundRect,0.100000X0.100000X-0.637500X0.100000X0.637500X-0.100000X0.637500X-0.100000X-0.637500X0*%
%ADD61RoundRect,0.100000X-0.100000X0.637500X-0.100000X-0.637500X0.100000X-0.637500X0.100000X0.637500X0*%
%ADD62RoundRect,0.249999X0.325001X0.450001X-0.325001X0.450001X-0.325001X-0.450001X0.325001X-0.450001X0*%
%ADD63R,0.800000X0.900000*%
%ADD64RoundRect,0.250000X0.625000X-0.375000X0.625000X0.375000X-0.625000X0.375000X-0.625000X-0.375000X0*%
%ADD65C,2.200000*%
%ADD66RoundRect,0.212500X0.449546X-0.055361X-0.205776X0.403500X-0.449546X0.055361X0.205776X-0.403500X0*%
%ADD67RoundRect,0.200000X-0.275000X0.200000X-0.275000X-0.200000X0.275000X-0.200000X0.275000X0.200000X0*%
%ADD68R,0.800000X0.500000*%
%ADD69R,1.000000X1.500000*%
%ADD70RoundRect,0.070000X0.070000X-0.667500X0.070000X0.667500X-0.070000X0.667500X-0.070000X-0.667500X0*%
%ADD71RoundRect,0.070000X0.667500X-0.070000X0.667500X0.070000X-0.667500X0.070000X-0.667500X-0.070000X0*%
%ADD72RoundRect,0.500000X1.470460X-0.581159X-0.827673X1.347204X-1.470460X0.581159X0.827673X-1.347204X0*%
%ADD73RoundRect,0.200000X0.200000X0.275000X-0.200000X0.275000X-0.200000X-0.275000X0.200000X-0.275000X0*%
%ADD74R,2.000000X2.000000*%
%ADD75RoundRect,0.200000X0.275000X-0.200000X0.275000X0.200000X-0.275000X0.200000X-0.275000X-0.200000X0*%
%ADD76C,4.500000*%
%ADD77R,0.280000X0.650000*%
%ADD78R,2.480000X1.550000*%
G04 APERTURE END LIST*
G36*
X164725234Y-76150137D02*
G01*
X164730453Y-76150548D01*
X164735643Y-76151231D01*
X164740791Y-76152185D01*
X164745882Y-76153407D01*
X164750902Y-76154894D01*
X164755837Y-76156642D01*
X164760674Y-76158645D01*
X164765399Y-76160899D01*
X164770000Y-76163397D01*
X164774464Y-76166133D01*
X164778779Y-76169098D01*
X164782932Y-76172285D01*
X164786913Y-76175686D01*
X164790711Y-76179289D01*
X164794314Y-76183087D01*
X164797715Y-76187068D01*
X164800902Y-76191221D01*
X164803867Y-76195536D01*
X164806603Y-76200000D01*
X164809101Y-76204601D01*
X164811355Y-76209326D01*
X164813358Y-76214163D01*
X164815106Y-76219098D01*
X164816593Y-76224118D01*
X164817815Y-76229209D01*
X164818769Y-76234357D01*
X164819452Y-76239547D01*
X164819863Y-76244766D01*
X164820000Y-76250000D01*
X164820000Y-76450000D01*
X164819863Y-76455234D01*
X164819452Y-76460453D01*
X164818769Y-76465643D01*
X164817815Y-76470791D01*
X164816593Y-76475882D01*
X164815106Y-76480902D01*
X164813358Y-76485837D01*
X164811355Y-76490674D01*
X164809101Y-76495399D01*
X164806603Y-76500000D01*
X164803867Y-76504464D01*
X164800902Y-76508779D01*
X164797715Y-76512932D01*
X164794314Y-76516913D01*
X164790711Y-76520711D01*
X164786913Y-76524314D01*
X164782932Y-76527715D01*
X164778779Y-76530902D01*
X164774464Y-76533867D01*
X164770000Y-76536603D01*
X164765399Y-76539101D01*
X164760674Y-76541355D01*
X164755837Y-76543358D01*
X164750902Y-76545106D01*
X164745882Y-76546593D01*
X164740791Y-76547815D01*
X164735643Y-76548769D01*
X164730453Y-76549452D01*
X164725234Y-76549863D01*
X164720000Y-76550000D01*
X164070000Y-76550000D01*
X164064766Y-76549863D01*
X164059547Y-76549452D01*
X164054357Y-76548769D01*
X164049209Y-76547815D01*
X164044118Y-76546593D01*
X164039098Y-76545106D01*
X164034163Y-76543358D01*
X164029326Y-76541355D01*
X164024601Y-76539101D01*
X164020000Y-76536603D01*
X164015536Y-76533867D01*
X164011221Y-76530902D01*
X164007068Y-76527715D01*
X164003087Y-76524314D01*
X163999289Y-76520711D01*
X163995686Y-76516913D01*
X163992285Y-76512932D01*
X163989098Y-76508779D01*
X163986133Y-76504464D01*
X163983397Y-76500000D01*
X163980899Y-76495399D01*
X163978645Y-76490674D01*
X163976642Y-76485837D01*
X163974894Y-76480902D01*
X163973407Y-76475882D01*
X163972185Y-76470791D01*
X163971231Y-76465643D01*
X163970548Y-76460453D01*
X163970137Y-76455234D01*
X163970000Y-76450000D01*
X163970000Y-76250000D01*
X163970137Y-76244766D01*
X163970548Y-76239547D01*
X163971231Y-76234357D01*
X163972185Y-76229209D01*
X163973407Y-76224118D01*
X163974894Y-76219098D01*
X163976642Y-76214163D01*
X163978645Y-76209326D01*
X163980899Y-76204601D01*
X163983397Y-76200000D01*
X163986133Y-76195536D01*
X163989098Y-76191221D01*
X163992285Y-76187068D01*
X163995686Y-76183087D01*
X163999289Y-76179289D01*
X164003087Y-76175686D01*
X164007068Y-76172285D01*
X164011221Y-76169098D01*
X164015536Y-76166133D01*
X164020000Y-76163397D01*
X164024601Y-76160899D01*
X164029326Y-76158645D01*
X164034163Y-76156642D01*
X164039098Y-76154894D01*
X164044118Y-76153407D01*
X164049209Y-76152185D01*
X164054357Y-76151231D01*
X164059547Y-76150548D01*
X164064766Y-76150137D01*
X164070000Y-76150000D01*
X164720000Y-76150000D01*
X164725234Y-76150137D01*
G37*
D10*
X164725234Y-76150137D02*
X164730453Y-76150548D01*
X164735643Y-76151231D01*
X164740791Y-76152185D01*
X164745882Y-76153407D01*
X164750902Y-76154894D01*
X164755837Y-76156642D01*
X164760674Y-76158645D01*
X164765399Y-76160899D01*
X164770000Y-76163397D01*
X164774464Y-76166133D01*
X164778779Y-76169098D01*
X164782932Y-76172285D01*
X164786913Y-76175686D01*
X164790711Y-76179289D01*
X164794314Y-76183087D01*
X164797715Y-76187068D01*
X164800902Y-76191221D01*
X164803867Y-76195536D01*
X164806603Y-76200000D01*
X164809101Y-76204601D01*
X164811355Y-76209326D01*
X164813358Y-76214163D01*
X164815106Y-76219098D01*
X164816593Y-76224118D01*
X164817815Y-76229209D01*
X164818769Y-76234357D01*
X164819452Y-76239547D01*
X164819863Y-76244766D01*
X164820000Y-76250000D01*
X164820000Y-76450000D01*
X164819863Y-76455234D01*
X164819452Y-76460453D01*
X164818769Y-76465643D01*
X164817815Y-76470791D01*
X164816593Y-76475882D01*
X164815106Y-76480902D01*
X164813358Y-76485837D01*
X164811355Y-76490674D01*
X164809101Y-76495399D01*
X164806603Y-76500000D01*
X164803867Y-76504464D01*
X164800902Y-76508779D01*
X164797715Y-76512932D01*
X164794314Y-76516913D01*
X164790711Y-76520711D01*
X164786913Y-76524314D01*
X164782932Y-76527715D01*
X164778779Y-76530902D01*
X164774464Y-76533867D01*
X164770000Y-76536603D01*
X164765399Y-76539101D01*
X164760674Y-76541355D01*
X164755837Y-76543358D01*
X164750902Y-76545106D01*
X164745882Y-76546593D01*
X164740791Y-76547815D01*
X164735643Y-76548769D01*
X164730453Y-76549452D01*
X164725234Y-76549863D01*
X164720000Y-76550000D01*
X164070000Y-76550000D01*
X164064766Y-76549863D01*
X164059547Y-76549452D01*
X164054357Y-76548769D01*
X164049209Y-76547815D01*
X164044118Y-76546593D01*
X164039098Y-76545106D01*
X164034163Y-76543358D01*
X164029326Y-76541355D01*
X164024601Y-76539101D01*
X164020000Y-76536603D01*
X164015536Y-76533867D01*
X164011221Y-76530902D01*
X164007068Y-76527715D01*
X164003087Y-76524314D01*
X163999289Y-76520711D01*
X163995686Y-76516913D01*
X163992285Y-76512932D01*
X163989098Y-76508779D01*
X163986133Y-76504464D01*
X163983397Y-76500000D01*
X163980899Y-76495399D01*
X163978645Y-76490674D01*
X163976642Y-76485837D01*
X163974894Y-76480902D01*
X163973407Y-76475882D01*
X163972185Y-76470791D01*
X163971231Y-76465643D01*
X163970548Y-76460453D01*
X163970137Y-76455234D01*
X163970000Y-76450000D01*
X163970000Y-76250000D01*
X163970137Y-76244766D01*
X163970548Y-76239547D01*
X163971231Y-76234357D01*
X163972185Y-76229209D01*
X163973407Y-76224118D01*
X163974894Y-76219098D01*
X163976642Y-76214163D01*
X163978645Y-76209326D01*
X163980899Y-76204601D01*
X163983397Y-76200000D01*
X163986133Y-76195536D01*
X163989098Y-76191221D01*
X163992285Y-76187068D01*
X163995686Y-76183087D01*
X163999289Y-76179289D01*
X164003087Y-76175686D01*
X164007068Y-76172285D01*
X164011221Y-76169098D01*
X164015536Y-76166133D01*
X164020000Y-76163397D01*
X164024601Y-76160899D01*
X164029326Y-76158645D01*
X164034163Y-76156642D01*
X164039098Y-76154894D01*
X164044118Y-76153407D01*
X164049209Y-76152185D01*
X164054357Y-76151231D01*
X164059547Y-76150548D01*
X164064766Y-76150137D01*
X164070000Y-76150000D01*
X164720000Y-76150000D01*
X164725234Y-76150137D01*
G36*
X163505234Y-77450137D02*
G01*
X163510453Y-77450548D01*
X163515643Y-77451231D01*
X163520791Y-77452185D01*
X163525882Y-77453407D01*
X163530902Y-77454894D01*
X163535837Y-77456642D01*
X163540674Y-77458645D01*
X163545399Y-77460899D01*
X163550000Y-77463397D01*
X163554464Y-77466133D01*
X163558779Y-77469098D01*
X163562932Y-77472285D01*
X163566913Y-77475686D01*
X163570711Y-77479289D01*
X163574314Y-77483087D01*
X163577715Y-77487068D01*
X163580902Y-77491221D01*
X163583867Y-77495536D01*
X163586603Y-77500000D01*
X163589101Y-77504601D01*
X163591355Y-77509326D01*
X163593358Y-77514163D01*
X163595106Y-77519098D01*
X163596593Y-77524118D01*
X163597815Y-77529209D01*
X163598769Y-77534357D01*
X163599452Y-77539547D01*
X163599863Y-77544766D01*
X163600000Y-77550000D01*
X163600000Y-77750000D01*
X163599863Y-77755234D01*
X163599452Y-77760453D01*
X163598769Y-77765643D01*
X163597815Y-77770791D01*
X163596593Y-77775882D01*
X163595106Y-77780902D01*
X163593358Y-77785837D01*
X163591355Y-77790674D01*
X163589101Y-77795399D01*
X163586603Y-77800000D01*
X163583867Y-77804464D01*
X163580902Y-77808779D01*
X163577715Y-77812932D01*
X163574314Y-77816913D01*
X163570711Y-77820711D01*
X163566913Y-77824314D01*
X163562932Y-77827715D01*
X163558779Y-77830902D01*
X163554464Y-77833867D01*
X163550000Y-77836603D01*
X163545399Y-77839101D01*
X163540674Y-77841355D01*
X163535837Y-77843358D01*
X163530902Y-77845106D01*
X163525882Y-77846593D01*
X163520791Y-77847815D01*
X163515643Y-77848769D01*
X163510453Y-77849452D01*
X163505234Y-77849863D01*
X163500000Y-77850000D01*
X163150000Y-77850000D01*
X163144766Y-77849863D01*
X163139547Y-77849452D01*
X163134357Y-77848769D01*
X163129209Y-77847815D01*
X163124118Y-77846593D01*
X163119098Y-77845106D01*
X163114163Y-77843358D01*
X163109326Y-77841355D01*
X163104601Y-77839101D01*
X163100000Y-77836603D01*
X163095536Y-77833867D01*
X163091221Y-77830902D01*
X163087068Y-77827715D01*
X163083087Y-77824314D01*
X163079289Y-77820711D01*
X163075686Y-77816913D01*
X163072285Y-77812932D01*
X163069098Y-77808779D01*
X163066133Y-77804464D01*
X163063397Y-77800000D01*
X163060899Y-77795399D01*
X163058645Y-77790674D01*
X163056642Y-77785837D01*
X163054894Y-77780902D01*
X163053407Y-77775882D01*
X163052185Y-77770791D01*
X163051231Y-77765643D01*
X163050548Y-77760453D01*
X163050137Y-77755234D01*
X163050000Y-77750000D01*
X163050000Y-77550000D01*
X163050137Y-77544766D01*
X163050548Y-77539547D01*
X163051231Y-77534357D01*
X163052185Y-77529209D01*
X163053407Y-77524118D01*
X163054894Y-77519098D01*
X163056642Y-77514163D01*
X163058645Y-77509326D01*
X163060899Y-77504601D01*
X163063397Y-77500000D01*
X163066133Y-77495536D01*
X163069098Y-77491221D01*
X163072285Y-77487068D01*
X163075686Y-77483087D01*
X163079289Y-77479289D01*
X163083087Y-77475686D01*
X163087068Y-77472285D01*
X163091221Y-77469098D01*
X163095536Y-77466133D01*
X163100000Y-77463397D01*
X163104601Y-77460899D01*
X163109326Y-77458645D01*
X163114163Y-77456642D01*
X163119098Y-77454894D01*
X163124118Y-77453407D01*
X163129209Y-77452185D01*
X163134357Y-77451231D01*
X163139547Y-77450548D01*
X163144766Y-77450137D01*
X163150000Y-77450000D01*
X163500000Y-77450000D01*
X163505234Y-77450137D01*
G37*
X163505234Y-77450137D02*
X163510453Y-77450548D01*
X163515643Y-77451231D01*
X163520791Y-77452185D01*
X163525882Y-77453407D01*
X163530902Y-77454894D01*
X163535837Y-77456642D01*
X163540674Y-77458645D01*
X163545399Y-77460899D01*
X163550000Y-77463397D01*
X163554464Y-77466133D01*
X163558779Y-77469098D01*
X163562932Y-77472285D01*
X163566913Y-77475686D01*
X163570711Y-77479289D01*
X163574314Y-77483087D01*
X163577715Y-77487068D01*
X163580902Y-77491221D01*
X163583867Y-77495536D01*
X163586603Y-77500000D01*
X163589101Y-77504601D01*
X163591355Y-77509326D01*
X163593358Y-77514163D01*
X163595106Y-77519098D01*
X163596593Y-77524118D01*
X163597815Y-77529209D01*
X163598769Y-77534357D01*
X163599452Y-77539547D01*
X163599863Y-77544766D01*
X163600000Y-77550000D01*
X163600000Y-77750000D01*
X163599863Y-77755234D01*
X163599452Y-77760453D01*
X163598769Y-77765643D01*
X163597815Y-77770791D01*
X163596593Y-77775882D01*
X163595106Y-77780902D01*
X163593358Y-77785837D01*
X163591355Y-77790674D01*
X163589101Y-77795399D01*
X163586603Y-77800000D01*
X163583867Y-77804464D01*
X163580902Y-77808779D01*
X163577715Y-77812932D01*
X163574314Y-77816913D01*
X163570711Y-77820711D01*
X163566913Y-77824314D01*
X163562932Y-77827715D01*
X163558779Y-77830902D01*
X163554464Y-77833867D01*
X163550000Y-77836603D01*
X163545399Y-77839101D01*
X163540674Y-77841355D01*
X163535837Y-77843358D01*
X163530902Y-77845106D01*
X163525882Y-77846593D01*
X163520791Y-77847815D01*
X163515643Y-77848769D01*
X163510453Y-77849452D01*
X163505234Y-77849863D01*
X163500000Y-77850000D01*
X163150000Y-77850000D01*
X163144766Y-77849863D01*
X163139547Y-77849452D01*
X163134357Y-77848769D01*
X163129209Y-77847815D01*
X163124118Y-77846593D01*
X163119098Y-77845106D01*
X163114163Y-77843358D01*
X163109326Y-77841355D01*
X163104601Y-77839101D01*
X163100000Y-77836603D01*
X163095536Y-77833867D01*
X163091221Y-77830902D01*
X163087068Y-77827715D01*
X163083087Y-77824314D01*
X163079289Y-77820711D01*
X163075686Y-77816913D01*
X163072285Y-77812932D01*
X163069098Y-77808779D01*
X163066133Y-77804464D01*
X163063397Y-77800000D01*
X163060899Y-77795399D01*
X163058645Y-77790674D01*
X163056642Y-77785837D01*
X163054894Y-77780902D01*
X163053407Y-77775882D01*
X163052185Y-77770791D01*
X163051231Y-77765643D01*
X163050548Y-77760453D01*
X163050137Y-77755234D01*
X163050000Y-77750000D01*
X163050000Y-77550000D01*
X163050137Y-77544766D01*
X163050548Y-77539547D01*
X163051231Y-77534357D01*
X163052185Y-77529209D01*
X163053407Y-77524118D01*
X163054894Y-77519098D01*
X163056642Y-77514163D01*
X163058645Y-77509326D01*
X163060899Y-77504601D01*
X163063397Y-77500000D01*
X163066133Y-77495536D01*
X163069098Y-77491221D01*
X163072285Y-77487068D01*
X163075686Y-77483087D01*
X163079289Y-77479289D01*
X163083087Y-77475686D01*
X163087068Y-77472285D01*
X163091221Y-77469098D01*
X163095536Y-77466133D01*
X163100000Y-77463397D01*
X163104601Y-77460899D01*
X163109326Y-77458645D01*
X163114163Y-77456642D01*
X163119098Y-77454894D01*
X163124118Y-77453407D01*
X163129209Y-77452185D01*
X163134357Y-77451231D01*
X163139547Y-77450548D01*
X163144766Y-77450137D01*
X163150000Y-77450000D01*
X163500000Y-77450000D01*
X163505234Y-77450137D01*
G36*
X163505234Y-76150137D02*
G01*
X163510453Y-76150548D01*
X163515643Y-76151231D01*
X163520791Y-76152185D01*
X163525882Y-76153407D01*
X163530902Y-76154894D01*
X163535837Y-76156642D01*
X163540674Y-76158645D01*
X163545399Y-76160899D01*
X163550000Y-76163397D01*
X163554464Y-76166133D01*
X163558779Y-76169098D01*
X163562932Y-76172285D01*
X163566913Y-76175686D01*
X163570711Y-76179289D01*
X163574314Y-76183087D01*
X163577715Y-76187068D01*
X163580902Y-76191221D01*
X163583867Y-76195536D01*
X163586603Y-76200000D01*
X163589101Y-76204601D01*
X163591355Y-76209326D01*
X163593358Y-76214163D01*
X163595106Y-76219098D01*
X163596593Y-76224118D01*
X163597815Y-76229209D01*
X163598769Y-76234357D01*
X163599452Y-76239547D01*
X163599863Y-76244766D01*
X163600000Y-76250000D01*
X163600000Y-76450000D01*
X163599863Y-76455234D01*
X163599452Y-76460453D01*
X163598769Y-76465643D01*
X163597815Y-76470791D01*
X163596593Y-76475882D01*
X163595106Y-76480902D01*
X163593358Y-76485837D01*
X163591355Y-76490674D01*
X163589101Y-76495399D01*
X163586603Y-76500000D01*
X163583867Y-76504464D01*
X163580902Y-76508779D01*
X163577715Y-76512932D01*
X163574314Y-76516913D01*
X163570711Y-76520711D01*
X163566913Y-76524314D01*
X163562932Y-76527715D01*
X163558779Y-76530902D01*
X163554464Y-76533867D01*
X163550000Y-76536603D01*
X163545399Y-76539101D01*
X163540674Y-76541355D01*
X163535837Y-76543358D01*
X163530902Y-76545106D01*
X163525882Y-76546593D01*
X163520791Y-76547815D01*
X163515643Y-76548769D01*
X163510453Y-76549452D01*
X163505234Y-76549863D01*
X163500000Y-76550000D01*
X163150000Y-76550000D01*
X163144766Y-76549863D01*
X163139547Y-76549452D01*
X163134357Y-76548769D01*
X163129209Y-76547815D01*
X163124118Y-76546593D01*
X163119098Y-76545106D01*
X163114163Y-76543358D01*
X163109326Y-76541355D01*
X163104601Y-76539101D01*
X163100000Y-76536603D01*
X163095536Y-76533867D01*
X163091221Y-76530902D01*
X163087068Y-76527715D01*
X163083087Y-76524314D01*
X163079289Y-76520711D01*
X163075686Y-76516913D01*
X163072285Y-76512932D01*
X163069098Y-76508779D01*
X163066133Y-76504464D01*
X163063397Y-76500000D01*
X163060899Y-76495399D01*
X163058645Y-76490674D01*
X163056642Y-76485837D01*
X163054894Y-76480902D01*
X163053407Y-76475882D01*
X163052185Y-76470791D01*
X163051231Y-76465643D01*
X163050548Y-76460453D01*
X163050137Y-76455234D01*
X163050000Y-76450000D01*
X163050000Y-76250000D01*
X163050137Y-76244766D01*
X163050548Y-76239547D01*
X163051231Y-76234357D01*
X163052185Y-76229209D01*
X163053407Y-76224118D01*
X163054894Y-76219098D01*
X163056642Y-76214163D01*
X163058645Y-76209326D01*
X163060899Y-76204601D01*
X163063397Y-76200000D01*
X163066133Y-76195536D01*
X163069098Y-76191221D01*
X163072285Y-76187068D01*
X163075686Y-76183087D01*
X163079289Y-76179289D01*
X163083087Y-76175686D01*
X163087068Y-76172285D01*
X163091221Y-76169098D01*
X163095536Y-76166133D01*
X163100000Y-76163397D01*
X163104601Y-76160899D01*
X163109326Y-76158645D01*
X163114163Y-76156642D01*
X163119098Y-76154894D01*
X163124118Y-76153407D01*
X163129209Y-76152185D01*
X163134357Y-76151231D01*
X163139547Y-76150548D01*
X163144766Y-76150137D01*
X163150000Y-76150000D01*
X163500000Y-76150000D01*
X163505234Y-76150137D01*
G37*
X163505234Y-76150137D02*
X163510453Y-76150548D01*
X163515643Y-76151231D01*
X163520791Y-76152185D01*
X163525882Y-76153407D01*
X163530902Y-76154894D01*
X163535837Y-76156642D01*
X163540674Y-76158645D01*
X163545399Y-76160899D01*
X163550000Y-76163397D01*
X163554464Y-76166133D01*
X163558779Y-76169098D01*
X163562932Y-76172285D01*
X163566913Y-76175686D01*
X163570711Y-76179289D01*
X163574314Y-76183087D01*
X163577715Y-76187068D01*
X163580902Y-76191221D01*
X163583867Y-76195536D01*
X163586603Y-76200000D01*
X163589101Y-76204601D01*
X163591355Y-76209326D01*
X163593358Y-76214163D01*
X163595106Y-76219098D01*
X163596593Y-76224118D01*
X163597815Y-76229209D01*
X163598769Y-76234357D01*
X163599452Y-76239547D01*
X163599863Y-76244766D01*
X163600000Y-76250000D01*
X163600000Y-76450000D01*
X163599863Y-76455234D01*
X163599452Y-76460453D01*
X163598769Y-76465643D01*
X163597815Y-76470791D01*
X163596593Y-76475882D01*
X163595106Y-76480902D01*
X163593358Y-76485837D01*
X163591355Y-76490674D01*
X163589101Y-76495399D01*
X163586603Y-76500000D01*
X163583867Y-76504464D01*
X163580902Y-76508779D01*
X163577715Y-76512932D01*
X163574314Y-76516913D01*
X163570711Y-76520711D01*
X163566913Y-76524314D01*
X163562932Y-76527715D01*
X163558779Y-76530902D01*
X163554464Y-76533867D01*
X163550000Y-76536603D01*
X163545399Y-76539101D01*
X163540674Y-76541355D01*
X163535837Y-76543358D01*
X163530902Y-76545106D01*
X163525882Y-76546593D01*
X163520791Y-76547815D01*
X163515643Y-76548769D01*
X163510453Y-76549452D01*
X163505234Y-76549863D01*
X163500000Y-76550000D01*
X163150000Y-76550000D01*
X163144766Y-76549863D01*
X163139547Y-76549452D01*
X163134357Y-76548769D01*
X163129209Y-76547815D01*
X163124118Y-76546593D01*
X163119098Y-76545106D01*
X163114163Y-76543358D01*
X163109326Y-76541355D01*
X163104601Y-76539101D01*
X163100000Y-76536603D01*
X163095536Y-76533867D01*
X163091221Y-76530902D01*
X163087068Y-76527715D01*
X163083087Y-76524314D01*
X163079289Y-76520711D01*
X163075686Y-76516913D01*
X163072285Y-76512932D01*
X163069098Y-76508779D01*
X163066133Y-76504464D01*
X163063397Y-76500000D01*
X163060899Y-76495399D01*
X163058645Y-76490674D01*
X163056642Y-76485837D01*
X163054894Y-76480902D01*
X163053407Y-76475882D01*
X163052185Y-76470791D01*
X163051231Y-76465643D01*
X163050548Y-76460453D01*
X163050137Y-76455234D01*
X163050000Y-76450000D01*
X163050000Y-76250000D01*
X163050137Y-76244766D01*
X163050548Y-76239547D01*
X163051231Y-76234357D01*
X163052185Y-76229209D01*
X163053407Y-76224118D01*
X163054894Y-76219098D01*
X163056642Y-76214163D01*
X163058645Y-76209326D01*
X163060899Y-76204601D01*
X163063397Y-76200000D01*
X163066133Y-76195536D01*
X163069098Y-76191221D01*
X163072285Y-76187068D01*
X163075686Y-76183087D01*
X163079289Y-76179289D01*
X163083087Y-76175686D01*
X163087068Y-76172285D01*
X163091221Y-76169098D01*
X163095536Y-76166133D01*
X163100000Y-76163397D01*
X163104601Y-76160899D01*
X163109326Y-76158645D01*
X163114163Y-76156642D01*
X163119098Y-76154894D01*
X163124118Y-76153407D01*
X163129209Y-76152185D01*
X163134357Y-76151231D01*
X163139547Y-76150548D01*
X163144766Y-76150137D01*
X163150000Y-76150000D01*
X163500000Y-76150000D01*
X163505234Y-76150137D01*
G36*
X164755234Y-76800137D02*
G01*
X164760453Y-76800548D01*
X164765643Y-76801231D01*
X164770791Y-76802185D01*
X164775882Y-76803407D01*
X164780902Y-76804894D01*
X164785837Y-76806642D01*
X164790674Y-76808645D01*
X164795399Y-76810899D01*
X164800000Y-76813397D01*
X164804464Y-76816133D01*
X164808779Y-76819098D01*
X164812932Y-76822285D01*
X164816913Y-76825686D01*
X164820711Y-76829289D01*
X164824314Y-76833087D01*
X164827715Y-76837068D01*
X164830902Y-76841221D01*
X164833867Y-76845536D01*
X164836603Y-76850000D01*
X164839101Y-76854601D01*
X164841355Y-76859326D01*
X164843358Y-76864163D01*
X164845106Y-76869098D01*
X164846593Y-76874118D01*
X164847815Y-76879209D01*
X164848769Y-76884357D01*
X164849452Y-76889547D01*
X164849863Y-76894766D01*
X164850000Y-76900000D01*
X164850000Y-77750000D01*
X164849863Y-77755234D01*
X164849452Y-77760453D01*
X164848769Y-77765643D01*
X164847815Y-77770791D01*
X164846593Y-77775882D01*
X164845106Y-77780902D01*
X164843358Y-77785837D01*
X164841355Y-77790674D01*
X164839101Y-77795399D01*
X164836603Y-77800000D01*
X164833867Y-77804464D01*
X164830902Y-77808779D01*
X164827715Y-77812932D01*
X164824314Y-77816913D01*
X164820711Y-77820711D01*
X164816913Y-77824314D01*
X164812932Y-77827715D01*
X164808779Y-77830902D01*
X164804464Y-77833867D01*
X164800000Y-77836603D01*
X164795399Y-77839101D01*
X164790674Y-77841355D01*
X164785837Y-77843358D01*
X164780902Y-77845106D01*
X164775882Y-77846593D01*
X164770791Y-77847815D01*
X164765643Y-77848769D01*
X164760453Y-77849452D01*
X164755234Y-77849863D01*
X164750000Y-77850000D01*
X163850000Y-77850000D01*
X163844766Y-77849863D01*
X163839547Y-77849452D01*
X163834357Y-77848769D01*
X163829209Y-77847815D01*
X163824118Y-77846593D01*
X163819098Y-77845106D01*
X163814163Y-77843358D01*
X163809326Y-77841355D01*
X163804601Y-77839101D01*
X163800000Y-77836603D01*
X163795536Y-77833867D01*
X163791221Y-77830902D01*
X163787068Y-77827715D01*
X163783087Y-77824314D01*
X163779289Y-77820711D01*
X163775686Y-77816913D01*
X163772285Y-77812932D01*
X163769098Y-77808779D01*
X163766133Y-77804464D01*
X163763397Y-77800000D01*
X163760899Y-77795399D01*
X163758645Y-77790674D01*
X163756642Y-77785837D01*
X163754894Y-77780902D01*
X163753407Y-77775882D01*
X163752185Y-77770791D01*
X163751231Y-77765643D01*
X163750548Y-77760453D01*
X163750137Y-77755234D01*
X163750000Y-77750000D01*
X163750000Y-76900000D01*
X163750137Y-76894766D01*
X163750548Y-76889547D01*
X163751231Y-76884357D01*
X163752185Y-76879209D01*
X163753407Y-76874118D01*
X163754894Y-76869098D01*
X163756642Y-76864163D01*
X163758645Y-76859326D01*
X163760899Y-76854601D01*
X163763397Y-76850000D01*
X163766133Y-76845536D01*
X163769098Y-76841221D01*
X163772285Y-76837068D01*
X163775686Y-76833087D01*
X163779289Y-76829289D01*
X163783087Y-76825686D01*
X163787068Y-76822285D01*
X163791221Y-76819098D01*
X163795536Y-76816133D01*
X163800000Y-76813397D01*
X163804601Y-76810899D01*
X163809326Y-76808645D01*
X163814163Y-76806642D01*
X163819098Y-76804894D01*
X163824118Y-76803407D01*
X163829209Y-76802185D01*
X163834357Y-76801231D01*
X163839547Y-76800548D01*
X163844766Y-76800137D01*
X163850000Y-76800000D01*
X164750000Y-76800000D01*
X164755234Y-76800137D01*
G37*
X164755234Y-76800137D02*
X164760453Y-76800548D01*
X164765643Y-76801231D01*
X164770791Y-76802185D01*
X164775882Y-76803407D01*
X164780902Y-76804894D01*
X164785837Y-76806642D01*
X164790674Y-76808645D01*
X164795399Y-76810899D01*
X164800000Y-76813397D01*
X164804464Y-76816133D01*
X164808779Y-76819098D01*
X164812932Y-76822285D01*
X164816913Y-76825686D01*
X164820711Y-76829289D01*
X164824314Y-76833087D01*
X164827715Y-76837068D01*
X164830902Y-76841221D01*
X164833867Y-76845536D01*
X164836603Y-76850000D01*
X164839101Y-76854601D01*
X164841355Y-76859326D01*
X164843358Y-76864163D01*
X164845106Y-76869098D01*
X164846593Y-76874118D01*
X164847815Y-76879209D01*
X164848769Y-76884357D01*
X164849452Y-76889547D01*
X164849863Y-76894766D01*
X164850000Y-76900000D01*
X164850000Y-77750000D01*
X164849863Y-77755234D01*
X164849452Y-77760453D01*
X164848769Y-77765643D01*
X164847815Y-77770791D01*
X164846593Y-77775882D01*
X164845106Y-77780902D01*
X164843358Y-77785837D01*
X164841355Y-77790674D01*
X164839101Y-77795399D01*
X164836603Y-77800000D01*
X164833867Y-77804464D01*
X164830902Y-77808779D01*
X164827715Y-77812932D01*
X164824314Y-77816913D01*
X164820711Y-77820711D01*
X164816913Y-77824314D01*
X164812932Y-77827715D01*
X164808779Y-77830902D01*
X164804464Y-77833867D01*
X164800000Y-77836603D01*
X164795399Y-77839101D01*
X164790674Y-77841355D01*
X164785837Y-77843358D01*
X164780902Y-77845106D01*
X164775882Y-77846593D01*
X164770791Y-77847815D01*
X164765643Y-77848769D01*
X164760453Y-77849452D01*
X164755234Y-77849863D01*
X164750000Y-77850000D01*
X163850000Y-77850000D01*
X163844766Y-77849863D01*
X163839547Y-77849452D01*
X163834357Y-77848769D01*
X163829209Y-77847815D01*
X163824118Y-77846593D01*
X163819098Y-77845106D01*
X163814163Y-77843358D01*
X163809326Y-77841355D01*
X163804601Y-77839101D01*
X163800000Y-77836603D01*
X163795536Y-77833867D01*
X163791221Y-77830902D01*
X163787068Y-77827715D01*
X163783087Y-77824314D01*
X163779289Y-77820711D01*
X163775686Y-77816913D01*
X163772285Y-77812932D01*
X163769098Y-77808779D01*
X163766133Y-77804464D01*
X163763397Y-77800000D01*
X163760899Y-77795399D01*
X163758645Y-77790674D01*
X163756642Y-77785837D01*
X163754894Y-77780902D01*
X163753407Y-77775882D01*
X163752185Y-77770791D01*
X163751231Y-77765643D01*
X163750548Y-77760453D01*
X163750137Y-77755234D01*
X163750000Y-77750000D01*
X163750000Y-76900000D01*
X163750137Y-76894766D01*
X163750548Y-76889547D01*
X163751231Y-76884357D01*
X163752185Y-76879209D01*
X163753407Y-76874118D01*
X163754894Y-76869098D01*
X163756642Y-76864163D01*
X163758645Y-76859326D01*
X163760899Y-76854601D01*
X163763397Y-76850000D01*
X163766133Y-76845536D01*
X163769098Y-76841221D01*
X163772285Y-76837068D01*
X163775686Y-76833087D01*
X163779289Y-76829289D01*
X163783087Y-76825686D01*
X163787068Y-76822285D01*
X163791221Y-76819098D01*
X163795536Y-76816133D01*
X163800000Y-76813397D01*
X163804601Y-76810899D01*
X163809326Y-76808645D01*
X163814163Y-76806642D01*
X163819098Y-76804894D01*
X163824118Y-76803407D01*
X163829209Y-76802185D01*
X163834357Y-76801231D01*
X163839547Y-76800548D01*
X163844766Y-76800137D01*
X163850000Y-76800000D01*
X164750000Y-76800000D01*
X164755234Y-76800137D01*
G36*
X165455234Y-77450137D02*
G01*
X165460453Y-77450548D01*
X165465643Y-77451231D01*
X165470791Y-77452185D01*
X165475882Y-77453407D01*
X165480902Y-77454894D01*
X165485837Y-77456642D01*
X165490674Y-77458645D01*
X165495399Y-77460899D01*
X165500000Y-77463397D01*
X165504464Y-77466133D01*
X165508779Y-77469098D01*
X165512932Y-77472285D01*
X165516913Y-77475686D01*
X165520711Y-77479289D01*
X165524314Y-77483087D01*
X165527715Y-77487068D01*
X165530902Y-77491221D01*
X165533867Y-77495536D01*
X165536603Y-77500000D01*
X165539101Y-77504601D01*
X165541355Y-77509326D01*
X165543358Y-77514163D01*
X165545106Y-77519098D01*
X165546593Y-77524118D01*
X165547815Y-77529209D01*
X165548769Y-77534357D01*
X165549452Y-77539547D01*
X165549863Y-77544766D01*
X165550000Y-77550000D01*
X165550000Y-77750000D01*
X165549863Y-77755234D01*
X165549452Y-77760453D01*
X165548769Y-77765643D01*
X165547815Y-77770791D01*
X165546593Y-77775882D01*
X165545106Y-77780902D01*
X165543358Y-77785837D01*
X165541355Y-77790674D01*
X165539101Y-77795399D01*
X165536603Y-77800000D01*
X165533867Y-77804464D01*
X165530902Y-77808779D01*
X165527715Y-77812932D01*
X165524314Y-77816913D01*
X165520711Y-77820711D01*
X165516913Y-77824314D01*
X165512932Y-77827715D01*
X165508779Y-77830902D01*
X165504464Y-77833867D01*
X165500000Y-77836603D01*
X165495399Y-77839101D01*
X165490674Y-77841355D01*
X165485837Y-77843358D01*
X165480902Y-77845106D01*
X165475882Y-77846593D01*
X165470791Y-77847815D01*
X165465643Y-77848769D01*
X165460453Y-77849452D01*
X165455234Y-77849863D01*
X165450000Y-77850000D01*
X165100000Y-77850000D01*
X165094766Y-77849863D01*
X165089547Y-77849452D01*
X165084357Y-77848769D01*
X165079209Y-77847815D01*
X165074118Y-77846593D01*
X165069098Y-77845106D01*
X165064163Y-77843358D01*
X165059326Y-77841355D01*
X165054601Y-77839101D01*
X165050000Y-77836603D01*
X165045536Y-77833867D01*
X165041221Y-77830902D01*
X165037068Y-77827715D01*
X165033087Y-77824314D01*
X165029289Y-77820711D01*
X165025686Y-77816913D01*
X165022285Y-77812932D01*
X165019098Y-77808779D01*
X165016133Y-77804464D01*
X165013397Y-77800000D01*
X165010899Y-77795399D01*
X165008645Y-77790674D01*
X165006642Y-77785837D01*
X165004894Y-77780902D01*
X165003407Y-77775882D01*
X165002185Y-77770791D01*
X165001231Y-77765643D01*
X165000548Y-77760453D01*
X165000137Y-77755234D01*
X165000000Y-77750000D01*
X165000000Y-77550000D01*
X165000137Y-77544766D01*
X165000548Y-77539547D01*
X165001231Y-77534357D01*
X165002185Y-77529209D01*
X165003407Y-77524118D01*
X165004894Y-77519098D01*
X165006642Y-77514163D01*
X165008645Y-77509326D01*
X165010899Y-77504601D01*
X165013397Y-77500000D01*
X165016133Y-77495536D01*
X165019098Y-77491221D01*
X165022285Y-77487068D01*
X165025686Y-77483087D01*
X165029289Y-77479289D01*
X165033087Y-77475686D01*
X165037068Y-77472285D01*
X165041221Y-77469098D01*
X165045536Y-77466133D01*
X165050000Y-77463397D01*
X165054601Y-77460899D01*
X165059326Y-77458645D01*
X165064163Y-77456642D01*
X165069098Y-77454894D01*
X165074118Y-77453407D01*
X165079209Y-77452185D01*
X165084357Y-77451231D01*
X165089547Y-77450548D01*
X165094766Y-77450137D01*
X165100000Y-77450000D01*
X165450000Y-77450000D01*
X165455234Y-77450137D01*
G37*
X165455234Y-77450137D02*
X165460453Y-77450548D01*
X165465643Y-77451231D01*
X165470791Y-77452185D01*
X165475882Y-77453407D01*
X165480902Y-77454894D01*
X165485837Y-77456642D01*
X165490674Y-77458645D01*
X165495399Y-77460899D01*
X165500000Y-77463397D01*
X165504464Y-77466133D01*
X165508779Y-77469098D01*
X165512932Y-77472285D01*
X165516913Y-77475686D01*
X165520711Y-77479289D01*
X165524314Y-77483087D01*
X165527715Y-77487068D01*
X165530902Y-77491221D01*
X165533867Y-77495536D01*
X165536603Y-77500000D01*
X165539101Y-77504601D01*
X165541355Y-77509326D01*
X165543358Y-77514163D01*
X165545106Y-77519098D01*
X165546593Y-77524118D01*
X165547815Y-77529209D01*
X165548769Y-77534357D01*
X165549452Y-77539547D01*
X165549863Y-77544766D01*
X165550000Y-77550000D01*
X165550000Y-77750000D01*
X165549863Y-77755234D01*
X165549452Y-77760453D01*
X165548769Y-77765643D01*
X165547815Y-77770791D01*
X165546593Y-77775882D01*
X165545106Y-77780902D01*
X165543358Y-77785837D01*
X165541355Y-77790674D01*
X165539101Y-77795399D01*
X165536603Y-77800000D01*
X165533867Y-77804464D01*
X165530902Y-77808779D01*
X165527715Y-77812932D01*
X165524314Y-77816913D01*
X165520711Y-77820711D01*
X165516913Y-77824314D01*
X165512932Y-77827715D01*
X165508779Y-77830902D01*
X165504464Y-77833867D01*
X165500000Y-77836603D01*
X165495399Y-77839101D01*
X165490674Y-77841355D01*
X165485837Y-77843358D01*
X165480902Y-77845106D01*
X165475882Y-77846593D01*
X165470791Y-77847815D01*
X165465643Y-77848769D01*
X165460453Y-77849452D01*
X165455234Y-77849863D01*
X165450000Y-77850000D01*
X165100000Y-77850000D01*
X165094766Y-77849863D01*
X165089547Y-77849452D01*
X165084357Y-77848769D01*
X165079209Y-77847815D01*
X165074118Y-77846593D01*
X165069098Y-77845106D01*
X165064163Y-77843358D01*
X165059326Y-77841355D01*
X165054601Y-77839101D01*
X165050000Y-77836603D01*
X165045536Y-77833867D01*
X165041221Y-77830902D01*
X165037068Y-77827715D01*
X165033087Y-77824314D01*
X165029289Y-77820711D01*
X165025686Y-77816913D01*
X165022285Y-77812932D01*
X165019098Y-77808779D01*
X165016133Y-77804464D01*
X165013397Y-77800000D01*
X165010899Y-77795399D01*
X165008645Y-77790674D01*
X165006642Y-77785837D01*
X165004894Y-77780902D01*
X165003407Y-77775882D01*
X165002185Y-77770791D01*
X165001231Y-77765643D01*
X165000548Y-77760453D01*
X165000137Y-77755234D01*
X165000000Y-77750000D01*
X165000000Y-77550000D01*
X165000137Y-77544766D01*
X165000548Y-77539547D01*
X165001231Y-77534357D01*
X165002185Y-77529209D01*
X165003407Y-77524118D01*
X165004894Y-77519098D01*
X165006642Y-77514163D01*
X165008645Y-77509326D01*
X165010899Y-77504601D01*
X165013397Y-77500000D01*
X165016133Y-77495536D01*
X165019098Y-77491221D01*
X165022285Y-77487068D01*
X165025686Y-77483087D01*
X165029289Y-77479289D01*
X165033087Y-77475686D01*
X165037068Y-77472285D01*
X165041221Y-77469098D01*
X165045536Y-77466133D01*
X165050000Y-77463397D01*
X165054601Y-77460899D01*
X165059326Y-77458645D01*
X165064163Y-77456642D01*
X165069098Y-77454894D01*
X165074118Y-77453407D01*
X165079209Y-77452185D01*
X165084357Y-77451231D01*
X165089547Y-77450548D01*
X165094766Y-77450137D01*
X165100000Y-77450000D01*
X165450000Y-77450000D01*
X165455234Y-77450137D01*
G36*
X165455234Y-76150137D02*
G01*
X165460453Y-76150548D01*
X165465643Y-76151231D01*
X165470791Y-76152185D01*
X165475882Y-76153407D01*
X165480902Y-76154894D01*
X165485837Y-76156642D01*
X165490674Y-76158645D01*
X165495399Y-76160899D01*
X165500000Y-76163397D01*
X165504464Y-76166133D01*
X165508779Y-76169098D01*
X165512932Y-76172285D01*
X165516913Y-76175686D01*
X165520711Y-76179289D01*
X165524314Y-76183087D01*
X165527715Y-76187068D01*
X165530902Y-76191221D01*
X165533867Y-76195536D01*
X165536603Y-76200000D01*
X165539101Y-76204601D01*
X165541355Y-76209326D01*
X165543358Y-76214163D01*
X165545106Y-76219098D01*
X165546593Y-76224118D01*
X165547815Y-76229209D01*
X165548769Y-76234357D01*
X165549452Y-76239547D01*
X165549863Y-76244766D01*
X165550000Y-76250000D01*
X165550000Y-76450000D01*
X165549863Y-76455234D01*
X165549452Y-76460453D01*
X165548769Y-76465643D01*
X165547815Y-76470791D01*
X165546593Y-76475882D01*
X165545106Y-76480902D01*
X165543358Y-76485837D01*
X165541355Y-76490674D01*
X165539101Y-76495399D01*
X165536603Y-76500000D01*
X165533867Y-76504464D01*
X165530902Y-76508779D01*
X165527715Y-76512932D01*
X165524314Y-76516913D01*
X165520711Y-76520711D01*
X165516913Y-76524314D01*
X165512932Y-76527715D01*
X165508779Y-76530902D01*
X165504464Y-76533867D01*
X165500000Y-76536603D01*
X165495399Y-76539101D01*
X165490674Y-76541355D01*
X165485837Y-76543358D01*
X165480902Y-76545106D01*
X165475882Y-76546593D01*
X165470791Y-76547815D01*
X165465643Y-76548769D01*
X165460453Y-76549452D01*
X165455234Y-76549863D01*
X165450000Y-76550000D01*
X165100000Y-76550000D01*
X165094766Y-76549863D01*
X165089547Y-76549452D01*
X165084357Y-76548769D01*
X165079209Y-76547815D01*
X165074118Y-76546593D01*
X165069098Y-76545106D01*
X165064163Y-76543358D01*
X165059326Y-76541355D01*
X165054601Y-76539101D01*
X165050000Y-76536603D01*
X165045536Y-76533867D01*
X165041221Y-76530902D01*
X165037068Y-76527715D01*
X165033087Y-76524314D01*
X165029289Y-76520711D01*
X165025686Y-76516913D01*
X165022285Y-76512932D01*
X165019098Y-76508779D01*
X165016133Y-76504464D01*
X165013397Y-76500000D01*
X165010899Y-76495399D01*
X165008645Y-76490674D01*
X165006642Y-76485837D01*
X165004894Y-76480902D01*
X165003407Y-76475882D01*
X165002185Y-76470791D01*
X165001231Y-76465643D01*
X165000548Y-76460453D01*
X165000137Y-76455234D01*
X165000000Y-76450000D01*
X165000000Y-76250000D01*
X165000137Y-76244766D01*
X165000548Y-76239547D01*
X165001231Y-76234357D01*
X165002185Y-76229209D01*
X165003407Y-76224118D01*
X165004894Y-76219098D01*
X165006642Y-76214163D01*
X165008645Y-76209326D01*
X165010899Y-76204601D01*
X165013397Y-76200000D01*
X165016133Y-76195536D01*
X165019098Y-76191221D01*
X165022285Y-76187068D01*
X165025686Y-76183087D01*
X165029289Y-76179289D01*
X165033087Y-76175686D01*
X165037068Y-76172285D01*
X165041221Y-76169098D01*
X165045536Y-76166133D01*
X165050000Y-76163397D01*
X165054601Y-76160899D01*
X165059326Y-76158645D01*
X165064163Y-76156642D01*
X165069098Y-76154894D01*
X165074118Y-76153407D01*
X165079209Y-76152185D01*
X165084357Y-76151231D01*
X165089547Y-76150548D01*
X165094766Y-76150137D01*
X165100000Y-76150000D01*
X165450000Y-76150000D01*
X165455234Y-76150137D01*
G37*
X165455234Y-76150137D02*
X165460453Y-76150548D01*
X165465643Y-76151231D01*
X165470791Y-76152185D01*
X165475882Y-76153407D01*
X165480902Y-76154894D01*
X165485837Y-76156642D01*
X165490674Y-76158645D01*
X165495399Y-76160899D01*
X165500000Y-76163397D01*
X165504464Y-76166133D01*
X165508779Y-76169098D01*
X165512932Y-76172285D01*
X165516913Y-76175686D01*
X165520711Y-76179289D01*
X165524314Y-76183087D01*
X165527715Y-76187068D01*
X165530902Y-76191221D01*
X165533867Y-76195536D01*
X165536603Y-76200000D01*
X165539101Y-76204601D01*
X165541355Y-76209326D01*
X165543358Y-76214163D01*
X165545106Y-76219098D01*
X165546593Y-76224118D01*
X165547815Y-76229209D01*
X165548769Y-76234357D01*
X165549452Y-76239547D01*
X165549863Y-76244766D01*
X165550000Y-76250000D01*
X165550000Y-76450000D01*
X165549863Y-76455234D01*
X165549452Y-76460453D01*
X165548769Y-76465643D01*
X165547815Y-76470791D01*
X165546593Y-76475882D01*
X165545106Y-76480902D01*
X165543358Y-76485837D01*
X165541355Y-76490674D01*
X165539101Y-76495399D01*
X165536603Y-76500000D01*
X165533867Y-76504464D01*
X165530902Y-76508779D01*
X165527715Y-76512932D01*
X165524314Y-76516913D01*
X165520711Y-76520711D01*
X165516913Y-76524314D01*
X165512932Y-76527715D01*
X165508779Y-76530902D01*
X165504464Y-76533867D01*
X165500000Y-76536603D01*
X165495399Y-76539101D01*
X165490674Y-76541355D01*
X165485837Y-76543358D01*
X165480902Y-76545106D01*
X165475882Y-76546593D01*
X165470791Y-76547815D01*
X165465643Y-76548769D01*
X165460453Y-76549452D01*
X165455234Y-76549863D01*
X165450000Y-76550000D01*
X165100000Y-76550000D01*
X165094766Y-76549863D01*
X165089547Y-76549452D01*
X165084357Y-76548769D01*
X165079209Y-76547815D01*
X165074118Y-76546593D01*
X165069098Y-76545106D01*
X165064163Y-76543358D01*
X165059326Y-76541355D01*
X165054601Y-76539101D01*
X165050000Y-76536603D01*
X165045536Y-76533867D01*
X165041221Y-76530902D01*
X165037068Y-76527715D01*
X165033087Y-76524314D01*
X165029289Y-76520711D01*
X165025686Y-76516913D01*
X165022285Y-76512932D01*
X165019098Y-76508779D01*
X165016133Y-76504464D01*
X165013397Y-76500000D01*
X165010899Y-76495399D01*
X165008645Y-76490674D01*
X165006642Y-76485837D01*
X165004894Y-76480902D01*
X165003407Y-76475882D01*
X165002185Y-76470791D01*
X165001231Y-76465643D01*
X165000548Y-76460453D01*
X165000137Y-76455234D01*
X165000000Y-76450000D01*
X165000000Y-76250000D01*
X165000137Y-76244766D01*
X165000548Y-76239547D01*
X165001231Y-76234357D01*
X165002185Y-76229209D01*
X165003407Y-76224118D01*
X165004894Y-76219098D01*
X165006642Y-76214163D01*
X165008645Y-76209326D01*
X165010899Y-76204601D01*
X165013397Y-76200000D01*
X165016133Y-76195536D01*
X165019098Y-76191221D01*
X165022285Y-76187068D01*
X165025686Y-76183087D01*
X165029289Y-76179289D01*
X165033087Y-76175686D01*
X165037068Y-76172285D01*
X165041221Y-76169098D01*
X165045536Y-76166133D01*
X165050000Y-76163397D01*
X165054601Y-76160899D01*
X165059326Y-76158645D01*
X165064163Y-76156642D01*
X165069098Y-76154894D01*
X165074118Y-76153407D01*
X165079209Y-76152185D01*
X165084357Y-76151231D01*
X165089547Y-76150548D01*
X165094766Y-76150137D01*
X165100000Y-76150000D01*
X165450000Y-76150000D01*
X165455234Y-76150137D01*
G36*
X165455234Y-76800137D02*
G01*
X165460453Y-76800548D01*
X165465643Y-76801231D01*
X165470791Y-76802185D01*
X165475882Y-76803407D01*
X165480902Y-76804894D01*
X165485837Y-76806642D01*
X165490674Y-76808645D01*
X165495399Y-76810899D01*
X165500000Y-76813397D01*
X165504464Y-76816133D01*
X165508779Y-76819098D01*
X165512932Y-76822285D01*
X165516913Y-76825686D01*
X165520711Y-76829289D01*
X165524314Y-76833087D01*
X165527715Y-76837068D01*
X165530902Y-76841221D01*
X165533867Y-76845536D01*
X165536603Y-76850000D01*
X165539101Y-76854601D01*
X165541355Y-76859326D01*
X165543358Y-76864163D01*
X165545106Y-76869098D01*
X165546593Y-76874118D01*
X165547815Y-76879209D01*
X165548769Y-76884357D01*
X165549452Y-76889547D01*
X165549863Y-76894766D01*
X165550000Y-76900000D01*
X165550000Y-77100000D01*
X165549863Y-77105234D01*
X165549452Y-77110453D01*
X165548769Y-77115643D01*
X165547815Y-77120791D01*
X165546593Y-77125882D01*
X165545106Y-77130902D01*
X165543358Y-77135837D01*
X165541355Y-77140674D01*
X165539101Y-77145399D01*
X165536603Y-77150000D01*
X165533867Y-77154464D01*
X165530902Y-77158779D01*
X165527715Y-77162932D01*
X165524314Y-77166913D01*
X165520711Y-77170711D01*
X165516913Y-77174314D01*
X165512932Y-77177715D01*
X165508779Y-77180902D01*
X165504464Y-77183867D01*
X165500000Y-77186603D01*
X165495399Y-77189101D01*
X165490674Y-77191355D01*
X165485837Y-77193358D01*
X165480902Y-77195106D01*
X165475882Y-77196593D01*
X165470791Y-77197815D01*
X165465643Y-77198769D01*
X165460453Y-77199452D01*
X165455234Y-77199863D01*
X165450000Y-77200000D01*
X165100000Y-77200000D01*
X165094766Y-77199863D01*
X165089547Y-77199452D01*
X165084357Y-77198769D01*
X165079209Y-77197815D01*
X165074118Y-77196593D01*
X165069098Y-77195106D01*
X165064163Y-77193358D01*
X165059326Y-77191355D01*
X165054601Y-77189101D01*
X165050000Y-77186603D01*
X165045536Y-77183867D01*
X165041221Y-77180902D01*
X165037068Y-77177715D01*
X165033087Y-77174314D01*
X165029289Y-77170711D01*
X165025686Y-77166913D01*
X165022285Y-77162932D01*
X165019098Y-77158779D01*
X165016133Y-77154464D01*
X165013397Y-77150000D01*
X165010899Y-77145399D01*
X165008645Y-77140674D01*
X165006642Y-77135837D01*
X165004894Y-77130902D01*
X165003407Y-77125882D01*
X165002185Y-77120791D01*
X165001231Y-77115643D01*
X165000548Y-77110453D01*
X165000137Y-77105234D01*
X165000000Y-77100000D01*
X165000000Y-76900000D01*
X165000137Y-76894766D01*
X165000548Y-76889547D01*
X165001231Y-76884357D01*
X165002185Y-76879209D01*
X165003407Y-76874118D01*
X165004894Y-76869098D01*
X165006642Y-76864163D01*
X165008645Y-76859326D01*
X165010899Y-76854601D01*
X165013397Y-76850000D01*
X165016133Y-76845536D01*
X165019098Y-76841221D01*
X165022285Y-76837068D01*
X165025686Y-76833087D01*
X165029289Y-76829289D01*
X165033087Y-76825686D01*
X165037068Y-76822285D01*
X165041221Y-76819098D01*
X165045536Y-76816133D01*
X165050000Y-76813397D01*
X165054601Y-76810899D01*
X165059326Y-76808645D01*
X165064163Y-76806642D01*
X165069098Y-76804894D01*
X165074118Y-76803407D01*
X165079209Y-76802185D01*
X165084357Y-76801231D01*
X165089547Y-76800548D01*
X165094766Y-76800137D01*
X165100000Y-76800000D01*
X165450000Y-76800000D01*
X165455234Y-76800137D01*
G37*
X165455234Y-76800137D02*
X165460453Y-76800548D01*
X165465643Y-76801231D01*
X165470791Y-76802185D01*
X165475882Y-76803407D01*
X165480902Y-76804894D01*
X165485837Y-76806642D01*
X165490674Y-76808645D01*
X165495399Y-76810899D01*
X165500000Y-76813397D01*
X165504464Y-76816133D01*
X165508779Y-76819098D01*
X165512932Y-76822285D01*
X165516913Y-76825686D01*
X165520711Y-76829289D01*
X165524314Y-76833087D01*
X165527715Y-76837068D01*
X165530902Y-76841221D01*
X165533867Y-76845536D01*
X165536603Y-76850000D01*
X165539101Y-76854601D01*
X165541355Y-76859326D01*
X165543358Y-76864163D01*
X165545106Y-76869098D01*
X165546593Y-76874118D01*
X165547815Y-76879209D01*
X165548769Y-76884357D01*
X165549452Y-76889547D01*
X165549863Y-76894766D01*
X165550000Y-76900000D01*
X165550000Y-77100000D01*
X165549863Y-77105234D01*
X165549452Y-77110453D01*
X165548769Y-77115643D01*
X165547815Y-77120791D01*
X165546593Y-77125882D01*
X165545106Y-77130902D01*
X165543358Y-77135837D01*
X165541355Y-77140674D01*
X165539101Y-77145399D01*
X165536603Y-77150000D01*
X165533867Y-77154464D01*
X165530902Y-77158779D01*
X165527715Y-77162932D01*
X165524314Y-77166913D01*
X165520711Y-77170711D01*
X165516913Y-77174314D01*
X165512932Y-77177715D01*
X165508779Y-77180902D01*
X165504464Y-77183867D01*
X165500000Y-77186603D01*
X165495399Y-77189101D01*
X165490674Y-77191355D01*
X165485837Y-77193358D01*
X165480902Y-77195106D01*
X165475882Y-77196593D01*
X165470791Y-77197815D01*
X165465643Y-77198769D01*
X165460453Y-77199452D01*
X165455234Y-77199863D01*
X165450000Y-77200000D01*
X165100000Y-77200000D01*
X165094766Y-77199863D01*
X165089547Y-77199452D01*
X165084357Y-77198769D01*
X165079209Y-77197815D01*
X165074118Y-77196593D01*
X165069098Y-77195106D01*
X165064163Y-77193358D01*
X165059326Y-77191355D01*
X165054601Y-77189101D01*
X165050000Y-77186603D01*
X165045536Y-77183867D01*
X165041221Y-77180902D01*
X165037068Y-77177715D01*
X165033087Y-77174314D01*
X165029289Y-77170711D01*
X165025686Y-77166913D01*
X165022285Y-77162932D01*
X165019098Y-77158779D01*
X165016133Y-77154464D01*
X165013397Y-77150000D01*
X165010899Y-77145399D01*
X165008645Y-77140674D01*
X165006642Y-77135837D01*
X165004894Y-77130902D01*
X165003407Y-77125882D01*
X165002185Y-77120791D01*
X165001231Y-77115643D01*
X165000548Y-77110453D01*
X165000137Y-77105234D01*
X165000000Y-77100000D01*
X165000000Y-76900000D01*
X165000137Y-76894766D01*
X165000548Y-76889547D01*
X165001231Y-76884357D01*
X165002185Y-76879209D01*
X165003407Y-76874118D01*
X165004894Y-76869098D01*
X165006642Y-76864163D01*
X165008645Y-76859326D01*
X165010899Y-76854601D01*
X165013397Y-76850000D01*
X165016133Y-76845536D01*
X165019098Y-76841221D01*
X165022285Y-76837068D01*
X165025686Y-76833087D01*
X165029289Y-76829289D01*
X165033087Y-76825686D01*
X165037068Y-76822285D01*
X165041221Y-76819098D01*
X165045536Y-76816133D01*
X165050000Y-76813397D01*
X165054601Y-76810899D01*
X165059326Y-76808645D01*
X165064163Y-76806642D01*
X165069098Y-76804894D01*
X165074118Y-76803407D01*
X165079209Y-76802185D01*
X165084357Y-76801231D01*
X165089547Y-76800548D01*
X165094766Y-76800137D01*
X165100000Y-76800000D01*
X165450000Y-76800000D01*
X165455234Y-76800137D01*
G36*
X163505234Y-76800137D02*
G01*
X163510453Y-76800548D01*
X163515643Y-76801231D01*
X163520791Y-76802185D01*
X163525882Y-76803407D01*
X163530902Y-76804894D01*
X163535837Y-76806642D01*
X163540674Y-76808645D01*
X163545399Y-76810899D01*
X163550000Y-76813397D01*
X163554464Y-76816133D01*
X163558779Y-76819098D01*
X163562932Y-76822285D01*
X163566913Y-76825686D01*
X163570711Y-76829289D01*
X163574314Y-76833087D01*
X163577715Y-76837068D01*
X163580902Y-76841221D01*
X163583867Y-76845536D01*
X163586603Y-76850000D01*
X163589101Y-76854601D01*
X163591355Y-76859326D01*
X163593358Y-76864163D01*
X163595106Y-76869098D01*
X163596593Y-76874118D01*
X163597815Y-76879209D01*
X163598769Y-76884357D01*
X163599452Y-76889547D01*
X163599863Y-76894766D01*
X163600000Y-76900000D01*
X163600000Y-77100000D01*
X163599863Y-77105234D01*
X163599452Y-77110453D01*
X163598769Y-77115643D01*
X163597815Y-77120791D01*
X163596593Y-77125882D01*
X163595106Y-77130902D01*
X163593358Y-77135837D01*
X163591355Y-77140674D01*
X163589101Y-77145399D01*
X163586603Y-77150000D01*
X163583867Y-77154464D01*
X163580902Y-77158779D01*
X163577715Y-77162932D01*
X163574314Y-77166913D01*
X163570711Y-77170711D01*
X163566913Y-77174314D01*
X163562932Y-77177715D01*
X163558779Y-77180902D01*
X163554464Y-77183867D01*
X163550000Y-77186603D01*
X163545399Y-77189101D01*
X163540674Y-77191355D01*
X163535837Y-77193358D01*
X163530902Y-77195106D01*
X163525882Y-77196593D01*
X163520791Y-77197815D01*
X163515643Y-77198769D01*
X163510453Y-77199452D01*
X163505234Y-77199863D01*
X163500000Y-77200000D01*
X163150000Y-77200000D01*
X163144766Y-77199863D01*
X163139547Y-77199452D01*
X163134357Y-77198769D01*
X163129209Y-77197815D01*
X163124118Y-77196593D01*
X163119098Y-77195106D01*
X163114163Y-77193358D01*
X163109326Y-77191355D01*
X163104601Y-77189101D01*
X163100000Y-77186603D01*
X163095536Y-77183867D01*
X163091221Y-77180902D01*
X163087068Y-77177715D01*
X163083087Y-77174314D01*
X163079289Y-77170711D01*
X163075686Y-77166913D01*
X163072285Y-77162932D01*
X163069098Y-77158779D01*
X163066133Y-77154464D01*
X163063397Y-77150000D01*
X163060899Y-77145399D01*
X163058645Y-77140674D01*
X163056642Y-77135837D01*
X163054894Y-77130902D01*
X163053407Y-77125882D01*
X163052185Y-77120791D01*
X163051231Y-77115643D01*
X163050548Y-77110453D01*
X163050137Y-77105234D01*
X163050000Y-77100000D01*
X163050000Y-76900000D01*
X163050137Y-76894766D01*
X163050548Y-76889547D01*
X163051231Y-76884357D01*
X163052185Y-76879209D01*
X163053407Y-76874118D01*
X163054894Y-76869098D01*
X163056642Y-76864163D01*
X163058645Y-76859326D01*
X163060899Y-76854601D01*
X163063397Y-76850000D01*
X163066133Y-76845536D01*
X163069098Y-76841221D01*
X163072285Y-76837068D01*
X163075686Y-76833087D01*
X163079289Y-76829289D01*
X163083087Y-76825686D01*
X163087068Y-76822285D01*
X163091221Y-76819098D01*
X163095536Y-76816133D01*
X163100000Y-76813397D01*
X163104601Y-76810899D01*
X163109326Y-76808645D01*
X163114163Y-76806642D01*
X163119098Y-76804894D01*
X163124118Y-76803407D01*
X163129209Y-76802185D01*
X163134357Y-76801231D01*
X163139547Y-76800548D01*
X163144766Y-76800137D01*
X163150000Y-76800000D01*
X163500000Y-76800000D01*
X163505234Y-76800137D01*
G37*
X163505234Y-76800137D02*
X163510453Y-76800548D01*
X163515643Y-76801231D01*
X163520791Y-76802185D01*
X163525882Y-76803407D01*
X163530902Y-76804894D01*
X163535837Y-76806642D01*
X163540674Y-76808645D01*
X163545399Y-76810899D01*
X163550000Y-76813397D01*
X163554464Y-76816133D01*
X163558779Y-76819098D01*
X163562932Y-76822285D01*
X163566913Y-76825686D01*
X163570711Y-76829289D01*
X163574314Y-76833087D01*
X163577715Y-76837068D01*
X163580902Y-76841221D01*
X163583867Y-76845536D01*
X163586603Y-76850000D01*
X163589101Y-76854601D01*
X163591355Y-76859326D01*
X163593358Y-76864163D01*
X163595106Y-76869098D01*
X163596593Y-76874118D01*
X163597815Y-76879209D01*
X163598769Y-76884357D01*
X163599452Y-76889547D01*
X163599863Y-76894766D01*
X163600000Y-76900000D01*
X163600000Y-77100000D01*
X163599863Y-77105234D01*
X163599452Y-77110453D01*
X163598769Y-77115643D01*
X163597815Y-77120791D01*
X163596593Y-77125882D01*
X163595106Y-77130902D01*
X163593358Y-77135837D01*
X163591355Y-77140674D01*
X163589101Y-77145399D01*
X163586603Y-77150000D01*
X163583867Y-77154464D01*
X163580902Y-77158779D01*
X163577715Y-77162932D01*
X163574314Y-77166913D01*
X163570711Y-77170711D01*
X163566913Y-77174314D01*
X163562932Y-77177715D01*
X163558779Y-77180902D01*
X163554464Y-77183867D01*
X163550000Y-77186603D01*
X163545399Y-77189101D01*
X163540674Y-77191355D01*
X163535837Y-77193358D01*
X163530902Y-77195106D01*
X163525882Y-77196593D01*
X163520791Y-77197815D01*
X163515643Y-77198769D01*
X163510453Y-77199452D01*
X163505234Y-77199863D01*
X163500000Y-77200000D01*
X163150000Y-77200000D01*
X163144766Y-77199863D01*
X163139547Y-77199452D01*
X163134357Y-77198769D01*
X163129209Y-77197815D01*
X163124118Y-77196593D01*
X163119098Y-77195106D01*
X163114163Y-77193358D01*
X163109326Y-77191355D01*
X163104601Y-77189101D01*
X163100000Y-77186603D01*
X163095536Y-77183867D01*
X163091221Y-77180902D01*
X163087068Y-77177715D01*
X163083087Y-77174314D01*
X163079289Y-77170711D01*
X163075686Y-77166913D01*
X163072285Y-77162932D01*
X163069098Y-77158779D01*
X163066133Y-77154464D01*
X163063397Y-77150000D01*
X163060899Y-77145399D01*
X163058645Y-77140674D01*
X163056642Y-77135837D01*
X163054894Y-77130902D01*
X163053407Y-77125882D01*
X163052185Y-77120791D01*
X163051231Y-77115643D01*
X163050548Y-77110453D01*
X163050137Y-77105234D01*
X163050000Y-77100000D01*
X163050000Y-76900000D01*
X163050137Y-76894766D01*
X163050548Y-76889547D01*
X163051231Y-76884357D01*
X163052185Y-76879209D01*
X163053407Y-76874118D01*
X163054894Y-76869098D01*
X163056642Y-76864163D01*
X163058645Y-76859326D01*
X163060899Y-76854601D01*
X163063397Y-76850000D01*
X163066133Y-76845536D01*
X163069098Y-76841221D01*
X163072285Y-76837068D01*
X163075686Y-76833087D01*
X163079289Y-76829289D01*
X163083087Y-76825686D01*
X163087068Y-76822285D01*
X163091221Y-76819098D01*
X163095536Y-76816133D01*
X163100000Y-76813397D01*
X163104601Y-76810899D01*
X163109326Y-76808645D01*
X163114163Y-76806642D01*
X163119098Y-76804894D01*
X163124118Y-76803407D01*
X163129209Y-76802185D01*
X163134357Y-76801231D01*
X163139547Y-76800548D01*
X163144766Y-76800137D01*
X163150000Y-76800000D01*
X163500000Y-76800000D01*
X163505234Y-76800137D01*
D11*
X160660000Y-135200000D03*
X165740000Y-135200000D03*
D12*
X178930000Y-133100000D03*
X173850000Y-133100000D03*
X168770000Y-133100000D03*
D13*
X147510000Y-154972500D03*
X150010000Y-154972500D03*
X152510000Y-154972500D03*
X147510000Y-151672500D03*
X150010000Y-151672500D03*
X152510000Y-151672500D03*
D14*
X155775000Y-148930000D03*
X163225000Y-148930000D03*
D15*
X162550000Y-148230000D03*
X161900000Y-148930000D03*
X161100000Y-148930000D03*
X160700000Y-148230000D03*
X160300000Y-148930000D03*
X159900000Y-148230000D03*
X159100000Y-148230000D03*
X158700000Y-148930000D03*
X158300000Y-148230000D03*
X157900000Y-148930000D03*
X157100000Y-148930000D03*
X156450000Y-148230000D03*
D16*
X164000000Y-147280000D03*
D17*
X164000000Y-153030000D03*
D16*
X155000000Y-147280000D03*
D17*
X155000000Y-153030000D03*
D18*
X163550000Y-147830000D03*
X155450000Y-147830000D03*
D19*
X117175000Y-107160000D03*
D20*
X119080000Y-108684000D03*
D19*
X114000000Y-112240000D03*
D20*
X114000000Y-109700000D03*
D19*
X114000000Y-107160000D03*
D20*
X119080000Y-110716000D03*
D19*
X117175000Y-112240000D03*
D11*
X160660000Y-127500000D03*
X165740000Y-127500000D03*
D20*
X144412000Y-128524000D03*
X144412000Y-126492000D03*
X139332000Y-127508000D03*
D21*
X128100000Y-89460000D03*
X123100000Y-89460000D03*
D22*
X133825000Y-114525000D03*
X133825000Y-112625000D03*
X135825000Y-113575000D03*
X126450000Y-114525000D03*
X126450000Y-112625000D03*
X128450000Y-113575000D03*
D23*
X161792500Y-71350000D03*
X163367500Y-71350000D03*
X130662500Y-112850000D03*
X132237500Y-112850000D03*
D24*
X132237500Y-114700000D03*
X130662500Y-114700000D03*
X123037500Y-113200000D03*
X121462500Y-113200000D03*
D25*
X124700000Y-114337500D03*
X124700000Y-112762500D03*
X119575000Y-116637500D03*
X119575000Y-115062500D03*
D26*
X160700000Y-67635000D03*
X160700000Y-66665000D03*
D24*
X150087500Y-65900000D03*
X148512500Y-65900000D03*
D27*
X151285000Y-72250000D03*
X150315000Y-72250000D03*
X151285000Y-71200000D03*
X150315000Y-71200000D03*
D28*
X154525000Y-74740000D03*
X154525000Y-75710000D03*
X155550000Y-74715000D03*
X155550000Y-75685000D03*
D29*
X151975000Y-78650000D03*
X150425000Y-78650000D03*
D23*
X153712500Y-77050000D03*
X155287500Y-77050000D03*
D30*
X141330000Y-73652500D03*
X141330000Y-75227500D03*
D31*
X129346000Y-138497000D03*
X122946000Y-138497000D03*
X129346000Y-142497000D03*
X122946000Y-142497000D03*
X126800000Y-63000000D03*
X133200000Y-63000000D03*
X126800000Y-59000000D03*
X133200000Y-59000000D03*
X156800000Y-140000000D03*
X163200000Y-140000000D03*
X156800000Y-144000000D03*
X163200000Y-144000000D03*
X143027000Y-143886000D03*
X136627000Y-143886000D03*
X143027000Y-147886000D03*
X136627000Y-147886000D03*
X160800000Y-63000000D03*
X167200000Y-63000000D03*
X167200000Y-59000000D03*
X160800000Y-59000000D03*
D32*
X138900000Y-79750000D03*
X141100000Y-79750000D03*
D33*
X176500000Y-95500000D03*
X164000000Y-86000000D03*
X141000000Y-113500000D03*
X138000000Y-86000000D03*
D34*
X180800000Y-61450000D03*
D35*
X171400000Y-69450000D03*
X175600000Y-69450000D03*
X178600000Y-69450000D03*
X171400000Y-61450000D03*
X175600000Y-61450000D03*
X178450000Y-61450000D03*
D32*
X136650000Y-79750000D03*
X144100000Y-61100000D03*
X150500000Y-83250000D03*
D24*
X158157500Y-129160000D03*
X156582500Y-129160000D03*
D32*
X148075000Y-83250000D03*
D36*
X170862500Y-136120000D03*
X172737500Y-136120000D03*
D25*
X166000000Y-125387500D03*
X166000000Y-123812500D03*
D24*
X173312500Y-122775000D03*
X171737500Y-122775000D03*
X141200000Y-123200000D03*
X139625000Y-123200000D03*
D25*
X116200000Y-130287500D03*
X116200000Y-128712500D03*
D24*
X131637500Y-84750000D03*
X130062500Y-84750000D03*
D25*
X138350000Y-141037500D03*
X138350000Y-139462500D03*
D37*
X169600000Y-147725000D03*
X169600000Y-149275000D03*
D38*
X175958459Y-104986587D03*
X175658774Y-104244840D03*
D39*
X176250926Y-106324445D03*
X174939803Y-103079301D03*
D40*
X133400000Y-110400000D03*
X130600000Y-110400000D03*
D18*
X148700000Y-141550000D03*
X148700000Y-143450000D03*
D41*
X153910000Y-72400000D03*
X153910000Y-71900000D03*
X153910000Y-71400000D03*
X153910000Y-70900000D03*
X153910000Y-70400000D03*
X153910000Y-69900000D03*
D42*
X154350000Y-69460000D03*
X154850000Y-69460000D03*
X155350000Y-69460000D03*
X155850000Y-69460000D03*
X156350000Y-69460000D03*
X156850000Y-69460000D03*
D43*
X157290000Y-69900000D03*
X157290000Y-70400000D03*
X157290000Y-70900000D03*
X157290000Y-71400000D03*
X157290000Y-71900000D03*
X157290000Y-72400000D03*
D44*
X156850000Y-72840000D03*
X156350000Y-72840000D03*
X155850000Y-72840000D03*
X155350000Y-72840000D03*
X154850000Y-72840000D03*
X154350000Y-72840000D03*
D45*
X155600000Y-71150000D03*
D30*
X177650000Y-124662500D03*
X177650000Y-126237500D03*
X177600000Y-127975000D03*
X177600000Y-129550000D03*
D25*
X178610000Y-86197500D03*
X178610000Y-84622500D03*
D30*
X178700000Y-88012500D03*
X178700000Y-89587500D03*
D24*
X176187500Y-82050000D03*
X174612500Y-82050000D03*
D30*
X177300000Y-114962500D03*
X177300000Y-116537500D03*
D46*
X176804997Y-101894843D03*
X177395003Y-103355157D03*
D30*
X178650000Y-76212500D03*
X178650000Y-77787500D03*
D47*
X169785227Y-77756940D03*
X168614773Y-76703060D03*
D24*
X161037500Y-73100000D03*
X159462500Y-73100000D03*
D26*
X152450000Y-75685000D03*
X152450000Y-74715000D03*
D23*
X151512500Y-65850000D03*
X153087500Y-65850000D03*
D48*
X153675000Y-78650000D03*
X155325000Y-78650000D03*
D25*
X117650000Y-119887500D03*
X117650000Y-118312500D03*
D49*
X160315000Y-74450000D03*
X161285000Y-74450000D03*
D25*
X157530000Y-77117500D03*
X157530000Y-75542500D03*
D24*
X132287500Y-136300000D03*
X130712500Y-136300000D03*
D25*
X133800000Y-137937500D03*
X133800000Y-136362500D03*
X158300000Y-152337500D03*
X158300000Y-150762500D03*
X159900000Y-152322500D03*
X159900000Y-150747500D03*
D27*
X158335000Y-146900000D03*
X157365000Y-146900000D03*
D49*
X163415000Y-150100000D03*
X164385000Y-150100000D03*
D25*
X117700000Y-130887500D03*
X117700000Y-129312500D03*
D49*
X145915000Y-66500000D03*
X146885000Y-66500000D03*
D28*
X153525000Y-74735000D03*
X153525000Y-75705000D03*
D50*
X172543669Y-80523805D03*
X171456331Y-79316195D03*
D30*
X141350000Y-65912500D03*
X141350000Y-67487500D03*
X142800000Y-69012500D03*
X142800000Y-70587500D03*
D37*
X142850000Y-65925000D03*
X142850000Y-67475000D03*
X141300000Y-69025000D03*
X141300000Y-70575000D03*
D26*
X161750000Y-67635000D03*
X161750000Y-66665000D03*
D24*
X140317500Y-77100000D03*
X138742500Y-77100000D03*
D30*
X161500000Y-150772500D03*
X161500000Y-152347500D03*
X159090000Y-75532500D03*
X159090000Y-77107500D03*
D51*
X119700000Y-86400000D03*
X119700000Y-98600000D03*
D13*
X119700000Y-96500000D03*
X119700000Y-92500000D03*
X119700000Y-90500000D03*
X119700000Y-88500000D03*
D31*
X176200000Y-140000000D03*
X169800000Y-140000000D03*
X169800000Y-144000000D03*
X176200000Y-144000000D03*
D52*
X152375000Y-62750000D03*
X141625000Y-62750000D03*
D53*
X128750000Y-75300000D03*
X128750000Y-69700000D03*
D54*
X161600000Y-77575000D03*
X161100000Y-77575000D03*
X160600000Y-77575000D03*
X160600000Y-76425000D03*
X161100000Y-76425000D03*
X161600000Y-76425000D03*
D55*
X123700000Y-111150000D03*
X123700000Y-109150000D03*
D56*
X127250000Y-145250000D03*
X122750000Y-59000000D03*
X176750000Y-59000000D03*
D23*
X118212500Y-69945000D03*
X119787500Y-69945000D03*
D30*
X151100000Y-73562500D03*
X151100000Y-75137500D03*
D57*
X166600000Y-142882500D03*
X166600000Y-144757500D03*
D58*
X133325000Y-80570000D03*
X127075000Y-80570000D03*
D36*
X175862500Y-136120000D03*
X177737500Y-136120000D03*
D59*
X166500000Y-140870000D03*
X166500000Y-137570000D03*
D25*
X147600000Y-71187500D03*
X147600000Y-69612500D03*
X152810000Y-129097500D03*
X152810000Y-127522500D03*
D60*
X156825000Y-137132500D03*
X156175000Y-137132500D03*
X155525000Y-137132500D03*
X154875000Y-137132500D03*
X154225000Y-137132500D03*
X153575000Y-137132500D03*
X152925000Y-137132500D03*
X152275000Y-137132500D03*
X151625000Y-137132500D03*
X150975000Y-137132500D03*
X150975000Y-131407500D03*
X151625000Y-131407500D03*
X152275000Y-131407500D03*
X152925000Y-131407500D03*
X153575000Y-131407500D03*
X154225000Y-131407500D03*
X154875000Y-131407500D03*
X155525000Y-131407500D03*
X156175000Y-131407500D03*
X156825000Y-131407500D03*
D61*
X142815000Y-72887500D03*
X143465000Y-72887500D03*
X144115000Y-72887500D03*
X144765000Y-72887500D03*
X145415000Y-72887500D03*
X146065000Y-72887500D03*
X146715000Y-72887500D03*
X147365000Y-72887500D03*
X148015000Y-72887500D03*
X148665000Y-72887500D03*
X148665000Y-78612500D03*
X148015000Y-78612500D03*
X147365000Y-78612500D03*
X146715000Y-78612500D03*
X146065000Y-78612500D03*
X145415000Y-78612500D03*
X144765000Y-78612500D03*
X144115000Y-78612500D03*
X143465000Y-78612500D03*
X142815000Y-78612500D03*
D62*
X167825000Y-148050000D03*
X165775000Y-148050000D03*
D30*
X178600000Y-81112500D03*
X178600000Y-82687500D03*
D24*
X131637500Y-86750000D03*
X130062500Y-86750000D03*
D63*
X137375000Y-137800000D03*
X135475000Y-137800000D03*
X136425000Y-135800000D03*
D24*
X136587500Y-134175000D03*
X135012500Y-134175000D03*
D26*
X116250000Y-132835000D03*
X116250000Y-131865000D03*
X116450000Y-127485000D03*
X116450000Y-126515000D03*
D64*
X157000000Y-65600000D03*
X157000000Y-62800000D03*
D30*
X163250000Y-73112500D03*
X163250000Y-74687500D03*
D65*
X118400000Y-71900000D03*
X124000000Y-85100000D03*
D13*
X119950000Y-73500000D03*
X119950000Y-75500000D03*
X119950000Y-77500000D03*
X119950000Y-79500000D03*
X119950000Y-81500000D03*
X119950000Y-83500000D03*
X122450000Y-73500000D03*
X122450000Y-75500000D03*
X122450000Y-77500000D03*
X122450000Y-79500000D03*
X122450000Y-81500000D03*
X122450000Y-83500000D03*
D30*
X178425000Y-105512500D03*
X178425000Y-107087500D03*
X156700000Y-150762500D03*
X156700000Y-152337500D03*
D24*
X151337500Y-69800000D03*
X149762500Y-69800000D03*
D25*
X154950000Y-65987500D03*
X154950000Y-64412500D03*
D66*
X166865561Y-75366031D03*
X165534439Y-74433969D03*
D25*
X116100000Y-119887500D03*
X116100000Y-118312500D03*
D49*
X145915000Y-68100000D03*
X146885000Y-68100000D03*
D67*
X139800000Y-65875000D03*
X139800000Y-67525000D03*
D68*
X180075000Y-87406428D03*
X180075000Y-88206428D03*
D69*
X180305000Y-86056428D03*
X180305000Y-89556428D03*
D70*
X133825000Y-133687500D03*
X133325000Y-133687500D03*
X132825000Y-133687500D03*
X132325000Y-133687500D03*
X131825000Y-133687500D03*
X131325000Y-133687500D03*
X130825000Y-133687500D03*
X130325000Y-133687500D03*
X129825000Y-133687500D03*
X129325000Y-133687500D03*
X128825000Y-133687500D03*
X128325000Y-133687500D03*
X127825000Y-133687500D03*
X127325000Y-133687500D03*
X126825000Y-133687500D03*
X126325000Y-133687500D03*
X125825000Y-133687500D03*
X125325000Y-133687500D03*
X124825000Y-133687500D03*
X124325000Y-133687500D03*
X123825000Y-133687500D03*
X123325000Y-133687500D03*
X122825000Y-133687500D03*
X122325000Y-133687500D03*
X121825000Y-133687500D03*
D71*
X120162500Y-132025000D03*
X120162500Y-131525000D03*
X120162500Y-131025000D03*
X120162500Y-130525000D03*
X120162500Y-130025000D03*
X120162500Y-129525000D03*
X120162500Y-129025000D03*
X120162500Y-128525000D03*
X120162500Y-128025000D03*
X120162500Y-127525000D03*
X120162500Y-127025000D03*
X120162500Y-126525000D03*
X120162500Y-126025000D03*
X120162500Y-125525000D03*
X120162500Y-125025000D03*
X120162500Y-124525000D03*
X120162500Y-124025000D03*
X120162500Y-123525000D03*
X120162500Y-123025000D03*
X120162500Y-122525000D03*
X120162500Y-122025000D03*
X120162500Y-121525000D03*
X120162500Y-121025000D03*
X120162500Y-120525000D03*
X120162500Y-120025000D03*
D70*
X121825000Y-118362500D03*
X122325000Y-118362500D03*
X122825000Y-118362500D03*
X123325000Y-118362500D03*
X123825000Y-118362500D03*
X124325000Y-118362500D03*
X124825000Y-118362500D03*
X125325000Y-118362500D03*
X125825000Y-118362500D03*
X126325000Y-118362500D03*
X126825000Y-118362500D03*
X127325000Y-118362500D03*
X127825000Y-118362500D03*
X128325000Y-118362500D03*
X128825000Y-118362500D03*
X129325000Y-118362500D03*
X129825000Y-118362500D03*
X130325000Y-118362500D03*
X130825000Y-118362500D03*
X131325000Y-118362500D03*
X131825000Y-118362500D03*
X132325000Y-118362500D03*
X132825000Y-118362500D03*
X133325000Y-118362500D03*
X133825000Y-118362500D03*
D71*
X135487500Y-120025000D03*
X135487500Y-120525000D03*
X135487500Y-121025000D03*
X135487500Y-121525000D03*
X135487500Y-122025000D03*
X135487500Y-122525000D03*
X135487500Y-123025000D03*
X135487500Y-123525000D03*
X135487500Y-124025000D03*
X135487500Y-124525000D03*
X135487500Y-125025000D03*
X135487500Y-125525000D03*
X135487500Y-126025000D03*
X135487500Y-126525000D03*
X135487500Y-127025000D03*
X135487500Y-127525000D03*
X135487500Y-128025000D03*
X135487500Y-128525000D03*
X135487500Y-129025000D03*
X135487500Y-129525000D03*
X135487500Y-130025000D03*
X135487500Y-130525000D03*
X135487500Y-131025000D03*
X135487500Y-131525000D03*
X135487500Y-132025000D03*
D32*
X154900000Y-61400000D03*
D56*
X142500000Y-138500000D03*
D38*
X173498459Y-98956587D03*
X173198774Y-98214840D03*
D39*
X173790926Y-100294445D03*
X172479803Y-97049301D03*
D68*
X180055000Y-81990000D03*
X180055000Y-82790000D03*
D69*
X180285000Y-80640000D03*
X180285000Y-84140000D03*
D32*
X160850000Y-65150000D03*
D72*
X176132498Y-78706677D03*
X164871644Y-69257699D03*
D73*
X170800000Y-129425000D03*
X169150000Y-129425000D03*
D32*
X157710000Y-59320000D03*
D63*
X174875000Y-127100000D03*
X172975000Y-127100000D03*
X173925000Y-125100000D03*
D68*
X180175000Y-125800000D03*
X180175000Y-126600000D03*
D69*
X180405000Y-124450000D03*
X180405000Y-127950000D03*
D67*
X138100000Y-65875000D03*
X138100000Y-67525000D03*
D74*
X161950000Y-92410000D03*
D68*
X180037500Y-76560000D03*
X180037500Y-77360000D03*
D69*
X180267500Y-75210000D03*
X180267500Y-78710000D03*
D56*
X133000000Y-145500000D03*
X142000000Y-131000000D03*
X152000000Y-148500000D03*
X161000000Y-146000000D03*
D73*
X174675000Y-129400000D03*
X173025000Y-129400000D03*
D56*
X133000000Y-141000000D03*
D75*
X139800000Y-70625000D03*
X139800000Y-68975000D03*
X136400000Y-73925000D03*
X136400000Y-72275000D03*
D56*
X147000000Y-136500000D03*
X142000000Y-127500000D03*
X147000000Y-131000000D03*
D67*
X139700000Y-73575000D03*
X139700000Y-75225000D03*
D32*
X148700000Y-60900000D03*
D63*
X170975000Y-127100000D03*
X169075000Y-127100000D03*
X170025000Y-125100000D03*
D73*
X152045000Y-77050000D03*
X150395000Y-77050000D03*
D67*
X144350000Y-65875000D03*
X144350000Y-67525000D03*
D68*
X177525000Y-111550000D03*
X177525000Y-110750000D03*
D69*
X177295000Y-112900000D03*
X177295000Y-109400000D03*
D67*
X144300000Y-68975000D03*
X144300000Y-70625000D03*
D74*
X165500000Y-92400000D03*
D67*
X138100000Y-68975000D03*
X138100000Y-70625000D03*
D76*
X156700000Y-124450000D03*
X156700000Y-124450000D03*
D56*
X147000000Y-124000000D03*
X114500000Y-123500000D03*
D77*
X133300000Y-67450000D03*
X133800000Y-67450000D03*
X134300000Y-67450000D03*
X134800000Y-67450000D03*
X135300000Y-67450000D03*
X135300000Y-70550000D03*
X134800000Y-70550000D03*
X134300000Y-70550000D03*
X133800000Y-70550000D03*
X133300000Y-70550000D03*
D78*
X134300000Y-69000000D03*
D56*
X166800000Y-151000000D03*
X147000000Y-127500000D03*
D75*
X138100000Y-73925000D03*
X138100000Y-72275000D03*
D76*
X145400000Y-115450000D03*
X145400000Y-115450000D03*
M02*
