G04 #@! TF.GenerationSoftware,KiCad,Pcbnew,6.0.11+dfsg-1~bpo11+1*
G04 #@! TF.CreationDate,2023-05-20T19:26:12-04:00*
G04 #@! TF.ProjectId,RUSP_Daughterboard,52555350-5f44-4617-9567-68746572626f,rev?*
G04 #@! TF.SameCoordinates,Original*
G04 #@! TF.FileFunction,Soldermask,Top*
G04 #@! TF.FilePolarity,Negative*
%FSLAX46Y46*%
G04 Gerber Fmt 4.6, Leading zero omitted, Abs format (unit mm)*
G04 Created by KiCad (PCBNEW 6.0.11+dfsg-1~bpo11+1) date 2023-05-20 19:26:12*
%MOMM*%
%LPD*%
G01*
G04 APERTURE LIST*
G04 Aperture macros list*
%AMRoundRect*
0 Rectangle with rounded corners*
0 $1 Rounding radius*
0 $2 $3 $4 $5 $6 $7 $8 $9 X,Y pos of 4 corners*
0 Add a 4 corners polygon primitive as box body*
4,1,4,$2,$3,$4,$5,$6,$7,$8,$9,$2,$3,0*
0 Add four circle primitives for the rounded corners*
1,1,$1+$1,$2,$3*
1,1,$1+$1,$4,$5*
1,1,$1+$1,$6,$7*
1,1,$1+$1,$8,$9*
0 Add four rect primitives between the rounded corners*
20,1,$1+$1,$2,$3,$4,$5,0*
20,1,$1+$1,$4,$5,$6,$7,0*
20,1,$1+$1,$6,$7,$8,$9,0*
20,1,$1+$1,$8,$9,$2,$3,0*%
G04 Aperture macros list end*
%ADD10RoundRect,0.225000X-0.017678X0.335876X-0.335876X0.017678X0.017678X-0.335876X0.335876X-0.017678X0*%
%ADD11C,2.200000*%
%ADD12C,1.500000*%
%ADD13RoundRect,0.218750X-0.026517X0.335876X-0.335876X0.026517X0.026517X-0.335876X0.335876X-0.026517X0*%
%ADD14RoundRect,0.200000X0.200000X0.275000X-0.200000X0.275000X-0.200000X-0.275000X0.200000X-0.275000X0*%
%ADD15R,2.000000X0.800000*%
%ADD16R,1.400000X1.800000*%
%ADD17R,1.900000X1.400000*%
%ADD18C,1.200000*%
%ADD19C,1.700000*%
%ADD20RoundRect,0.140000X-0.140000X-0.170000X0.140000X-0.170000X0.140000X0.170000X-0.140000X0.170000X0*%
%ADD21RoundRect,0.147500X-0.147500X-0.172500X0.147500X-0.172500X0.147500X0.172500X-0.147500X0.172500X0*%
%ADD22RoundRect,0.140000X-0.170000X0.140000X-0.170000X-0.140000X0.170000X-0.140000X0.170000X0.140000X0*%
%ADD23RoundRect,0.218750X-0.218750X-0.256250X0.218750X-0.256250X0.218750X0.256250X-0.218750X0.256250X0*%
%ADD24R,1.000000X1.000000*%
%ADD25R,1.050000X2.200000*%
%ADD26R,2.000000X3.000000*%
%ADD27R,3.000000X3.000000*%
%ADD28RoundRect,0.218750X-0.256250X0.218750X-0.256250X-0.218750X0.256250X-0.218750X0.256250X0.218750X0*%
%ADD29C,0.760000*%
%ADD30C,6.200000*%
G04 APERTURE END LIST*
D10*
X146698008Y-119201992D03*
X145601992Y-120298008D03*
D11*
X141000000Y-113500000D03*
D12*
X172000000Y-80500000D03*
D10*
X145548008Y-118026992D03*
X144451992Y-119123008D03*
D12*
X128200000Y-86400000D03*
D13*
X144356847Y-116843153D03*
X143243153Y-117956847D03*
D10*
X149073008Y-121551992D03*
X147976992Y-122648008D03*
D14*
X137525000Y-79700000D03*
X135875000Y-79700000D03*
X137440000Y-71000000D03*
X135790000Y-71000000D03*
D15*
X123375000Y-78840000D03*
X123775000Y-77740000D03*
X123375000Y-76640000D03*
X123175000Y-75540000D03*
X123375000Y-74440000D03*
X123175000Y-73340000D03*
X123375000Y-72240000D03*
X123375000Y-71140000D03*
D16*
X133925000Y-71950000D03*
X133925000Y-77650000D03*
D17*
X120775000Y-70350000D03*
X119775000Y-83500000D03*
D11*
X176500000Y-95500000D03*
D13*
X147906847Y-120368153D03*
X146793153Y-121481847D03*
D11*
X154000000Y-134000000D03*
D12*
X171500000Y-137000000D03*
D18*
X123690000Y-110360000D03*
D19*
X135665000Y-94555000D03*
D16*
X133580000Y-114866500D03*
X131103500Y-114866500D03*
X128500000Y-114866500D03*
X133580000Y-89593500D03*
X131040000Y-89593500D03*
X128500000Y-89593500D03*
D20*
X176820000Y-85000000D03*
X177780000Y-85000000D03*
D21*
X175415000Y-82500000D03*
X176385000Y-82500000D03*
D22*
X177800000Y-83020000D03*
X177800000Y-83980000D03*
D23*
X176212500Y-86300000D03*
X177787500Y-86300000D03*
X174212500Y-73300000D03*
X175787500Y-73300000D03*
D24*
X176500000Y-89000000D03*
D25*
X177975000Y-90500000D03*
X175025000Y-90500000D03*
D24*
X176500000Y-92000000D03*
D26*
X152750000Y-70750000D03*
D27*
X149750000Y-70750000D03*
D26*
X163250000Y-70750000D03*
D27*
X176750000Y-70750000D03*
D26*
X173750000Y-70750000D03*
D20*
X176820000Y-87500000D03*
X177780000Y-87500000D03*
X174520000Y-74600000D03*
X175480000Y-74600000D03*
D28*
X177800000Y-80112500D03*
X177800000Y-81687500D03*
D29*
X165740000Y-135200000D03*
X160660000Y-135200000D03*
X160660000Y-127500000D03*
X165740000Y-127500000D03*
D30*
X154000000Y-128000000D03*
M02*
