G04 #@! TF.GenerationSoftware,KiCad,Pcbnew,6.0.11+dfsg-1~bpo11+1*
G04 #@! TF.CreationDate,2023-05-20T19:26:12-04:00*
G04 #@! TF.ProjectId,RUSP_Daughterboard,52555350-5f44-4617-9567-68746572626f,rev?*
G04 #@! TF.SameCoordinates,Original*
G04 #@! TF.FileFunction,Legend,Top*
G04 #@! TF.FilePolarity,Positive*
%FSLAX46Y46*%
G04 Gerber Fmt 4.6, Leading zero omitted, Abs format (unit mm)*
G04 Created by KiCad (PCBNEW 6.0.11+dfsg-1~bpo11+1) date 2023-05-20 19:26:12*
%MOMM*%
%LPD*%
G01*
G04 APERTURE LIST*
%ADD10C,0.150000*%
%ADD11C,0.120000*%
%ADD12C,0.200000*%
%ADD13C,0.010000*%
G04 APERTURE END LIST*
D10*
X176200000Y-137000000D02*
X152000000Y-137000000D01*
X143035714Y-79452380D02*
X142702380Y-78976190D01*
X142464285Y-79452380D02*
X142464285Y-78452380D01*
X142845238Y-78452380D01*
X142940476Y-78500000D01*
X142988095Y-78547619D01*
X143035714Y-78642857D01*
X143035714Y-78785714D01*
X142988095Y-78880952D01*
X142940476Y-78928571D01*
X142845238Y-78976190D01*
X142464285Y-78976190D01*
X143464285Y-78452380D02*
X143464285Y-79261904D01*
X143511904Y-79357142D01*
X143559523Y-79404761D01*
X143654761Y-79452380D01*
X143845238Y-79452380D01*
X143940476Y-79404761D01*
X143988095Y-79357142D01*
X144035714Y-79261904D01*
X144035714Y-78452380D01*
X144464285Y-79404761D02*
X144607142Y-79452380D01*
X144845238Y-79452380D01*
X144940476Y-79404761D01*
X144988095Y-79357142D01*
X145035714Y-79261904D01*
X145035714Y-79166666D01*
X144988095Y-79071428D01*
X144940476Y-79023809D01*
X144845238Y-78976190D01*
X144654761Y-78928571D01*
X144559523Y-78880952D01*
X144511904Y-78833333D01*
X144464285Y-78738095D01*
X144464285Y-78642857D01*
X144511904Y-78547619D01*
X144559523Y-78500000D01*
X144654761Y-78452380D01*
X144892857Y-78452380D01*
X145035714Y-78500000D01*
X145464285Y-79452380D02*
X145464285Y-78452380D01*
X145845238Y-78452380D01*
X145940476Y-78500000D01*
X145988095Y-78547619D01*
X146035714Y-78642857D01*
X146035714Y-78785714D01*
X145988095Y-78880952D01*
X145940476Y-78928571D01*
X145845238Y-78976190D01*
X145464285Y-78976190D01*
X147988095Y-79452380D02*
X147988095Y-78452380D01*
X148226190Y-78452380D01*
X148369047Y-78500000D01*
X148464285Y-78595238D01*
X148511904Y-78690476D01*
X148559523Y-78880952D01*
X148559523Y-79023809D01*
X148511904Y-79214285D01*
X148464285Y-79309523D01*
X148369047Y-79404761D01*
X148226190Y-79452380D01*
X147988095Y-79452380D01*
X148940476Y-79166666D02*
X149416666Y-79166666D01*
X148845238Y-79452380D02*
X149178571Y-78452380D01*
X149511904Y-79452380D01*
X149845238Y-78452380D02*
X149845238Y-79261904D01*
X149892857Y-79357142D01*
X149940476Y-79404761D01*
X150035714Y-79452380D01*
X150226190Y-79452380D01*
X150321428Y-79404761D01*
X150369047Y-79357142D01*
X150416666Y-79261904D01*
X150416666Y-78452380D01*
X151416666Y-78500000D02*
X151321428Y-78452380D01*
X151178571Y-78452380D01*
X151035714Y-78500000D01*
X150940476Y-78595238D01*
X150892857Y-78690476D01*
X150845238Y-78880952D01*
X150845238Y-79023809D01*
X150892857Y-79214285D01*
X150940476Y-79309523D01*
X151035714Y-79404761D01*
X151178571Y-79452380D01*
X151273809Y-79452380D01*
X151416666Y-79404761D01*
X151464285Y-79357142D01*
X151464285Y-79023809D01*
X151273809Y-79023809D01*
X151892857Y-79452380D02*
X151892857Y-78452380D01*
X151892857Y-78928571D02*
X152464285Y-78928571D01*
X152464285Y-79452380D02*
X152464285Y-78452380D01*
X152797619Y-78452380D02*
X153369047Y-78452380D01*
X153083333Y-79452380D02*
X153083333Y-78452380D01*
X153702380Y-78928571D02*
X154035714Y-78928571D01*
X154178571Y-79452380D02*
X153702380Y-79452380D01*
X153702380Y-78452380D01*
X154178571Y-78452380D01*
X155178571Y-79452380D02*
X154845238Y-78976190D01*
X154607142Y-79452380D02*
X154607142Y-78452380D01*
X154988095Y-78452380D01*
X155083333Y-78500000D01*
X155130952Y-78547619D01*
X155178571Y-78642857D01*
X155178571Y-78785714D01*
X155130952Y-78880952D01*
X155083333Y-78928571D01*
X154988095Y-78976190D01*
X154607142Y-78976190D01*
X155940476Y-78928571D02*
X156083333Y-78976190D01*
X156130952Y-79023809D01*
X156178571Y-79119047D01*
X156178571Y-79261904D01*
X156130952Y-79357142D01*
X156083333Y-79404761D01*
X155988095Y-79452380D01*
X155607142Y-79452380D01*
X155607142Y-78452380D01*
X155940476Y-78452380D01*
X156035714Y-78500000D01*
X156083333Y-78547619D01*
X156130952Y-78642857D01*
X156130952Y-78738095D01*
X156083333Y-78833333D01*
X156035714Y-78880952D01*
X155940476Y-78928571D01*
X155607142Y-78928571D01*
X156797619Y-78452380D02*
X156988095Y-78452380D01*
X157083333Y-78500000D01*
X157178571Y-78595238D01*
X157226190Y-78785714D01*
X157226190Y-79119047D01*
X157178571Y-79309523D01*
X157083333Y-79404761D01*
X156988095Y-79452380D01*
X156797619Y-79452380D01*
X156702380Y-79404761D01*
X156607142Y-79309523D01*
X156559523Y-79119047D01*
X156559523Y-78785714D01*
X156607142Y-78595238D01*
X156702380Y-78500000D01*
X156797619Y-78452380D01*
X157607142Y-79166666D02*
X158083333Y-79166666D01*
X157511904Y-79452380D02*
X157845238Y-78452380D01*
X158178571Y-79452380D01*
X159083333Y-79452380D02*
X158750000Y-78976190D01*
X158511904Y-79452380D02*
X158511904Y-78452380D01*
X158892857Y-78452380D01*
X158988095Y-78500000D01*
X159035714Y-78547619D01*
X159083333Y-78642857D01*
X159083333Y-78785714D01*
X159035714Y-78880952D01*
X158988095Y-78928571D01*
X158892857Y-78976190D01*
X158511904Y-78976190D01*
X159511904Y-79452380D02*
X159511904Y-78452380D01*
X159750000Y-78452380D01*
X159892857Y-78500000D01*
X159988095Y-78595238D01*
X160035714Y-78690476D01*
X160083333Y-78880952D01*
X160083333Y-79023809D01*
X160035714Y-79214285D01*
X159988095Y-79309523D01*
X159892857Y-79404761D01*
X159750000Y-79452380D01*
X159511904Y-79452380D01*
X178204761Y-137552380D02*
X178252380Y-137457142D01*
X178252380Y-137266666D01*
X178204761Y-137171428D01*
X178109523Y-137123809D01*
X178061904Y-137123809D01*
X177966666Y-137171428D01*
X177919047Y-137266666D01*
X177919047Y-137409523D01*
X177871428Y-137504761D01*
X177776190Y-137552380D01*
X177728571Y-137552380D01*
X177633333Y-137504761D01*
X177585714Y-137409523D01*
X177585714Y-137266666D01*
X177633333Y-137171428D01*
X178252380Y-136695238D02*
X177252380Y-136695238D01*
X177871428Y-136600000D02*
X178252380Y-136314285D01*
X177585714Y-136314285D02*
X177966666Y-136695238D01*
X177585714Y-135980952D02*
X178252380Y-135742857D01*
X177585714Y-135504761D02*
X178252380Y-135742857D01*
X178490476Y-135838095D01*
X178538095Y-135885714D01*
X178585714Y-135980952D01*
X178204761Y-135171428D02*
X178252380Y-135076190D01*
X178252380Y-134885714D01*
X178204761Y-134790476D01*
X178109523Y-134742857D01*
X178061904Y-134742857D01*
X177966666Y-134790476D01*
X177919047Y-134885714D01*
X177919047Y-135028571D01*
X177871428Y-135123809D01*
X177776190Y-135171428D01*
X177728571Y-135171428D01*
X177633333Y-135123809D01*
X177585714Y-135028571D01*
X177585714Y-134885714D01*
X177633333Y-134790476D01*
X178204761Y-133933333D02*
X178252380Y-134028571D01*
X178252380Y-134219047D01*
X178204761Y-134314285D01*
X178109523Y-134361904D01*
X177728571Y-134361904D01*
X177633333Y-134314285D01*
X177585714Y-134219047D01*
X177585714Y-134028571D01*
X177633333Y-133933333D01*
X177728571Y-133885714D01*
X177823809Y-133885714D01*
X177919047Y-134361904D01*
X178252380Y-133028571D02*
X177252380Y-133028571D01*
X178204761Y-133028571D02*
X178252380Y-133123809D01*
X178252380Y-133314285D01*
X178204761Y-133409523D01*
X178157142Y-133457142D01*
X178061904Y-133504761D01*
X177776190Y-133504761D01*
X177680952Y-133457142D01*
X177633333Y-133409523D01*
X177585714Y-133314285D01*
X177585714Y-133123809D01*
X177633333Y-133028571D01*
X177585714Y-132123809D02*
X178395238Y-132123809D01*
X178490476Y-132171428D01*
X178538095Y-132219047D01*
X178585714Y-132314285D01*
X178585714Y-132457142D01*
X178538095Y-132552380D01*
X178204761Y-132123809D02*
X178252380Y-132219047D01*
X178252380Y-132409523D01*
X178204761Y-132504761D01*
X178157142Y-132552380D01*
X178061904Y-132600000D01*
X177776190Y-132600000D01*
X177680952Y-132552380D01*
X177633333Y-132504761D01*
X177585714Y-132409523D01*
X177585714Y-132219047D01*
X177633333Y-132123809D01*
X178204761Y-131266666D02*
X178252380Y-131361904D01*
X178252380Y-131552380D01*
X178204761Y-131647619D01*
X178109523Y-131695238D01*
X177728571Y-131695238D01*
X177633333Y-131647619D01*
X177585714Y-131552380D01*
X177585714Y-131361904D01*
X177633333Y-131266666D01*
X177728571Y-131219047D01*
X177823809Y-131219047D01*
X177919047Y-131695238D01*
X178157142Y-130790476D02*
X178204761Y-130742857D01*
X178252380Y-130790476D01*
X178204761Y-130838095D01*
X178157142Y-130790476D01*
X178252380Y-130790476D01*
X178204761Y-129885714D02*
X178252380Y-129980952D01*
X178252380Y-130171428D01*
X178204761Y-130266666D01*
X178157142Y-130314285D01*
X178061904Y-130361904D01*
X177776190Y-130361904D01*
X177680952Y-130314285D01*
X177633333Y-130266666D01*
X177585714Y-130171428D01*
X177585714Y-129980952D01*
X177633333Y-129885714D01*
X178252380Y-129314285D02*
X178204761Y-129409523D01*
X178157142Y-129457142D01*
X178061904Y-129504761D01*
X177776190Y-129504761D01*
X177680952Y-129457142D01*
X177633333Y-129409523D01*
X177585714Y-129314285D01*
X177585714Y-129171428D01*
X177633333Y-129076190D01*
X177680952Y-129028571D01*
X177776190Y-128980952D01*
X178061904Y-128980952D01*
X178157142Y-129028571D01*
X178204761Y-129076190D01*
X178252380Y-129171428D01*
X178252380Y-129314285D01*
X178252380Y-128552380D02*
X177585714Y-128552380D01*
X177680952Y-128552380D02*
X177633333Y-128504761D01*
X177585714Y-128409523D01*
X177585714Y-128266666D01*
X177633333Y-128171428D01*
X177728571Y-128123809D01*
X178252380Y-128123809D01*
X177728571Y-128123809D02*
X177633333Y-128076190D01*
X177585714Y-127980952D01*
X177585714Y-127838095D01*
X177633333Y-127742857D01*
X177728571Y-127695238D01*
X178252380Y-127695238D01*
D11*
X143261904Y-113952380D02*
X143261904Y-112952380D01*
X143595238Y-113666666D01*
X143928571Y-112952380D01*
X143928571Y-113952380D01*
X144357142Y-113047619D02*
X144404761Y-113000000D01*
X144500000Y-112952380D01*
X144738095Y-112952380D01*
X144833333Y-113000000D01*
X144880952Y-113047619D01*
X144928571Y-113142857D01*
X144928571Y-113238095D01*
X144880952Y-113380952D01*
X144309523Y-113952380D01*
X144928571Y-113952380D01*
X145261904Y-112952380D02*
X145928571Y-113952380D01*
X145928571Y-112952380D02*
X145261904Y-113952380D01*
X146833333Y-113952380D02*
X146261904Y-113952380D01*
X146547619Y-113952380D02*
X146547619Y-112952380D01*
X146452380Y-113095238D01*
X146357142Y-113190476D01*
X146261904Y-113238095D01*
X147690476Y-112952380D02*
X147500000Y-112952380D01*
X147404761Y-113000000D01*
X147357142Y-113047619D01*
X147261904Y-113190476D01*
X147214285Y-113380952D01*
X147214285Y-113761904D01*
X147261904Y-113857142D01*
X147309523Y-113904761D01*
X147404761Y-113952380D01*
X147595238Y-113952380D01*
X147690476Y-113904761D01*
X147738095Y-113857142D01*
X147785714Y-113761904D01*
X147785714Y-113523809D01*
X147738095Y-113428571D01*
X147690476Y-113380952D01*
X147595238Y-113333333D01*
X147404761Y-113333333D01*
X147309523Y-113380952D01*
X147261904Y-113428571D01*
X147214285Y-113523809D01*
X156161904Y-134452380D02*
X156161904Y-133452380D01*
X156495238Y-134166666D01*
X156828571Y-133452380D01*
X156828571Y-134452380D01*
X157257142Y-133547619D02*
X157304761Y-133500000D01*
X157400000Y-133452380D01*
X157638095Y-133452380D01*
X157733333Y-133500000D01*
X157780952Y-133547619D01*
X157828571Y-133642857D01*
X157828571Y-133738095D01*
X157780952Y-133880952D01*
X157209523Y-134452380D01*
X157828571Y-134452380D01*
X158161904Y-133452380D02*
X158828571Y-134452380D01*
X158828571Y-133452380D02*
X158161904Y-134452380D01*
X159733333Y-134452380D02*
X159161904Y-134452380D01*
X159447619Y-134452380D02*
X159447619Y-133452380D01*
X159352380Y-133595238D01*
X159257142Y-133690476D01*
X159161904Y-133738095D01*
X160352380Y-133452380D02*
X160447619Y-133452380D01*
X160542857Y-133500000D01*
X160590476Y-133547619D01*
X160638095Y-133642857D01*
X160685714Y-133833333D01*
X160685714Y-134071428D01*
X160638095Y-134261904D01*
X160590476Y-134357142D01*
X160542857Y-134404761D01*
X160447619Y-134452380D01*
X160352380Y-134452380D01*
X160257142Y-134404761D01*
X160209523Y-134357142D01*
X160161904Y-134261904D01*
X160114285Y-134071428D01*
X160114285Y-133833333D01*
X160161904Y-133642857D01*
X160209523Y-133547619D01*
X160257142Y-133500000D01*
X160352380Y-133452380D01*
X177561904Y-117628571D02*
X178133333Y-117628571D01*
X178247619Y-117666666D01*
X178323809Y-117742857D01*
X178361904Y-117857142D01*
X178361904Y-117933333D01*
X178285714Y-117247619D02*
X178323809Y-117209523D01*
X178361904Y-117247619D01*
X178323809Y-117285714D01*
X178285714Y-117247619D01*
X178361904Y-117247619D01*
X178361904Y-116257142D02*
X177561904Y-116257142D01*
X177942857Y-116257142D02*
X177942857Y-115800000D01*
X178361904Y-115800000D02*
X177561904Y-115800000D01*
X178133333Y-115457142D02*
X178133333Y-115076190D01*
X178361904Y-115533333D02*
X177561904Y-115266666D01*
X178361904Y-115000000D01*
X177561904Y-114733333D02*
X178209523Y-114733333D01*
X178285714Y-114695238D01*
X178323809Y-114657142D01*
X178361904Y-114580952D01*
X178361904Y-114428571D01*
X178323809Y-114352380D01*
X178285714Y-114314285D01*
X178209523Y-114276190D01*
X177561904Y-114276190D01*
X178361904Y-113895238D02*
X177561904Y-113895238D01*
X177561904Y-113590476D01*
X177600000Y-113514285D01*
X177638095Y-113476190D01*
X177714285Y-113438095D01*
X177828571Y-113438095D01*
X177904761Y-113476190D01*
X177942857Y-113514285D01*
X177980952Y-113590476D01*
X177980952Y-113895238D01*
X177561904Y-113209523D02*
X177561904Y-112752380D01*
X178361904Y-112980952D02*
X177561904Y-112980952D01*
X178057142Y-111876190D02*
X178057142Y-111266666D01*
X177828571Y-110352380D02*
X178361904Y-110161904D01*
X177828571Y-109971428D01*
X178361904Y-109247619D02*
X178361904Y-109704761D01*
X178361904Y-109476190D02*
X177561904Y-109476190D01*
X177676190Y-109552380D01*
X177752380Y-109628571D01*
X177790476Y-109704761D01*
X178285714Y-108904761D02*
X178323809Y-108866666D01*
X178361904Y-108904761D01*
X178323809Y-108942857D01*
X178285714Y-108904761D01*
X178361904Y-108904761D01*
X177561904Y-108600000D02*
X177561904Y-108104761D01*
X177866666Y-108371428D01*
X177866666Y-108257142D01*
X177904761Y-108180952D01*
X177942857Y-108142857D01*
X178019047Y-108104761D01*
X178209523Y-108104761D01*
X178285714Y-108142857D01*
X178323809Y-108180952D01*
X178361904Y-108257142D01*
X178361904Y-108485714D01*
X178323809Y-108561904D01*
X178285714Y-108600000D01*
X164257142Y-137842857D02*
X164200000Y-137871428D01*
X164085714Y-137871428D01*
X164028571Y-137842857D01*
X164000000Y-137785714D01*
X164000000Y-137557142D01*
X164028571Y-137500000D01*
X164085714Y-137471428D01*
X164200000Y-137471428D01*
X164257142Y-137500000D01*
X164285714Y-137557142D01*
X164285714Y-137614285D01*
X164000000Y-137671428D01*
X164542857Y-137871428D02*
X164542857Y-137271428D01*
X164771428Y-137271428D01*
X164828571Y-137300000D01*
X164857142Y-137328571D01*
X164885714Y-137385714D01*
X164885714Y-137471428D01*
X164857142Y-137528571D01*
X164828571Y-137557142D01*
X164771428Y-137585714D01*
X164542857Y-137585714D01*
X165400000Y-137871428D02*
X165400000Y-137557142D01*
X165371428Y-137500000D01*
X165314285Y-137471428D01*
X165200000Y-137471428D01*
X165142857Y-137500000D01*
X165400000Y-137842857D02*
X165342857Y-137871428D01*
X165200000Y-137871428D01*
X165142857Y-137842857D01*
X165114285Y-137785714D01*
X165114285Y-137728571D01*
X165142857Y-137671428D01*
X165200000Y-137642857D01*
X165342857Y-137642857D01*
X165400000Y-137614285D01*
X165685714Y-137471428D02*
X165685714Y-138071428D01*
X165685714Y-137500000D02*
X165742857Y-137471428D01*
X165857142Y-137471428D01*
X165914285Y-137500000D01*
X165942857Y-137528571D01*
X165971428Y-137585714D01*
X165971428Y-137757142D01*
X165942857Y-137814285D01*
X165914285Y-137842857D01*
X165857142Y-137871428D01*
X165742857Y-137871428D01*
X165685714Y-137842857D01*
X166457142Y-137842857D02*
X166400000Y-137871428D01*
X166285714Y-137871428D01*
X166228571Y-137842857D01*
X166200000Y-137785714D01*
X166200000Y-137557142D01*
X166228571Y-137500000D01*
X166285714Y-137471428D01*
X166400000Y-137471428D01*
X166457142Y-137500000D01*
X166485714Y-137557142D01*
X166485714Y-137614285D01*
X166200000Y-137671428D01*
X166742857Y-137871428D02*
X166742857Y-137471428D01*
X166742857Y-137585714D02*
X166771428Y-137528571D01*
X166800000Y-137500000D01*
X166857142Y-137471428D01*
X166914285Y-137471428D01*
X167571428Y-137557142D02*
X167771428Y-137557142D01*
X167857142Y-137871428D02*
X167571428Y-137871428D01*
X167571428Y-137271428D01*
X167857142Y-137271428D01*
X168114285Y-137871428D02*
X168114285Y-137271428D01*
X168257142Y-137271428D01*
X168342857Y-137300000D01*
X168400000Y-137357142D01*
X168428571Y-137414285D01*
X168457142Y-137528571D01*
X168457142Y-137614285D01*
X168428571Y-137728571D01*
X168400000Y-137785714D01*
X168342857Y-137842857D01*
X168257142Y-137871428D01*
X168114285Y-137871428D01*
X169028571Y-137300000D02*
X168971428Y-137271428D01*
X168885714Y-137271428D01*
X168800000Y-137300000D01*
X168742857Y-137357142D01*
X168714285Y-137414285D01*
X168685714Y-137528571D01*
X168685714Y-137614285D01*
X168714285Y-137728571D01*
X168742857Y-137785714D01*
X168800000Y-137842857D01*
X168885714Y-137871428D01*
X168942857Y-137871428D01*
X169028571Y-137842857D01*
X169057142Y-137814285D01*
X169057142Y-137614285D01*
X168942857Y-137614285D01*
X169314285Y-137557142D02*
X169514285Y-137557142D01*
X169600000Y-137871428D02*
X169314285Y-137871428D01*
X169314285Y-137271428D01*
X169600000Y-137271428D01*
X145357142Y-88892857D02*
X144857142Y-88892857D01*
X144857142Y-89678571D02*
X144857142Y-88178571D01*
X145571428Y-88178571D01*
X146071428Y-89250000D02*
X146785714Y-89250000D01*
X145928571Y-89678571D02*
X146428571Y-88178571D01*
X146928571Y-89678571D01*
X147928571Y-88892857D02*
X148142857Y-88964285D01*
X148214285Y-89035714D01*
X148285714Y-89178571D01*
X148285714Y-89392857D01*
X148214285Y-89535714D01*
X148142857Y-89607142D01*
X148000000Y-89678571D01*
X147428571Y-89678571D01*
X147428571Y-88178571D01*
X147928571Y-88178571D01*
X148071428Y-88250000D01*
X148142857Y-88321428D01*
X148214285Y-88464285D01*
X148214285Y-88607142D01*
X148142857Y-88750000D01*
X148071428Y-88821428D01*
X147928571Y-88892857D01*
X147428571Y-88892857D01*
X148928571Y-89107142D02*
X150071428Y-89107142D01*
X151285714Y-88892857D02*
X150785714Y-88892857D01*
X150785714Y-89678571D02*
X150785714Y-88178571D01*
X151500000Y-88178571D01*
X152928571Y-89678571D02*
X152428571Y-88964285D01*
X152071428Y-89678571D02*
X152071428Y-88178571D01*
X152642857Y-88178571D01*
X152785714Y-88250000D01*
X152857142Y-88321428D01*
X152928571Y-88464285D01*
X152928571Y-88678571D01*
X152857142Y-88821428D01*
X152785714Y-88892857D01*
X152642857Y-88964285D01*
X152071428Y-88964285D01*
X153857142Y-88178571D02*
X154142857Y-88178571D01*
X154285714Y-88250000D01*
X154428571Y-88392857D01*
X154500000Y-88678571D01*
X154500000Y-89178571D01*
X154428571Y-89464285D01*
X154285714Y-89607142D01*
X154142857Y-89678571D01*
X153857142Y-89678571D01*
X153714285Y-89607142D01*
X153571428Y-89464285D01*
X153500000Y-89178571D01*
X153500000Y-88678571D01*
X153571428Y-88392857D01*
X153714285Y-88250000D01*
X153857142Y-88178571D01*
X155142857Y-89678571D02*
X155142857Y-88178571D01*
X156000000Y-89678571D01*
X156000000Y-88178571D01*
X156500000Y-88178571D02*
X157357142Y-88178571D01*
X156928571Y-89678571D02*
X156928571Y-88178571D01*
X176852380Y-102838095D02*
X175852380Y-102838095D01*
X176566666Y-102504761D01*
X175852380Y-102171428D01*
X176852380Y-102171428D01*
X175947619Y-101742857D02*
X175900000Y-101695238D01*
X175852380Y-101600000D01*
X175852380Y-101361904D01*
X175900000Y-101266666D01*
X175947619Y-101219047D01*
X176042857Y-101171428D01*
X176138095Y-101171428D01*
X176280952Y-101219047D01*
X176852380Y-101790476D01*
X176852380Y-101171428D01*
X175852380Y-100838095D02*
X176852380Y-100171428D01*
X175852380Y-100171428D02*
X176852380Y-100838095D01*
X176852380Y-99266666D02*
X176852380Y-99838095D01*
X176852380Y-99552380D02*
X175852380Y-99552380D01*
X175995238Y-99647619D01*
X176090476Y-99742857D01*
X176138095Y-99838095D01*
X175852380Y-98409523D02*
X175852380Y-98600000D01*
X175900000Y-98695238D01*
X175947619Y-98742857D01*
X176090476Y-98838095D01*
X176280952Y-98885714D01*
X176661904Y-98885714D01*
X176757142Y-98838095D01*
X176804761Y-98790476D01*
X176852380Y-98695238D01*
X176852380Y-98504761D01*
X176804761Y-98409523D01*
X176757142Y-98361904D01*
X176661904Y-98314285D01*
X176423809Y-98314285D01*
X176328571Y-98361904D01*
X176280952Y-98409523D01*
X176233333Y-98504761D01*
X176233333Y-98695238D01*
X176280952Y-98790476D01*
X176328571Y-98838095D01*
X176423809Y-98885714D01*
X150209523Y-124128571D02*
X150352380Y-124176190D01*
X150400000Y-124223809D01*
X150447619Y-124319047D01*
X150447619Y-124461904D01*
X150400000Y-124557142D01*
X150352380Y-124604761D01*
X150257142Y-124652380D01*
X149876190Y-124652380D01*
X149876190Y-123652380D01*
X150209523Y-123652380D01*
X150304761Y-123700000D01*
X150352380Y-123747619D01*
X150400000Y-123842857D01*
X150400000Y-123938095D01*
X150352380Y-124033333D01*
X150304761Y-124080952D01*
X150209523Y-124128571D01*
X149876190Y-124128571D01*
X150876190Y-124128571D02*
X151209523Y-124128571D01*
X151352380Y-124652380D02*
X150876190Y-124652380D01*
X150876190Y-123652380D01*
X151352380Y-123652380D01*
X152257142Y-124652380D02*
X151780952Y-124652380D01*
X151780952Y-123652380D01*
X153066666Y-124652380D02*
X152590476Y-124652380D01*
X152590476Y-123652380D01*
X154638095Y-124652380D02*
X154161904Y-124652380D01*
X154161904Y-123652380D01*
X154971428Y-124128571D02*
X155304761Y-124128571D01*
X155447619Y-124652380D02*
X154971428Y-124652380D01*
X154971428Y-123652380D01*
X155447619Y-123652380D01*
X155733333Y-123652380D02*
X156066666Y-124652380D01*
X156400000Y-123652380D01*
X156733333Y-124128571D02*
X157066666Y-124128571D01*
X157209523Y-124652380D02*
X156733333Y-124652380D01*
X156733333Y-123652380D01*
X157209523Y-123652380D01*
X158209523Y-124652380D02*
X157876190Y-124176190D01*
X157638095Y-124652380D02*
X157638095Y-123652380D01*
X158019047Y-123652380D01*
X158114285Y-123700000D01*
X158161904Y-123747619D01*
X158209523Y-123842857D01*
X158209523Y-123985714D01*
X158161904Y-124080952D01*
X158114285Y-124128571D01*
X158019047Y-124176190D01*
X157638095Y-124176190D01*
X148068912Y-118257474D02*
X148068912Y-118311349D01*
X148015037Y-118419098D01*
X147961163Y-118472973D01*
X147853413Y-118526848D01*
X147745663Y-118526848D01*
X147664851Y-118499911D01*
X147530164Y-118419098D01*
X147449352Y-118338286D01*
X147368540Y-118203599D01*
X147341602Y-118122787D01*
X147341602Y-118015037D01*
X147395477Y-117907288D01*
X147449352Y-117853413D01*
X147557101Y-117799538D01*
X147610976Y-117799538D01*
X148068912Y-117233853D02*
X147799538Y-117503227D01*
X148041975Y-117799538D01*
X148041975Y-117745663D01*
X148068912Y-117664851D01*
X148203599Y-117530164D01*
X148284411Y-117503227D01*
X148338286Y-117503227D01*
X148419098Y-117530164D01*
X148553785Y-117664851D01*
X148580723Y-117745663D01*
X148580723Y-117799538D01*
X148553785Y-117880350D01*
X148419098Y-118015037D01*
X148338286Y-118041975D01*
X148284411Y-118041975D01*
X171152857Y-81962857D02*
X170886190Y-81962857D01*
X170886190Y-82381904D02*
X170886190Y-81581904D01*
X171267142Y-81581904D01*
X171571904Y-82381904D02*
X171571904Y-81581904D01*
X171952857Y-82381904D02*
X171952857Y-81581904D01*
X172143333Y-81581904D01*
X172257619Y-81620000D01*
X172333809Y-81696190D01*
X172371904Y-81772380D01*
X172410000Y-81924761D01*
X172410000Y-82039047D01*
X172371904Y-82191428D01*
X172333809Y-82267619D01*
X172257619Y-82343809D01*
X172143333Y-82381904D01*
X171952857Y-82381904D01*
X172714761Y-81658095D02*
X172752857Y-81620000D01*
X172829047Y-81581904D01*
X173019523Y-81581904D01*
X173095714Y-81620000D01*
X173133809Y-81658095D01*
X173171904Y-81734285D01*
X173171904Y-81810476D01*
X173133809Y-81924761D01*
X172676666Y-82381904D01*
X173171904Y-82381904D01*
X146832749Y-117221311D02*
X146832749Y-117275186D01*
X146778874Y-117382935D01*
X146725000Y-117436810D01*
X146617250Y-117490685D01*
X146509500Y-117490685D01*
X146428688Y-117463748D01*
X146294001Y-117382935D01*
X146213189Y-117302123D01*
X146132377Y-117167436D01*
X146105439Y-117086624D01*
X146105439Y-116978874D01*
X146159314Y-116871125D01*
X146213189Y-116817250D01*
X146320938Y-116763375D01*
X146374813Y-116763375D01*
X147425372Y-116736438D02*
X147102123Y-117059687D01*
X147263748Y-116898062D02*
X146698062Y-116332377D01*
X146725000Y-116467064D01*
X146725000Y-116574813D01*
X146698062Y-116655625D01*
X127334857Y-84932857D02*
X127068190Y-84932857D01*
X127068190Y-85351904D02*
X127068190Y-84551904D01*
X127449142Y-84551904D01*
X127753904Y-85351904D02*
X127753904Y-84551904D01*
X128134857Y-85351904D02*
X128134857Y-84551904D01*
X128325333Y-84551904D01*
X128439619Y-84590000D01*
X128515809Y-84666190D01*
X128553904Y-84742380D01*
X128592000Y-84894761D01*
X128592000Y-85009047D01*
X128553904Y-85161428D01*
X128515809Y-85237619D01*
X128439619Y-85313809D01*
X128325333Y-85351904D01*
X128134857Y-85351904D01*
X129353904Y-85351904D02*
X128896761Y-85351904D01*
X129125333Y-85351904D02*
X129125333Y-84551904D01*
X129049142Y-84666190D01*
X128972952Y-84742380D01*
X128896761Y-84780476D01*
X145338375Y-116348435D02*
X144772690Y-115782749D01*
X144907377Y-115648062D01*
X145015126Y-115594187D01*
X145122876Y-115594187D01*
X145203688Y-115621125D01*
X145338375Y-115701937D01*
X145419187Y-115782749D01*
X145500000Y-115917436D01*
X145526937Y-115998248D01*
X145526937Y-116105998D01*
X145473062Y-116213748D01*
X145338375Y-116348435D01*
X146200372Y-115486438D02*
X145877123Y-115809687D01*
X146038748Y-115648062D02*
X145473062Y-115082377D01*
X145500000Y-115217064D01*
X145500000Y-115324813D01*
X145473062Y-115405625D01*
X150443913Y-120707474D02*
X150443913Y-120761349D01*
X150390038Y-120869098D01*
X150336164Y-120922973D01*
X150228414Y-120976848D01*
X150120664Y-120976848D01*
X150039852Y-120949911D01*
X149905165Y-120869098D01*
X149824353Y-120788286D01*
X149743541Y-120653599D01*
X149716603Y-120572787D01*
X149716603Y-120465037D01*
X149770478Y-120357288D01*
X149824353Y-120303413D01*
X149932102Y-120249538D01*
X149985977Y-120249538D01*
X150605538Y-119899352D02*
X150982661Y-120276475D01*
X150255351Y-119818540D02*
X150524725Y-120357288D01*
X150874912Y-120007101D01*
X136165714Y-81161904D02*
X135899047Y-80780952D01*
X135708571Y-81161904D02*
X135708571Y-80361904D01*
X136013333Y-80361904D01*
X136089523Y-80400000D01*
X136127619Y-80438095D01*
X136165714Y-80514285D01*
X136165714Y-80628571D01*
X136127619Y-80704761D01*
X136089523Y-80742857D01*
X136013333Y-80780952D01*
X135708571Y-80780952D01*
X136432380Y-80361904D02*
X136927619Y-80361904D01*
X136660952Y-80666666D01*
X136775238Y-80666666D01*
X136851428Y-80704761D01*
X136889523Y-80742857D01*
X136927619Y-80819047D01*
X136927619Y-81009523D01*
X136889523Y-81085714D01*
X136851428Y-81123809D01*
X136775238Y-81161904D01*
X136546666Y-81161904D01*
X136470476Y-81123809D01*
X136432380Y-81085714D01*
X137194285Y-80361904D02*
X137689523Y-80361904D01*
X137422857Y-80666666D01*
X137537142Y-80666666D01*
X137613333Y-80704761D01*
X137651428Y-80742857D01*
X137689523Y-80819047D01*
X137689523Y-81009523D01*
X137651428Y-81085714D01*
X137613333Y-81123809D01*
X137537142Y-81161904D01*
X137308571Y-81161904D01*
X137232380Y-81123809D01*
X137194285Y-81085714D01*
X136075714Y-72531904D02*
X135809047Y-72150952D01*
X135618571Y-72531904D02*
X135618571Y-71731904D01*
X135923333Y-71731904D01*
X135999523Y-71770000D01*
X136037619Y-71808095D01*
X136075714Y-71884285D01*
X136075714Y-71998571D01*
X136037619Y-72074761D01*
X135999523Y-72112857D01*
X135923333Y-72150952D01*
X135618571Y-72150952D01*
X136342380Y-71731904D02*
X136837619Y-71731904D01*
X136570952Y-72036666D01*
X136685238Y-72036666D01*
X136761428Y-72074761D01*
X136799523Y-72112857D01*
X136837619Y-72189047D01*
X136837619Y-72379523D01*
X136799523Y-72455714D01*
X136761428Y-72493809D01*
X136685238Y-72531904D01*
X136456666Y-72531904D01*
X136380476Y-72493809D01*
X136342380Y-72455714D01*
X137142380Y-71808095D02*
X137180476Y-71770000D01*
X137256666Y-71731904D01*
X137447142Y-71731904D01*
X137523333Y-71770000D01*
X137561428Y-71808095D01*
X137599523Y-71884285D01*
X137599523Y-71960476D01*
X137561428Y-72074761D01*
X137104285Y-72531904D01*
X137599523Y-72531904D01*
X135061904Y-76516666D02*
X135633333Y-76516666D01*
X135747619Y-76554761D01*
X135823809Y-76630952D01*
X135861904Y-76745238D01*
X135861904Y-76821428D01*
X135061904Y-76211904D02*
X135061904Y-75678571D01*
X135861904Y-76021428D01*
X148999538Y-119809598D02*
X148433853Y-119243912D01*
X148568540Y-119109225D01*
X148676289Y-119055350D01*
X148784039Y-119055350D01*
X148864851Y-119082288D01*
X148999538Y-119163100D01*
X149080350Y-119243912D01*
X149161163Y-119378599D01*
X149188100Y-119459411D01*
X149188100Y-119567161D01*
X149134225Y-119674911D01*
X148999538Y-119809598D01*
X149430537Y-118624352D02*
X149807660Y-119001475D01*
X149080350Y-118543540D02*
X149349724Y-119082288D01*
X149699911Y-118732101D01*
X170542857Y-135642857D02*
X170276190Y-135642857D01*
X170276190Y-136061904D02*
X170276190Y-135261904D01*
X170657142Y-135261904D01*
X170961904Y-136061904D02*
X170961904Y-135261904D01*
X171342857Y-136061904D02*
X171342857Y-135261904D01*
X171533333Y-135261904D01*
X171647619Y-135300000D01*
X171723809Y-135376190D01*
X171761904Y-135452380D01*
X171800000Y-135604761D01*
X171800000Y-135719047D01*
X171761904Y-135871428D01*
X171723809Y-135947619D01*
X171647619Y-136023809D01*
X171533333Y-136061904D01*
X171342857Y-136061904D01*
X172066666Y-135261904D02*
X172561904Y-135261904D01*
X172295238Y-135566666D01*
X172409523Y-135566666D01*
X172485714Y-135604761D01*
X172523809Y-135642857D01*
X172561904Y-135719047D01*
X172561904Y-135909523D01*
X172523809Y-135985714D01*
X172485714Y-136023809D01*
X172409523Y-136061904D01*
X172180952Y-136061904D01*
X172104761Y-136023809D01*
X172066666Y-135985714D01*
X144256904Y-102321666D02*
X144828333Y-102321666D01*
X144942619Y-102359761D01*
X145018809Y-102435952D01*
X145056904Y-102550238D01*
X145056904Y-102626428D01*
X144333095Y-101978809D02*
X144295000Y-101940714D01*
X144256904Y-101864523D01*
X144256904Y-101674047D01*
X144295000Y-101597857D01*
X144333095Y-101559761D01*
X144409285Y-101521666D01*
X144485476Y-101521666D01*
X144599761Y-101559761D01*
X145056904Y-102016904D01*
X145056904Y-101521666D01*
X175266666Y-85285714D02*
X175228571Y-85323809D01*
X175114285Y-85361904D01*
X175038095Y-85361904D01*
X174923809Y-85323809D01*
X174847619Y-85247619D01*
X174809523Y-85171428D01*
X174771428Y-85019047D01*
X174771428Y-84904761D01*
X174809523Y-84752380D01*
X174847619Y-84676190D01*
X174923809Y-84600000D01*
X175038095Y-84561904D01*
X175114285Y-84561904D01*
X175228571Y-84600000D01*
X175266666Y-84638095D01*
X175533333Y-84561904D02*
X176066666Y-84561904D01*
X175723809Y-85361904D01*
X175866666Y-81861904D02*
X175485714Y-81861904D01*
X175485714Y-81061904D01*
X176057142Y-81061904D02*
X176552380Y-81061904D01*
X176285714Y-81366666D01*
X176400000Y-81366666D01*
X176476190Y-81404761D01*
X176514285Y-81442857D01*
X176552380Y-81519047D01*
X176552380Y-81709523D01*
X176514285Y-81785714D01*
X176476190Y-81823809D01*
X176400000Y-81861904D01*
X176171428Y-81861904D01*
X176095238Y-81823809D01*
X176057142Y-81785714D01*
X176266666Y-83985714D02*
X176228571Y-84023809D01*
X176114285Y-84061904D01*
X176038095Y-84061904D01*
X175923809Y-84023809D01*
X175847619Y-83947619D01*
X175809523Y-83871428D01*
X175771428Y-83719047D01*
X175771428Y-83604761D01*
X175809523Y-83452380D01*
X175847619Y-83376190D01*
X175923809Y-83300000D01*
X176038095Y-83261904D01*
X176114285Y-83261904D01*
X176228571Y-83300000D01*
X176266666Y-83338095D01*
X176952380Y-83261904D02*
X176800000Y-83261904D01*
X176723809Y-83300000D01*
X176685714Y-83338095D01*
X176609523Y-83452380D01*
X176571428Y-83604761D01*
X176571428Y-83909523D01*
X176609523Y-83985714D01*
X176647619Y-84023809D01*
X176723809Y-84061904D01*
X176876190Y-84061904D01*
X176952380Y-84023809D01*
X176990476Y-83985714D01*
X177028571Y-83909523D01*
X177028571Y-83719047D01*
X176990476Y-83642857D01*
X176952380Y-83604761D01*
X176876190Y-83566666D01*
X176723809Y-83566666D01*
X176647619Y-83604761D01*
X176609523Y-83642857D01*
X176571428Y-83719047D01*
X174466666Y-86661904D02*
X174085714Y-86661904D01*
X174085714Y-85861904D01*
X175076190Y-86128571D02*
X175076190Y-86661904D01*
X174885714Y-85823809D02*
X174695238Y-86395238D01*
X175190476Y-86395238D01*
X172366666Y-73661904D02*
X171985714Y-73661904D01*
X171985714Y-72861904D01*
X172595238Y-72938095D02*
X172633333Y-72900000D01*
X172709523Y-72861904D01*
X172900000Y-72861904D01*
X172976190Y-72900000D01*
X173014285Y-72938095D01*
X173052380Y-73014285D01*
X173052380Y-73090476D01*
X173014285Y-73204761D01*
X172557142Y-73661904D01*
X173052380Y-73661904D01*
X173533333Y-90161904D02*
X173533333Y-90733333D01*
X173495238Y-90847619D01*
X173419047Y-90923809D01*
X173304761Y-90961904D01*
X173228571Y-90961904D01*
X174333333Y-90961904D02*
X173876190Y-90961904D01*
X174104761Y-90961904D02*
X174104761Y-90161904D01*
X174028571Y-90276190D01*
X173952380Y-90352380D01*
X173876190Y-90390476D01*
X162316666Y-73383333D02*
X162697619Y-73383333D01*
X162240476Y-73611904D02*
X162507142Y-72811904D01*
X162773809Y-73611904D01*
X163040476Y-73192857D02*
X163307142Y-73192857D01*
X163421428Y-73611904D02*
X163040476Y-73611904D01*
X163040476Y-72811904D01*
X163421428Y-72811904D01*
X164183333Y-73611904D02*
X163726190Y-73611904D01*
X163954761Y-73611904D02*
X163954761Y-72811904D01*
X163878571Y-72926190D01*
X163802380Y-73002380D01*
X163726190Y-73040476D01*
X175266666Y-87885714D02*
X175228571Y-87923809D01*
X175114285Y-87961904D01*
X175038095Y-87961904D01*
X174923809Y-87923809D01*
X174847619Y-87847619D01*
X174809523Y-87771428D01*
X174771428Y-87619047D01*
X174771428Y-87504761D01*
X174809523Y-87352380D01*
X174847619Y-87276190D01*
X174923809Y-87200000D01*
X175038095Y-87161904D01*
X175114285Y-87161904D01*
X175228571Y-87200000D01*
X175266666Y-87238095D01*
X175647619Y-87961904D02*
X175800000Y-87961904D01*
X175876190Y-87923809D01*
X175914285Y-87885714D01*
X175990476Y-87771428D01*
X176028571Y-87619047D01*
X176028571Y-87314285D01*
X175990476Y-87238095D01*
X175952380Y-87200000D01*
X175876190Y-87161904D01*
X175723809Y-87161904D01*
X175647619Y-87200000D01*
X175609523Y-87238095D01*
X175571428Y-87314285D01*
X175571428Y-87504761D01*
X175609523Y-87580952D01*
X175647619Y-87619047D01*
X175723809Y-87657142D01*
X175876190Y-87657142D01*
X175952380Y-87619047D01*
X175990476Y-87580952D01*
X176028571Y-87504761D01*
X172966666Y-74985714D02*
X172928571Y-75023809D01*
X172814285Y-75061904D01*
X172738095Y-75061904D01*
X172623809Y-75023809D01*
X172547619Y-74947619D01*
X172509523Y-74871428D01*
X172471428Y-74719047D01*
X172471428Y-74604761D01*
X172509523Y-74452380D01*
X172547619Y-74376190D01*
X172623809Y-74300000D01*
X172738095Y-74261904D01*
X172814285Y-74261904D01*
X172928571Y-74300000D01*
X172966666Y-74338095D01*
X173423809Y-74604761D02*
X173347619Y-74566666D01*
X173309523Y-74528571D01*
X173271428Y-74452380D01*
X173271428Y-74414285D01*
X173309523Y-74338095D01*
X173347619Y-74300000D01*
X173423809Y-74261904D01*
X173576190Y-74261904D01*
X173652380Y-74300000D01*
X173690476Y-74338095D01*
X173728571Y-74414285D01*
X173728571Y-74452380D01*
X173690476Y-74528571D01*
X173652380Y-74566666D01*
X173576190Y-74604761D01*
X173423809Y-74604761D01*
X173347619Y-74642857D01*
X173309523Y-74680952D01*
X173271428Y-74757142D01*
X173271428Y-74909523D01*
X173309523Y-74985714D01*
X173347619Y-75023809D01*
X173423809Y-75061904D01*
X173576190Y-75061904D01*
X173652380Y-75023809D01*
X173690476Y-74985714D01*
X173728571Y-74909523D01*
X173728571Y-74757142D01*
X173690476Y-74680952D01*
X173652380Y-74642857D01*
X173576190Y-74604761D01*
X178161904Y-78533333D02*
X178161904Y-78914285D01*
X177361904Y-78914285D01*
X178161904Y-77847619D02*
X178161904Y-78304761D01*
X178161904Y-78076190D02*
X177361904Y-78076190D01*
X177476190Y-78152380D01*
X177552380Y-78228571D01*
X177590476Y-78304761D01*
X145888781Y-119289970D02*
X145689970Y-119488781D01*
X146610030Y-120011219D02*
X146411219Y-120210030D01*
X144738781Y-118114970D02*
X144539970Y-118313781D01*
X145460030Y-118836219D02*
X145261219Y-119035030D01*
X143754038Y-118485409D02*
X145369777Y-116869670D01*
X145369777Y-116869670D02*
X144330330Y-115830223D01*
X144330330Y-115830223D02*
X142714591Y-117445962D01*
X148263781Y-121639970D02*
X148064970Y-121838781D01*
X148985030Y-122361219D02*
X148786219Y-122560030D01*
X136937258Y-80222500D02*
X136462742Y-80222500D01*
X136937258Y-79177500D02*
X136462742Y-79177500D01*
X136852258Y-71522500D02*
X136377742Y-71522500D01*
X136852258Y-70477500D02*
X136377742Y-70477500D01*
D12*
X121050000Y-83900000D02*
X134325000Y-83900000D01*
X118875000Y-69900000D02*
X118875000Y-82450000D01*
X122050000Y-69900000D02*
X134325000Y-69900000D01*
X134325000Y-78881200D02*
X134325000Y-83900000D01*
X118875000Y-69900000D02*
X119550000Y-69900000D01*
X134325000Y-69900000D02*
X134325000Y-70626200D01*
X134325000Y-73090000D02*
X134325000Y-76442800D01*
X123450000Y-79900000D02*
G75*
G03*
X123450000Y-79900000I-100000J0D01*
G01*
D11*
X147880330Y-119355223D02*
X146264591Y-120970962D01*
X147304038Y-122010409D02*
X148919777Y-120394670D01*
X148919777Y-120394670D02*
X147880330Y-119355223D01*
G36*
X148632027Y-74682881D02*
G01*
X148677971Y-74704879D01*
X148681396Y-74710729D01*
X148679853Y-74754681D01*
X148662009Y-74842061D01*
X148630389Y-74964388D01*
X148587516Y-75113181D01*
X148535915Y-75279958D01*
X148478111Y-75456239D01*
X148416626Y-75633542D01*
X148364220Y-75776431D01*
X148291465Y-75972567D01*
X148230168Y-76147001D01*
X148176994Y-76311495D01*
X148128607Y-76477813D01*
X148081670Y-76657717D01*
X148032847Y-76862969D01*
X147978804Y-77105334D01*
X147951262Y-77232568D01*
X147882751Y-77540254D01*
X147819406Y-77800019D01*
X147759087Y-78018674D01*
X147699657Y-78203029D01*
X147638976Y-78359895D01*
X147574905Y-78496084D01*
X147527688Y-78581413D01*
X147412788Y-78747587D01*
X147264019Y-78920456D01*
X147097462Y-79083178D01*
X146929196Y-79218914D01*
X146898913Y-79239892D01*
X146782472Y-79307685D01*
X146654642Y-79364947D01*
X146525054Y-79409501D01*
X146403340Y-79439169D01*
X146299131Y-79451777D01*
X146222058Y-79445147D01*
X146181752Y-79417103D01*
X146178161Y-79402772D01*
X146178130Y-79306794D01*
X146187863Y-79222422D01*
X146204825Y-79169717D01*
X146208157Y-79165442D01*
X146244580Y-79149782D01*
X146320402Y-79129723D01*
X146420433Y-79109185D01*
X146438944Y-79105894D01*
X146627709Y-79059372D01*
X146793141Y-78985694D01*
X146949047Y-78876875D01*
X147109234Y-78724929D01*
X147122968Y-78710328D01*
X147269920Y-78533535D01*
X147394922Y-78338776D01*
X147500393Y-78119571D01*
X147588750Y-77869438D01*
X147662413Y-77581898D01*
X147723799Y-77250470D01*
X147758356Y-77007718D01*
X147779592Y-76835882D01*
X147792713Y-76695527D01*
X147795569Y-76576233D01*
X147786013Y-76467583D01*
X147761898Y-76359160D01*
X147721075Y-76240545D01*
X147661399Y-76101322D01*
X147580720Y-75931073D01*
X147504204Y-75774863D01*
X147257625Y-75273815D01*
X147306040Y-75191181D01*
X147358756Y-75119175D01*
X147412991Y-75072798D01*
X147456381Y-75061588D01*
X147466446Y-75067461D01*
X147480254Y-75101844D01*
X147499427Y-75175071D01*
X147519912Y-75271578D01*
X147520706Y-75275725D01*
X147547308Y-75379241D01*
X147591566Y-75513678D01*
X147646923Y-75660328D01*
X147697009Y-75778832D01*
X147775930Y-75952023D01*
X147837629Y-76078316D01*
X147885529Y-76162029D01*
X147923052Y-76207478D01*
X147953621Y-76218977D01*
X147980658Y-76200845D01*
X148003446Y-76165306D01*
X148023550Y-76115404D01*
X148055298Y-76021987D01*
X148095806Y-75894814D01*
X148142193Y-75743642D01*
X148191576Y-75578231D01*
X148241074Y-75408338D01*
X148287802Y-75243721D01*
X148328880Y-75094139D01*
X148361425Y-74969349D01*
X148380510Y-74888750D01*
X148426795Y-74674783D01*
X148547198Y-74674783D01*
X148632027Y-74682881D01*
G37*
D13*
X148632027Y-74682881D02*
X148677971Y-74704879D01*
X148681396Y-74710729D01*
X148679853Y-74754681D01*
X148662009Y-74842061D01*
X148630389Y-74964388D01*
X148587516Y-75113181D01*
X148535915Y-75279958D01*
X148478111Y-75456239D01*
X148416626Y-75633542D01*
X148364220Y-75776431D01*
X148291465Y-75972567D01*
X148230168Y-76147001D01*
X148176994Y-76311495D01*
X148128607Y-76477813D01*
X148081670Y-76657717D01*
X148032847Y-76862969D01*
X147978804Y-77105334D01*
X147951262Y-77232568D01*
X147882751Y-77540254D01*
X147819406Y-77800019D01*
X147759087Y-78018674D01*
X147699657Y-78203029D01*
X147638976Y-78359895D01*
X147574905Y-78496084D01*
X147527688Y-78581413D01*
X147412788Y-78747587D01*
X147264019Y-78920456D01*
X147097462Y-79083178D01*
X146929196Y-79218914D01*
X146898913Y-79239892D01*
X146782472Y-79307685D01*
X146654642Y-79364947D01*
X146525054Y-79409501D01*
X146403340Y-79439169D01*
X146299131Y-79451777D01*
X146222058Y-79445147D01*
X146181752Y-79417103D01*
X146178161Y-79402772D01*
X146178130Y-79306794D01*
X146187863Y-79222422D01*
X146204825Y-79169717D01*
X146208157Y-79165442D01*
X146244580Y-79149782D01*
X146320402Y-79129723D01*
X146420433Y-79109185D01*
X146438944Y-79105894D01*
X146627709Y-79059372D01*
X146793141Y-78985694D01*
X146949047Y-78876875D01*
X147109234Y-78724929D01*
X147122968Y-78710328D01*
X147269920Y-78533535D01*
X147394922Y-78338776D01*
X147500393Y-78119571D01*
X147588750Y-77869438D01*
X147662413Y-77581898D01*
X147723799Y-77250470D01*
X147758356Y-77007718D01*
X147779592Y-76835882D01*
X147792713Y-76695527D01*
X147795569Y-76576233D01*
X147786013Y-76467583D01*
X147761898Y-76359160D01*
X147721075Y-76240545D01*
X147661399Y-76101322D01*
X147580720Y-75931073D01*
X147504204Y-75774863D01*
X147257625Y-75273815D01*
X147306040Y-75191181D01*
X147358756Y-75119175D01*
X147412991Y-75072798D01*
X147456381Y-75061588D01*
X147466446Y-75067461D01*
X147480254Y-75101844D01*
X147499427Y-75175071D01*
X147519912Y-75271578D01*
X147520706Y-75275725D01*
X147547308Y-75379241D01*
X147591566Y-75513678D01*
X147646923Y-75660328D01*
X147697009Y-75778832D01*
X147775930Y-75952023D01*
X147837629Y-76078316D01*
X147885529Y-76162029D01*
X147923052Y-76207478D01*
X147953621Y-76218977D01*
X147980658Y-76200845D01*
X148003446Y-76165306D01*
X148023550Y-76115404D01*
X148055298Y-76021987D01*
X148095806Y-75894814D01*
X148142193Y-75743642D01*
X148191576Y-75578231D01*
X148241074Y-75408338D01*
X148287802Y-75243721D01*
X148328880Y-75094139D01*
X148361425Y-74969349D01*
X148380510Y-74888750D01*
X148426795Y-74674783D01*
X148547198Y-74674783D01*
X148632027Y-74682881D01*
G36*
X149085052Y-74244995D02*
G01*
X149105165Y-74353484D01*
X149134885Y-74417338D01*
X149181990Y-74447110D01*
X149238750Y-74453490D01*
X149291108Y-74462938D01*
X149297211Y-74483341D01*
X149261753Y-74504365D01*
X149211141Y-74514284D01*
X149160534Y-74522018D01*
X149131873Y-74542040D01*
X149116343Y-74588242D01*
X149105128Y-74674516D01*
X149104241Y-74682752D01*
X149090941Y-74778123D01*
X149076475Y-74840236D01*
X149063503Y-74863424D01*
X149054682Y-74842020D01*
X149052391Y-74793270D01*
X149044487Y-74661915D01*
X149018748Y-74576468D01*
X148972138Y-74529641D01*
X148937643Y-74517931D01*
X148872360Y-74497661D01*
X148843404Y-74474888D01*
X148856543Y-74457758D01*
X148892012Y-74453490D01*
X148956350Y-74445245D01*
X148997519Y-74414217D01*
X149023463Y-74349400D01*
X149041199Y-74246848D01*
X149063220Y-74081196D01*
X149085052Y-74244995D01*
G37*
X149085052Y-74244995D02*
X149105165Y-74353484D01*
X149134885Y-74417338D01*
X149181990Y-74447110D01*
X149238750Y-74453490D01*
X149291108Y-74462938D01*
X149297211Y-74483341D01*
X149261753Y-74504365D01*
X149211141Y-74514284D01*
X149160534Y-74522018D01*
X149131873Y-74542040D01*
X149116343Y-74588242D01*
X149105128Y-74674516D01*
X149104241Y-74682752D01*
X149090941Y-74778123D01*
X149076475Y-74840236D01*
X149063503Y-74863424D01*
X149054682Y-74842020D01*
X149052391Y-74793270D01*
X149044487Y-74661915D01*
X149018748Y-74576468D01*
X148972138Y-74529641D01*
X148937643Y-74517931D01*
X148872360Y-74497661D01*
X148843404Y-74474888D01*
X148856543Y-74457758D01*
X148892012Y-74453490D01*
X148956350Y-74445245D01*
X148997519Y-74414217D01*
X149023463Y-74349400D01*
X149041199Y-74246848D01*
X149063220Y-74081196D01*
X149085052Y-74244995D01*
G36*
X156762350Y-74470538D02*
G01*
X156845885Y-74473797D01*
X157164306Y-74489479D01*
X157173902Y-74590098D01*
X157178422Y-74697414D01*
X157162070Y-74760217D01*
X157117516Y-74783353D01*
X157037425Y-74771667D01*
X156945047Y-74741306D01*
X156859263Y-74719880D01*
X156744347Y-74704203D01*
X156614335Y-74694622D01*
X156483263Y-74691485D01*
X156365168Y-74695136D01*
X156274086Y-74705923D01*
X156224830Y-74723526D01*
X156198297Y-74772064D01*
X156173836Y-74866661D01*
X156152624Y-74998165D01*
X156135837Y-75157426D01*
X156124651Y-75335292D01*
X156120242Y-75522612D01*
X156120217Y-75537452D01*
X156120299Y-75672889D01*
X156125227Y-75773305D01*
X156142028Y-75842917D01*
X156177726Y-75885943D01*
X156239346Y-75906599D01*
X156333914Y-75909103D01*
X156468455Y-75897672D01*
X156649994Y-75876523D01*
X156679293Y-75873058D01*
X156838043Y-75854354D01*
X156838043Y-75979014D01*
X156830231Y-76063348D01*
X156810330Y-76123069D01*
X156801336Y-76134138D01*
X156756489Y-76148066D01*
X156666094Y-76157953D01*
X156539728Y-76162961D01*
X156467179Y-76163378D01*
X156344200Y-76164474D01*
X156242472Y-76168391D01*
X156174175Y-76174473D01*
X156151875Y-76180365D01*
X156144065Y-76215916D01*
X156139488Y-76296402D01*
X156137917Y-76411648D01*
X156139124Y-76551481D01*
X156142883Y-76705726D01*
X156148965Y-76864210D01*
X156157144Y-77016757D01*
X156167193Y-77153195D01*
X156175455Y-77235726D01*
X156196324Y-77383480D01*
X156219162Y-77480989D01*
X156245216Y-77533219D01*
X156251579Y-77539185D01*
X156306091Y-77557807D01*
X156403499Y-77568810D01*
X156532004Y-77572151D01*
X156679807Y-77567790D01*
X156835109Y-77555684D01*
X156948478Y-77541635D01*
X157062050Y-77526155D01*
X157164931Y-77514147D01*
X157235789Y-77508089D01*
X157238369Y-77507977D01*
X157321195Y-77504674D01*
X157321195Y-77835978D01*
X156653614Y-77843367D01*
X156465722Y-77844464D01*
X156297414Y-77843563D01*
X156156305Y-77840857D01*
X156050011Y-77836535D01*
X155986146Y-77830791D01*
X155970848Y-77826185D01*
X155964918Y-77790272D01*
X155958794Y-77705544D01*
X155952599Y-77578402D01*
X155946454Y-77415247D01*
X155940484Y-77222480D01*
X155934810Y-77006503D01*
X155929555Y-76773717D01*
X155924843Y-76530523D01*
X155920794Y-76283322D01*
X155917533Y-76038515D01*
X155915182Y-75802504D01*
X155913864Y-75581690D01*
X155913701Y-75382473D01*
X155914815Y-75211256D01*
X155917331Y-75074440D01*
X155917804Y-75058313D01*
X155935493Y-74489344D01*
X156231478Y-74473729D01*
X156392826Y-74468496D01*
X156579645Y-74467433D01*
X156762350Y-74470538D01*
G37*
X156762350Y-74470538D02*
X156845885Y-74473797D01*
X157164306Y-74489479D01*
X157173902Y-74590098D01*
X157178422Y-74697414D01*
X157162070Y-74760217D01*
X157117516Y-74783353D01*
X157037425Y-74771667D01*
X156945047Y-74741306D01*
X156859263Y-74719880D01*
X156744347Y-74704203D01*
X156614335Y-74694622D01*
X156483263Y-74691485D01*
X156365168Y-74695136D01*
X156274086Y-74705923D01*
X156224830Y-74723526D01*
X156198297Y-74772064D01*
X156173836Y-74866661D01*
X156152624Y-74998165D01*
X156135837Y-75157426D01*
X156124651Y-75335292D01*
X156120242Y-75522612D01*
X156120217Y-75537452D01*
X156120299Y-75672889D01*
X156125227Y-75773305D01*
X156142028Y-75842917D01*
X156177726Y-75885943D01*
X156239346Y-75906599D01*
X156333914Y-75909103D01*
X156468455Y-75897672D01*
X156649994Y-75876523D01*
X156679293Y-75873058D01*
X156838043Y-75854354D01*
X156838043Y-75979014D01*
X156830231Y-76063348D01*
X156810330Y-76123069D01*
X156801336Y-76134138D01*
X156756489Y-76148066D01*
X156666094Y-76157953D01*
X156539728Y-76162961D01*
X156467179Y-76163378D01*
X156344200Y-76164474D01*
X156242472Y-76168391D01*
X156174175Y-76174473D01*
X156151875Y-76180365D01*
X156144065Y-76215916D01*
X156139488Y-76296402D01*
X156137917Y-76411648D01*
X156139124Y-76551481D01*
X156142883Y-76705726D01*
X156148965Y-76864210D01*
X156157144Y-77016757D01*
X156167193Y-77153195D01*
X156175455Y-77235726D01*
X156196324Y-77383480D01*
X156219162Y-77480989D01*
X156245216Y-77533219D01*
X156251579Y-77539185D01*
X156306091Y-77557807D01*
X156403499Y-77568810D01*
X156532004Y-77572151D01*
X156679807Y-77567790D01*
X156835109Y-77555684D01*
X156948478Y-77541635D01*
X157062050Y-77526155D01*
X157164931Y-77514147D01*
X157235789Y-77508089D01*
X157238369Y-77507977D01*
X157321195Y-77504674D01*
X157321195Y-77835978D01*
X156653614Y-77843367D01*
X156465722Y-77844464D01*
X156297414Y-77843563D01*
X156156305Y-77840857D01*
X156050011Y-77836535D01*
X155986146Y-77830791D01*
X155970848Y-77826185D01*
X155964918Y-77790272D01*
X155958794Y-77705544D01*
X155952599Y-77578402D01*
X155946454Y-77415247D01*
X155940484Y-77222480D01*
X155934810Y-77006503D01*
X155929555Y-76773717D01*
X155924843Y-76530523D01*
X155920794Y-76283322D01*
X155917533Y-76038515D01*
X155915182Y-75802504D01*
X155913864Y-75581690D01*
X155913701Y-75382473D01*
X155914815Y-75211256D01*
X155917331Y-75074440D01*
X155917804Y-75058313D01*
X155935493Y-74489344D01*
X156231478Y-74473729D01*
X156392826Y-74468496D01*
X156579645Y-74467433D01*
X156762350Y-74470538D01*
G36*
X154911661Y-74459196D02*
G01*
X154993812Y-74473581D01*
X155046827Y-74484819D01*
X155209886Y-74547096D01*
X155348873Y-74657728D01*
X155462596Y-74814816D01*
X155549863Y-75016462D01*
X155609480Y-75260766D01*
X155630176Y-75413842D01*
X155641075Y-75532673D01*
X155647704Y-75629445D01*
X155649371Y-75692082D01*
X155647123Y-75709253D01*
X155615678Y-75717812D01*
X155544473Y-75728935D01*
X155448744Y-75740254D01*
X155446038Y-75740532D01*
X155256848Y-75759915D01*
X155271660Y-75679795D01*
X155284924Y-75608216D01*
X155303491Y-75508235D01*
X155317290Y-75434022D01*
X155333948Y-75241358D01*
X155310887Y-75073813D01*
X155252228Y-74936023D01*
X155162095Y-74832627D01*
X155044610Y-74768263D01*
X154903897Y-74747569D01*
X154744077Y-74775183D01*
X154734425Y-74778326D01*
X154617646Y-74834834D01*
X154518840Y-74922949D01*
X154435579Y-75047300D01*
X154365431Y-75212511D01*
X154305968Y-75423210D01*
X154254758Y-75684024D01*
X154252915Y-75695150D01*
X154231186Y-75889670D01*
X154221904Y-76119895D01*
X154224623Y-76367836D01*
X154238900Y-76615507D01*
X154264291Y-76844921D01*
X154284265Y-76964225D01*
X154346317Y-77200883D01*
X154430724Y-77387362D01*
X154538051Y-77524219D01*
X154668863Y-77612011D01*
X154823726Y-77651295D01*
X154976639Y-77646699D01*
X155152405Y-77602624D01*
X155291552Y-77522285D01*
X155395560Y-77403505D01*
X155465904Y-77244110D01*
X155504064Y-77041924D01*
X155512449Y-76857761D01*
X155508946Y-76694025D01*
X155497225Y-76581838D01*
X155474559Y-76517806D01*
X155438219Y-76498533D01*
X155385478Y-76520625D01*
X155313607Y-76580687D01*
X155300157Y-76593587D01*
X155211945Y-76664809D01*
X155145571Y-76685441D01*
X155100531Y-76655244D01*
X155076324Y-76573979D01*
X155071509Y-76484533D01*
X155074668Y-76389023D01*
X155089780Y-76325503D01*
X155126338Y-76286915D01*
X155193834Y-76266202D01*
X155301759Y-76256305D01*
X155383067Y-76252868D01*
X155505041Y-76248875D01*
X155595744Y-76251617D01*
X155659520Y-76268008D01*
X155700710Y-76304961D01*
X155723657Y-76369386D01*
X155732702Y-76468198D01*
X155732187Y-76608308D01*
X155726456Y-76796628D01*
X155726368Y-76799378D01*
X155718494Y-76994580D01*
X155708171Y-77145975D01*
X155694114Y-77264962D01*
X155675034Y-77362936D01*
X155654435Y-77436552D01*
X155575889Y-77613037D01*
X155466912Y-77748453D01*
X155331148Y-77838351D01*
X155322438Y-77842112D01*
X155225295Y-77868586D01*
X155092550Y-77886192D01*
X154943217Y-77894218D01*
X154796306Y-77891952D01*
X154670828Y-77878682D01*
X154624090Y-77868278D01*
X154452569Y-77797985D01*
X154314448Y-77691508D01*
X154205339Y-77544029D01*
X154120850Y-77350734D01*
X154103934Y-77297609D01*
X154052353Y-77073570D01*
X154017448Y-76810108D01*
X153999097Y-76520402D01*
X153997179Y-76217631D01*
X154011574Y-75914972D01*
X154042159Y-75625604D01*
X154088815Y-75362706D01*
X154122954Y-75228360D01*
X154206092Y-74988473D01*
X154303211Y-74798750D01*
X154417371Y-74655229D01*
X154551633Y-74553948D01*
X154687931Y-74496884D01*
X154782099Y-74470062D01*
X154848883Y-74457761D01*
X154911661Y-74459196D01*
G37*
X154911661Y-74459196D02*
X154993812Y-74473581D01*
X155046827Y-74484819D01*
X155209886Y-74547096D01*
X155348873Y-74657728D01*
X155462596Y-74814816D01*
X155549863Y-75016462D01*
X155609480Y-75260766D01*
X155630176Y-75413842D01*
X155641075Y-75532673D01*
X155647704Y-75629445D01*
X155649371Y-75692082D01*
X155647123Y-75709253D01*
X155615678Y-75717812D01*
X155544473Y-75728935D01*
X155448744Y-75740254D01*
X155446038Y-75740532D01*
X155256848Y-75759915D01*
X155271660Y-75679795D01*
X155284924Y-75608216D01*
X155303491Y-75508235D01*
X155317290Y-75434022D01*
X155333948Y-75241358D01*
X155310887Y-75073813D01*
X155252228Y-74936023D01*
X155162095Y-74832627D01*
X155044610Y-74768263D01*
X154903897Y-74747569D01*
X154744077Y-74775183D01*
X154734425Y-74778326D01*
X154617646Y-74834834D01*
X154518840Y-74922949D01*
X154435579Y-75047300D01*
X154365431Y-75212511D01*
X154305968Y-75423210D01*
X154254758Y-75684024D01*
X154252915Y-75695150D01*
X154231186Y-75889670D01*
X154221904Y-76119895D01*
X154224623Y-76367836D01*
X154238900Y-76615507D01*
X154264291Y-76844921D01*
X154284265Y-76964225D01*
X154346317Y-77200883D01*
X154430724Y-77387362D01*
X154538051Y-77524219D01*
X154668863Y-77612011D01*
X154823726Y-77651295D01*
X154976639Y-77646699D01*
X155152405Y-77602624D01*
X155291552Y-77522285D01*
X155395560Y-77403505D01*
X155465904Y-77244110D01*
X155504064Y-77041924D01*
X155512449Y-76857761D01*
X155508946Y-76694025D01*
X155497225Y-76581838D01*
X155474559Y-76517806D01*
X155438219Y-76498533D01*
X155385478Y-76520625D01*
X155313607Y-76580687D01*
X155300157Y-76593587D01*
X155211945Y-76664809D01*
X155145571Y-76685441D01*
X155100531Y-76655244D01*
X155076324Y-76573979D01*
X155071509Y-76484533D01*
X155074668Y-76389023D01*
X155089780Y-76325503D01*
X155126338Y-76286915D01*
X155193834Y-76266202D01*
X155301759Y-76256305D01*
X155383067Y-76252868D01*
X155505041Y-76248875D01*
X155595744Y-76251617D01*
X155659520Y-76268008D01*
X155700710Y-76304961D01*
X155723657Y-76369386D01*
X155732702Y-76468198D01*
X155732187Y-76608308D01*
X155726456Y-76796628D01*
X155726368Y-76799378D01*
X155718494Y-76994580D01*
X155708171Y-77145975D01*
X155694114Y-77264962D01*
X155675034Y-77362936D01*
X155654435Y-77436552D01*
X155575889Y-77613037D01*
X155466912Y-77748453D01*
X155331148Y-77838351D01*
X155322438Y-77842112D01*
X155225295Y-77868586D01*
X155092550Y-77886192D01*
X154943217Y-77894218D01*
X154796306Y-77891952D01*
X154670828Y-77878682D01*
X154624090Y-77868278D01*
X154452569Y-77797985D01*
X154314448Y-77691508D01*
X154205339Y-77544029D01*
X154120850Y-77350734D01*
X154103934Y-77297609D01*
X154052353Y-77073570D01*
X154017448Y-76810108D01*
X153999097Y-76520402D01*
X153997179Y-76217631D01*
X154011574Y-75914972D01*
X154042159Y-75625604D01*
X154088815Y-75362706D01*
X154122954Y-75228360D01*
X154206092Y-74988473D01*
X154303211Y-74798750D01*
X154417371Y-74655229D01*
X154551633Y-74553948D01*
X154687931Y-74496884D01*
X154782099Y-74470062D01*
X154848883Y-74457761D01*
X154911661Y-74459196D01*
G36*
X145838086Y-74556128D02*
G01*
X145797649Y-74761856D01*
X145764412Y-74967336D01*
X145739158Y-75163824D01*
X145722669Y-75342573D01*
X145715730Y-75494839D01*
X145719123Y-75611876D01*
X145733632Y-75684938D01*
X145736475Y-75690938D01*
X145769197Y-75733551D01*
X145812601Y-75751661D01*
X145871396Y-75742947D01*
X145950290Y-75705090D01*
X146053990Y-75635772D01*
X146187204Y-75532672D01*
X146354641Y-75393473D01*
X146374347Y-75376711D01*
X146495197Y-75270732D01*
X146623698Y-75153153D01*
X146739772Y-75042530D01*
X146787680Y-74994803D01*
X146868280Y-74915091D01*
X146935394Y-74853123D01*
X146979199Y-74817761D01*
X146989363Y-74812826D01*
X147011659Y-74836075D01*
X147046769Y-74896629D01*
X147081877Y-74969958D01*
X147151368Y-75127089D01*
X147087260Y-75176436D01*
X147043413Y-75206482D01*
X146961271Y-75259427D01*
X146849802Y-75329619D01*
X146717974Y-75411405D01*
X146593379Y-75487785D01*
X146452071Y-75575282D01*
X146324503Y-75656803D01*
X146219355Y-75726602D01*
X146145307Y-75778931D01*
X146112748Y-75805984D01*
X146086973Y-75842675D01*
X146080385Y-75882604D01*
X146096592Y-75933813D01*
X146139202Y-76004345D01*
X146211824Y-76102241D01*
X146289670Y-76200341D01*
X146554159Y-76489357D01*
X146846852Y-76732264D01*
X147173067Y-76933202D01*
X147328340Y-77009272D01*
X147441437Y-77064936D01*
X147513201Y-77116639D01*
X147548313Y-77176449D01*
X147551451Y-77256432D01*
X147527294Y-77368657D01*
X147501683Y-77456359D01*
X147475202Y-77518274D01*
X147433182Y-77542591D01*
X147379532Y-77546087D01*
X147326420Y-77540306D01*
X147276752Y-77517441D01*
X147218379Y-77469210D01*
X147139155Y-77387331D01*
X147126462Y-77373533D01*
X147046313Y-77287069D01*
X146940800Y-77174606D01*
X146822882Y-77049893D01*
X146705521Y-76926682D01*
X146690593Y-76911087D01*
X146567671Y-76781099D01*
X146436506Y-76639639D01*
X146312545Y-76503521D01*
X146211238Y-76389559D01*
X146208592Y-76386522D01*
X146096828Y-76259728D01*
X146013151Y-76169627D01*
X145950647Y-76110205D01*
X145902403Y-76075447D01*
X145861504Y-76059341D01*
X145828392Y-76055831D01*
X145787608Y-76062867D01*
X145757021Y-76088915D01*
X145735635Y-76140035D01*
X145722452Y-76222287D01*
X145716476Y-76341731D01*
X145716710Y-76504424D01*
X145721760Y-76704022D01*
X145736125Y-76999265D01*
X145758930Y-77257562D01*
X145789407Y-77470455D01*
X145793220Y-77490870D01*
X145816190Y-77613388D01*
X145834639Y-77717250D01*
X145846333Y-77789539D01*
X145849328Y-77815272D01*
X145825402Y-77837717D01*
X145751147Y-77848542D01*
X145697068Y-77849783D01*
X145595611Y-77843479D01*
X145541103Y-77825307D01*
X145533714Y-77815272D01*
X145530741Y-77780240D01*
X145527124Y-77696238D01*
X145522988Y-77569506D01*
X145518455Y-77406286D01*
X145513648Y-77212819D01*
X145508692Y-76995346D01*
X145503708Y-76760108D01*
X145498821Y-76513347D01*
X145494154Y-76261304D01*
X145489830Y-76010219D01*
X145485973Y-75766336D01*
X145482705Y-75535893D01*
X145480151Y-75325134D01*
X145478433Y-75140299D01*
X145477674Y-74987629D01*
X145477661Y-74978478D01*
X145477065Y-74495326D01*
X145665907Y-74487106D01*
X145854748Y-74478886D01*
X145838086Y-74556128D01*
G37*
X145838086Y-74556128D02*
X145797649Y-74761856D01*
X145764412Y-74967336D01*
X145739158Y-75163824D01*
X145722669Y-75342573D01*
X145715730Y-75494839D01*
X145719123Y-75611876D01*
X145733632Y-75684938D01*
X145736475Y-75690938D01*
X145769197Y-75733551D01*
X145812601Y-75751661D01*
X145871396Y-75742947D01*
X145950290Y-75705090D01*
X146053990Y-75635772D01*
X146187204Y-75532672D01*
X146354641Y-75393473D01*
X146374347Y-75376711D01*
X146495197Y-75270732D01*
X146623698Y-75153153D01*
X146739772Y-75042530D01*
X146787680Y-74994803D01*
X146868280Y-74915091D01*
X146935394Y-74853123D01*
X146979199Y-74817761D01*
X146989363Y-74812826D01*
X147011659Y-74836075D01*
X147046769Y-74896629D01*
X147081877Y-74969958D01*
X147151368Y-75127089D01*
X147087260Y-75176436D01*
X147043413Y-75206482D01*
X146961271Y-75259427D01*
X146849802Y-75329619D01*
X146717974Y-75411405D01*
X146593379Y-75487785D01*
X146452071Y-75575282D01*
X146324503Y-75656803D01*
X146219355Y-75726602D01*
X146145307Y-75778931D01*
X146112748Y-75805984D01*
X146086973Y-75842675D01*
X146080385Y-75882604D01*
X146096592Y-75933813D01*
X146139202Y-76004345D01*
X146211824Y-76102241D01*
X146289670Y-76200341D01*
X146554159Y-76489357D01*
X146846852Y-76732264D01*
X147173067Y-76933202D01*
X147328340Y-77009272D01*
X147441437Y-77064936D01*
X147513201Y-77116639D01*
X147548313Y-77176449D01*
X147551451Y-77256432D01*
X147527294Y-77368657D01*
X147501683Y-77456359D01*
X147475202Y-77518274D01*
X147433182Y-77542591D01*
X147379532Y-77546087D01*
X147326420Y-77540306D01*
X147276752Y-77517441D01*
X147218379Y-77469210D01*
X147139155Y-77387331D01*
X147126462Y-77373533D01*
X147046313Y-77287069D01*
X146940800Y-77174606D01*
X146822882Y-77049893D01*
X146705521Y-76926682D01*
X146690593Y-76911087D01*
X146567671Y-76781099D01*
X146436506Y-76639639D01*
X146312545Y-76503521D01*
X146211238Y-76389559D01*
X146208592Y-76386522D01*
X146096828Y-76259728D01*
X146013151Y-76169627D01*
X145950647Y-76110205D01*
X145902403Y-76075447D01*
X145861504Y-76059341D01*
X145828392Y-76055831D01*
X145787608Y-76062867D01*
X145757021Y-76088915D01*
X145735635Y-76140035D01*
X145722452Y-76222287D01*
X145716476Y-76341731D01*
X145716710Y-76504424D01*
X145721760Y-76704022D01*
X145736125Y-76999265D01*
X145758930Y-77257562D01*
X145789407Y-77470455D01*
X145793220Y-77490870D01*
X145816190Y-77613388D01*
X145834639Y-77717250D01*
X145846333Y-77789539D01*
X145849328Y-77815272D01*
X145825402Y-77837717D01*
X145751147Y-77848542D01*
X145697068Y-77849783D01*
X145595611Y-77843479D01*
X145541103Y-77825307D01*
X145533714Y-77815272D01*
X145530741Y-77780240D01*
X145527124Y-77696238D01*
X145522988Y-77569506D01*
X145518455Y-77406286D01*
X145513648Y-77212819D01*
X145508692Y-76995346D01*
X145503708Y-76760108D01*
X145498821Y-76513347D01*
X145494154Y-76261304D01*
X145489830Y-76010219D01*
X145485973Y-75766336D01*
X145482705Y-75535893D01*
X145480151Y-75325134D01*
X145478433Y-75140299D01*
X145477674Y-74987629D01*
X145477661Y-74978478D01*
X145477065Y-74495326D01*
X145665907Y-74487106D01*
X145854748Y-74478886D01*
X145838086Y-74556128D01*
G36*
X149491121Y-75069981D02*
G01*
X149677215Y-75121465D01*
X149694293Y-75127649D01*
X149908260Y-75206744D01*
X149908260Y-75325656D01*
X149902786Y-75402177D01*
X149889044Y-75452577D01*
X149882550Y-75460457D01*
X149846195Y-75455895D01*
X149784445Y-75425859D01*
X149754524Y-75406914D01*
X149615603Y-75335533D01*
X149457283Y-75290592D01*
X149296306Y-75274181D01*
X149149415Y-75288389D01*
X149059114Y-75320110D01*
X148963760Y-75397948D01*
X148905616Y-75505278D01*
X148888382Y-75627711D01*
X148915757Y-75750853D01*
X148937551Y-75793091D01*
X148967231Y-75837802D01*
X149005551Y-75886560D01*
X149057855Y-75944818D01*
X149129488Y-76018031D01*
X149225794Y-76111650D01*
X149352117Y-76231131D01*
X149513801Y-76381926D01*
X149522518Y-76390023D01*
X149687837Y-76548430D01*
X149813988Y-76682484D01*
X149906304Y-76800522D01*
X149970121Y-76910880D01*
X150010771Y-77021893D01*
X150033589Y-77141897D01*
X150039176Y-77197451D01*
X150030794Y-77387377D01*
X149975831Y-77552502D01*
X149877874Y-77687785D01*
X149740512Y-77788187D01*
X149576956Y-77846633D01*
X149453271Y-77866333D01*
X149297525Y-77880698D01*
X149129005Y-77888969D01*
X148966997Y-77890381D01*
X148830789Y-77884175D01*
X148779394Y-77878135D01*
X148610916Y-77825221D01*
X148466244Y-77726490D01*
X148350992Y-77588258D01*
X148270773Y-77416842D01*
X148236560Y-77267303D01*
X148228527Y-77188234D01*
X148238773Y-77142112D01*
X148276481Y-77107421D01*
X148314847Y-77083886D01*
X148413011Y-77028613D01*
X148474254Y-77006669D01*
X148508239Y-77021738D01*
X148524628Y-77077505D01*
X148532403Y-77166819D01*
X148560506Y-77329108D01*
X148623626Y-77454435D01*
X148724641Y-77544936D01*
X148866433Y-77602748D01*
X149051884Y-77630008D01*
X149160666Y-77632855D01*
X149367023Y-77619936D01*
X149538893Y-77584493D01*
X149670200Y-77528336D01*
X149752528Y-77456514D01*
X149793648Y-77361197D01*
X149806120Y-77239457D01*
X149789773Y-77112178D01*
X149756082Y-77020883D01*
X149722677Y-76973639D01*
X149656748Y-76894654D01*
X149564824Y-76791222D01*
X149453435Y-76670640D01*
X149329112Y-76540200D01*
X149287428Y-76497328D01*
X149094056Y-76294658D01*
X148940788Y-76122021D01*
X148824965Y-75974521D01*
X148743927Y-75847259D01*
X148695013Y-75735339D01*
X148675565Y-75633863D01*
X148682922Y-75537933D01*
X148714424Y-75442654D01*
X148714505Y-75442471D01*
X148801697Y-75299810D01*
X148923106Y-75173074D01*
X149034614Y-75095940D01*
X149157635Y-75056633D01*
X149313866Y-75048176D01*
X149491121Y-75069981D01*
G37*
X149491121Y-75069981D02*
X149677215Y-75121465D01*
X149694293Y-75127649D01*
X149908260Y-75206744D01*
X149908260Y-75325656D01*
X149902786Y-75402177D01*
X149889044Y-75452577D01*
X149882550Y-75460457D01*
X149846195Y-75455895D01*
X149784445Y-75425859D01*
X149754524Y-75406914D01*
X149615603Y-75335533D01*
X149457283Y-75290592D01*
X149296306Y-75274181D01*
X149149415Y-75288389D01*
X149059114Y-75320110D01*
X148963760Y-75397948D01*
X148905616Y-75505278D01*
X148888382Y-75627711D01*
X148915757Y-75750853D01*
X148937551Y-75793091D01*
X148967231Y-75837802D01*
X149005551Y-75886560D01*
X149057855Y-75944818D01*
X149129488Y-76018031D01*
X149225794Y-76111650D01*
X149352117Y-76231131D01*
X149513801Y-76381926D01*
X149522518Y-76390023D01*
X149687837Y-76548430D01*
X149813988Y-76682484D01*
X149906304Y-76800522D01*
X149970121Y-76910880D01*
X150010771Y-77021893D01*
X150033589Y-77141897D01*
X150039176Y-77197451D01*
X150030794Y-77387377D01*
X149975831Y-77552502D01*
X149877874Y-77687785D01*
X149740512Y-77788187D01*
X149576956Y-77846633D01*
X149453271Y-77866333D01*
X149297525Y-77880698D01*
X149129005Y-77888969D01*
X148966997Y-77890381D01*
X148830789Y-77884175D01*
X148779394Y-77878135D01*
X148610916Y-77825221D01*
X148466244Y-77726490D01*
X148350992Y-77588258D01*
X148270773Y-77416842D01*
X148236560Y-77267303D01*
X148228527Y-77188234D01*
X148238773Y-77142112D01*
X148276481Y-77107421D01*
X148314847Y-77083886D01*
X148413011Y-77028613D01*
X148474254Y-77006669D01*
X148508239Y-77021738D01*
X148524628Y-77077505D01*
X148532403Y-77166819D01*
X148560506Y-77329108D01*
X148623626Y-77454435D01*
X148724641Y-77544936D01*
X148866433Y-77602748D01*
X149051884Y-77630008D01*
X149160666Y-77632855D01*
X149367023Y-77619936D01*
X149538893Y-77584493D01*
X149670200Y-77528336D01*
X149752528Y-77456514D01*
X149793648Y-77361197D01*
X149806120Y-77239457D01*
X149789773Y-77112178D01*
X149756082Y-77020883D01*
X149722677Y-76973639D01*
X149656748Y-76894654D01*
X149564824Y-76791222D01*
X149453435Y-76670640D01*
X149329112Y-76540200D01*
X149287428Y-76497328D01*
X149094056Y-76294658D01*
X148940788Y-76122021D01*
X148824965Y-75974521D01*
X148743927Y-75847259D01*
X148695013Y-75735339D01*
X148675565Y-75633863D01*
X148682922Y-75537933D01*
X148714424Y-75442654D01*
X148714505Y-75442471D01*
X148801697Y-75299810D01*
X148923106Y-75173074D01*
X149034614Y-75095940D01*
X149157635Y-75056633D01*
X149313866Y-75048176D01*
X149491121Y-75069981D01*
G36*
X144423295Y-74434675D02*
G01*
X144529766Y-74456966D01*
X144654563Y-74488949D01*
X144783138Y-74526392D01*
X144900948Y-74565067D01*
X144993445Y-74600744D01*
X145045365Y-74628599D01*
X145068438Y-74670900D01*
X145071210Y-74750280D01*
X145066929Y-74794946D01*
X145055236Y-74875916D01*
X145043348Y-74931030D01*
X145037996Y-74943598D01*
X145010261Y-74936788D01*
X144956181Y-74904301D01*
X144933606Y-74888122D01*
X144800832Y-74810447D01*
X144643504Y-74751639D01*
X144476355Y-74714209D01*
X144314116Y-74700669D01*
X144171519Y-74713530D01*
X144083892Y-74743253D01*
X143973175Y-74828813D01*
X143900777Y-74944126D01*
X143871580Y-75076096D01*
X143890467Y-75211630D01*
X143899882Y-75236672D01*
X143960453Y-75339304D01*
X144066906Y-75468436D01*
X144217662Y-75622346D01*
X144411146Y-75799308D01*
X144427934Y-75813984D01*
X144658657Y-76019605D01*
X144847533Y-76199205D01*
X144998235Y-76358022D01*
X145114432Y-76501298D01*
X145199795Y-76634270D01*
X145257995Y-76762177D01*
X145292703Y-76890260D01*
X145307589Y-77023757D01*
X145308787Y-77071247D01*
X145294177Y-77263808D01*
X145245754Y-77423736D01*
X145160736Y-77553049D01*
X145036337Y-77653761D01*
X144869774Y-77727890D01*
X144658263Y-77777451D01*
X144399021Y-77804460D01*
X144289891Y-77809158D01*
X144145171Y-77811548D01*
X144011944Y-77810379D01*
X143904462Y-77805993D01*
X143836975Y-77798735D01*
X143834347Y-77798180D01*
X143645297Y-77728945D01*
X143482315Y-77613998D01*
X143349590Y-77458323D01*
X143251308Y-77266907D01*
X143191658Y-77044733D01*
X143189386Y-77030452D01*
X143171735Y-76915142D01*
X143320043Y-76830288D01*
X143403176Y-76785436D01*
X143469244Y-76754681D01*
X143499502Y-76745435D01*
X143518941Y-76771327D01*
X143529544Y-76842998D01*
X143530921Y-76890381D01*
X143555855Y-77075418D01*
X143626936Y-77234770D01*
X143739677Y-77362713D01*
X143889592Y-77453522D01*
X144000000Y-77488839D01*
X144178503Y-77513439D01*
X144373721Y-77513703D01*
X144568315Y-77491603D01*
X144744941Y-77449112D01*
X144886258Y-77388205D01*
X144886696Y-77387947D01*
X144977679Y-77304152D01*
X145029732Y-77188385D01*
X145041478Y-77049156D01*
X145011537Y-76894976D01*
X144979779Y-76813348D01*
X144942032Y-76755867D01*
X144867037Y-76664840D01*
X144758226Y-76544059D01*
X144619032Y-76397316D01*
X144452886Y-76228401D01*
X144425459Y-76200995D01*
X144219851Y-75993307D01*
X144052152Y-75817047D01*
X143918823Y-75667159D01*
X143816326Y-75538588D01*
X143741122Y-75426277D01*
X143689673Y-75325170D01*
X143658440Y-75230213D01*
X143643885Y-75136348D01*
X143641693Y-75081124D01*
X143657999Y-74930806D01*
X143712824Y-74798050D01*
X143812773Y-74668219D01*
X143841215Y-74638854D01*
X143996542Y-74520789D01*
X144176108Y-74448345D01*
X144349696Y-74426305D01*
X144423295Y-74434675D01*
G37*
X144423295Y-74434675D02*
X144529766Y-74456966D01*
X144654563Y-74488949D01*
X144783138Y-74526392D01*
X144900948Y-74565067D01*
X144993445Y-74600744D01*
X145045365Y-74628599D01*
X145068438Y-74670900D01*
X145071210Y-74750280D01*
X145066929Y-74794946D01*
X145055236Y-74875916D01*
X145043348Y-74931030D01*
X145037996Y-74943598D01*
X145010261Y-74936788D01*
X144956181Y-74904301D01*
X144933606Y-74888122D01*
X144800832Y-74810447D01*
X144643504Y-74751639D01*
X144476355Y-74714209D01*
X144314116Y-74700669D01*
X144171519Y-74713530D01*
X144083892Y-74743253D01*
X143973175Y-74828813D01*
X143900777Y-74944126D01*
X143871580Y-75076096D01*
X143890467Y-75211630D01*
X143899882Y-75236672D01*
X143960453Y-75339304D01*
X144066906Y-75468436D01*
X144217662Y-75622346D01*
X144411146Y-75799308D01*
X144427934Y-75813984D01*
X144658657Y-76019605D01*
X144847533Y-76199205D01*
X144998235Y-76358022D01*
X145114432Y-76501298D01*
X145199795Y-76634270D01*
X145257995Y-76762177D01*
X145292703Y-76890260D01*
X145307589Y-77023757D01*
X145308787Y-77071247D01*
X145294177Y-77263808D01*
X145245754Y-77423736D01*
X145160736Y-77553049D01*
X145036337Y-77653761D01*
X144869774Y-77727890D01*
X144658263Y-77777451D01*
X144399021Y-77804460D01*
X144289891Y-77809158D01*
X144145171Y-77811548D01*
X144011944Y-77810379D01*
X143904462Y-77805993D01*
X143836975Y-77798735D01*
X143834347Y-77798180D01*
X143645297Y-77728945D01*
X143482315Y-77613998D01*
X143349590Y-77458323D01*
X143251308Y-77266907D01*
X143191658Y-77044733D01*
X143189386Y-77030452D01*
X143171735Y-76915142D01*
X143320043Y-76830288D01*
X143403176Y-76785436D01*
X143469244Y-76754681D01*
X143499502Y-76745435D01*
X143518941Y-76771327D01*
X143529544Y-76842998D01*
X143530921Y-76890381D01*
X143555855Y-77075418D01*
X143626936Y-77234770D01*
X143739677Y-77362713D01*
X143889592Y-77453522D01*
X144000000Y-77488839D01*
X144178503Y-77513439D01*
X144373721Y-77513703D01*
X144568315Y-77491603D01*
X144744941Y-77449112D01*
X144886258Y-77388205D01*
X144886696Y-77387947D01*
X144977679Y-77304152D01*
X145029732Y-77188385D01*
X145041478Y-77049156D01*
X145011537Y-76894976D01*
X144979779Y-76813348D01*
X144942032Y-76755867D01*
X144867037Y-76664840D01*
X144758226Y-76544059D01*
X144619032Y-76397316D01*
X144452886Y-76228401D01*
X144425459Y-76200995D01*
X144219851Y-75993307D01*
X144052152Y-75817047D01*
X143918823Y-75667159D01*
X143816326Y-75538588D01*
X143741122Y-75426277D01*
X143689673Y-75325170D01*
X143658440Y-75230213D01*
X143643885Y-75136348D01*
X143641693Y-75081124D01*
X143657999Y-74930806D01*
X143712824Y-74798050D01*
X143812773Y-74668219D01*
X143841215Y-74638854D01*
X143996542Y-74520789D01*
X144176108Y-74448345D01*
X144349696Y-74426305D01*
X144423295Y-74434675D01*
G36*
X152401975Y-75082592D02*
G01*
X152397625Y-74909428D01*
X152394529Y-74771274D01*
X152392872Y-74674144D01*
X152392648Y-74637218D01*
X152393043Y-74530631D01*
X152689837Y-74541476D01*
X152836590Y-74549021D01*
X152944728Y-74561135D01*
X153030832Y-74580850D01*
X153111481Y-74611195D01*
X153138478Y-74623474D01*
X153328764Y-74742854D01*
X153490546Y-74908780D01*
X153623418Y-75120263D01*
X153726973Y-75376313D01*
X153800804Y-75675943D01*
X153844506Y-76018163D01*
X153857752Y-76372718D01*
X153845573Y-76717335D01*
X153808682Y-77013515D01*
X153746570Y-77262451D01*
X153658729Y-77465338D01*
X153544650Y-77623369D01*
X153403824Y-77737737D01*
X153246524Y-77806522D01*
X153157639Y-77825415D01*
X153043005Y-77839250D01*
X152914714Y-77847886D01*
X152784853Y-77851183D01*
X152665515Y-77849002D01*
X152568789Y-77841203D01*
X152506764Y-77827645D01*
X152490642Y-77815272D01*
X152488215Y-77783408D01*
X152484444Y-77702363D01*
X152479517Y-77578148D01*
X152473618Y-77416778D01*
X152466932Y-77224268D01*
X152459646Y-77006630D01*
X152451944Y-76769878D01*
X152444012Y-76520026D01*
X152436036Y-76263089D01*
X152428200Y-76005079D01*
X152420691Y-75752011D01*
X152413693Y-75509898D01*
X152412436Y-75464971D01*
X152642208Y-75464971D01*
X152642235Y-75705302D01*
X152642327Y-75828417D01*
X152644034Y-76207588D01*
X152648460Y-76545313D01*
X152655510Y-76839610D01*
X152665091Y-77088501D01*
X152677109Y-77290005D01*
X152691471Y-77442142D01*
X152708083Y-77542933D01*
X152725573Y-77588977D01*
X152773204Y-77618291D01*
X152843740Y-77636703D01*
X152913637Y-77645733D01*
X152958925Y-77652066D01*
X152959021Y-77652082D01*
X152996467Y-77643124D01*
X153067498Y-77615413D01*
X153152282Y-77577030D01*
X153317127Y-77479006D01*
X153444302Y-77356405D01*
X153546667Y-77195987D01*
X153571124Y-77145761D01*
X153600939Y-77077774D01*
X153622260Y-77015553D01*
X153636839Y-76947290D01*
X153646429Y-76861176D01*
X153652782Y-76745403D01*
X153657651Y-76588164D01*
X153658430Y-76557549D01*
X153654230Y-76220001D01*
X153625126Y-75908722D01*
X153572625Y-75627242D01*
X153498233Y-75379094D01*
X153403455Y-75167807D01*
X153289798Y-74996914D01*
X153158767Y-74869944D01*
X153011869Y-74790429D01*
X152893526Y-74764187D01*
X152800493Y-74762879D01*
X152722558Y-74774715D01*
X152700764Y-74783063D01*
X152685392Y-74792303D01*
X152672943Y-74805511D01*
X152663116Y-74828116D01*
X152655607Y-74865544D01*
X152650112Y-74923222D01*
X152646328Y-75006576D01*
X152643952Y-75121035D01*
X152642680Y-75272024D01*
X152642208Y-75464971D01*
X152412436Y-75464971D01*
X152407393Y-75284754D01*
X152401975Y-75082592D01*
G37*
X152401975Y-75082592D02*
X152397625Y-74909428D01*
X152394529Y-74771274D01*
X152392872Y-74674144D01*
X152392648Y-74637218D01*
X152393043Y-74530631D01*
X152689837Y-74541476D01*
X152836590Y-74549021D01*
X152944728Y-74561135D01*
X153030832Y-74580850D01*
X153111481Y-74611195D01*
X153138478Y-74623474D01*
X153328764Y-74742854D01*
X153490546Y-74908780D01*
X153623418Y-75120263D01*
X153726973Y-75376313D01*
X153800804Y-75675943D01*
X153844506Y-76018163D01*
X153857752Y-76372718D01*
X153845573Y-76717335D01*
X153808682Y-77013515D01*
X153746570Y-77262451D01*
X153658729Y-77465338D01*
X153544650Y-77623369D01*
X153403824Y-77737737D01*
X153246524Y-77806522D01*
X153157639Y-77825415D01*
X153043005Y-77839250D01*
X152914714Y-77847886D01*
X152784853Y-77851183D01*
X152665515Y-77849002D01*
X152568789Y-77841203D01*
X152506764Y-77827645D01*
X152490642Y-77815272D01*
X152488215Y-77783408D01*
X152484444Y-77702363D01*
X152479517Y-77578148D01*
X152473618Y-77416778D01*
X152466932Y-77224268D01*
X152459646Y-77006630D01*
X152451944Y-76769878D01*
X152444012Y-76520026D01*
X152436036Y-76263089D01*
X152428200Y-76005079D01*
X152420691Y-75752011D01*
X152413693Y-75509898D01*
X152412436Y-75464971D01*
X152642208Y-75464971D01*
X152642235Y-75705302D01*
X152642327Y-75828417D01*
X152644034Y-76207588D01*
X152648460Y-76545313D01*
X152655510Y-76839610D01*
X152665091Y-77088501D01*
X152677109Y-77290005D01*
X152691471Y-77442142D01*
X152708083Y-77542933D01*
X152725573Y-77588977D01*
X152773204Y-77618291D01*
X152843740Y-77636703D01*
X152913637Y-77645733D01*
X152958925Y-77652066D01*
X152959021Y-77652082D01*
X152996467Y-77643124D01*
X153067498Y-77615413D01*
X153152282Y-77577030D01*
X153317127Y-77479006D01*
X153444302Y-77356405D01*
X153546667Y-77195987D01*
X153571124Y-77145761D01*
X153600939Y-77077774D01*
X153622260Y-77015553D01*
X153636839Y-76947290D01*
X153646429Y-76861176D01*
X153652782Y-76745403D01*
X153657651Y-76588164D01*
X153658430Y-76557549D01*
X153654230Y-76220001D01*
X153625126Y-75908722D01*
X153572625Y-75627242D01*
X153498233Y-75379094D01*
X153403455Y-75167807D01*
X153289798Y-74996914D01*
X153158767Y-74869944D01*
X153011869Y-74790429D01*
X152893526Y-74764187D01*
X152800493Y-74762879D01*
X152722558Y-74774715D01*
X152700764Y-74783063D01*
X152685392Y-74792303D01*
X152672943Y-74805511D01*
X152663116Y-74828116D01*
X152655607Y-74865544D01*
X152650112Y-74923222D01*
X152646328Y-75006576D01*
X152643952Y-75121035D01*
X152642680Y-75272024D01*
X152642208Y-75464971D01*
X152412436Y-75464971D01*
X152407393Y-75284754D01*
X152401975Y-75082592D01*
G36*
X152110139Y-74600365D02*
G01*
X152115015Y-74665623D01*
X152118731Y-74747379D01*
X152120363Y-74826276D01*
X152119516Y-74874946D01*
X152107763Y-74904056D01*
X152068071Y-74919158D01*
X151987828Y-74924509D01*
X151972010Y-74924729D01*
X151887079Y-74930220D01*
X151764674Y-74944049D01*
X151621540Y-74964094D01*
X151482240Y-74986848D01*
X151333576Y-75013605D01*
X151226028Y-75039446D01*
X151152705Y-75073231D01*
X151106712Y-75123822D01*
X151081155Y-75200080D01*
X151069141Y-75310865D01*
X151063775Y-75465039D01*
X151062296Y-75526639D01*
X151059709Y-75677829D01*
X151064843Y-75790181D01*
X151084447Y-75868173D01*
X151125271Y-75916281D01*
X151194065Y-75938982D01*
X151297579Y-75940752D01*
X151442564Y-75926069D01*
X151626357Y-75900746D01*
X151719827Y-75896488D01*
X151771078Y-75921121D01*
X151785373Y-75981219D01*
X151769069Y-76078974D01*
X151744239Y-76179457D01*
X151432650Y-76179457D01*
X151289245Y-76181024D01*
X151191899Y-76186465D01*
X151131521Y-76196884D01*
X151099022Y-76213390D01*
X151092511Y-76220870D01*
X151083263Y-76263075D01*
X151077925Y-76350056D01*
X151076208Y-76471531D01*
X151077823Y-76617217D01*
X151082480Y-76776832D01*
X151089889Y-76940096D01*
X151099762Y-77096725D01*
X151111808Y-77236438D01*
X151123925Y-77336868D01*
X151140075Y-77441909D01*
X151158844Y-77515727D01*
X151189182Y-77563329D01*
X151240039Y-77589726D01*
X151320365Y-77599927D01*
X151439111Y-77598940D01*
X151581294Y-77592851D01*
X151730473Y-77584066D01*
X151871868Y-77572110D01*
X151989885Y-77558527D01*
X152068928Y-77544863D01*
X152071077Y-77544332D01*
X152176833Y-77523246D01*
X152240606Y-77530104D01*
X152271552Y-77572023D01*
X152278829Y-77656125D01*
X152277094Y-77704503D01*
X152268804Y-77863587D01*
X151589723Y-77870962D01*
X150910643Y-77878338D01*
X150892867Y-77567107D01*
X150886653Y-77436487D01*
X150880629Y-77269125D01*
X150874889Y-77072040D01*
X150869526Y-76852251D01*
X150864634Y-76616777D01*
X150860309Y-76372638D01*
X150856643Y-76126851D01*
X150853730Y-75886438D01*
X150851666Y-75658416D01*
X150850542Y-75449804D01*
X150850455Y-75267623D01*
X150851497Y-75118890D01*
X150853763Y-75010626D01*
X150857346Y-74949849D01*
X150857775Y-74946692D01*
X150877131Y-74818274D01*
X151034598Y-74789250D01*
X151116132Y-74773325D01*
X151238206Y-74748349D01*
X151387426Y-74717115D01*
X151550400Y-74682413D01*
X151645020Y-74661999D01*
X151795125Y-74629940D01*
X151925062Y-74603125D01*
X152025842Y-74583334D01*
X152088477Y-74572346D01*
X152105025Y-74570962D01*
X152110139Y-74600365D01*
G37*
X152110139Y-74600365D02*
X152115015Y-74665623D01*
X152118731Y-74747379D01*
X152120363Y-74826276D01*
X152119516Y-74874946D01*
X152107763Y-74904056D01*
X152068071Y-74919158D01*
X151987828Y-74924509D01*
X151972010Y-74924729D01*
X151887079Y-74930220D01*
X151764674Y-74944049D01*
X151621540Y-74964094D01*
X151482240Y-74986848D01*
X151333576Y-75013605D01*
X151226028Y-75039446D01*
X151152705Y-75073231D01*
X151106712Y-75123822D01*
X151081155Y-75200080D01*
X151069141Y-75310865D01*
X151063775Y-75465039D01*
X151062296Y-75526639D01*
X151059709Y-75677829D01*
X151064843Y-75790181D01*
X151084447Y-75868173D01*
X151125271Y-75916281D01*
X151194065Y-75938982D01*
X151297579Y-75940752D01*
X151442564Y-75926069D01*
X151626357Y-75900746D01*
X151719827Y-75896488D01*
X151771078Y-75921121D01*
X151785373Y-75981219D01*
X151769069Y-76078974D01*
X151744239Y-76179457D01*
X151432650Y-76179457D01*
X151289245Y-76181024D01*
X151191899Y-76186465D01*
X151131521Y-76196884D01*
X151099022Y-76213390D01*
X151092511Y-76220870D01*
X151083263Y-76263075D01*
X151077925Y-76350056D01*
X151076208Y-76471531D01*
X151077823Y-76617217D01*
X151082480Y-76776832D01*
X151089889Y-76940096D01*
X151099762Y-77096725D01*
X151111808Y-77236438D01*
X151123925Y-77336868D01*
X151140075Y-77441909D01*
X151158844Y-77515727D01*
X151189182Y-77563329D01*
X151240039Y-77589726D01*
X151320365Y-77599927D01*
X151439111Y-77598940D01*
X151581294Y-77592851D01*
X151730473Y-77584066D01*
X151871868Y-77572110D01*
X151989885Y-77558527D01*
X152068928Y-77544863D01*
X152071077Y-77544332D01*
X152176833Y-77523246D01*
X152240606Y-77530104D01*
X152271552Y-77572023D01*
X152278829Y-77656125D01*
X152277094Y-77704503D01*
X152268804Y-77863587D01*
X151589723Y-77870962D01*
X150910643Y-77878338D01*
X150892867Y-77567107D01*
X150886653Y-77436487D01*
X150880629Y-77269125D01*
X150874889Y-77072040D01*
X150869526Y-76852251D01*
X150864634Y-76616777D01*
X150860309Y-76372638D01*
X150856643Y-76126851D01*
X150853730Y-75886438D01*
X150851666Y-75658416D01*
X150850542Y-75449804D01*
X150850455Y-75267623D01*
X150851497Y-75118890D01*
X150853763Y-75010626D01*
X150857346Y-74949849D01*
X150857775Y-74946692D01*
X150877131Y-74818274D01*
X151034598Y-74789250D01*
X151116132Y-74773325D01*
X151238206Y-74748349D01*
X151387426Y-74717115D01*
X151550400Y-74682413D01*
X151645020Y-74661999D01*
X151795125Y-74629940D01*
X151925062Y-74603125D01*
X152025842Y-74583334D01*
X152088477Y-74572346D01*
X152105025Y-74570962D01*
X152110139Y-74600365D01*
D10*
X138370000Y-90530000D02*
X138370000Y-86230000D01*
X134570000Y-86230000D02*
X134570000Y-88530000D01*
X121070000Y-86230000D02*
X124970000Y-86230000D01*
X124670000Y-115730000D02*
X121070000Y-115730000D01*
X138370000Y-115730000D02*
X138370000Y-111230000D01*
X121070000Y-90530000D02*
X121070000Y-86230000D01*
X138370000Y-86230000D02*
X134570000Y-86230000D01*
X138370000Y-115730000D02*
X134870000Y-115730000D01*
X121070000Y-115730000D02*
X121070000Y-111230000D01*
X124970000Y-86230000D02*
X124970000Y-88530000D01*
D11*
X177192164Y-84640000D02*
X177407836Y-84640000D01*
X177192164Y-85360000D02*
X177407836Y-85360000D01*
X177440000Y-83392164D02*
X177440000Y-83607836D01*
X178160000Y-83392164D02*
X178160000Y-83607836D01*
X176837221Y-86810000D02*
X177162779Y-86810000D01*
X176837221Y-85790000D02*
X177162779Y-85790000D01*
X174837221Y-73810000D02*
X175162779Y-73810000D01*
X174837221Y-72790000D02*
X175162779Y-72790000D01*
X175800000Y-89000000D02*
X175800000Y-88500000D01*
X178000000Y-91800000D02*
X178000000Y-92000000D01*
X175000000Y-92000000D02*
X175000000Y-91800000D01*
X175800000Y-92000000D02*
X175000000Y-92000000D01*
X178000000Y-92000000D02*
X177200000Y-92000000D01*
X177200000Y-89000000D02*
X177800000Y-89000000D01*
X177200000Y-89000000D02*
X177200000Y-88500000D01*
X175000000Y-89200000D02*
X175000000Y-89000000D01*
X177800000Y-89000000D02*
X178000000Y-89200000D01*
X175000000Y-89000000D02*
X175800000Y-89000000D01*
X177192164Y-87140000D02*
X177407836Y-87140000D01*
X177192164Y-87860000D02*
X177407836Y-87860000D01*
X174892164Y-74240000D02*
X175107836Y-74240000D01*
X174892164Y-74960000D02*
X175107836Y-74960000D01*
X178310000Y-80737221D02*
X178310000Y-81062779D01*
X177290000Y-80737221D02*
X177290000Y-81062779D01*
M02*
