G04 #@! TF.GenerationSoftware,KiCad,Pcbnew,6.0.11+dfsg-1~bpo11+1*
G04 #@! TF.CreationDate,2023-05-20T19:26:12-04:00*
G04 #@! TF.ProjectId,RUSP_Daughterboard,52555350-5f44-4617-9567-68746572626f,rev?*
G04 #@! TF.SameCoordinates,Original*
G04 #@! TF.FileFunction,Copper,L4,Bot*
G04 #@! TF.FilePolarity,Positive*
%FSLAX46Y46*%
G04 Gerber Fmt 4.6, Leading zero omitted, Abs format (unit mm)*
G04 Created by KiCad (PCBNEW 6.0.11+dfsg-1~bpo11+1) date 2023-05-20 19:26:12*
%MOMM*%
%LPD*%
G01*
G04 APERTURE LIST*
G04 Aperture macros list*
%AMRoundRect*
0 Rectangle with rounded corners*
0 $1 Rounding radius*
0 $2 $3 $4 $5 $6 $7 $8 $9 X,Y pos of 4 corners*
0 Add a 4 corners polygon primitive as box body*
4,1,4,$2,$3,$4,$5,$6,$7,$8,$9,$2,$3,0*
0 Add four circle primitives for the rounded corners*
1,1,$1+$1,$2,$3*
1,1,$1+$1,$4,$5*
1,1,$1+$1,$6,$7*
1,1,$1+$1,$8,$9*
0 Add four rect primitives between the rounded corners*
20,1,$1+$1,$2,$3,$4,$5,0*
20,1,$1+$1,$4,$5,$6,$7,0*
20,1,$1+$1,$6,$7,$8,$9,0*
20,1,$1+$1,$8,$9,$2,$3,0*%
G04 Aperture macros list end*
G04 #@! TA.AperFunction,SMDPad,CuDef*
%ADD10RoundRect,0.218750X0.218750X0.256250X-0.218750X0.256250X-0.218750X-0.256250X0.218750X-0.256250X0*%
G04 #@! TD*
G04 #@! TA.AperFunction,SMDPad,CuDef*
%ADD11R,0.740000X1.675000*%
G04 #@! TD*
G04 #@! TA.AperFunction,SMDPad,CuDef*
%ADD12C,0.750000*%
G04 #@! TD*
G04 #@! TA.AperFunction,SMDPad,CuDef*
%ADD13RoundRect,0.225000X0.225000X0.250000X-0.225000X0.250000X-0.225000X-0.250000X0.225000X-0.250000X0*%
G04 #@! TD*
G04 #@! TA.AperFunction,SMDPad,CuDef*
%ADD14R,3.000000X1.110000*%
G04 #@! TD*
G04 #@! TA.AperFunction,SMDPad,CuDef*
%ADD15R,0.900000X1.200000*%
G04 #@! TD*
G04 #@! TA.AperFunction,SMDPad,CuDef*
%ADD16RoundRect,0.200000X0.275000X-0.200000X0.275000X0.200000X-0.275000X0.200000X-0.275000X-0.200000X0*%
G04 #@! TD*
G04 #@! TA.AperFunction,SMDPad,CuDef*
%ADD17R,1.200000X0.900000*%
G04 #@! TD*
G04 #@! TA.AperFunction,ComponentPad*
%ADD18C,6.200000*%
G04 #@! TD*
G04 #@! TA.AperFunction,SMDPad,CuDef*
%ADD19RoundRect,0.200000X0.200000X0.275000X-0.200000X0.275000X-0.200000X-0.275000X0.200000X-0.275000X0*%
G04 #@! TD*
G04 #@! TA.AperFunction,SMDPad,CuDef*
%ADD20RoundRect,0.225000X-0.225000X-0.250000X0.225000X-0.250000X0.225000X0.250000X-0.225000X0.250000X0*%
G04 #@! TD*
G04 #@! TA.AperFunction,SMDPad,CuDef*
%ADD21R,1.500000X0.600000*%
G04 #@! TD*
G04 #@! TA.AperFunction,ViaPad*
%ADD22C,0.800000*%
G04 #@! TD*
G04 #@! TA.AperFunction,Conductor*
%ADD23C,0.250000*%
G04 #@! TD*
G04 #@! TA.AperFunction,Conductor*
%ADD24C,0.750000*%
G04 #@! TD*
G04 #@! TA.AperFunction,Conductor*
%ADD25C,1.000000*%
G04 #@! TD*
G04 #@! TA.AperFunction,Conductor*
%ADD26C,0.500000*%
G04 #@! TD*
G04 APERTURE END LIST*
D10*
X128712500Y-113850000D03*
X127137500Y-113850000D03*
D11*
X160025000Y-137040000D03*
X160025000Y-133360000D03*
X161295000Y-137040000D03*
X161295000Y-133360000D03*
X162565000Y-137040000D03*
X162565000Y-133360000D03*
X163835000Y-137040000D03*
X163835000Y-133360000D03*
X165105000Y-137040000D03*
X165105000Y-133360000D03*
X166375000Y-137040000D03*
X166375000Y-133360000D03*
D10*
X134862500Y-114400000D03*
X133287500Y-114400000D03*
D12*
X172000000Y-80500000D03*
D13*
X134875000Y-112550000D03*
X133325000Y-112550000D03*
D12*
X128200000Y-86400000D03*
D13*
X125200000Y-113825000D03*
X123650000Y-113825000D03*
D11*
X160025000Y-129340000D03*
X160025000Y-125660000D03*
X161295000Y-129340000D03*
X161295000Y-125660000D03*
X162565000Y-129340000D03*
X162565000Y-125660000D03*
X163835000Y-129340000D03*
X163835000Y-125660000D03*
X165105000Y-129340000D03*
X165105000Y-125660000D03*
X166375000Y-129340000D03*
X166375000Y-125660000D03*
D14*
X129614000Y-107530000D03*
X129486000Y-102450000D03*
X129486000Y-99910000D03*
X129486000Y-97370000D03*
X129486000Y-94830000D03*
X137614000Y-94830000D03*
X137614000Y-97370000D03*
X137614000Y-99910000D03*
X137614000Y-102450000D03*
X137614000Y-107530000D03*
D15*
X126450000Y-110900000D03*
X129750000Y-110900000D03*
D16*
X169150000Y-121675000D03*
X169150000Y-120025000D03*
D17*
X141700000Y-110450000D03*
X141700000Y-107150000D03*
D18*
X154000000Y-128000000D03*
D19*
X173225000Y-112850000D03*
X171575000Y-112850000D03*
D13*
X177925000Y-124500000D03*
X176375000Y-124500000D03*
D20*
X171925000Y-124550000D03*
X173475000Y-124550000D03*
D12*
X171500000Y-137000000D03*
D21*
X172150000Y-122410000D03*
X172150000Y-121140000D03*
X172150000Y-119870000D03*
X172150000Y-118600000D03*
X172150000Y-117330000D03*
X172150000Y-116060000D03*
X172150000Y-114790000D03*
X177550000Y-114790000D03*
X177550000Y-116060000D03*
X177550000Y-117330000D03*
X177550000Y-118600000D03*
X177550000Y-119870000D03*
X177550000Y-121140000D03*
X177550000Y-122410000D03*
D22*
X159132660Y-135507340D03*
X124723699Y-73134294D03*
X133200000Y-111400000D03*
X120300000Y-71300000D03*
X134512299Y-87737701D03*
X176100000Y-126800000D03*
X132500000Y-103900000D03*
X165600000Y-123300000D03*
X148800000Y-123800000D03*
X160600000Y-130800000D03*
X172700000Y-126800000D03*
X130900000Y-110600000D03*
X127400000Y-112800000D03*
X123600000Y-112600000D03*
X150500000Y-110500000D03*
X151500000Y-110500000D03*
X120396006Y-82200000D03*
X174149991Y-127749991D03*
X162924500Y-130769253D03*
X161400000Y-123800000D03*
X175200000Y-124900000D03*
X163100633Y-127097547D03*
X160200000Y-123600000D03*
X177300000Y-125800000D03*
X136400000Y-92900000D03*
X138000000Y-79700000D03*
X121300000Y-75400000D03*
X169300000Y-132100000D03*
X159200000Y-133800000D03*
X137900000Y-71000000D03*
X170650000Y-118550000D03*
X124800000Y-74400000D03*
X124909034Y-72152125D03*
X170600000Y-117250000D03*
X133000000Y-78750000D03*
X164083366Y-127279866D03*
X124900000Y-76600000D03*
X170800000Y-119750000D03*
X126000000Y-77750000D03*
X168000000Y-119800000D03*
X163500000Y-123100000D03*
X176100000Y-121200000D03*
X164400000Y-134974990D03*
X127275000Y-115050000D03*
X163200000Y-131900000D03*
X163900000Y-137025010D03*
X131200000Y-113200000D03*
X150000000Y-122400000D03*
X162200000Y-134800000D03*
X124500000Y-80250000D03*
X135000000Y-81000000D03*
X135400000Y-71000000D03*
X124900000Y-71000000D03*
X165201292Y-131775010D03*
X131400000Y-94800000D03*
X131826000Y-95600000D03*
X165201292Y-131001292D03*
X173850000Y-91850000D03*
X162775000Y-123900000D03*
X175124500Y-122600000D03*
D23*
X123650000Y-113825000D02*
X123650000Y-112650000D01*
D24*
X133175001Y-101171001D02*
X134366000Y-99980002D01*
D25*
X150500000Y-110500000D02*
X151500000Y-110500000D01*
D23*
X171915000Y-114515000D02*
X172200000Y-114800000D01*
X127137500Y-113062500D02*
X127400000Y-112800000D01*
X130600000Y-110900000D02*
X130900000Y-110600000D01*
X133325000Y-112550000D02*
X133325000Y-114362500D01*
X133325000Y-111525000D02*
X133200000Y-111400000D01*
X171915000Y-112850000D02*
X171915000Y-114515000D01*
D26*
X173824990Y-123910010D02*
X173824990Y-115324990D01*
D23*
X127137500Y-113850000D02*
X127137500Y-113062500D01*
D25*
X143310000Y-107750000D02*
X142294000Y-107750000D01*
D24*
X134366000Y-99980002D02*
X134366000Y-97266000D01*
X173475000Y-126025000D02*
X172700000Y-126800000D01*
X133724520Y-92875480D02*
X133724520Y-96124520D01*
X160025000Y-136399680D02*
X159132660Y-135507340D01*
D23*
X160600000Y-129915000D02*
X160600000Y-130800000D01*
D26*
X173185000Y-124550000D02*
X173824990Y-123910010D01*
D24*
X120300000Y-73310000D02*
X120300000Y-82103994D01*
D26*
X173300000Y-114800000D02*
X172100000Y-114800000D01*
D23*
X123650000Y-112650000D02*
X123600000Y-112600000D01*
D24*
X160025000Y-137040000D02*
X160025000Y-136399680D01*
D23*
X129750000Y-110900000D02*
X130600000Y-110900000D01*
D24*
X138210000Y-106934000D02*
X141478000Y-106934000D01*
X165105000Y-125660000D02*
X165105000Y-123795000D01*
X133984000Y-103900000D02*
X132500000Y-103900000D01*
X120300000Y-82103994D02*
X120396006Y-82200000D01*
X176375000Y-124500000D02*
X176375000Y-125346832D01*
X134512299Y-87737701D02*
X134366000Y-87884000D01*
X173475000Y-124550000D02*
X173475000Y-126025000D01*
X133724520Y-96124520D02*
X134366000Y-96766000D01*
X135391511Y-96240489D02*
X136203511Y-96240489D01*
X165105000Y-123795000D02*
X165600000Y-123300000D01*
X133175001Y-103091001D02*
X137614000Y-107530000D01*
X120300000Y-71300000D02*
X120300000Y-73310000D01*
D25*
X142294000Y-107750000D02*
X141732000Y-107188000D01*
D23*
X160025000Y-129340000D02*
X160600000Y-129915000D01*
D24*
X134366000Y-97266000D02*
X135391511Y-96240489D01*
X176375000Y-125346832D02*
X176100000Y-125621832D01*
X134366000Y-87884000D02*
X134366000Y-92234000D01*
X134366000Y-92234000D02*
X133724520Y-92875480D01*
X134366000Y-96766000D02*
X134366000Y-97266000D01*
D25*
X146060000Y-110500000D02*
X143310000Y-107750000D01*
D24*
X124657993Y-73200000D02*
X120410000Y-73200000D01*
X124723699Y-73134294D02*
X124657993Y-73200000D01*
X176100000Y-125621832D02*
X176100000Y-126800000D01*
X133175001Y-103091001D02*
X133175001Y-101171001D01*
D23*
X133325000Y-112550000D02*
X133325000Y-111525000D01*
D24*
X120410000Y-73200000D02*
X120300000Y-73310000D01*
D26*
X173824990Y-115324990D02*
X173300000Y-114800000D01*
D24*
X136203511Y-96240489D02*
X137614000Y-94830000D01*
D25*
X150500000Y-110500000D02*
X146060000Y-110500000D01*
D23*
X162700000Y-130544753D02*
X162924500Y-130769253D01*
X174400000Y-119480000D02*
X174400000Y-127499982D01*
X176550000Y-117330000D02*
X174400000Y-119480000D01*
X174400000Y-127499982D02*
X174149991Y-127749991D01*
X162700000Y-129300000D02*
X162700000Y-130544753D01*
X177550000Y-117330000D02*
X176550000Y-117330000D01*
X176000000Y-122749114D02*
X175200000Y-123549114D01*
X175200000Y-123549114D02*
X175200000Y-124900000D01*
X176356998Y-119870000D02*
X175375489Y-120851509D01*
X175375489Y-121675489D02*
X176000000Y-122300000D01*
X177550000Y-119870000D02*
X176356998Y-119870000D01*
X161400000Y-123800000D02*
X161400000Y-125400000D01*
X176000000Y-122300000D02*
X176000000Y-122749114D01*
X175375489Y-120851509D02*
X175375489Y-121675489D01*
X161295000Y-128903180D02*
X163100633Y-127097547D01*
D26*
X132900000Y-86825011D02*
X132900000Y-98494000D01*
D23*
X161295000Y-129340000D02*
X161295000Y-128903180D01*
D26*
X132900000Y-98494000D02*
X131572000Y-99822000D01*
X135361810Y-87385821D02*
X134801000Y-86825011D01*
X135361810Y-92061810D02*
X135361810Y-87385821D01*
X134801000Y-86825011D02*
X132900000Y-86825011D01*
X136400000Y-92900000D02*
X136200000Y-92900000D01*
D23*
X177925000Y-122875000D02*
X177550000Y-122500000D01*
D26*
X136200000Y-92900000D02*
X135361810Y-92061810D01*
D23*
X160025000Y-123775000D02*
X160200000Y-123600000D01*
X177300000Y-125800000D02*
X177925000Y-125175000D01*
X160025000Y-125660000D02*
X160025000Y-123775000D01*
X177925000Y-125175000D02*
X177925000Y-122875000D01*
D26*
X131572000Y-99822000D02*
X129286000Y-99822000D01*
D23*
X170260000Y-122410000D02*
X169200000Y-121350000D01*
X172150000Y-122410000D02*
X170260000Y-122410000D01*
X159640000Y-133360000D02*
X159200000Y-133800000D01*
D26*
X170900000Y-124600000D02*
X172200000Y-124600000D01*
D23*
X172215000Y-124550000D02*
X172215000Y-122565000D01*
D26*
X169300000Y-132100000D02*
X169300000Y-126200000D01*
X169300000Y-126200000D02*
X170900000Y-124600000D01*
D23*
X160025000Y-133360000D02*
X159640000Y-133360000D01*
X172150000Y-118600000D02*
X170700000Y-118600000D01*
X170700000Y-118600000D02*
X170650000Y-118550000D01*
X172150000Y-117330000D02*
X170680000Y-117330000D01*
X170680000Y-117330000D02*
X170600000Y-117250000D01*
X163835000Y-129340000D02*
X163835000Y-127528232D01*
X163835000Y-127528232D02*
X164083366Y-127279866D01*
X172150000Y-119870000D02*
X170920000Y-119870000D01*
X170920000Y-119870000D02*
X170800000Y-119750000D01*
X168550000Y-120350000D02*
X168000000Y-119800000D01*
X170500000Y-121150000D02*
X172200000Y-121150000D01*
X169150000Y-120365000D02*
X169715000Y-120365000D01*
X169715000Y-120365000D02*
X170500000Y-121150000D01*
X169150000Y-120350000D02*
X168550000Y-120350000D01*
X163500000Y-125400000D02*
X163500000Y-123100000D01*
X177550000Y-121140000D02*
X176160000Y-121140000D01*
X176160000Y-121140000D02*
X176100000Y-121200000D01*
X163800000Y-125700000D02*
X163500000Y-125400000D01*
X165105000Y-137040000D02*
X165105000Y-135679990D01*
X165105000Y-135679990D02*
X164400000Y-134974990D01*
X163835000Y-133360000D02*
X163835000Y-132272500D01*
X127424520Y-115199520D02*
X127275000Y-115050000D01*
X134875000Y-112550000D02*
X134875000Y-114387500D01*
X163835000Y-132272500D02*
X163462500Y-131900000D01*
X134862500Y-114400000D02*
X134062980Y-115199520D01*
X134062980Y-115199520D02*
X127424520Y-115199520D01*
X163462500Y-131900000D02*
X163200000Y-131900000D01*
X125200000Y-113825000D02*
X126949511Y-112075489D01*
X128712500Y-113850000D02*
X130550000Y-113850000D01*
X128712500Y-112812500D02*
X128712500Y-113850000D01*
X130550000Y-113850000D02*
X131200000Y-113200000D01*
X127975489Y-112075489D02*
X128712500Y-112812500D01*
X126949511Y-112075489D02*
X127975489Y-112075489D01*
X162565000Y-134435000D02*
X162200000Y-134800000D01*
X162565000Y-133360000D02*
X162565000Y-134435000D01*
X176600000Y-111600000D02*
X177800000Y-112800000D01*
X172885000Y-112850000D02*
X172885000Y-112815000D01*
X177785000Y-112800000D02*
X177785000Y-114415000D01*
X174770000Y-114700000D02*
X177550000Y-114700000D01*
X170500000Y-112300000D02*
X171200000Y-111600000D01*
X162565000Y-138127500D02*
X162640001Y-138202501D01*
X168400000Y-136807502D02*
X168400000Y-122500000D01*
X177785000Y-114415000D02*
X177400000Y-114800000D01*
X162640001Y-138202501D02*
X167005001Y-138202501D01*
X172885000Y-112815000D02*
X174770000Y-114700000D01*
X167100000Y-121200000D02*
X167100000Y-119200000D01*
X170500000Y-115800000D02*
X170500000Y-112300000D01*
X167005001Y-138202501D02*
X168400000Y-136807502D01*
X171200000Y-111600000D02*
X176600000Y-111600000D01*
X167100000Y-119200000D02*
X170500000Y-115800000D01*
X162565000Y-137040000D02*
X162565000Y-138127500D01*
X168400000Y-122500000D02*
X167100000Y-121200000D01*
X126450000Y-110900000D02*
X126450000Y-97150000D01*
D24*
X129502000Y-94830000D02*
X131370000Y-94830000D01*
X165105000Y-131678718D02*
X165201292Y-131775010D01*
D23*
X126450000Y-97150000D02*
X128770000Y-94830000D01*
D24*
X131370000Y-94830000D02*
X131400000Y-94800000D01*
X131400000Y-94800000D02*
X131826000Y-95226000D01*
X131826000Y-95226000D02*
X131826000Y-95600000D01*
X165105000Y-129340000D02*
X165105000Y-131678718D01*
X160822500Y-131775000D02*
X161300000Y-132252500D01*
X145161241Y-116075489D02*
X151500000Y-122414248D01*
X129800000Y-107600000D02*
X131000000Y-108800000D01*
X159080000Y-125880000D02*
X159080000Y-130658859D01*
X136300000Y-111800000D02*
X137975000Y-113475000D01*
X137975000Y-113475000D02*
X137975000Y-115000000D01*
X137975000Y-115000000D02*
X139475000Y-116500000D01*
X139475000Y-116500000D02*
X141621832Y-116500000D01*
X141621832Y-116500000D02*
X142046343Y-116075489D01*
X160196141Y-131775000D02*
X160822500Y-131775000D01*
X133300000Y-108800000D02*
X136300000Y-111800000D01*
X159080000Y-130658859D02*
X160196141Y-131775000D01*
X137650000Y-110450000D02*
X141700000Y-110450000D01*
X136300000Y-111800000D02*
X137650000Y-110450000D01*
X151500000Y-122414248D02*
X155614248Y-122414248D01*
X155614248Y-122414248D02*
X159080000Y-125880000D01*
X131000000Y-108800000D02*
X133300000Y-108800000D01*
X142046343Y-116075489D02*
X145161241Y-116075489D01*
X161300000Y-132252500D02*
X161300000Y-133200000D01*
X129502000Y-103702000D02*
X129502000Y-102450000D01*
X166375000Y-133360000D02*
X166999999Y-132735001D01*
X166375000Y-129340000D02*
X166375000Y-129025000D01*
X167500000Y-123200000D02*
X155956483Y-111656483D01*
X166999999Y-132735001D02*
X166999999Y-128300001D01*
X145400000Y-111656483D02*
X142943517Y-109200000D01*
X167300000Y-126300000D02*
X166500000Y-125500000D01*
X133650480Y-107850480D02*
X129502000Y-103702000D01*
X167300000Y-128100000D02*
X167300000Y-126300000D01*
X167500000Y-126900000D02*
X167500000Y-123200000D01*
X155956483Y-111656483D02*
X145400000Y-111656483D01*
X166999999Y-128300001D02*
X167400000Y-127900000D01*
X142943517Y-109200000D02*
X135042824Y-109200000D01*
X133693304Y-107850480D02*
X133650480Y-107850480D01*
X166375000Y-129025000D02*
X167300000Y-128100000D01*
X167300000Y-127100000D02*
X167500000Y-126900000D01*
X166375000Y-129340000D02*
X167300000Y-128415000D01*
X135042824Y-109200000D02*
X133693304Y-107850480D01*
X167300000Y-128415000D02*
X167300000Y-127100000D01*
D23*
X162565000Y-124110000D02*
X162775000Y-123900000D01*
X176550000Y-118600000D02*
X177550000Y-118600000D01*
X174850011Y-120299989D02*
X176550000Y-118600000D01*
X174850011Y-122325511D02*
X174850011Y-120299989D01*
X162565000Y-125660000D02*
X162565000Y-124110000D01*
X175124500Y-122600000D02*
X174850011Y-122325511D01*
M02*
