G04 #@! TF.GenerationSoftware,KiCad,Pcbnew,6.0.11+dfsg-1~bpo11+1*
G04 #@! TF.CreationDate,2023-05-20T19:26:12-04:00*
G04 #@! TF.ProjectId,RUSP_Daughterboard,52555350-5f44-4617-9567-68746572626f,rev?*
G04 #@! TF.SameCoordinates,Original*
G04 #@! TF.FileFunction,Copper,L3,Inr*
G04 #@! TF.FilePolarity,Positive*
%FSLAX46Y46*%
G04 Gerber Fmt 4.6, Leading zero omitted, Abs format (unit mm)*
G04 Created by KiCad (PCBNEW 6.0.11+dfsg-1~bpo11+1) date 2023-05-20 19:26:12*
%MOMM*%
%LPD*%
G01*
G04 APERTURE LIST*
G04 #@! TA.AperFunction,ComponentPad*
%ADD10C,6.200000*%
G04 #@! TD*
G04 #@! TA.AperFunction,ViaPad*
%ADD11C,0.800000*%
G04 #@! TD*
G04 #@! TA.AperFunction,Conductor*
%ADD12C,0.750000*%
G04 #@! TD*
G04 #@! TA.AperFunction,Conductor*
%ADD13C,0.500000*%
G04 #@! TD*
G04 #@! TA.AperFunction,Conductor*
%ADD14C,0.250000*%
G04 #@! TD*
G04 APERTURE END LIST*
D10*
X154000000Y-128000000D03*
D11*
X159132660Y-135507340D03*
X124723699Y-73134294D03*
X133200000Y-111400000D03*
X120300000Y-71300000D03*
X134512299Y-87737701D03*
X176100000Y-126800000D03*
X132500000Y-103900000D03*
X165600000Y-123300000D03*
X148800000Y-123800000D03*
X160600000Y-130800000D03*
X172700000Y-126800000D03*
X130900000Y-110600000D03*
X127400000Y-112800000D03*
X123600000Y-112600000D03*
X150500000Y-110500000D03*
X151500000Y-110500000D03*
X120396006Y-82200000D03*
X174149991Y-127749991D03*
X162924500Y-130769253D03*
X161400000Y-123800000D03*
X175200000Y-124900000D03*
X163100633Y-127097547D03*
X160200000Y-123600000D03*
X177300000Y-125800000D03*
X136400000Y-92900000D03*
X138000000Y-79700000D03*
X121300000Y-75400000D03*
X169300000Y-132100000D03*
X159200000Y-133800000D03*
X137900000Y-71000000D03*
X170650000Y-118550000D03*
X124800000Y-74400000D03*
X124909034Y-72152125D03*
X170600000Y-117250000D03*
X133000000Y-78750000D03*
X164083366Y-127279866D03*
X124900000Y-76600000D03*
X170800000Y-119750000D03*
X126000000Y-77750000D03*
X168000000Y-119800000D03*
X163500000Y-123100000D03*
X176100000Y-121200000D03*
X164400000Y-134974990D03*
X127275000Y-115050000D03*
X163200000Y-131900000D03*
X163900000Y-137025010D03*
X131200000Y-113200000D03*
X150000000Y-122400000D03*
X162200000Y-134800000D03*
X124500000Y-80250000D03*
X135000000Y-81000000D03*
X135400000Y-71000000D03*
X124900000Y-71000000D03*
X165201292Y-131775010D03*
X131400000Y-94800000D03*
X131826000Y-95600000D03*
X165201292Y-131001292D03*
X173850000Y-91850000D03*
X162775000Y-123900000D03*
X175124500Y-122600000D03*
D12*
X134512299Y-87737701D02*
X134512299Y-87268299D01*
X129444000Y-82200000D02*
X120396006Y-82200000D01*
X134512299Y-87268299D02*
X129444000Y-82200000D01*
D13*
X162911547Y-127097547D02*
X163100633Y-127097547D01*
X138000000Y-94500000D02*
X138000000Y-103610756D01*
X157989244Y-123600000D02*
X160200000Y-123600000D01*
X160200000Y-123600000D02*
X160200000Y-124386000D01*
X136400000Y-92900000D02*
X138000000Y-94500000D01*
X160200000Y-124386000D02*
X162911547Y-127097547D01*
X138000000Y-103610756D02*
X157989244Y-123600000D01*
X135361810Y-98461810D02*
X135361810Y-101961810D01*
X138000000Y-79700000D02*
X138000000Y-71100000D01*
X135050000Y-86639952D02*
X135361810Y-86951762D01*
X167600000Y-133800000D02*
X169300000Y-132100000D01*
X135361810Y-86951762D02*
X135361810Y-90561810D01*
X133700000Y-92700000D02*
X133700000Y-96800000D01*
X135361810Y-90561810D02*
X135600000Y-90800000D01*
X159200000Y-125800000D02*
X159200000Y-133800000D01*
X133700000Y-96800000D02*
X135361810Y-98461810D01*
X135600000Y-90800000D02*
X133700000Y-92700000D01*
X125600000Y-79700000D02*
X138000000Y-79700000D01*
X135050000Y-82650000D02*
X135050000Y-86639952D01*
X121300000Y-75400000D02*
X125600000Y-79700000D01*
X159200000Y-133800000D02*
X167600000Y-133800000D01*
X138000000Y-71100000D02*
X137900000Y-71000000D01*
X138000000Y-79700000D02*
X135050000Y-82650000D01*
X135361810Y-101961810D02*
X159200000Y-125800000D01*
D14*
X158400000Y-126000000D02*
X158400000Y-135800000D01*
X137350000Y-113200000D02*
X139950000Y-115800000D01*
X159625010Y-137025010D02*
X163900000Y-137025010D01*
X148200000Y-115800000D02*
X158400000Y-126000000D01*
X131200000Y-113200000D02*
X137350000Y-113200000D01*
X139950000Y-115800000D02*
X148200000Y-115800000D01*
X158400000Y-135800000D02*
X159625010Y-137025010D01*
X135000000Y-81000000D02*
X134500000Y-80500000D01*
X134500000Y-80500000D02*
X124750000Y-80500000D01*
X124750000Y-80500000D02*
X124500000Y-80250000D01*
G04 #@! TA.AperFunction,Conductor*
G36*
X135125985Y-102650002D02*
G01*
X135146959Y-102666905D01*
X147539459Y-115059405D01*
X147573485Y-115121717D01*
X147568420Y-115192532D01*
X147525873Y-115249368D01*
X147459353Y-115274179D01*
X147450364Y-115274500D01*
X140219859Y-115274500D01*
X140151738Y-115254498D01*
X140130764Y-115237595D01*
X138498197Y-113605028D01*
X139498025Y-113605028D01*
X139535347Y-113848930D01*
X139612003Y-114083460D01*
X139725935Y-114302321D01*
X139729038Y-114306454D01*
X139729040Y-114306457D01*
X139745734Y-114328691D01*
X139874083Y-114499636D01*
X140052468Y-114670104D01*
X140056740Y-114673018D01*
X140056741Y-114673019D01*
X140084298Y-114691817D01*
X140256300Y-114809149D01*
X140352827Y-114853955D01*
X140475409Y-114910856D01*
X140475413Y-114910857D01*
X140480104Y-114913035D01*
X140717871Y-114978974D01*
X140723008Y-114979523D01*
X140915957Y-115000144D01*
X140915965Y-115000144D01*
X140919292Y-115000500D01*
X141062554Y-115000500D01*
X141065127Y-115000288D01*
X141065138Y-115000288D01*
X141240760Y-114985849D01*
X141240766Y-114985848D01*
X141245911Y-114985425D01*
X141485217Y-114925316D01*
X141711493Y-114826928D01*
X141918661Y-114692905D01*
X141926370Y-114685891D01*
X142007444Y-114612119D01*
X142101158Y-114526846D01*
X142104357Y-114522795D01*
X142104361Y-114522791D01*
X142250881Y-114337264D01*
X142250884Y-114337259D01*
X142254082Y-114333210D01*
X142259388Y-114323598D01*
X142370830Y-114121722D01*
X142370832Y-114121718D01*
X142373327Y-114117198D01*
X142385275Y-114083460D01*
X142453965Y-113889485D01*
X142453966Y-113889481D01*
X142455691Y-113884610D01*
X142462047Y-113848930D01*
X142498055Y-113646783D01*
X142498056Y-113646777D01*
X142498961Y-113641694D01*
X142500795Y-113491604D01*
X142501912Y-113400142D01*
X142501912Y-113400140D01*
X142501975Y-113394972D01*
X142464653Y-113151070D01*
X142387997Y-112916540D01*
X142274065Y-112697679D01*
X142268945Y-112690859D01*
X142129022Y-112504499D01*
X142129020Y-112504496D01*
X142125917Y-112500364D01*
X142015962Y-112395289D01*
X141951269Y-112333467D01*
X141951268Y-112333466D01*
X141947532Y-112329896D01*
X141919212Y-112310577D01*
X141747979Y-112193770D01*
X141747980Y-112193770D01*
X141743700Y-112190851D01*
X141571180Y-112110770D01*
X141524591Y-112089144D01*
X141524587Y-112089143D01*
X141519896Y-112086965D01*
X141282129Y-112021026D01*
X141267682Y-112019482D01*
X141084043Y-111999856D01*
X141084035Y-111999856D01*
X141080708Y-111999500D01*
X140937446Y-111999500D01*
X140934873Y-111999712D01*
X140934862Y-111999712D01*
X140759240Y-112014151D01*
X140759234Y-112014152D01*
X140754089Y-112014575D01*
X140514783Y-112074684D01*
X140288507Y-112173072D01*
X140081339Y-112307095D01*
X140077514Y-112310575D01*
X140077512Y-112310577D01*
X140056281Y-112329896D01*
X139898842Y-112473154D01*
X139895643Y-112477205D01*
X139895639Y-112477209D01*
X139749119Y-112662736D01*
X139749116Y-112662741D01*
X139745918Y-112666790D01*
X139743425Y-112671306D01*
X139743423Y-112671309D01*
X139634994Y-112867729D01*
X139626673Y-112882802D01*
X139624949Y-112887671D01*
X139624947Y-112887675D01*
X139554222Y-113087397D01*
X139544309Y-113115390D01*
X139543402Y-113120483D01*
X139543401Y-113120486D01*
X139504062Y-113341336D01*
X139501039Y-113358306D01*
X139500976Y-113363469D01*
X139498772Y-113543918D01*
X139498025Y-113605028D01*
X138498197Y-113605028D01*
X137731805Y-112838636D01*
X137728152Y-112834827D01*
X137693934Y-112797615D01*
X137688116Y-112791288D01*
X137653044Y-112769542D01*
X137643262Y-112762819D01*
X137617240Y-112743067D01*
X137610396Y-112737872D01*
X137602409Y-112734710D01*
X137602406Y-112734708D01*
X137597517Y-112732772D01*
X137577516Y-112722713D01*
X137565750Y-112715418D01*
X137526119Y-112703904D01*
X137514895Y-112700060D01*
X137484516Y-112688033D01*
X137484513Y-112688032D01*
X137476528Y-112684871D01*
X137467991Y-112683974D01*
X137467984Y-112683972D01*
X137462761Y-112683423D01*
X137440784Y-112679112D01*
X137433822Y-112677089D01*
X137433820Y-112677089D01*
X137427488Y-112675249D01*
X137420673Y-112674749D01*
X137419596Y-112674669D01*
X137419583Y-112674669D01*
X137417288Y-112674500D01*
X137384461Y-112674500D01*
X137371290Y-112673810D01*
X137333338Y-112669821D01*
X137324872Y-112671253D01*
X137324869Y-112671253D01*
X137316102Y-112672736D01*
X137295090Y-112674500D01*
X131858815Y-112674500D01*
X131790694Y-112654498D01*
X131769410Y-112637284D01*
X131709738Y-112577195D01*
X131709734Y-112577192D01*
X131704770Y-112572193D01*
X131696514Y-112566953D01*
X131598101Y-112504499D01*
X131553136Y-112475963D01*
X131523352Y-112465357D01*
X131390586Y-112418081D01*
X131390581Y-112418080D01*
X131383951Y-112415719D01*
X131376965Y-112414886D01*
X131376961Y-112414885D01*
X131249177Y-112399648D01*
X131205624Y-112394455D01*
X131198621Y-112395191D01*
X131198620Y-112395191D01*
X131034025Y-112412490D01*
X131034021Y-112412491D01*
X131027017Y-112413227D01*
X131020346Y-112415498D01*
X130863677Y-112468832D01*
X130863674Y-112468833D01*
X130857007Y-112471103D01*
X130851009Y-112474793D01*
X130851007Y-112474794D01*
X130815250Y-112496792D01*
X130704045Y-112565206D01*
X130699014Y-112570132D01*
X130699011Y-112570135D01*
X130691802Y-112577195D01*
X130575732Y-112690859D01*
X130571913Y-112696784D01*
X130571912Y-112696786D01*
X130482951Y-112834827D01*
X130478446Y-112841817D01*
X130476037Y-112848437D01*
X130476035Y-112848440D01*
X130461755Y-112887675D01*
X130417022Y-113010578D01*
X130394514Y-113188753D01*
X130395201Y-113195760D01*
X130395201Y-113195763D01*
X130401674Y-113261779D01*
X130412039Y-113367486D01*
X130414262Y-113374168D01*
X130414262Y-113374169D01*
X130451692Y-113486688D01*
X130468726Y-113537896D01*
X130472373Y-113543918D01*
X130531846Y-113642119D01*
X130561759Y-113691512D01*
X130566648Y-113696575D01*
X130566649Y-113696576D01*
X130585946Y-113716558D01*
X130686514Y-113820699D01*
X130836789Y-113919036D01*
X131005116Y-113981636D01*
X131012097Y-113982567D01*
X131012099Y-113982568D01*
X131176149Y-114004457D01*
X131176153Y-114004457D01*
X131183130Y-114005388D01*
X131190142Y-114004750D01*
X131190146Y-114004750D01*
X131354960Y-113989751D01*
X131354961Y-113989751D01*
X131361981Y-113989112D01*
X131532782Y-113933615D01*
X131563714Y-113915176D01*
X131680992Y-113845265D01*
X131680994Y-113845264D01*
X131687044Y-113841657D01*
X131772525Y-113760254D01*
X131835651Y-113727762D01*
X131859418Y-113725500D01*
X137080141Y-113725500D01*
X137148262Y-113745502D01*
X137169236Y-113762405D01*
X139568195Y-116161364D01*
X139571848Y-116165173D01*
X139611884Y-116208712D01*
X139619184Y-116213238D01*
X139619185Y-116213239D01*
X139646960Y-116230460D01*
X139656730Y-116237174D01*
X139689604Y-116262127D01*
X139702474Y-116267222D01*
X139722482Y-116277286D01*
X139734250Y-116284582D01*
X139742493Y-116286977D01*
X139742500Y-116286980D01*
X139773893Y-116296101D01*
X139785120Y-116299945D01*
X139815487Y-116311968D01*
X139815489Y-116311969D01*
X139823472Y-116315129D01*
X139832009Y-116316026D01*
X139832016Y-116316028D01*
X139837239Y-116316577D01*
X139859216Y-116320888D01*
X139866178Y-116322911D01*
X139866180Y-116322911D01*
X139872512Y-116324751D01*
X139879327Y-116325251D01*
X139880404Y-116325331D01*
X139880417Y-116325331D01*
X139882712Y-116325500D01*
X139915538Y-116325500D01*
X139928709Y-116326190D01*
X139966661Y-116330179D01*
X139975127Y-116328747D01*
X139975130Y-116328747D01*
X139983897Y-116327264D01*
X140004909Y-116325500D01*
X147930141Y-116325500D01*
X147998262Y-116345502D01*
X148019236Y-116362405D01*
X157837595Y-126180765D01*
X157871621Y-126243077D01*
X157874500Y-126269860D01*
X157874500Y-135785565D01*
X157874389Y-135790841D01*
X157871913Y-135849919D01*
X157881337Y-135890097D01*
X157883500Y-135901770D01*
X157889099Y-135942646D01*
X157892510Y-135950527D01*
X157892510Y-135950529D01*
X157894595Y-135955347D01*
X157901627Y-135976610D01*
X157902540Y-135980500D01*
X157904790Y-135990093D01*
X157924681Y-136026275D01*
X157929888Y-136036905D01*
X157946280Y-136074783D01*
X157951686Y-136081459D01*
X157951687Y-136081461D01*
X157954992Y-136085542D01*
X157967480Y-136104126D01*
X157974153Y-136116263D01*
X157980836Y-136124005D01*
X158004040Y-136147209D01*
X158012865Y-136157009D01*
X158036888Y-136186675D01*
X158051144Y-136196806D01*
X158067244Y-136210413D01*
X159243205Y-137386374D01*
X159246858Y-137390183D01*
X159286894Y-137433722D01*
X159321978Y-137455475D01*
X159331746Y-137462189D01*
X159364615Y-137487138D01*
X159372596Y-137490298D01*
X159372598Y-137490299D01*
X159377484Y-137492233D01*
X159397500Y-137502301D01*
X159409260Y-137509592D01*
X159417504Y-137511987D01*
X159417506Y-137511988D01*
X159448884Y-137521104D01*
X159460113Y-137524949D01*
X159490496Y-137536978D01*
X159490498Y-137536978D01*
X159498483Y-137540140D01*
X159512108Y-137541572D01*
X159512252Y-137541587D01*
X159534232Y-137545900D01*
X159547522Y-137549761D01*
X159554103Y-137550244D01*
X159554107Y-137550245D01*
X159555414Y-137550341D01*
X159555427Y-137550341D01*
X159557722Y-137550510D01*
X159590539Y-137550510D01*
X159603710Y-137551200D01*
X159641672Y-137555190D01*
X159650144Y-137553757D01*
X159650145Y-137553757D01*
X159658906Y-137552275D01*
X159679919Y-137550510D01*
X163241097Y-137550510D01*
X163309218Y-137570512D01*
X163331734Y-137588983D01*
X163386514Y-137645709D01*
X163536789Y-137744046D01*
X163705116Y-137806646D01*
X163712097Y-137807577D01*
X163712099Y-137807578D01*
X163876149Y-137829467D01*
X163876153Y-137829467D01*
X163883130Y-137830398D01*
X163890142Y-137829760D01*
X163890146Y-137829760D01*
X164054960Y-137814761D01*
X164054961Y-137814761D01*
X164061981Y-137814122D01*
X164232782Y-137758625D01*
X164263714Y-137740186D01*
X164380992Y-137670275D01*
X164380994Y-137670274D01*
X164387044Y-137666667D01*
X164517099Y-137542817D01*
X164528971Y-137524949D01*
X164586574Y-137438249D01*
X164616483Y-137393232D01*
X164631168Y-137354574D01*
X164677757Y-137231929D01*
X164677758Y-137231924D01*
X164680257Y-137225346D01*
X164705251Y-137047503D01*
X164705565Y-137025010D01*
X164685546Y-136846538D01*
X164626485Y-136676937D01*
X164531316Y-136524635D01*
X164467771Y-136460645D01*
X164409733Y-136402200D01*
X164409729Y-136402197D01*
X164404770Y-136397203D01*
X164393761Y-136390216D01*
X164346860Y-136360452D01*
X164253136Y-136300973D01*
X164223352Y-136290367D01*
X164090586Y-136243091D01*
X164090581Y-136243090D01*
X164083951Y-136240729D01*
X164076965Y-136239896D01*
X164076961Y-136239895D01*
X163949177Y-136224658D01*
X163905624Y-136219465D01*
X163898621Y-136220201D01*
X163898620Y-136220201D01*
X163734025Y-136237500D01*
X163734021Y-136237501D01*
X163727017Y-136238237D01*
X163720346Y-136240508D01*
X163563677Y-136293842D01*
X163563674Y-136293843D01*
X163557007Y-136296113D01*
X163551009Y-136299803D01*
X163551007Y-136299804D01*
X163480526Y-136343164D01*
X163404045Y-136390216D01*
X163329173Y-136463536D01*
X163266510Y-136496904D01*
X163241018Y-136499510D01*
X159894871Y-136499510D01*
X159826750Y-136479508D01*
X159805776Y-136462606D01*
X158962405Y-135619236D01*
X158928380Y-135556923D01*
X158925500Y-135530140D01*
X158925500Y-134714941D01*
X158945502Y-134646820D01*
X158999158Y-134600327D01*
X159068163Y-134590048D01*
X159132713Y-134598661D01*
X159176150Y-134604457D01*
X159176153Y-134604457D01*
X159183130Y-134605388D01*
X159190142Y-134604750D01*
X159190146Y-134604750D01*
X159354960Y-134589751D01*
X159354961Y-134589751D01*
X159361981Y-134589112D01*
X159532782Y-134533615D01*
X159538833Y-134530008D01*
X159642399Y-134468271D01*
X159706916Y-134450500D01*
X160001323Y-134450500D01*
X160069444Y-134470502D01*
X160115937Y-134524158D01*
X160126041Y-134594432D01*
X160096547Y-134659012D01*
X160090111Y-134665901D01*
X160047878Y-134707841D01*
X159954052Y-134855686D01*
X159951687Y-134862328D01*
X159901522Y-135003208D01*
X159895313Y-135020644D01*
X159894480Y-135027630D01*
X159894479Y-135027634D01*
X159881621Y-135135466D01*
X159874580Y-135194517D01*
X159875316Y-135201519D01*
X159875316Y-135201521D01*
X159887733Y-135319652D01*
X159892884Y-135368662D01*
X159895153Y-135375326D01*
X159944912Y-135521492D01*
X159949314Y-135534424D01*
X159953004Y-135540422D01*
X159953005Y-135540424D01*
X160005878Y-135626367D01*
X160041066Y-135683565D01*
X160054343Y-135697123D01*
X160146119Y-135790841D01*
X160163580Y-135808672D01*
X160310766Y-135903527D01*
X160317389Y-135905938D01*
X160317392Y-135905939D01*
X160468687Y-135961006D01*
X160468692Y-135961007D01*
X160475310Y-135963416D01*
X160610547Y-135980500D01*
X160704031Y-135980500D01*
X160834013Y-135965920D01*
X160840666Y-135963603D01*
X160840667Y-135963603D01*
X160925284Y-135934136D01*
X160999377Y-135908334D01*
X161147874Y-135815543D01*
X161255561Y-135708605D01*
X161267124Y-135697123D01*
X161267127Y-135697119D01*
X161272122Y-135692159D01*
X161365948Y-135544314D01*
X161380017Y-135504803D01*
X161416298Y-135402916D01*
X161457992Y-135345452D01*
X161524135Y-135319652D01*
X161593727Y-135333707D01*
X161625633Y-135357655D01*
X161686514Y-135420699D01*
X161836789Y-135519036D01*
X162005116Y-135581636D01*
X162012097Y-135582567D01*
X162012099Y-135582568D01*
X162176149Y-135604457D01*
X162176153Y-135604457D01*
X162183130Y-135605388D01*
X162190142Y-135604750D01*
X162190146Y-135604750D01*
X162354960Y-135589751D01*
X162354961Y-135589751D01*
X162361981Y-135589112D01*
X162532782Y-135533615D01*
X162563714Y-135515176D01*
X162680992Y-135445265D01*
X162680994Y-135445264D01*
X162687044Y-135441657D01*
X162817099Y-135317807D01*
X162822852Y-135309149D01*
X162896380Y-135198479D01*
X162916483Y-135168222D01*
X162964645Y-135041436D01*
X162977757Y-135006919D01*
X162977758Y-135006914D01*
X162980257Y-135000336D01*
X162999653Y-134862328D01*
X163004700Y-134826416D01*
X163004700Y-134826411D01*
X163005251Y-134822493D01*
X163005565Y-134800000D01*
X162985546Y-134621528D01*
X162983229Y-134614874D01*
X162981669Y-134608009D01*
X162983782Y-134607529D01*
X162980778Y-134547042D01*
X163016152Y-134485486D01*
X163079190Y-134452825D01*
X163103286Y-134450500D01*
X163559030Y-134450500D01*
X163627151Y-134470502D01*
X163673644Y-134524158D01*
X163683748Y-134594432D01*
X163677431Y-134619594D01*
X163619433Y-134778941D01*
X163619431Y-134778949D01*
X163617022Y-134785568D01*
X163594514Y-134963743D01*
X163595201Y-134970750D01*
X163595201Y-134970753D01*
X163601828Y-135038338D01*
X163612039Y-135142476D01*
X163614262Y-135149158D01*
X163614262Y-135149159D01*
X163635325Y-135212476D01*
X163668726Y-135312886D01*
X163672373Y-135318908D01*
X163728059Y-135410856D01*
X163761759Y-135466502D01*
X163766648Y-135471565D01*
X163766649Y-135471566D01*
X163842648Y-135550265D01*
X163886514Y-135595689D01*
X164036789Y-135694026D01*
X164205116Y-135756626D01*
X164212097Y-135757557D01*
X164212099Y-135757558D01*
X164376149Y-135779447D01*
X164376153Y-135779447D01*
X164383130Y-135780378D01*
X164390142Y-135779740D01*
X164390146Y-135779740D01*
X164554960Y-135764741D01*
X164554961Y-135764741D01*
X164561981Y-135764102D01*
X164732782Y-135708605D01*
X164738833Y-135704998D01*
X164880992Y-135620255D01*
X164880994Y-135620254D01*
X164887044Y-135616647D01*
X164892143Y-135611791D01*
X164892150Y-135611786D01*
X164895974Y-135608144D01*
X164959098Y-135575651D01*
X165029769Y-135582444D01*
X165085549Y-135626367D01*
X165090184Y-135633367D01*
X165121066Y-135683565D01*
X165134343Y-135697123D01*
X165226119Y-135790841D01*
X165243580Y-135808672D01*
X165390766Y-135903527D01*
X165397389Y-135905938D01*
X165397392Y-135905939D01*
X165548687Y-135961006D01*
X165548692Y-135961007D01*
X165555310Y-135963416D01*
X165690547Y-135980500D01*
X165784031Y-135980500D01*
X165914013Y-135965920D01*
X165920666Y-135963603D01*
X165920667Y-135963603D01*
X166005284Y-135934136D01*
X166079377Y-135908334D01*
X166227874Y-135815543D01*
X166335561Y-135708605D01*
X166347124Y-135697123D01*
X166347127Y-135697119D01*
X166352122Y-135692159D01*
X166445948Y-135544314D01*
X166464533Y-135492122D01*
X166502325Y-135385990D01*
X166502326Y-135385988D01*
X166504687Y-135379356D01*
X166505963Y-135368662D01*
X166524586Y-135212476D01*
X166525420Y-135205483D01*
X166524393Y-135195715D01*
X166507852Y-135038338D01*
X166507852Y-135038336D01*
X166507116Y-135031338D01*
X166450686Y-134865576D01*
X166440941Y-134849735D01*
X166362625Y-134722434D01*
X166362623Y-134722432D01*
X166358934Y-134716435D01*
X166308230Y-134664658D01*
X166274859Y-134601993D01*
X166280665Y-134531234D01*
X166323804Y-134474847D01*
X166390581Y-134450734D01*
X166398253Y-134450500D01*
X167519000Y-134450500D01*
X167530640Y-134451049D01*
X167538296Y-134452760D01*
X167546219Y-134452511D01*
X167608230Y-134450562D01*
X167612188Y-134450500D01*
X167640925Y-134450500D01*
X167645196Y-134449961D01*
X167657024Y-134449029D01*
X167702569Y-134447597D01*
X167710183Y-134445385D01*
X167710188Y-134445384D01*
X167722792Y-134441722D01*
X167742156Y-134437711D01*
X167763058Y-134435071D01*
X167770429Y-134432152D01*
X167770431Y-134432152D01*
X167805420Y-134418298D01*
X167816631Y-134414459D01*
X167860398Y-134401744D01*
X167878536Y-134391018D01*
X167896281Y-134382324D01*
X167915871Y-134374568D01*
X167952738Y-134347782D01*
X167962646Y-134341275D01*
X167995042Y-134322117D01*
X167995047Y-134322113D01*
X168001865Y-134318081D01*
X168016758Y-134303188D01*
X168031792Y-134290347D01*
X168042423Y-134282623D01*
X168048837Y-134277963D01*
X168077880Y-134242856D01*
X168085869Y-134234077D01*
X169397067Y-132922879D01*
X169459328Y-132889353D01*
X169461981Y-132889112D01*
X169632782Y-132833615D01*
X169681984Y-132804285D01*
X169780992Y-132745265D01*
X169780994Y-132745264D01*
X169787044Y-132741657D01*
X169917099Y-132617807D01*
X169937591Y-132586965D01*
X169984850Y-132515834D01*
X170016483Y-132468222D01*
X170044028Y-132395709D01*
X170077757Y-132306919D01*
X170077758Y-132306914D01*
X170080257Y-132300336D01*
X170088186Y-132243918D01*
X170104700Y-132126416D01*
X170104700Y-132126411D01*
X170105251Y-132122493D01*
X170105403Y-132111576D01*
X170105510Y-132103963D01*
X170105510Y-132103958D01*
X170105565Y-132100000D01*
X170085546Y-131921528D01*
X170079427Y-131903955D01*
X170028803Y-131758584D01*
X170026485Y-131751927D01*
X169931316Y-131599625D01*
X169837479Y-131505131D01*
X169809733Y-131477190D01*
X169809729Y-131477187D01*
X169804770Y-131472193D01*
X169795069Y-131466036D01*
X169717527Y-131416827D01*
X169653136Y-131375963D01*
X169623352Y-131365357D01*
X169490586Y-131318081D01*
X169490581Y-131318080D01*
X169483951Y-131315719D01*
X169476965Y-131314886D01*
X169476961Y-131314885D01*
X169349177Y-131299648D01*
X169305624Y-131294455D01*
X169298621Y-131295191D01*
X169298620Y-131295191D01*
X169134025Y-131312490D01*
X169134021Y-131312491D01*
X169127017Y-131313227D01*
X169120346Y-131315498D01*
X168963677Y-131368832D01*
X168963674Y-131368833D01*
X168957007Y-131371103D01*
X168951009Y-131374793D01*
X168951007Y-131374794D01*
X168900935Y-131405599D01*
X168804045Y-131465206D01*
X168799014Y-131470132D01*
X168799011Y-131470135D01*
X168736883Y-131530976D01*
X168675732Y-131590859D01*
X168671913Y-131596784D01*
X168671912Y-131596786D01*
X168650290Y-131630337D01*
X168578446Y-131741817D01*
X168576037Y-131748437D01*
X168576035Y-131748440D01*
X168558178Y-131797503D01*
X168517022Y-131910578D01*
X168516139Y-131917567D01*
X168516137Y-131917576D01*
X168514843Y-131927820D01*
X168486461Y-131992896D01*
X168478932Y-132001122D01*
X167367459Y-133112595D01*
X167305147Y-133146621D01*
X167278364Y-133149500D01*
X159976500Y-133149500D01*
X159908379Y-133129498D01*
X159861886Y-133075842D01*
X159850500Y-133023500D01*
X159850500Y-130758006D01*
X162119014Y-130758006D01*
X162119701Y-130765013D01*
X162119701Y-130765016D01*
X162123128Y-130799964D01*
X162136539Y-130936739D01*
X162138762Y-130943421D01*
X162138762Y-130943422D01*
X162158013Y-131001292D01*
X162193226Y-131107149D01*
X162196873Y-131113171D01*
X162254431Y-131208210D01*
X162286259Y-131260765D01*
X162291148Y-131265828D01*
X162291149Y-131265829D01*
X162336209Y-131312490D01*
X162411014Y-131389952D01*
X162426554Y-131400121D01*
X162472601Y-131454158D01*
X162482124Y-131524513D01*
X162475960Y-131548646D01*
X162419433Y-131703952D01*
X162419432Y-131703957D01*
X162417022Y-131710578D01*
X162394514Y-131888753D01*
X162395201Y-131895760D01*
X162395201Y-131895763D01*
X162400439Y-131949179D01*
X162412039Y-132067486D01*
X162414262Y-132074168D01*
X162414262Y-132074169D01*
X162422967Y-132100336D01*
X162468726Y-132237896D01*
X162472373Y-132243918D01*
X162502319Y-132293364D01*
X162561759Y-132391512D01*
X162566648Y-132396575D01*
X162566649Y-132396576D01*
X162581482Y-132411936D01*
X162686514Y-132520699D01*
X162836789Y-132619036D01*
X163005116Y-132681636D01*
X163012097Y-132682567D01*
X163012099Y-132682568D01*
X163176149Y-132704457D01*
X163176153Y-132704457D01*
X163183130Y-132705388D01*
X163190142Y-132704750D01*
X163190146Y-132704750D01*
X163354960Y-132689751D01*
X163354961Y-132689751D01*
X163361981Y-132689112D01*
X163532782Y-132633615D01*
X163557239Y-132619036D01*
X163680992Y-132545265D01*
X163680994Y-132545264D01*
X163687044Y-132541657D01*
X163817099Y-132417807D01*
X163834570Y-132391512D01*
X163890773Y-132306919D01*
X163916483Y-132268222D01*
X163931168Y-132229564D01*
X163977757Y-132106919D01*
X163977758Y-132106914D01*
X163980257Y-132100336D01*
X164004403Y-131928527D01*
X164004700Y-131926416D01*
X164004700Y-131926411D01*
X164005251Y-131922493D01*
X164005565Y-131900000D01*
X163990283Y-131763763D01*
X164395806Y-131763763D01*
X164396493Y-131770770D01*
X164396493Y-131770773D01*
X164397297Y-131778973D01*
X164413331Y-131942496D01*
X164415554Y-131949178D01*
X164415554Y-131949179D01*
X164465837Y-132100336D01*
X164470018Y-132112906D01*
X164473665Y-132118928D01*
X164549362Y-132243918D01*
X164563051Y-132266522D01*
X164687806Y-132395709D01*
X164838081Y-132494046D01*
X165006408Y-132556646D01*
X165013389Y-132557577D01*
X165013391Y-132557578D01*
X165177441Y-132579467D01*
X165177445Y-132579467D01*
X165184422Y-132580398D01*
X165191434Y-132579760D01*
X165191438Y-132579760D01*
X165356252Y-132564761D01*
X165356253Y-132564761D01*
X165363273Y-132564122D01*
X165534074Y-132508625D01*
X165549026Y-132499712D01*
X165682284Y-132420275D01*
X165682286Y-132420274D01*
X165688336Y-132416667D01*
X165818391Y-132292817D01*
X165835862Y-132266522D01*
X165913874Y-132149103D01*
X165917775Y-132143232D01*
X165971758Y-132001122D01*
X165979049Y-131981929D01*
X165979050Y-131981924D01*
X165981549Y-131975346D01*
X165990048Y-131914874D01*
X166005992Y-131801426D01*
X166005992Y-131801421D01*
X166006543Y-131797503D01*
X166006857Y-131775010D01*
X165986838Y-131596538D01*
X165980719Y-131578965D01*
X165927777Y-131426937D01*
X165930767Y-131425896D01*
X165921572Y-131369642D01*
X165928823Y-131340429D01*
X165929295Y-131339188D01*
X165981549Y-131201628D01*
X165990565Y-131137475D01*
X166005992Y-131027708D01*
X166005992Y-131027703D01*
X166006543Y-131023785D01*
X166006857Y-131001292D01*
X165986838Y-130822820D01*
X165980719Y-130805247D01*
X165930095Y-130659876D01*
X165927777Y-130653219D01*
X165898918Y-130607034D01*
X165836341Y-130506891D01*
X165832608Y-130500917D01*
X165760036Y-130427837D01*
X165711025Y-130378482D01*
X165711021Y-130378479D01*
X165706062Y-130373485D01*
X165695053Y-130366498D01*
X165648152Y-130336734D01*
X165554428Y-130277255D01*
X165506285Y-130260112D01*
X165391878Y-130219373D01*
X165391873Y-130219372D01*
X165385243Y-130217011D01*
X165378257Y-130216178D01*
X165378253Y-130216177D01*
X165250469Y-130200940D01*
X165206916Y-130195747D01*
X165199913Y-130196483D01*
X165199912Y-130196483D01*
X165035317Y-130213782D01*
X165035313Y-130213783D01*
X165028309Y-130214519D01*
X165021638Y-130216790D01*
X164864969Y-130270124D01*
X164864966Y-130270125D01*
X164858299Y-130272395D01*
X164852301Y-130276085D01*
X164852299Y-130276086D01*
X164781818Y-130319447D01*
X164705337Y-130366498D01*
X164700306Y-130371424D01*
X164700303Y-130371427D01*
X164693099Y-130378482D01*
X164577024Y-130492151D01*
X164573205Y-130498076D01*
X164573204Y-130498078D01*
X164505841Y-130602605D01*
X164479738Y-130643109D01*
X164418314Y-130811870D01*
X164395806Y-130990045D01*
X164396493Y-130997052D01*
X164396493Y-130997055D01*
X164397297Y-131005255D01*
X164413331Y-131168778D01*
X164470018Y-131339188D01*
X164470243Y-131339559D01*
X164480276Y-131407200D01*
X164473882Y-131432917D01*
X164418314Y-131585588D01*
X164395806Y-131763763D01*
X163990283Y-131763763D01*
X163985546Y-131721528D01*
X163979426Y-131703952D01*
X163953790Y-131630337D01*
X163926485Y-131551927D01*
X163885461Y-131486274D01*
X163835049Y-131405599D01*
X163831316Y-131399625D01*
X163750339Y-131318081D01*
X163709733Y-131277190D01*
X163709729Y-131277187D01*
X163704770Y-131272193D01*
X163698823Y-131268419D01*
X163693334Y-131264006D01*
X163694126Y-131263020D01*
X163652106Y-131215083D01*
X163641601Y-131144868D01*
X163648631Y-131117343D01*
X163702256Y-130976175D01*
X163702258Y-130976169D01*
X163704757Y-130969589D01*
X163719987Y-130861222D01*
X163729200Y-130795669D01*
X163729200Y-130795664D01*
X163729751Y-130791746D01*
X163730065Y-130769253D01*
X163710046Y-130590781D01*
X163703927Y-130573208D01*
X163653303Y-130427837D01*
X163650985Y-130421180D01*
X163614510Y-130362807D01*
X163559549Y-130274852D01*
X163555816Y-130268878D01*
X163483924Y-130196483D01*
X163434233Y-130146443D01*
X163434229Y-130146440D01*
X163429270Y-130141446D01*
X163418261Y-130134459D01*
X163371360Y-130104695D01*
X163277636Y-130045216D01*
X163247852Y-130034610D01*
X163115086Y-129987334D01*
X163115081Y-129987333D01*
X163108451Y-129984972D01*
X163101465Y-129984139D01*
X163101461Y-129984138D01*
X162973677Y-129968901D01*
X162930124Y-129963708D01*
X162923121Y-129964444D01*
X162923120Y-129964444D01*
X162758525Y-129981743D01*
X162758521Y-129981744D01*
X162751517Y-129982480D01*
X162744846Y-129984751D01*
X162588177Y-130038085D01*
X162588174Y-130038086D01*
X162581507Y-130040356D01*
X162575509Y-130044046D01*
X162575507Y-130044047D01*
X162562827Y-130051848D01*
X162428545Y-130134459D01*
X162423514Y-130139385D01*
X162423511Y-130139388D01*
X162416307Y-130146443D01*
X162300232Y-130260112D01*
X162296413Y-130266037D01*
X162296412Y-130266039D01*
X162206765Y-130405144D01*
X162202946Y-130411070D01*
X162141522Y-130579831D01*
X162119014Y-130758006D01*
X159850500Y-130758006D01*
X159850500Y-128097719D01*
X159870502Y-128029598D01*
X159924158Y-127983105D01*
X159994432Y-127973001D01*
X160059012Y-128002495D01*
X160066523Y-128009561D01*
X160140023Y-128084616D01*
X160163580Y-128108672D01*
X160310766Y-128203527D01*
X160317389Y-128205938D01*
X160317392Y-128205939D01*
X160468687Y-128261006D01*
X160468692Y-128261007D01*
X160475310Y-128263416D01*
X160610547Y-128280500D01*
X160704031Y-128280500D01*
X160834013Y-128265920D01*
X160840666Y-128263603D01*
X160840667Y-128263603D01*
X160908059Y-128240134D01*
X160999377Y-128208334D01*
X161147874Y-128115543D01*
X161234421Y-128029598D01*
X161267124Y-127997123D01*
X161267127Y-127997119D01*
X161272122Y-127992159D01*
X161365948Y-127844314D01*
X161418712Y-127696137D01*
X161422325Y-127685990D01*
X161422326Y-127685988D01*
X161424687Y-127679356D01*
X161425576Y-127671907D01*
X161444586Y-127512476D01*
X161445420Y-127505483D01*
X161444684Y-127498479D01*
X161427852Y-127338338D01*
X161427852Y-127338336D01*
X161427116Y-127331338D01*
X161370686Y-127165576D01*
X161356001Y-127141706D01*
X161282625Y-127022434D01*
X161282623Y-127022432D01*
X161278934Y-127016435D01*
X161174411Y-126909700D01*
X161161348Y-126896360D01*
X161161347Y-126896359D01*
X161156420Y-126891328D01*
X161009234Y-126796473D01*
X161002611Y-126794062D01*
X161002608Y-126794061D01*
X160851313Y-126738994D01*
X160851308Y-126738993D01*
X160844690Y-126736584D01*
X160709453Y-126719500D01*
X160615969Y-126719500D01*
X160485987Y-126734080D01*
X160479334Y-126736397D01*
X160479333Y-126736397D01*
X160471876Y-126738994D01*
X160320623Y-126791666D01*
X160172126Y-126884457D01*
X160079633Y-126976307D01*
X160065284Y-126990556D01*
X160002853Y-127024363D01*
X159932056Y-127019051D01*
X159875369Y-126976307D01*
X159850790Y-126909700D01*
X159850500Y-126901150D01*
X159850500Y-125881001D01*
X159851049Y-125869360D01*
X159852760Y-125861704D01*
X159850562Y-125791756D01*
X159850500Y-125787799D01*
X159850500Y-125759075D01*
X159849962Y-125754812D01*
X159849029Y-125742973D01*
X159847847Y-125705357D01*
X159847598Y-125697431D01*
X159841719Y-125677193D01*
X159837711Y-125657839D01*
X159836065Y-125644808D01*
X159836065Y-125644806D01*
X159835071Y-125636942D01*
X159828954Y-125621492D01*
X159818301Y-125594584D01*
X159814456Y-125583354D01*
X159803956Y-125547212D01*
X159803956Y-125547211D01*
X159801745Y-125539602D01*
X159797712Y-125532783D01*
X159797710Y-125532778D01*
X159791020Y-125521467D01*
X159782320Y-125503708D01*
X159777488Y-125491504D01*
X159774568Y-125484129D01*
X159747791Y-125447273D01*
X159741275Y-125437353D01*
X159722119Y-125404963D01*
X159718081Y-125398135D01*
X159703188Y-125383242D01*
X159690347Y-125368208D01*
X159682623Y-125357577D01*
X159677963Y-125351163D01*
X159642856Y-125322120D01*
X159634077Y-125314131D01*
X158785541Y-124465595D01*
X158751515Y-124403283D01*
X158756580Y-124332468D01*
X158799127Y-124275632D01*
X158865647Y-124250821D01*
X158874636Y-124250500D01*
X159422818Y-124250500D01*
X159490939Y-124270502D01*
X159537432Y-124324158D01*
X159548756Y-124372540D01*
X159549438Y-124394228D01*
X159549500Y-124398188D01*
X159549500Y-124426925D01*
X159549995Y-124430842D01*
X159550039Y-124431191D01*
X159550971Y-124443024D01*
X159552403Y-124488569D01*
X159554615Y-124496183D01*
X159554616Y-124496188D01*
X159558278Y-124508792D01*
X159562289Y-124528156D01*
X159564929Y-124549058D01*
X159567848Y-124556429D01*
X159567848Y-124556431D01*
X159581702Y-124591420D01*
X159585541Y-124602631D01*
X159598256Y-124646398D01*
X159606281Y-124659968D01*
X159608981Y-124664533D01*
X159617676Y-124682281D01*
X159625432Y-124701871D01*
X159652218Y-124738738D01*
X159658725Y-124748646D01*
X159677883Y-124781042D01*
X159677887Y-124781047D01*
X159681919Y-124787865D01*
X159696812Y-124802758D01*
X159709653Y-124817792D01*
X159722037Y-124834837D01*
X159728145Y-124839890D01*
X159757143Y-124863879D01*
X159765923Y-124871869D01*
X162394299Y-127500245D01*
X162402141Y-127508862D01*
X162406345Y-127515487D01*
X162412123Y-127520913D01*
X162412124Y-127520914D01*
X162420405Y-127528690D01*
X162441929Y-127555270D01*
X162454036Y-127575261D01*
X162462392Y-127589059D01*
X162467281Y-127594122D01*
X162467282Y-127594123D01*
X162505401Y-127633596D01*
X162587147Y-127718246D01*
X162737422Y-127816583D01*
X162905749Y-127879183D01*
X162912730Y-127880114D01*
X162912732Y-127880115D01*
X163076782Y-127902004D01*
X163076786Y-127902004D01*
X163083763Y-127902935D01*
X163090775Y-127902297D01*
X163090779Y-127902297D01*
X163255593Y-127887298D01*
X163255594Y-127887298D01*
X163262614Y-127886659D01*
X163411395Y-127838317D01*
X163482360Y-127836289D01*
X163540965Y-127870623D01*
X163553204Y-127883296D01*
X163569880Y-127900565D01*
X163720155Y-127998902D01*
X163888482Y-128061502D01*
X163895463Y-128062433D01*
X163895465Y-128062434D01*
X164059515Y-128084323D01*
X164059519Y-128084323D01*
X164066496Y-128085254D01*
X164073508Y-128084616D01*
X164073512Y-128084616D01*
X164238326Y-128069617D01*
X164238327Y-128069617D01*
X164245347Y-128068978D01*
X164416148Y-128013481D01*
X164433225Y-128003301D01*
X164564358Y-127925131D01*
X164564360Y-127925130D01*
X164570410Y-127921523D01*
X164700465Y-127797673D01*
X164767926Y-127696136D01*
X164822282Y-127650467D01*
X164892702Y-127641434D01*
X164956826Y-127671907D01*
X164992151Y-127725258D01*
X165029314Y-127834424D01*
X165033004Y-127840422D01*
X165033005Y-127840424D01*
X165104668Y-127956910D01*
X165121066Y-127983565D01*
X165138490Y-128001358D01*
X165220023Y-128084616D01*
X165243580Y-128108672D01*
X165390766Y-128203527D01*
X165397389Y-128205938D01*
X165397392Y-128205939D01*
X165548687Y-128261006D01*
X165548692Y-128261007D01*
X165555310Y-128263416D01*
X165690547Y-128280500D01*
X165784031Y-128280500D01*
X165914013Y-128265920D01*
X165920666Y-128263603D01*
X165920667Y-128263603D01*
X165988059Y-128240134D01*
X166079377Y-128208334D01*
X166227874Y-128115543D01*
X166314421Y-128029598D01*
X166347124Y-127997123D01*
X166347127Y-127997119D01*
X166352122Y-127992159D01*
X166445948Y-127844314D01*
X166483540Y-127738744D01*
X173344505Y-127738744D01*
X173345192Y-127745751D01*
X173345192Y-127745754D01*
X173345996Y-127753954D01*
X173362030Y-127917477D01*
X173364253Y-127924159D01*
X173364253Y-127924160D01*
X173372958Y-127950327D01*
X173418717Y-128087887D01*
X173422364Y-128093909D01*
X173490212Y-128205939D01*
X173511750Y-128241503D01*
X173516639Y-128246566D01*
X173516640Y-128246567D01*
X173549409Y-128280500D01*
X173636505Y-128370690D01*
X173786780Y-128469027D01*
X173955107Y-128531627D01*
X173962088Y-128532558D01*
X173962090Y-128532559D01*
X174126140Y-128554448D01*
X174126144Y-128554448D01*
X174133121Y-128555379D01*
X174140133Y-128554741D01*
X174140137Y-128554741D01*
X174304951Y-128539742D01*
X174304952Y-128539742D01*
X174311972Y-128539103D01*
X174482773Y-128483606D01*
X174513705Y-128465167D01*
X174630983Y-128395256D01*
X174630985Y-128395255D01*
X174637035Y-128391648D01*
X174767090Y-128267798D01*
X174784561Y-128241503D01*
X174862573Y-128124084D01*
X174866474Y-128118213D01*
X174886004Y-128066800D01*
X174927748Y-127956910D01*
X174927749Y-127956905D01*
X174930248Y-127950327D01*
X174935850Y-127910467D01*
X174954691Y-127776407D01*
X174954691Y-127776402D01*
X174955242Y-127772484D01*
X174955556Y-127749991D01*
X174935537Y-127571519D01*
X174929418Y-127553946D01*
X174878794Y-127408575D01*
X174876476Y-127401918D01*
X174781307Y-127249616D01*
X174704475Y-127172246D01*
X174659724Y-127127181D01*
X174659720Y-127127178D01*
X174654761Y-127122184D01*
X174643752Y-127115197D01*
X174554135Y-127058325D01*
X174503127Y-127025954D01*
X174452260Y-127007841D01*
X174340577Y-126968072D01*
X174340572Y-126968071D01*
X174333942Y-126965710D01*
X174326956Y-126964877D01*
X174326952Y-126964876D01*
X174199168Y-126949639D01*
X174155615Y-126944446D01*
X174148612Y-126945182D01*
X174148611Y-126945182D01*
X173984016Y-126962481D01*
X173984012Y-126962482D01*
X173977008Y-126963218D01*
X173970337Y-126965489D01*
X173813668Y-127018823D01*
X173813665Y-127018824D01*
X173806998Y-127021094D01*
X173801000Y-127024784D01*
X173800998Y-127024785D01*
X173746480Y-127058325D01*
X173654036Y-127115197D01*
X173649005Y-127120123D01*
X173649002Y-127120126D01*
X173595779Y-127172246D01*
X173525723Y-127240850D01*
X173521904Y-127246775D01*
X173521903Y-127246777D01*
X173508215Y-127268017D01*
X173428437Y-127391808D01*
X173367013Y-127560569D01*
X173344505Y-127738744D01*
X166483540Y-127738744D01*
X166498712Y-127696137D01*
X166502325Y-127685990D01*
X166502326Y-127685988D01*
X166504687Y-127679356D01*
X166505576Y-127671907D01*
X166524586Y-127512476D01*
X166525420Y-127505483D01*
X166524684Y-127498479D01*
X166507852Y-127338338D01*
X166507852Y-127338336D01*
X166507116Y-127331338D01*
X166450686Y-127165576D01*
X166436001Y-127141706D01*
X166362625Y-127022434D01*
X166362623Y-127022432D01*
X166358934Y-127016435D01*
X166254411Y-126909700D01*
X166241348Y-126896360D01*
X166241347Y-126896359D01*
X166236420Y-126891328D01*
X166089234Y-126796473D01*
X166082611Y-126794062D01*
X166082608Y-126794061D01*
X165931313Y-126738994D01*
X165931308Y-126738993D01*
X165924690Y-126736584D01*
X165789453Y-126719500D01*
X165695969Y-126719500D01*
X165565987Y-126734080D01*
X165559334Y-126736397D01*
X165559333Y-126736397D01*
X165551876Y-126738994D01*
X165400623Y-126791666D01*
X165252126Y-126884457D01*
X165206285Y-126929979D01*
X165132876Y-127002877D01*
X165132873Y-127002881D01*
X165127878Y-127007841D01*
X165124103Y-127013790D01*
X165124101Y-127013792D01*
X165079290Y-127084402D01*
X165025901Y-127131201D01*
X164955686Y-127141706D01*
X164890938Y-127112582D01*
X164853914Y-127058325D01*
X164825352Y-126976307D01*
X164809851Y-126931793D01*
X164777940Y-126880724D01*
X164718415Y-126785465D01*
X164714682Y-126779491D01*
X164651137Y-126715501D01*
X164593099Y-126657056D01*
X164593095Y-126657053D01*
X164588136Y-126652059D01*
X164436502Y-126555829D01*
X164374118Y-126533615D01*
X164273952Y-126497947D01*
X164273947Y-126497946D01*
X164267317Y-126495585D01*
X164260331Y-126494752D01*
X164260327Y-126494751D01*
X164132543Y-126479514D01*
X164088990Y-126474321D01*
X164081987Y-126475057D01*
X164081986Y-126475057D01*
X163917391Y-126492356D01*
X163917387Y-126492357D01*
X163910383Y-126493093D01*
X163903712Y-126495364D01*
X163774320Y-126539412D01*
X163703388Y-126542430D01*
X163644310Y-126508919D01*
X163610366Y-126474738D01*
X163605403Y-126469740D01*
X163453769Y-126373510D01*
X163423985Y-126362904D01*
X163291219Y-126315628D01*
X163291214Y-126315627D01*
X163284584Y-126313266D01*
X163277598Y-126312433D01*
X163277594Y-126312432D01*
X163144616Y-126296576D01*
X163106257Y-126292002D01*
X163099254Y-126292738D01*
X163099252Y-126292738D01*
X163093354Y-126293358D01*
X163023516Y-126280586D01*
X162991089Y-126257143D01*
X162522699Y-125788753D01*
X176494514Y-125788753D01*
X176495201Y-125795760D01*
X176495201Y-125795763D01*
X176496005Y-125803963D01*
X176512039Y-125967486D01*
X176514262Y-125974168D01*
X176514262Y-125974169D01*
X176536478Y-126040952D01*
X176568726Y-126137896D01*
X176572373Y-126143918D01*
X176636794Y-126250289D01*
X176661759Y-126291512D01*
X176666648Y-126296575D01*
X176666649Y-126296576D01*
X176687152Y-126317807D01*
X176786514Y-126420699D01*
X176936789Y-126519036D01*
X177105116Y-126581636D01*
X177112097Y-126582567D01*
X177112099Y-126582568D01*
X177276149Y-126604457D01*
X177276153Y-126604457D01*
X177283130Y-126605388D01*
X177290142Y-126604750D01*
X177290146Y-126604750D01*
X177454960Y-126589751D01*
X177454961Y-126589751D01*
X177461981Y-126589112D01*
X177632782Y-126533615D01*
X177692616Y-126497947D01*
X177780992Y-126445265D01*
X177780994Y-126445264D01*
X177787044Y-126441657D01*
X177917099Y-126317807D01*
X177934570Y-126291512D01*
X178012582Y-126174093D01*
X178016483Y-126168222D01*
X178031168Y-126129564D01*
X178077757Y-126006919D01*
X178077758Y-126006914D01*
X178080257Y-126000336D01*
X178089150Y-125937058D01*
X178104700Y-125826416D01*
X178104700Y-125826411D01*
X178105251Y-125822493D01*
X178105565Y-125800000D01*
X178085546Y-125621528D01*
X178079427Y-125603955D01*
X178057732Y-125541657D01*
X178026485Y-125451927D01*
X178020575Y-125442468D01*
X177935049Y-125305599D01*
X177931316Y-125299625D01*
X177863384Y-125231217D01*
X177809733Y-125177190D01*
X177809729Y-125177187D01*
X177804770Y-125172193D01*
X177793761Y-125165206D01*
X177746860Y-125135442D01*
X177653136Y-125075963D01*
X177623352Y-125065357D01*
X177490586Y-125018081D01*
X177490581Y-125018080D01*
X177483951Y-125015719D01*
X177476965Y-125014886D01*
X177476961Y-125014885D01*
X177349177Y-124999648D01*
X177305624Y-124994455D01*
X177298621Y-124995191D01*
X177298620Y-124995191D01*
X177134025Y-125012490D01*
X177134021Y-125012491D01*
X177127017Y-125013227D01*
X177120346Y-125015498D01*
X176963677Y-125068832D01*
X176963674Y-125068833D01*
X176957007Y-125071103D01*
X176951009Y-125074793D01*
X176951007Y-125074794D01*
X176898789Y-125106919D01*
X176804045Y-125165206D01*
X176799014Y-125170132D01*
X176799011Y-125170135D01*
X176791807Y-125177190D01*
X176675732Y-125290859D01*
X176671913Y-125296784D01*
X176671912Y-125296786D01*
X176632735Y-125357577D01*
X176578446Y-125441817D01*
X176576037Y-125448437D01*
X176576035Y-125448440D01*
X176552563Y-125512930D01*
X176517022Y-125610578D01*
X176494514Y-125788753D01*
X162522699Y-125788753D01*
X161622699Y-124888753D01*
X174394514Y-124888753D01*
X174395201Y-124895760D01*
X174395201Y-124895763D01*
X174403276Y-124978119D01*
X174412039Y-125067486D01*
X174414262Y-125074168D01*
X174414262Y-125074169D01*
X174444546Y-125165206D01*
X174468726Y-125237896D01*
X174472373Y-125243918D01*
X174556751Y-125383242D01*
X174561759Y-125391512D01*
X174566648Y-125396575D01*
X174566649Y-125396576D01*
X174581482Y-125411936D01*
X174686514Y-125520699D01*
X174836789Y-125619036D01*
X175005116Y-125681636D01*
X175012097Y-125682567D01*
X175012099Y-125682568D01*
X175176149Y-125704457D01*
X175176153Y-125704457D01*
X175183130Y-125705388D01*
X175190142Y-125704750D01*
X175190146Y-125704750D01*
X175354960Y-125689751D01*
X175354961Y-125689751D01*
X175361981Y-125689112D01*
X175532782Y-125633615D01*
X175571427Y-125610578D01*
X175680992Y-125545265D01*
X175680994Y-125545264D01*
X175687044Y-125541657D01*
X175817099Y-125417807D01*
X175833604Y-125392966D01*
X175895619Y-125299625D01*
X175916483Y-125268222D01*
X175954395Y-125168418D01*
X175977757Y-125106919D01*
X175977758Y-125106914D01*
X175980257Y-125100336D01*
X175983151Y-125079742D01*
X176004700Y-124926416D01*
X176004700Y-124926411D01*
X176005251Y-124922493D01*
X176005565Y-124900000D01*
X175985546Y-124721528D01*
X175979926Y-124705388D01*
X175954932Y-124633615D01*
X175926485Y-124551927D01*
X175915043Y-124533615D01*
X175835049Y-124405599D01*
X175831316Y-124399625D01*
X175746470Y-124314185D01*
X175709733Y-124277190D01*
X175709729Y-124277187D01*
X175704770Y-124272193D01*
X175693761Y-124265206D01*
X175646860Y-124235442D01*
X175553136Y-124175963D01*
X175523352Y-124165357D01*
X175390586Y-124118081D01*
X175390581Y-124118080D01*
X175383951Y-124115719D01*
X175376965Y-124114886D01*
X175376961Y-124114885D01*
X175249177Y-124099648D01*
X175205624Y-124094455D01*
X175198621Y-124095191D01*
X175198620Y-124095191D01*
X175034025Y-124112490D01*
X175034021Y-124112491D01*
X175027017Y-124113227D01*
X175020346Y-124115498D01*
X174863677Y-124168832D01*
X174863674Y-124168833D01*
X174857007Y-124171103D01*
X174851009Y-124174793D01*
X174851007Y-124174794D01*
X174780526Y-124218155D01*
X174704045Y-124265206D01*
X174699014Y-124270132D01*
X174699011Y-124270135D01*
X174693398Y-124275632D01*
X174575732Y-124390859D01*
X174571913Y-124396784D01*
X174571912Y-124396786D01*
X174527568Y-124465595D01*
X174478446Y-124541817D01*
X174476037Y-124548437D01*
X174476035Y-124548440D01*
X174467276Y-124572506D01*
X174417022Y-124710578D01*
X174394514Y-124888753D01*
X161622699Y-124888753D01*
X161527041Y-124793095D01*
X161493015Y-124730783D01*
X161498080Y-124659968D01*
X161540627Y-124603132D01*
X161577200Y-124584167D01*
X161726082Y-124535792D01*
X161732782Y-124533615D01*
X161765858Y-124513898D01*
X161880992Y-124445265D01*
X161880994Y-124445264D01*
X161887044Y-124441657D01*
X161939636Y-124391574D01*
X161952620Y-124379210D01*
X162015745Y-124346718D01*
X162086416Y-124353511D01*
X162136695Y-124391574D01*
X162136759Y-124391512D01*
X162141649Y-124396576D01*
X162141650Y-124396577D01*
X162170957Y-124426925D01*
X162261514Y-124520699D01*
X162411789Y-124619036D01*
X162580116Y-124681636D01*
X162587097Y-124682567D01*
X162587099Y-124682568D01*
X162751149Y-124704457D01*
X162751153Y-124704457D01*
X162758130Y-124705388D01*
X162765142Y-124704750D01*
X162765146Y-124704750D01*
X162929960Y-124689751D01*
X162929961Y-124689751D01*
X162936981Y-124689112D01*
X163107782Y-124633615D01*
X163169299Y-124596944D01*
X163255992Y-124545265D01*
X163255994Y-124545264D01*
X163262044Y-124541657D01*
X163392099Y-124417807D01*
X163406066Y-124396786D01*
X163448798Y-124332468D01*
X163491483Y-124268222D01*
X163506168Y-124229564D01*
X163552757Y-124106919D01*
X163552758Y-124106914D01*
X163555257Y-124100336D01*
X163559874Y-124067488D01*
X163570400Y-123992588D01*
X163599688Y-123927914D01*
X163659264Y-123889359D01*
X163661981Y-123889112D01*
X163667974Y-123887165D01*
X163667977Y-123887164D01*
X163826082Y-123835792D01*
X163832782Y-123833615D01*
X163838833Y-123830008D01*
X163980992Y-123745265D01*
X163980994Y-123745264D01*
X163987044Y-123741657D01*
X164117099Y-123617807D01*
X164216483Y-123468222D01*
X164231168Y-123429564D01*
X164277757Y-123306919D01*
X164277758Y-123306914D01*
X164280257Y-123300336D01*
X164281237Y-123293364D01*
X164304700Y-123126416D01*
X164304700Y-123126411D01*
X164305251Y-123122493D01*
X164305565Y-123100000D01*
X164285546Y-122921528D01*
X164279427Y-122903955D01*
X164230226Y-122762669D01*
X164226485Y-122751927D01*
X164221481Y-122743918D01*
X164135049Y-122605599D01*
X164131316Y-122599625D01*
X164120520Y-122588753D01*
X174319014Y-122588753D01*
X174319701Y-122595760D01*
X174319701Y-122595763D01*
X174320795Y-122606919D01*
X174336539Y-122767486D01*
X174338762Y-122774168D01*
X174338762Y-122774169D01*
X174384810Y-122912595D01*
X174393226Y-122937896D01*
X174396873Y-122943918D01*
X174472524Y-123068832D01*
X174486259Y-123091512D01*
X174491148Y-123096575D01*
X174491149Y-123096576D01*
X174527714Y-123134440D01*
X174611014Y-123220699D01*
X174761289Y-123319036D01*
X174929616Y-123381636D01*
X174936597Y-123382567D01*
X174936599Y-123382568D01*
X175100649Y-123404457D01*
X175100653Y-123404457D01*
X175107630Y-123405388D01*
X175114642Y-123404750D01*
X175114646Y-123404750D01*
X175279460Y-123389751D01*
X175279461Y-123389751D01*
X175286481Y-123389112D01*
X175457282Y-123333615D01*
X175500732Y-123307714D01*
X175605492Y-123245265D01*
X175605494Y-123245264D01*
X175611544Y-123241657D01*
X175741599Y-123117807D01*
X175755259Y-123097248D01*
X175809426Y-123015719D01*
X175840983Y-122968222D01*
X175868199Y-122896576D01*
X175902257Y-122806919D01*
X175902258Y-122806914D01*
X175904757Y-122800336D01*
X175910625Y-122758584D01*
X175929200Y-122626416D01*
X175929200Y-122626411D01*
X175929751Y-122622493D01*
X175929903Y-122611576D01*
X175930010Y-122603963D01*
X175930010Y-122603958D01*
X175930065Y-122600000D01*
X175910046Y-122421528D01*
X175903927Y-122403955D01*
X175853303Y-122258584D01*
X175850985Y-122251927D01*
X175803695Y-122176247D01*
X175784559Y-122107878D01*
X175805424Y-122040016D01*
X175859666Y-121994208D01*
X175927212Y-121984584D01*
X175991876Y-121993212D01*
X176076149Y-122004457D01*
X176076153Y-122004457D01*
X176083130Y-122005388D01*
X176090142Y-122004750D01*
X176090146Y-122004750D01*
X176254960Y-121989751D01*
X176254961Y-121989751D01*
X176261981Y-121989112D01*
X176432782Y-121933615D01*
X176494564Y-121896786D01*
X176580992Y-121845265D01*
X176580994Y-121845264D01*
X176587044Y-121841657D01*
X176717099Y-121717807D01*
X176734570Y-121691512D01*
X176812582Y-121574093D01*
X176816483Y-121568222D01*
X176831168Y-121529564D01*
X176877757Y-121406919D01*
X176877758Y-121406914D01*
X176880257Y-121400336D01*
X176905251Y-121222493D01*
X176905565Y-121200000D01*
X176885546Y-121021528D01*
X176879427Y-121003955D01*
X176828803Y-120858584D01*
X176826485Y-120851927D01*
X176731316Y-120699625D01*
X176667771Y-120635635D01*
X176609733Y-120577190D01*
X176609729Y-120577187D01*
X176604770Y-120572193D01*
X176593761Y-120565206D01*
X176521008Y-120519036D01*
X176453136Y-120475963D01*
X176403603Y-120458325D01*
X176290586Y-120418081D01*
X176290581Y-120418080D01*
X176283951Y-120415719D01*
X176276965Y-120414886D01*
X176276961Y-120414885D01*
X176149177Y-120399648D01*
X176105624Y-120394455D01*
X176098621Y-120395191D01*
X176098620Y-120395191D01*
X175934025Y-120412490D01*
X175934021Y-120412491D01*
X175927017Y-120413227D01*
X175920346Y-120415498D01*
X175763677Y-120468832D01*
X175763674Y-120468833D01*
X175757007Y-120471103D01*
X175751009Y-120474793D01*
X175751007Y-120474794D01*
X175742532Y-120480008D01*
X175604045Y-120565206D01*
X175599014Y-120570132D01*
X175599011Y-120570135D01*
X175578980Y-120589751D01*
X175475732Y-120690859D01*
X175471913Y-120696784D01*
X175471912Y-120696786D01*
X175382265Y-120835891D01*
X175378446Y-120841817D01*
X175317022Y-121010578D01*
X175294514Y-121188753D01*
X175295201Y-121195760D01*
X175295201Y-121195763D01*
X175296005Y-121203963D01*
X175312039Y-121367486D01*
X175314262Y-121374168D01*
X175314262Y-121374169D01*
X175322967Y-121400336D01*
X175368726Y-121537896D01*
X175372373Y-121543918D01*
X175420943Y-121624117D01*
X175439122Y-121692747D01*
X175417312Y-121760310D01*
X175362436Y-121805356D01*
X175298249Y-121814502D01*
X175137118Y-121795289D01*
X175130124Y-121794455D01*
X175123121Y-121795191D01*
X175123120Y-121795191D01*
X174958525Y-121812490D01*
X174958521Y-121812491D01*
X174951517Y-121813227D01*
X174944846Y-121815498D01*
X174788177Y-121868832D01*
X174788174Y-121868833D01*
X174781507Y-121871103D01*
X174775509Y-121874793D01*
X174775507Y-121874794D01*
X174750641Y-121890092D01*
X174628545Y-121965206D01*
X174623514Y-121970132D01*
X174623511Y-121970135D01*
X174603480Y-121989751D01*
X174500232Y-122090859D01*
X174496413Y-122096784D01*
X174496412Y-122096786D01*
X174489264Y-122107878D01*
X174402946Y-122241817D01*
X174341522Y-122410578D01*
X174319014Y-122588753D01*
X164120520Y-122588753D01*
X164057811Y-122525605D01*
X164009733Y-122477190D01*
X164009729Y-122477187D01*
X164004770Y-122472193D01*
X163993761Y-122465206D01*
X163907680Y-122410578D01*
X163853136Y-122375963D01*
X163823352Y-122365357D01*
X163690586Y-122318081D01*
X163690581Y-122318080D01*
X163683951Y-122315719D01*
X163676965Y-122314886D01*
X163676961Y-122314885D01*
X163549177Y-122299648D01*
X163505624Y-122294455D01*
X163498621Y-122295191D01*
X163498620Y-122295191D01*
X163334025Y-122312490D01*
X163334021Y-122312491D01*
X163327017Y-122313227D01*
X163320346Y-122315498D01*
X163163677Y-122368832D01*
X163163674Y-122368833D01*
X163157007Y-122371103D01*
X163151009Y-122374793D01*
X163151007Y-122374794D01*
X163128317Y-122388753D01*
X163004045Y-122465206D01*
X162999014Y-122470132D01*
X162999011Y-122470135D01*
X162991807Y-122477190D01*
X162875732Y-122590859D01*
X162871913Y-122596784D01*
X162871912Y-122596786D01*
X162865382Y-122606919D01*
X162778446Y-122741817D01*
X162776037Y-122748437D01*
X162776035Y-122748440D01*
X162770856Y-122762669D01*
X162717022Y-122910578D01*
X162708999Y-122974093D01*
X162705012Y-123005652D01*
X162676630Y-123070729D01*
X162617570Y-123110131D01*
X162608465Y-123112549D01*
X162602017Y-123113227D01*
X162595346Y-123115498D01*
X162438677Y-123168832D01*
X162438674Y-123168833D01*
X162432007Y-123171103D01*
X162426009Y-123174793D01*
X162426007Y-123174794D01*
X162402734Y-123189112D01*
X162279045Y-123265206D01*
X162274014Y-123270132D01*
X162274011Y-123270135D01*
X162223628Y-123319474D01*
X162160963Y-123352844D01*
X162090204Y-123347038D01*
X162036725Y-123307714D01*
X162035050Y-123305600D01*
X162031316Y-123299625D01*
X162002031Y-123270135D01*
X161909733Y-123177190D01*
X161909729Y-123177187D01*
X161904770Y-123172193D01*
X161893761Y-123165206D01*
X161815433Y-123115498D01*
X161753136Y-123075963D01*
X161723352Y-123065357D01*
X161590586Y-123018081D01*
X161590581Y-123018080D01*
X161583951Y-123015719D01*
X161576965Y-123014886D01*
X161576961Y-123014885D01*
X161449177Y-122999648D01*
X161405624Y-122994455D01*
X161398621Y-122995191D01*
X161398620Y-122995191D01*
X161234025Y-123012490D01*
X161234021Y-123012491D01*
X161227017Y-123013227D01*
X161220346Y-123015498D01*
X161063677Y-123068832D01*
X161063674Y-123068833D01*
X161057007Y-123071103D01*
X161051011Y-123074792D01*
X161051004Y-123074795D01*
X160984384Y-123115781D01*
X160915883Y-123134440D01*
X160848169Y-123113102D01*
X160828958Y-123097250D01*
X160750339Y-123018081D01*
X160709733Y-122977190D01*
X160709729Y-122977187D01*
X160704770Y-122972193D01*
X160688134Y-122961635D01*
X160639572Y-122930817D01*
X160553136Y-122875963D01*
X160523352Y-122865357D01*
X160390586Y-122818081D01*
X160390581Y-122818080D01*
X160383951Y-122815719D01*
X160376965Y-122814886D01*
X160376961Y-122814885D01*
X160249177Y-122799648D01*
X160205624Y-122794455D01*
X160198621Y-122795191D01*
X160198620Y-122795191D01*
X160034025Y-122812490D01*
X160034021Y-122812491D01*
X160027017Y-122813227D01*
X159857007Y-122871103D01*
X159759943Y-122930818D01*
X159693922Y-122949500D01*
X158310880Y-122949500D01*
X158242759Y-122929498D01*
X158221785Y-122912595D01*
X155097943Y-119788753D01*
X167194514Y-119788753D01*
X167195201Y-119795760D01*
X167195201Y-119795763D01*
X167196005Y-119803963D01*
X167212039Y-119967486D01*
X167214262Y-119974168D01*
X167214262Y-119974169D01*
X167254097Y-120093918D01*
X167268726Y-120137896D01*
X167272373Y-120143918D01*
X167347403Y-120267807D01*
X167361759Y-120291512D01*
X167486514Y-120420699D01*
X167636789Y-120519036D01*
X167805116Y-120581636D01*
X167812097Y-120582567D01*
X167812099Y-120582568D01*
X167976149Y-120604457D01*
X167976153Y-120604457D01*
X167983130Y-120605388D01*
X167990142Y-120604750D01*
X167990146Y-120604750D01*
X168154960Y-120589751D01*
X168154961Y-120589751D01*
X168161981Y-120589112D01*
X168275499Y-120552227D01*
X168326082Y-120535792D01*
X168332782Y-120533615D01*
X168363714Y-120515176D01*
X168480992Y-120445265D01*
X168480994Y-120445264D01*
X168487044Y-120441657D01*
X168617099Y-120317807D01*
X168634570Y-120291512D01*
X168712582Y-120174093D01*
X168716483Y-120168222D01*
X168735476Y-120118222D01*
X168777757Y-120006919D01*
X168777758Y-120006914D01*
X168780257Y-120000336D01*
X168786359Y-119956919D01*
X168804700Y-119826416D01*
X168804700Y-119826411D01*
X168805251Y-119822493D01*
X168805565Y-119800000D01*
X168785546Y-119621528D01*
X168779465Y-119604064D01*
X168728803Y-119458584D01*
X168726485Y-119451927D01*
X168695242Y-119401927D01*
X168635049Y-119305599D01*
X168631316Y-119299625D01*
X168546471Y-119214186D01*
X168509733Y-119177190D01*
X168509729Y-119177187D01*
X168504770Y-119172193D01*
X168493761Y-119165206D01*
X168425983Y-119122193D01*
X168353136Y-119075963D01*
X168270608Y-119046576D01*
X168190586Y-119018081D01*
X168190581Y-119018080D01*
X168183951Y-119015719D01*
X168176965Y-119014886D01*
X168176961Y-119014885D01*
X168049177Y-118999648D01*
X168005624Y-118994455D01*
X167998621Y-118995191D01*
X167998620Y-118995191D01*
X167834025Y-119012490D01*
X167834021Y-119012491D01*
X167827017Y-119013227D01*
X167820346Y-119015498D01*
X167663677Y-119068832D01*
X167663674Y-119068833D01*
X167657007Y-119071103D01*
X167651009Y-119074793D01*
X167651007Y-119074794D01*
X167604371Y-119103485D01*
X167504045Y-119165206D01*
X167499014Y-119170132D01*
X167499011Y-119170135D01*
X167491807Y-119177190D01*
X167375732Y-119290859D01*
X167371913Y-119296784D01*
X167371912Y-119296786D01*
X167365277Y-119307082D01*
X167278446Y-119441817D01*
X167217022Y-119610578D01*
X167194514Y-119788753D01*
X155097943Y-119788753D01*
X153247590Y-117938400D01*
X153213564Y-117876088D01*
X153218629Y-117805273D01*
X153261176Y-117748437D01*
X153327696Y-117723626D01*
X153390035Y-117735157D01*
X153663623Y-117863024D01*
X153667232Y-117864207D01*
X153893557Y-117938400D01*
X153978763Y-117966332D01*
X154304032Y-118031032D01*
X154307804Y-118031319D01*
X154307812Y-118031320D01*
X154630941Y-118055900D01*
X154630946Y-118055900D01*
X154634718Y-118056187D01*
X154966031Y-118041432D01*
X155293172Y-117986981D01*
X155296806Y-117985915D01*
X155296810Y-117985914D01*
X155514012Y-117922193D01*
X155611401Y-117893622D01*
X155916111Y-117762709D01*
X156202885Y-117596137D01*
X156205911Y-117593853D01*
X156205918Y-117593848D01*
X156464545Y-117398604D01*
X156467572Y-117396319D01*
X156631021Y-117238753D01*
X169794514Y-117238753D01*
X169795201Y-117245760D01*
X169795201Y-117245763D01*
X169796005Y-117253963D01*
X169812039Y-117417486D01*
X169814262Y-117424168D01*
X169814262Y-117424169D01*
X169855158Y-117547107D01*
X169868726Y-117587896D01*
X169961759Y-117741512D01*
X169966648Y-117746575D01*
X169966649Y-117746576D01*
X170054509Y-117837557D01*
X170087441Y-117900453D01*
X170081141Y-117971170D01*
X170052030Y-118015107D01*
X170025732Y-118040859D01*
X170021913Y-118046784D01*
X170021912Y-118046786D01*
X169932265Y-118185891D01*
X169928446Y-118191817D01*
X169867022Y-118360578D01*
X169844514Y-118538753D01*
X169845201Y-118545760D01*
X169845201Y-118545763D01*
X169846005Y-118553963D01*
X169862039Y-118717486D01*
X169864262Y-118724168D01*
X169864262Y-118724169D01*
X169872967Y-118750336D01*
X169918726Y-118887896D01*
X169922373Y-118893918D01*
X170006775Y-119033282D01*
X170011759Y-119041512D01*
X170056797Y-119088150D01*
X170117780Y-119151300D01*
X170150712Y-119214197D01*
X170144412Y-119284913D01*
X170133054Y-119307082D01*
X170078446Y-119391817D01*
X170017022Y-119560578D01*
X169994514Y-119738753D01*
X169995201Y-119745760D01*
X169995201Y-119745763D01*
X170000104Y-119795763D01*
X170012039Y-119917486D01*
X170014262Y-119924168D01*
X170014262Y-119924169D01*
X170030895Y-119974169D01*
X170068726Y-120087896D01*
X170072373Y-120093918D01*
X170120929Y-120174093D01*
X170161759Y-120241512D01*
X170286514Y-120370699D01*
X170436789Y-120469036D01*
X170605116Y-120531636D01*
X170612097Y-120532567D01*
X170612099Y-120532568D01*
X170776149Y-120554457D01*
X170776153Y-120554457D01*
X170783130Y-120555388D01*
X170790142Y-120554750D01*
X170790146Y-120554750D01*
X170954960Y-120539751D01*
X170954961Y-120539751D01*
X170961981Y-120539112D01*
X171132782Y-120483615D01*
X171139279Y-120479742D01*
X171280992Y-120395265D01*
X171280994Y-120395264D01*
X171287044Y-120391657D01*
X171417099Y-120267807D01*
X171434570Y-120241512D01*
X171487639Y-120161635D01*
X171516483Y-120118222D01*
X171561264Y-120000336D01*
X171577757Y-119956919D01*
X171577758Y-119956914D01*
X171580257Y-119950336D01*
X171598781Y-119818532D01*
X171604700Y-119776416D01*
X171604700Y-119776411D01*
X171605251Y-119772493D01*
X171605565Y-119750000D01*
X171585546Y-119571528D01*
X171579427Y-119553955D01*
X171528803Y-119408584D01*
X171526485Y-119401927D01*
X171466293Y-119305599D01*
X171435049Y-119255599D01*
X171431316Y-119249625D01*
X171422611Y-119240859D01*
X171332961Y-119150581D01*
X171299154Y-119088150D01*
X171304466Y-119017353D01*
X171317419Y-118992070D01*
X171362582Y-118924093D01*
X171366483Y-118918222D01*
X171381168Y-118879564D01*
X171427757Y-118756919D01*
X171427758Y-118756914D01*
X171430257Y-118750336D01*
X171446516Y-118634645D01*
X171454700Y-118576416D01*
X171454700Y-118576411D01*
X171455251Y-118572493D01*
X171455565Y-118550000D01*
X171435546Y-118371528D01*
X171429427Y-118353955D01*
X171409436Y-118296549D01*
X171376485Y-118201927D01*
X171372397Y-118195384D01*
X171285049Y-118055599D01*
X171281316Y-118049625D01*
X171212650Y-117980479D01*
X171196931Y-117964649D01*
X171163124Y-117902218D01*
X171168436Y-117831421D01*
X171199444Y-117784620D01*
X171211996Y-117772667D01*
X171211998Y-117772665D01*
X171217099Y-117767807D01*
X171229969Y-117748437D01*
X171312582Y-117624093D01*
X171316483Y-117618222D01*
X171343497Y-117547107D01*
X171377757Y-117456919D01*
X171377758Y-117456914D01*
X171380257Y-117450336D01*
X171385859Y-117410476D01*
X171404700Y-117276416D01*
X171404700Y-117276411D01*
X171405251Y-117272493D01*
X171405565Y-117250000D01*
X171385546Y-117071528D01*
X171379427Y-117053955D01*
X171329961Y-116911908D01*
X171326485Y-116901927D01*
X171231316Y-116749625D01*
X171167771Y-116685635D01*
X171109733Y-116627190D01*
X171109729Y-116627187D01*
X171104770Y-116622193D01*
X171093761Y-116615206D01*
X170999297Y-116555258D01*
X170953136Y-116525963D01*
X170923352Y-116515357D01*
X170790586Y-116468081D01*
X170790581Y-116468080D01*
X170783951Y-116465719D01*
X170776965Y-116464886D01*
X170776961Y-116464885D01*
X170649177Y-116449648D01*
X170605624Y-116444455D01*
X170598621Y-116445191D01*
X170598620Y-116445191D01*
X170434025Y-116462490D01*
X170434021Y-116462491D01*
X170427017Y-116463227D01*
X170420346Y-116465498D01*
X170263677Y-116518832D01*
X170263674Y-116518833D01*
X170257007Y-116521103D01*
X170251009Y-116524793D01*
X170251007Y-116524794D01*
X170206812Y-116551983D01*
X170104045Y-116615206D01*
X170099014Y-116620132D01*
X170099011Y-116620135D01*
X170071110Y-116647458D01*
X169975732Y-116740859D01*
X169971913Y-116746784D01*
X169971912Y-116746786D01*
X169913205Y-116837882D01*
X169878446Y-116891817D01*
X169817022Y-117060578D01*
X169794514Y-117238753D01*
X156631021Y-117238753D01*
X156706335Y-117166150D01*
X156915718Y-116908964D01*
X157033605Y-116722124D01*
X157090660Y-116631698D01*
X157090662Y-116631695D01*
X157092687Y-116628485D01*
X157097457Y-116618418D01*
X157191826Y-116419228D01*
X157234678Y-116328778D01*
X157236636Y-116322911D01*
X157326152Y-116054597D01*
X157339635Y-116014183D01*
X157406037Y-115689257D01*
X157432923Y-115358707D01*
X157433527Y-115301000D01*
X157431930Y-115274500D01*
X157413798Y-114973738D01*
X157413798Y-114973734D01*
X157413570Y-114969960D01*
X157405647Y-114926575D01*
X157386934Y-114824115D01*
X157353987Y-114643715D01*
X157255641Y-114326991D01*
X157119958Y-114024375D01*
X156948902Y-113740252D01*
X156946575Y-113737268D01*
X156946570Y-113737261D01*
X156747287Y-113481732D01*
X156747285Y-113481730D01*
X156744951Y-113478737D01*
X156511060Y-113243618D01*
X156490227Y-113227194D01*
X156253598Y-113040651D01*
X156250617Y-113038301D01*
X155967393Y-112865760D01*
X155793640Y-112786759D01*
X155668945Y-112730063D01*
X155668937Y-112730060D01*
X155665493Y-112728494D01*
X155349288Y-112628491D01*
X155204802Y-112601321D01*
X155027083Y-112567901D01*
X155027078Y-112567900D01*
X155023359Y-112567201D01*
X154692428Y-112545511D01*
X154688648Y-112545719D01*
X154688647Y-112545719D01*
X154590888Y-112551099D01*
X154361288Y-112563735D01*
X154357561Y-112564396D01*
X154357557Y-112564396D01*
X154092350Y-112611397D01*
X154034735Y-112621608D01*
X154031110Y-112622713D01*
X154031105Y-112622714D01*
X153798710Y-112693543D01*
X153717500Y-112718294D01*
X153414179Y-112852391D01*
X153370667Y-112878278D01*
X153132424Y-113020017D01*
X153132418Y-113020021D01*
X153129164Y-113021957D01*
X152866585Y-113224536D01*
X152863885Y-113227194D01*
X152667422Y-113420595D01*
X152630244Y-113457193D01*
X152423566Y-113716558D01*
X152249545Y-113998874D01*
X152247956Y-114002321D01*
X152112287Y-114296607D01*
X152112283Y-114296617D01*
X152110700Y-114300051D01*
X152109541Y-114303651D01*
X152109538Y-114303658D01*
X152031244Y-114546786D01*
X152009043Y-114615728D01*
X152008324Y-114619444D01*
X152008322Y-114619452D01*
X151946766Y-114937613D01*
X151946765Y-114937622D01*
X151946047Y-114941332D01*
X151945780Y-114945108D01*
X151945779Y-114945113D01*
X151933275Y-115121717D01*
X151924917Y-115239765D01*
X151922624Y-115272145D01*
X151924061Y-115301000D01*
X151938750Y-115596060D01*
X151939114Y-115603376D01*
X151939755Y-115607107D01*
X151939756Y-115607115D01*
X151988358Y-115889960D01*
X151995277Y-115930227D01*
X151996365Y-115933866D01*
X151996366Y-115933869D01*
X152030212Y-116047041D01*
X152090300Y-116247964D01*
X152222807Y-116551983D01*
X152224730Y-116555254D01*
X152224732Y-116555258D01*
X152238452Y-116578596D01*
X152255731Y-116647458D01*
X152233038Y-116714730D01*
X152177578Y-116759054D01*
X152106958Y-116766357D01*
X152040736Y-116731546D01*
X138687405Y-103378215D01*
X138653379Y-103315903D01*
X138650500Y-103289120D01*
X138650500Y-102756000D01*
X138670502Y-102687879D01*
X138724158Y-102641386D01*
X138776500Y-102630000D01*
X140814023Y-102630000D01*
X140882144Y-102650002D01*
X140928637Y-102703658D01*
X140934036Y-102717621D01*
X141078967Y-103170832D01*
X141300018Y-103734879D01*
X141556690Y-104283634D01*
X141557649Y-104285384D01*
X141557654Y-104285393D01*
X141609335Y-104379658D01*
X141847931Y-104814850D01*
X142172550Y-105326353D01*
X142357056Y-105579675D01*
X142528035Y-105814426D01*
X142528045Y-105814438D01*
X142529217Y-105816048D01*
X142530497Y-105817588D01*
X142530501Y-105817593D01*
X142574548Y-105870583D01*
X142916472Y-106281930D01*
X143332730Y-106722092D01*
X143776285Y-107134731D01*
X143826699Y-107175943D01*
X144243764Y-107516884D01*
X144243773Y-107516891D01*
X144245323Y-107518158D01*
X144737922Y-107870803D01*
X144739618Y-107871860D01*
X144739627Y-107871866D01*
X145250360Y-108190160D01*
X145252066Y-108191223D01*
X145253828Y-108192170D01*
X145253836Y-108192175D01*
X145673338Y-108417721D01*
X145785649Y-108478105D01*
X145787473Y-108478940D01*
X145787479Y-108478943D01*
X145961153Y-108558449D01*
X146336488Y-108730274D01*
X146338375Y-108730996D01*
X146338378Y-108730997D01*
X146750590Y-108888662D01*
X146902326Y-108946699D01*
X146904251Y-108947297D01*
X146904256Y-108947299D01*
X146947470Y-108960729D01*
X147480847Y-109126493D01*
X147482819Y-109126970D01*
X148067705Y-109268442D01*
X148067718Y-109268445D01*
X148069683Y-109268920D01*
X148357974Y-109319394D01*
X148664437Y-109373050D01*
X148664448Y-109373052D01*
X148666421Y-109373397D01*
X149268620Y-109439496D01*
X149760146Y-109461791D01*
X149871805Y-109466856D01*
X149871808Y-109466856D01*
X149873813Y-109466947D01*
X150314449Y-109458719D01*
X150477495Y-109455675D01*
X150477499Y-109455675D01*
X150479523Y-109455637D01*
X150611026Y-109444741D01*
X151081255Y-109405779D01*
X151081256Y-109405779D01*
X151083270Y-109405612D01*
X151433283Y-109353905D01*
X151680574Y-109317374D01*
X151680585Y-109317372D01*
X151682582Y-109317077D01*
X152275004Y-109190395D01*
X152276932Y-109189852D01*
X152276943Y-109189849D01*
X152549605Y-109113017D01*
X152858112Y-109026085D01*
X153429517Y-108824818D01*
X153986881Y-108587420D01*
X153988668Y-108586520D01*
X153988674Y-108586517D01*
X154526132Y-108315764D01*
X154526138Y-108315761D01*
X154527922Y-108314862D01*
X154529657Y-108313844D01*
X155048668Y-108009290D01*
X155048672Y-108009288D01*
X155050423Y-108008260D01*
X155052095Y-108007129D01*
X155052108Y-108007121D01*
X155396034Y-107774519D01*
X155552247Y-107668870D01*
X155704502Y-107551033D01*
X156029739Y-107299318D01*
X156029744Y-107299314D01*
X156031337Y-107298081D01*
X156485733Y-106897410D01*
X156818030Y-106564284D01*
X156912143Y-106469936D01*
X156912149Y-106469929D01*
X156913575Y-106468500D01*
X157311379Y-106015077D01*
X157312371Y-106014203D01*
X157312711Y-106013628D01*
X157313209Y-106013187D01*
X157318141Y-106004790D01*
X157323323Y-105998528D01*
X157323720Y-105997962D01*
X157324561Y-105996940D01*
X157324578Y-105996954D01*
X157334121Y-105984347D01*
X157464960Y-105847990D01*
X157478689Y-105835637D01*
X157501971Y-105817593D01*
X157649953Y-105702900D01*
X157665340Y-105692687D01*
X157854178Y-105586405D01*
X157870890Y-105578551D01*
X158073240Y-105501014D01*
X158090913Y-105495692D01*
X158302414Y-105448568D01*
X158320676Y-105445885D01*
X158419629Y-105438696D01*
X158536806Y-105430184D01*
X158555273Y-105430200D01*
X158693226Y-105440452D01*
X158771356Y-105446259D01*
X158789617Y-105448972D01*
X159001048Y-105496449D01*
X159018718Y-105501803D01*
X159220932Y-105579675D01*
X159237633Y-105587557D01*
X159426289Y-105694150D01*
X159441659Y-105704389D01*
X159612703Y-105837412D01*
X159626412Y-105849788D01*
X159757759Y-105987130D01*
X159768546Y-106001383D01*
X159773735Y-106007673D01*
X159778772Y-106016218D01*
X159786205Y-106022790D01*
X159790442Y-106027926D01*
X159795063Y-106032683D01*
X159800771Y-106040780D01*
X159802030Y-106041723D01*
X159807560Y-106047053D01*
X160221837Y-106446341D01*
X160221847Y-106446350D01*
X160223312Y-106447762D01*
X160671449Y-106826366D01*
X160673090Y-106827578D01*
X160673093Y-106827580D01*
X161141756Y-107173622D01*
X161143399Y-107174835D01*
X161145116Y-107175937D01*
X161145125Y-107175943D01*
X161450700Y-107372033D01*
X161637141Y-107491674D01*
X161638943Y-107492671D01*
X161638956Y-107492678D01*
X161864499Y-107617373D01*
X162150557Y-107775525D01*
X162681447Y-108025171D01*
X163227535Y-108239543D01*
X163229499Y-108240169D01*
X163784522Y-108417097D01*
X163784535Y-108417101D01*
X163786481Y-108417721D01*
X163788466Y-108418213D01*
X163788472Y-108418215D01*
X164046859Y-108482298D01*
X164355888Y-108558941D01*
X164859813Y-108649404D01*
X164923328Y-108681128D01*
X164959609Y-108742155D01*
X164957137Y-108813108D01*
X164916697Y-108871462D01*
X164888496Y-108888662D01*
X164760179Y-108945391D01*
X164649907Y-109010996D01*
X164478424Y-109113017D01*
X164478418Y-109113021D01*
X164475164Y-109114957D01*
X164212585Y-109317536D01*
X164209885Y-109320194D01*
X164013422Y-109513595D01*
X163976244Y-109550193D01*
X163769566Y-109809558D01*
X163595545Y-110091874D01*
X163585291Y-110114117D01*
X163458287Y-110389607D01*
X163458283Y-110389617D01*
X163456700Y-110393051D01*
X163455541Y-110396651D01*
X163455538Y-110396658D01*
X163415808Y-110520034D01*
X163355043Y-110708728D01*
X163354324Y-110712444D01*
X163354322Y-110712452D01*
X163292766Y-111030613D01*
X163292765Y-111030622D01*
X163292047Y-111034332D01*
X163291780Y-111038108D01*
X163291779Y-111038113D01*
X163270917Y-111332764D01*
X163270917Y-111332765D01*
X163268960Y-111360404D01*
X163268624Y-111365145D01*
X163270061Y-111394000D01*
X163280711Y-111607927D01*
X163285114Y-111696376D01*
X163285755Y-111700107D01*
X163285756Y-111700115D01*
X163340007Y-112015834D01*
X163341277Y-112023227D01*
X163342365Y-112026866D01*
X163342366Y-112026869D01*
X163425331Y-112304285D01*
X163436300Y-112340964D01*
X163568807Y-112644983D01*
X163570730Y-112648254D01*
X163570732Y-112648258D01*
X163734956Y-112927612D01*
X163734961Y-112927620D01*
X163736879Y-112930882D01*
X163739180Y-112933897D01*
X163935780Y-113191505D01*
X163935785Y-113191510D01*
X163938080Y-113194518D01*
X164169496Y-113432073D01*
X164427775Y-113640107D01*
X164431000Y-113642118D01*
X164431001Y-113642119D01*
X164588353Y-113740252D01*
X164709176Y-113815604D01*
X165009623Y-113956024D01*
X165013232Y-113957207D01*
X165208189Y-114021117D01*
X165324763Y-114059332D01*
X165650032Y-114124032D01*
X165653804Y-114124319D01*
X165653812Y-114124320D01*
X165976941Y-114148900D01*
X165976946Y-114148900D01*
X165980718Y-114149187D01*
X166312031Y-114134432D01*
X166639172Y-114079981D01*
X166642806Y-114078915D01*
X166642810Y-114078914D01*
X166839819Y-114021117D01*
X166957401Y-113986622D01*
X166969007Y-113981636D01*
X167258631Y-113857204D01*
X167262111Y-113855709D01*
X167548885Y-113689137D01*
X167551911Y-113686853D01*
X167551918Y-113686848D01*
X167810545Y-113491604D01*
X167813572Y-113489319D01*
X168052335Y-113259150D01*
X168261718Y-113001964D01*
X168430344Y-112734708D01*
X168436660Y-112724698D01*
X168436662Y-112724695D01*
X168438687Y-112721485D01*
X168441562Y-112715418D01*
X168521959Y-112545719D01*
X168580678Y-112421778D01*
X168581912Y-112418081D01*
X168663653Y-112173072D01*
X168685635Y-112107183D01*
X168752037Y-111782257D01*
X168778923Y-111451707D01*
X168779527Y-111394000D01*
X168777788Y-111365145D01*
X168759798Y-111066738D01*
X168759798Y-111066734D01*
X168759570Y-111062960D01*
X168757847Y-111053523D01*
X168720696Y-110850107D01*
X168699987Y-110736715D01*
X168601641Y-110419991D01*
X168596770Y-110409126D01*
X168555578Y-110317256D01*
X168465958Y-110117375D01*
X168294902Y-109833252D01*
X168292575Y-109830268D01*
X168292570Y-109830261D01*
X168093287Y-109574732D01*
X168093285Y-109574730D01*
X168090951Y-109571737D01*
X167879909Y-109359587D01*
X167859732Y-109339304D01*
X167857060Y-109336618D01*
X167836227Y-109320194D01*
X167599598Y-109133651D01*
X167596617Y-109131301D01*
X167313393Y-108958760D01*
X167309947Y-108957193D01*
X167309941Y-108957190D01*
X167254993Y-108932206D01*
X167201260Y-108885802D01*
X167181145Y-108817715D01*
X167201034Y-108749561D01*
X167254613Y-108702979D01*
X167288340Y-108692918D01*
X167853525Y-108607618D01*
X167855508Y-108607184D01*
X167855521Y-108607182D01*
X168269546Y-108516649D01*
X168426641Y-108482298D01*
X168428601Y-108481733D01*
X168428616Y-108481729D01*
X168988354Y-108320314D01*
X168988367Y-108320310D01*
X168990329Y-108319744D01*
X169346565Y-108191223D01*
X169540207Y-108121362D01*
X169540219Y-108121357D01*
X169542171Y-108120653D01*
X169544074Y-108119822D01*
X169544084Y-108119818D01*
X169996379Y-107922307D01*
X170079803Y-107885877D01*
X170425566Y-107707094D01*
X170599085Y-107617373D01*
X170599089Y-107617371D01*
X170600920Y-107616424D01*
X171103287Y-107313448D01*
X171584753Y-106978248D01*
X172043252Y-106612261D01*
X172476819Y-106217056D01*
X172478227Y-106215593D01*
X172478235Y-106215585D01*
X172882171Y-105795808D01*
X172882173Y-105795806D01*
X172883596Y-105794327D01*
X173261840Y-105345886D01*
X173263057Y-105344235D01*
X173263068Y-105344221D01*
X173608702Y-104875319D01*
X173608710Y-104875308D01*
X173609928Y-104873655D01*
X173646513Y-104816543D01*
X173925267Y-104381378D01*
X173926369Y-104379658D01*
X173980364Y-104281808D01*
X174208813Y-103867814D01*
X174208816Y-103867808D01*
X174209806Y-103866014D01*
X174239156Y-103803470D01*
X174458149Y-103336790D01*
X174458150Y-103336787D01*
X174459025Y-103334923D01*
X174672956Y-102788662D01*
X174695473Y-102717829D01*
X174735172Y-102658969D01*
X174800391Y-102630915D01*
X174815552Y-102630000D01*
X178473500Y-102630000D01*
X178541621Y-102650002D01*
X178588114Y-102703658D01*
X178599500Y-102756000D01*
X178599500Y-138473500D01*
X178579498Y-138541621D01*
X178525842Y-138588114D01*
X178473500Y-138599500D01*
X150526500Y-138599500D01*
X150458379Y-138579498D01*
X150411886Y-138525842D01*
X150400500Y-138473500D01*
X150400500Y-135041436D01*
X150402051Y-135021726D01*
X150403941Y-135009795D01*
X150403941Y-135009793D01*
X150405492Y-135000000D01*
X150405058Y-134997261D01*
X150386649Y-134153561D01*
X150383468Y-134105028D01*
X152498025Y-134105028D01*
X152535347Y-134348930D01*
X152612003Y-134583460D01*
X152614393Y-134588051D01*
X152681226Y-134716435D01*
X152725935Y-134802321D01*
X152729038Y-134806454D01*
X152729040Y-134806457D01*
X152870978Y-134995501D01*
X152874083Y-134999636D01*
X153052468Y-135170104D01*
X153056740Y-135173018D01*
X153056741Y-135173019D01*
X153114583Y-135212476D01*
X153256300Y-135309149D01*
X153360800Y-135357656D01*
X153475409Y-135410856D01*
X153475413Y-135410857D01*
X153480104Y-135413035D01*
X153717871Y-135478974D01*
X153723008Y-135479523D01*
X153915957Y-135500144D01*
X153915965Y-135500144D01*
X153919292Y-135500500D01*
X154062554Y-135500500D01*
X154065127Y-135500288D01*
X154065138Y-135500288D01*
X154240760Y-135485849D01*
X154240766Y-135485848D01*
X154245911Y-135485425D01*
X154485217Y-135425316D01*
X154668891Y-135345452D01*
X154706744Y-135328993D01*
X154706745Y-135328993D01*
X154711493Y-135326928D01*
X154918661Y-135192905D01*
X154940516Y-135173019D01*
X154981786Y-135135466D01*
X155101158Y-135026846D01*
X155104357Y-135022795D01*
X155104361Y-135022791D01*
X155250881Y-134837264D01*
X155250884Y-134837259D01*
X155254082Y-134833210D01*
X155256577Y-134828691D01*
X155370830Y-134621722D01*
X155370832Y-134621718D01*
X155373327Y-134617198D01*
X155375672Y-134610578D01*
X155453965Y-134389485D01*
X155453966Y-134389481D01*
X155455691Y-134384610D01*
X155467542Y-134318081D01*
X155498055Y-134146783D01*
X155498056Y-134146777D01*
X155498961Y-134141694D01*
X155501975Y-133894972D01*
X155464653Y-133651070D01*
X155387997Y-133416540D01*
X155274065Y-133197679D01*
X155237892Y-133149500D01*
X155129022Y-133004499D01*
X155129020Y-133004496D01*
X155125917Y-133000364D01*
X154947532Y-132829896D01*
X154919212Y-132810577D01*
X154747979Y-132693770D01*
X154747980Y-132693770D01*
X154743700Y-132690851D01*
X154612625Y-132630008D01*
X154524591Y-132589144D01*
X154524587Y-132589143D01*
X154519896Y-132586965D01*
X154282129Y-132521026D01*
X154276992Y-132520477D01*
X154084043Y-132499856D01*
X154084035Y-132499856D01*
X154080708Y-132499500D01*
X153937446Y-132499500D01*
X153934873Y-132499712D01*
X153934862Y-132499712D01*
X153759240Y-132514151D01*
X153759234Y-132514152D01*
X153754089Y-132514575D01*
X153514783Y-132574684D01*
X153288507Y-132673072D01*
X153081339Y-132807095D01*
X153077514Y-132810575D01*
X153077512Y-132810577D01*
X153056281Y-132829896D01*
X152898842Y-132973154D01*
X152895643Y-132977205D01*
X152895639Y-132977209D01*
X152749119Y-133162736D01*
X152749116Y-133162741D01*
X152745918Y-133166790D01*
X152743425Y-133171306D01*
X152743423Y-133171309D01*
X152731150Y-133193543D01*
X152626673Y-133382802D01*
X152624949Y-133387671D01*
X152624947Y-133387675D01*
X152612984Y-133421458D01*
X152544309Y-133615390D01*
X152501039Y-133858306D01*
X152498025Y-134105028D01*
X150383468Y-134105028D01*
X150331276Y-133308733D01*
X150263417Y-132689112D01*
X150239255Y-132468492D01*
X150239254Y-132468484D01*
X150239105Y-132467124D01*
X150231515Y-132417807D01*
X150162340Y-131968374D01*
X150110311Y-131630337D01*
X149945139Y-130799964D01*
X149743905Y-129977586D01*
X149506990Y-129164768D01*
X149478218Y-129080006D01*
X149235288Y-128364360D01*
X149235283Y-128364345D01*
X149234846Y-128363059D01*
X149093660Y-128000000D01*
X150494696Y-128000000D01*
X150513898Y-128366404D01*
X150514411Y-128369644D01*
X150514412Y-128369652D01*
X150530152Y-128469027D01*
X150571295Y-128728794D01*
X150666258Y-129083199D01*
X150797745Y-129425736D01*
X150964318Y-129752652D01*
X151164149Y-130060366D01*
X151395051Y-130345506D01*
X151654494Y-130604949D01*
X151939634Y-130835851D01*
X151942409Y-130837653D01*
X152222929Y-131019824D01*
X152247348Y-131035682D01*
X152250282Y-131037177D01*
X152250289Y-131037181D01*
X152461636Y-131144868D01*
X152574264Y-131202255D01*
X152732563Y-131263020D01*
X152876003Y-131318081D01*
X152916801Y-131333742D01*
X153271206Y-131428705D01*
X153431910Y-131454158D01*
X153630348Y-131485588D01*
X153630356Y-131485589D01*
X153633596Y-131486102D01*
X154000000Y-131505304D01*
X154366404Y-131486102D01*
X154369644Y-131485589D01*
X154369652Y-131485588D01*
X154568090Y-131454158D01*
X154728794Y-131428705D01*
X155083199Y-131333742D01*
X155123998Y-131318081D01*
X155267437Y-131263020D01*
X155425736Y-131202255D01*
X155538364Y-131144868D01*
X155749711Y-131037181D01*
X155749718Y-131037177D01*
X155752652Y-131035682D01*
X155777072Y-131019824D01*
X156057591Y-130837653D01*
X156060366Y-130835851D01*
X156345506Y-130604949D01*
X156604949Y-130345506D01*
X156835851Y-130060366D01*
X157035682Y-129752652D01*
X157202255Y-129425736D01*
X157333742Y-129083199D01*
X157428705Y-128728794D01*
X157469848Y-128469027D01*
X157485588Y-128369652D01*
X157485589Y-128369644D01*
X157486102Y-128366404D01*
X157505304Y-128000000D01*
X157486102Y-127633596D01*
X157477379Y-127578518D01*
X157448461Y-127395942D01*
X157428705Y-127271206D01*
X157333742Y-126916801D01*
X157325896Y-126896360D01*
X157265489Y-126738994D01*
X157202255Y-126574264D01*
X157147074Y-126465965D01*
X157037181Y-126250289D01*
X157037177Y-126250282D01*
X157035682Y-126247348D01*
X157032909Y-126243077D01*
X156875271Y-126000336D01*
X156835851Y-125939634D01*
X156604949Y-125654494D01*
X156345506Y-125395051D01*
X156060366Y-125164149D01*
X155913590Y-125068832D01*
X155755421Y-124966116D01*
X155755418Y-124966114D01*
X155752652Y-124964318D01*
X155749718Y-124962823D01*
X155749711Y-124962819D01*
X155428676Y-124799243D01*
X155425736Y-124797745D01*
X155181404Y-124703955D01*
X155086289Y-124667444D01*
X155086287Y-124667443D01*
X155083199Y-124666258D01*
X154728794Y-124571295D01*
X154510995Y-124536799D01*
X154369652Y-124514412D01*
X154369644Y-124514411D01*
X154366404Y-124513898D01*
X154000000Y-124494696D01*
X153633596Y-124513898D01*
X153630356Y-124514411D01*
X153630348Y-124514412D01*
X153489005Y-124536799D01*
X153271206Y-124571295D01*
X152916801Y-124666258D01*
X152913713Y-124667443D01*
X152913711Y-124667444D01*
X152818596Y-124703955D01*
X152574264Y-124797745D01*
X152571324Y-124799243D01*
X152250289Y-124962819D01*
X152250282Y-124962823D01*
X152247348Y-124964318D01*
X152244582Y-124966114D01*
X152244579Y-124966116D01*
X152086410Y-125068832D01*
X151939634Y-125164149D01*
X151654494Y-125395051D01*
X151395051Y-125654494D01*
X151164149Y-125939634D01*
X151124729Y-126000336D01*
X150967092Y-126243077D01*
X150964318Y-126247348D01*
X150962823Y-126250282D01*
X150962819Y-126250289D01*
X150852926Y-126465965D01*
X150797745Y-126574264D01*
X150734511Y-126738994D01*
X150674105Y-126896360D01*
X150666258Y-126916801D01*
X150571295Y-127271206D01*
X150551539Y-127395942D01*
X150522622Y-127578518D01*
X150513898Y-127633596D01*
X150494696Y-128000000D01*
X149093660Y-128000000D01*
X148927991Y-127573983D01*
X148587010Y-126799043D01*
X148212550Y-126039714D01*
X148190947Y-126000336D01*
X147941286Y-125545265D01*
X147805325Y-125297441D01*
X147803618Y-125294627D01*
X147366818Y-124574803D01*
X147366817Y-124574801D01*
X147366111Y-124573638D01*
X147364546Y-124571295D01*
X146896515Y-123870839D01*
X146895742Y-123869682D01*
X146395115Y-123186913D01*
X146388910Y-123179181D01*
X146099096Y-122818081D01*
X145865183Y-122526631D01*
X145744267Y-122388753D01*
X149194514Y-122388753D01*
X149195201Y-122395760D01*
X149195201Y-122395763D01*
X149197822Y-122422493D01*
X149212039Y-122567486D01*
X149214262Y-122574168D01*
X149214262Y-122574169D01*
X149222967Y-122600336D01*
X149268726Y-122737896D01*
X149272373Y-122743918D01*
X149348024Y-122868832D01*
X149361759Y-122891512D01*
X149366648Y-122896575D01*
X149366649Y-122896576D01*
X149400102Y-122931217D01*
X149486514Y-123020699D01*
X149636789Y-123119036D01*
X149805116Y-123181636D01*
X149812097Y-123182567D01*
X149812099Y-123182568D01*
X149976149Y-123204457D01*
X149976153Y-123204457D01*
X149983130Y-123205388D01*
X149990142Y-123204750D01*
X149990146Y-123204750D01*
X150154960Y-123189751D01*
X150154961Y-123189751D01*
X150161981Y-123189112D01*
X150332782Y-123133615D01*
X150351149Y-123122666D01*
X150480992Y-123045265D01*
X150480994Y-123045264D01*
X150487044Y-123041657D01*
X150617099Y-122917807D01*
X150626303Y-122903955D01*
X150690773Y-122806919D01*
X150716483Y-122768222D01*
X150731168Y-122729564D01*
X150777757Y-122606919D01*
X150777758Y-122606914D01*
X150780257Y-122600336D01*
X150785859Y-122560476D01*
X150804700Y-122426416D01*
X150804700Y-122426411D01*
X150805251Y-122422493D01*
X150805565Y-122400000D01*
X150785546Y-122221528D01*
X150779427Y-122203955D01*
X150728803Y-122058584D01*
X150726485Y-122051927D01*
X150697006Y-122004750D01*
X150635049Y-121905599D01*
X150631316Y-121899625D01*
X150552939Y-121820699D01*
X150509733Y-121777190D01*
X150509729Y-121777187D01*
X150504770Y-121772193D01*
X150493761Y-121765206D01*
X150377637Y-121691512D01*
X150353136Y-121675963D01*
X150323352Y-121665357D01*
X150190586Y-121618081D01*
X150190581Y-121618080D01*
X150183951Y-121615719D01*
X150176965Y-121614886D01*
X150176961Y-121614885D01*
X150049177Y-121599648D01*
X150005624Y-121594455D01*
X149998621Y-121595191D01*
X149998620Y-121595191D01*
X149834025Y-121612490D01*
X149834021Y-121612491D01*
X149827017Y-121613227D01*
X149820346Y-121615498D01*
X149663677Y-121668832D01*
X149663674Y-121668833D01*
X149657007Y-121671103D01*
X149651009Y-121674793D01*
X149651007Y-121674794D01*
X149621825Y-121692747D01*
X149504045Y-121765206D01*
X149499014Y-121770132D01*
X149499011Y-121770135D01*
X149473425Y-121795191D01*
X149375732Y-121890859D01*
X149371913Y-121896784D01*
X149371912Y-121896786D01*
X149324642Y-121970135D01*
X149278446Y-122041817D01*
X149276037Y-122048437D01*
X149276035Y-122048440D01*
X149254402Y-122107878D01*
X149217022Y-122210578D01*
X149194514Y-122388753D01*
X145744267Y-122388753D01*
X145445821Y-122048440D01*
X145307860Y-121891125D01*
X145307858Y-121891123D01*
X145306954Y-121890092D01*
X144721491Y-121278509D01*
X144109908Y-120693046D01*
X144008892Y-120604457D01*
X143842260Y-120458325D01*
X143473369Y-120134817D01*
X143016987Y-119768532D01*
X142814180Y-119605762D01*
X142814174Y-119605757D01*
X142813087Y-119604885D01*
X142130318Y-119104258D01*
X141962417Y-118992070D01*
X141427494Y-118634645D01*
X141427482Y-118634637D01*
X141426362Y-118633889D01*
X141331649Y-118576416D01*
X140703728Y-118195384D01*
X140703716Y-118195377D01*
X140702559Y-118194675D01*
X140283277Y-117964649D01*
X139961482Y-117788106D01*
X139961477Y-117788103D01*
X139960286Y-117787450D01*
X139200957Y-117412990D01*
X138426017Y-117072009D01*
X137636941Y-116765154D01*
X137635655Y-116764717D01*
X137635640Y-116764712D01*
X136836550Y-116493457D01*
X136836534Y-116493452D01*
X136835232Y-116493010D01*
X136022414Y-116256095D01*
X135200036Y-116054861D01*
X134369663Y-115889689D01*
X133694823Y-115785821D01*
X133534222Y-115761102D01*
X133534214Y-115761101D01*
X133532876Y-115760895D01*
X133531516Y-115760746D01*
X133531508Y-115760745D01*
X132692655Y-115668876D01*
X132691267Y-115668724D01*
X131846439Y-115613351D01*
X131002739Y-115594942D01*
X131000000Y-115594508D01*
X130990207Y-115596059D01*
X130990205Y-115596059D01*
X130978274Y-115597949D01*
X130958564Y-115599500D01*
X128103857Y-115599500D01*
X128035736Y-115579498D01*
X127989243Y-115525842D01*
X127979139Y-115455568D01*
X127990654Y-115419469D01*
X127991483Y-115418222D01*
X128036012Y-115301000D01*
X128052757Y-115256919D01*
X128052758Y-115256914D01*
X128055257Y-115250336D01*
X128080251Y-115072493D01*
X128080565Y-115050000D01*
X128060546Y-114871528D01*
X128054427Y-114853955D01*
X128003803Y-114708584D01*
X128001485Y-114701927D01*
X127997604Y-114695715D01*
X127910049Y-114555599D01*
X127906316Y-114549625D01*
X127842771Y-114485635D01*
X127784733Y-114427190D01*
X127784729Y-114427187D01*
X127779770Y-114422193D01*
X127768761Y-114415206D01*
X127721860Y-114385442D01*
X127628136Y-114325963D01*
X127573357Y-114306457D01*
X127465586Y-114268081D01*
X127465581Y-114268080D01*
X127458951Y-114265719D01*
X127451965Y-114264886D01*
X127451961Y-114264885D01*
X127324177Y-114249648D01*
X127280624Y-114244455D01*
X127273621Y-114245191D01*
X127273620Y-114245191D01*
X127109025Y-114262490D01*
X127109021Y-114262491D01*
X127102017Y-114263227D01*
X127095346Y-114265498D01*
X126938677Y-114318832D01*
X126938674Y-114318833D01*
X126932007Y-114321103D01*
X126926009Y-114324793D01*
X126926007Y-114324794D01*
X126855526Y-114368154D01*
X126779045Y-114415206D01*
X126774014Y-114420132D01*
X126774011Y-114420135D01*
X126766807Y-114427190D01*
X126650732Y-114540859D01*
X126646913Y-114546784D01*
X126646912Y-114546786D01*
X126557265Y-114685891D01*
X126553446Y-114691817D01*
X126551037Y-114698437D01*
X126551035Y-114698440D01*
X126549766Y-114701927D01*
X126492022Y-114860578D01*
X126469514Y-115038753D01*
X126470201Y-115045760D01*
X126470201Y-115045763D01*
X126471005Y-115053963D01*
X126487039Y-115217486D01*
X126489262Y-115224168D01*
X126489262Y-115224169D01*
X126497967Y-115250336D01*
X126543726Y-115387896D01*
X126547373Y-115393918D01*
X126556040Y-115408229D01*
X126574219Y-115476859D01*
X126552408Y-115544422D01*
X126497532Y-115589468D01*
X126448264Y-115599500D01*
X122026500Y-115599500D01*
X121958379Y-115579498D01*
X121911886Y-115525842D01*
X121900500Y-115473500D01*
X121900500Y-110409126D01*
X122685541Y-110409126D01*
X122715935Y-110610097D01*
X122786119Y-110800852D01*
X122789479Y-110806272D01*
X122789480Y-110806273D01*
X122889863Y-110968176D01*
X122889866Y-110968180D01*
X122893226Y-110973599D01*
X122897612Y-110978237D01*
X122977731Y-111062960D01*
X123032881Y-111121280D01*
X123199379Y-111237863D01*
X123385919Y-111318586D01*
X123431947Y-111328202D01*
X123580144Y-111359162D01*
X123580149Y-111359163D01*
X123584880Y-111360151D01*
X123589762Y-111360407D01*
X123589871Y-111360413D01*
X123589887Y-111360413D01*
X123591539Y-111360500D01*
X123740800Y-111360500D01*
X123788793Y-111355625D01*
X123885868Y-111345765D01*
X123885870Y-111345765D01*
X123892216Y-111345120D01*
X124086172Y-111284338D01*
X124263944Y-111185797D01*
X124418271Y-111053523D01*
X124430225Y-111038113D01*
X124538939Y-110897958D01*
X124542848Y-110892919D01*
X124606617Y-110763323D01*
X124629769Y-110716272D01*
X124632587Y-110710545D01*
X124658752Y-110610097D01*
X124682212Y-110520034D01*
X124682212Y-110520031D01*
X124683822Y-110513852D01*
X124688076Y-110432672D01*
X124694125Y-110317256D01*
X124694125Y-110317252D01*
X124694459Y-110310874D01*
X124664065Y-110109903D01*
X124593881Y-109919148D01*
X124576977Y-109891884D01*
X124490137Y-109751824D01*
X124490134Y-109751820D01*
X124486774Y-109746401D01*
X124347119Y-109598720D01*
X124180621Y-109482137D01*
X123994081Y-109401414D01*
X123948053Y-109391798D01*
X123799856Y-109360838D01*
X123799851Y-109360837D01*
X123795120Y-109359849D01*
X123790238Y-109359593D01*
X123790129Y-109359587D01*
X123790113Y-109359587D01*
X123788461Y-109359500D01*
X123639200Y-109359500D01*
X123591207Y-109364375D01*
X123494132Y-109374235D01*
X123494130Y-109374235D01*
X123487784Y-109374880D01*
X123293828Y-109435662D01*
X123116056Y-109534203D01*
X122961729Y-109666477D01*
X122837152Y-109827081D01*
X122747413Y-110009455D01*
X122745804Y-110015633D01*
X122745803Y-110015635D01*
X122719603Y-110116220D01*
X122696178Y-110206148D01*
X122695844Y-110212527D01*
X122686564Y-110389607D01*
X122685541Y-110409126D01*
X121900500Y-110409126D01*
X121900500Y-102756000D01*
X121920502Y-102687879D01*
X121974158Y-102641386D01*
X122026500Y-102630000D01*
X135057864Y-102630000D01*
X135125985Y-102650002D01*
G37*
G04 #@! TD.AperFunction*
M02*
