G04 #@! TF.GenerationSoftware,KiCad,Pcbnew,6.0.11+dfsg-1~bpo11+1*
G04 #@! TF.CreationDate,2023-05-20T19:26:12-04:00*
G04 #@! TF.ProjectId,RUSP_Daughterboard,52555350-5f44-4617-9567-68746572626f,rev?*
G04 #@! TF.SameCoordinates,Original*
G04 #@! TF.FileFunction,AssemblyDrawing,Bot*
%FSLAX46Y46*%
G04 Gerber Fmt 4.6, Leading zero omitted, Abs format (unit mm)*
G04 Created by KiCad (PCBNEW 6.0.11+dfsg-1~bpo11+1) date 2023-05-20 19:26:12*
%MOMM*%
%LPD*%
G01*
G04 APERTURE LIST*
%ADD10C,0.150000*%
%ADD11C,0.120000*%
%ADD12C,0.100000*%
G04 APERTURE END LIST*
D10*
X129853571Y-115732380D02*
X129853571Y-114732380D01*
X129615476Y-114732380D01*
X129472619Y-114780000D01*
X129377380Y-114875238D01*
X129329761Y-114970476D01*
X129282142Y-115160952D01*
X129282142Y-115303809D01*
X129329761Y-115494285D01*
X129377380Y-115589523D01*
X129472619Y-115684761D01*
X129615476Y-115732380D01*
X129853571Y-115732380D01*
X129091666Y-115827619D02*
X128329761Y-115827619D01*
X128234523Y-114732380D02*
X127663095Y-114732380D01*
X127948809Y-115732380D02*
X127948809Y-114732380D01*
X127472619Y-114732380D02*
X127139285Y-115732380D01*
X126805952Y-114732380D01*
X126520238Y-115684761D02*
X126377380Y-115732380D01*
X126139285Y-115732380D01*
X126044047Y-115684761D01*
X125996428Y-115637142D01*
X125948809Y-115541904D01*
X125948809Y-115446666D01*
X125996428Y-115351428D01*
X126044047Y-115303809D01*
X126139285Y-115256190D01*
X126329761Y-115208571D01*
X126425000Y-115160952D01*
X126472619Y-115113333D01*
X126520238Y-115018095D01*
X126520238Y-114922857D01*
X126472619Y-114827619D01*
X126425000Y-114780000D01*
X126329761Y-114732380D01*
X126091666Y-114732380D01*
X125948809Y-114780000D01*
D11*
X128515476Y-114211904D02*
X128515476Y-113411904D01*
X128325000Y-113411904D01*
X128210714Y-113450000D01*
X128134523Y-113526190D01*
X128096428Y-113602380D01*
X128058333Y-113754761D01*
X128058333Y-113869047D01*
X128096428Y-114021428D01*
X128134523Y-114097619D01*
X128210714Y-114173809D01*
X128325000Y-114211904D01*
X128515476Y-114211904D01*
X127791666Y-113411904D02*
X127296428Y-113411904D01*
X127563095Y-113716666D01*
X127448809Y-113716666D01*
X127372619Y-113754761D01*
X127334523Y-113792857D01*
X127296428Y-113869047D01*
X127296428Y-114059523D01*
X127334523Y-114135714D01*
X127372619Y-114173809D01*
X127448809Y-114211904D01*
X127677380Y-114211904D01*
X127753571Y-114173809D01*
X127791666Y-114135714D01*
D10*
X136003571Y-116282380D02*
X136003571Y-115282380D01*
X135765476Y-115282380D01*
X135622619Y-115330000D01*
X135527380Y-115425238D01*
X135479761Y-115520476D01*
X135432142Y-115710952D01*
X135432142Y-115853809D01*
X135479761Y-116044285D01*
X135527380Y-116139523D01*
X135622619Y-116234761D01*
X135765476Y-116282380D01*
X136003571Y-116282380D01*
X135241666Y-116377619D02*
X134479761Y-116377619D01*
X134384523Y-115282380D02*
X133813095Y-115282380D01*
X134098809Y-116282380D02*
X134098809Y-115282380D01*
X133622619Y-115282380D02*
X133289285Y-116282380D01*
X132955952Y-115282380D01*
X132670238Y-116234761D02*
X132527380Y-116282380D01*
X132289285Y-116282380D01*
X132194047Y-116234761D01*
X132146428Y-116187142D01*
X132098809Y-116091904D01*
X132098809Y-115996666D01*
X132146428Y-115901428D01*
X132194047Y-115853809D01*
X132289285Y-115806190D01*
X132479761Y-115758571D01*
X132575000Y-115710952D01*
X132622619Y-115663333D01*
X132670238Y-115568095D01*
X132670238Y-115472857D01*
X132622619Y-115377619D01*
X132575000Y-115330000D01*
X132479761Y-115282380D01*
X132241666Y-115282380D01*
X132098809Y-115330000D01*
D11*
X134665476Y-114761904D02*
X134665476Y-113961904D01*
X134475000Y-113961904D01*
X134360714Y-114000000D01*
X134284523Y-114076190D01*
X134246428Y-114152380D01*
X134208333Y-114304761D01*
X134208333Y-114419047D01*
X134246428Y-114571428D01*
X134284523Y-114647619D01*
X134360714Y-114723809D01*
X134475000Y-114761904D01*
X134665476Y-114761904D01*
X133903571Y-114038095D02*
X133865476Y-114000000D01*
X133789285Y-113961904D01*
X133598809Y-113961904D01*
X133522619Y-114000000D01*
X133484523Y-114038095D01*
X133446428Y-114114285D01*
X133446428Y-114190476D01*
X133484523Y-114304761D01*
X133941666Y-114761904D01*
X133446428Y-114761904D01*
D10*
X174380952Y-78428571D02*
X174714285Y-78428571D01*
X174714285Y-78952380D02*
X174714285Y-77952380D01*
X174238095Y-77952380D01*
X173857142Y-78952380D02*
X173857142Y-78285714D01*
X173857142Y-77952380D02*
X173904761Y-78000000D01*
X173857142Y-78047619D01*
X173809523Y-78000000D01*
X173857142Y-77952380D01*
X173857142Y-78047619D01*
X172952380Y-78952380D02*
X172952380Y-77952380D01*
X172952380Y-78904761D02*
X173047619Y-78952380D01*
X173238095Y-78952380D01*
X173333333Y-78904761D01*
X173380952Y-78857142D01*
X173428571Y-78761904D01*
X173428571Y-78476190D01*
X173380952Y-78380952D01*
X173333333Y-78333333D01*
X173238095Y-78285714D01*
X173047619Y-78285714D01*
X172952380Y-78333333D01*
X172047619Y-78285714D02*
X172047619Y-78952380D01*
X172476190Y-78285714D02*
X172476190Y-78809523D01*
X172428571Y-78904761D01*
X172333333Y-78952380D01*
X172190476Y-78952380D01*
X172095238Y-78904761D01*
X172047619Y-78857142D01*
X171142857Y-78904761D02*
X171238095Y-78952380D01*
X171428571Y-78952380D01*
X171523809Y-78904761D01*
X171571428Y-78857142D01*
X171619047Y-78761904D01*
X171619047Y-78476190D01*
X171571428Y-78380952D01*
X171523809Y-78333333D01*
X171428571Y-78285714D01*
X171238095Y-78285714D01*
X171142857Y-78333333D01*
X170714285Y-78952380D02*
X170714285Y-78285714D01*
X170714285Y-77952380D02*
X170761904Y-78000000D01*
X170714285Y-78047619D01*
X170666666Y-78000000D01*
X170714285Y-77952380D01*
X170714285Y-78047619D01*
X169809523Y-78952380D02*
X169809523Y-78428571D01*
X169857142Y-78333333D01*
X169952380Y-78285714D01*
X170142857Y-78285714D01*
X170238095Y-78333333D01*
X169809523Y-78904761D02*
X169904761Y-78952380D01*
X170142857Y-78952380D01*
X170238095Y-78904761D01*
X170285714Y-78809523D01*
X170285714Y-78714285D01*
X170238095Y-78619047D01*
X170142857Y-78571428D01*
X169904761Y-78571428D01*
X169809523Y-78523809D01*
X169190476Y-78952380D02*
X169285714Y-78904761D01*
X169333333Y-78809523D01*
X169333333Y-77952380D01*
X137171428Y-113765714D02*
X137171428Y-114432380D01*
X137409523Y-113384761D02*
X137647619Y-114099047D01*
X137028571Y-114099047D01*
X136742857Y-113432380D02*
X136076190Y-113432380D01*
X136504761Y-114432380D01*
X135695238Y-113765714D02*
X135695238Y-114765714D01*
X135695238Y-113813333D02*
X135600000Y-113765714D01*
X135409523Y-113765714D01*
X135314285Y-113813333D01*
X135266666Y-113860952D01*
X135219047Y-113956190D01*
X135219047Y-114241904D01*
X135266666Y-114337142D01*
X135314285Y-114384761D01*
X135409523Y-114432380D01*
X135600000Y-114432380D01*
X135695238Y-114384761D01*
X134457142Y-113908571D02*
X134790476Y-113908571D01*
X134790476Y-114432380D02*
X134790476Y-113432380D01*
X134314285Y-113432380D01*
X133219047Y-113384761D02*
X134076190Y-114670476D01*
X132409523Y-113432380D02*
X132885714Y-113432380D01*
X132933333Y-113908571D01*
X132885714Y-113860952D01*
X132790476Y-113813333D01*
X132552380Y-113813333D01*
X132457142Y-113860952D01*
X132409523Y-113908571D01*
X132361904Y-114003809D01*
X132361904Y-114241904D01*
X132409523Y-114337142D01*
X132457142Y-114384761D01*
X132552380Y-114432380D01*
X132790476Y-114432380D01*
X132885714Y-114384761D01*
X132933333Y-114337142D01*
X131742857Y-113432380D02*
X131647619Y-113432380D01*
X131552380Y-113480000D01*
X131504761Y-113527619D01*
X131457142Y-113622857D01*
X131409523Y-113813333D01*
X131409523Y-114051428D01*
X131457142Y-114241904D01*
X131504761Y-114337142D01*
X131552380Y-114384761D01*
X131647619Y-114432380D01*
X131742857Y-114432380D01*
X131838095Y-114384761D01*
X131885714Y-114337142D01*
X131933333Y-114241904D01*
X131980952Y-114051428D01*
X131980952Y-113813333D01*
X131933333Y-113622857D01*
X131885714Y-113527619D01*
X131838095Y-113480000D01*
X131742857Y-113432380D01*
X131123809Y-113432380D02*
X130790476Y-114432380D01*
X130457142Y-113432380D01*
D11*
X134233333Y-112835714D02*
X134271428Y-112873809D01*
X134385714Y-112911904D01*
X134461904Y-112911904D01*
X134576190Y-112873809D01*
X134652380Y-112797619D01*
X134690476Y-112721428D01*
X134728571Y-112569047D01*
X134728571Y-112454761D01*
X134690476Y-112302380D01*
X134652380Y-112226190D01*
X134576190Y-112150000D01*
X134461904Y-112111904D01*
X134385714Y-112111904D01*
X134271428Y-112150000D01*
X134233333Y-112188095D01*
X133928571Y-112188095D02*
X133890476Y-112150000D01*
X133814285Y-112111904D01*
X133623809Y-112111904D01*
X133547619Y-112150000D01*
X133509523Y-112188095D01*
X133471428Y-112264285D01*
X133471428Y-112340476D01*
X133509523Y-112454761D01*
X133966666Y-112911904D01*
X133471428Y-112911904D01*
D10*
X130580952Y-84328571D02*
X130914285Y-84328571D01*
X130914285Y-84852380D02*
X130914285Y-83852380D01*
X130438095Y-83852380D01*
X130057142Y-84852380D02*
X130057142Y-84185714D01*
X130057142Y-83852380D02*
X130104761Y-83900000D01*
X130057142Y-83947619D01*
X130009523Y-83900000D01*
X130057142Y-83852380D01*
X130057142Y-83947619D01*
X129152380Y-84852380D02*
X129152380Y-83852380D01*
X129152380Y-84804761D02*
X129247619Y-84852380D01*
X129438095Y-84852380D01*
X129533333Y-84804761D01*
X129580952Y-84757142D01*
X129628571Y-84661904D01*
X129628571Y-84376190D01*
X129580952Y-84280952D01*
X129533333Y-84233333D01*
X129438095Y-84185714D01*
X129247619Y-84185714D01*
X129152380Y-84233333D01*
X128247619Y-84185714D02*
X128247619Y-84852380D01*
X128676190Y-84185714D02*
X128676190Y-84709523D01*
X128628571Y-84804761D01*
X128533333Y-84852380D01*
X128390476Y-84852380D01*
X128295238Y-84804761D01*
X128247619Y-84757142D01*
X127342857Y-84804761D02*
X127438095Y-84852380D01*
X127628571Y-84852380D01*
X127723809Y-84804761D01*
X127771428Y-84757142D01*
X127819047Y-84661904D01*
X127819047Y-84376190D01*
X127771428Y-84280952D01*
X127723809Y-84233333D01*
X127628571Y-84185714D01*
X127438095Y-84185714D01*
X127342857Y-84233333D01*
X126914285Y-84852380D02*
X126914285Y-84185714D01*
X126914285Y-83852380D02*
X126961904Y-83900000D01*
X126914285Y-83947619D01*
X126866666Y-83900000D01*
X126914285Y-83852380D01*
X126914285Y-83947619D01*
X126009523Y-84852380D02*
X126009523Y-84328571D01*
X126057142Y-84233333D01*
X126152380Y-84185714D01*
X126342857Y-84185714D01*
X126438095Y-84233333D01*
X126009523Y-84804761D02*
X126104761Y-84852380D01*
X126342857Y-84852380D01*
X126438095Y-84804761D01*
X126485714Y-84709523D01*
X126485714Y-84614285D01*
X126438095Y-84519047D01*
X126342857Y-84471428D01*
X126104761Y-84471428D01*
X126009523Y-84423809D01*
X125390476Y-84852380D02*
X125485714Y-84804761D01*
X125533333Y-84709523D01*
X125533333Y-83852380D01*
X127496428Y-115040714D02*
X127496428Y-115707380D01*
X127734523Y-114659761D02*
X127972619Y-115374047D01*
X127353571Y-115374047D01*
X127067857Y-114707380D02*
X126401190Y-114707380D01*
X126829761Y-115707380D01*
X126020238Y-115040714D02*
X126020238Y-116040714D01*
X126020238Y-115088333D02*
X125925000Y-115040714D01*
X125734523Y-115040714D01*
X125639285Y-115088333D01*
X125591666Y-115135952D01*
X125544047Y-115231190D01*
X125544047Y-115516904D01*
X125591666Y-115612142D01*
X125639285Y-115659761D01*
X125734523Y-115707380D01*
X125925000Y-115707380D01*
X126020238Y-115659761D01*
X124782142Y-115183571D02*
X125115476Y-115183571D01*
X125115476Y-115707380D02*
X125115476Y-114707380D01*
X124639285Y-114707380D01*
X123544047Y-114659761D02*
X124401190Y-115945476D01*
X122734523Y-114707380D02*
X123210714Y-114707380D01*
X123258333Y-115183571D01*
X123210714Y-115135952D01*
X123115476Y-115088333D01*
X122877380Y-115088333D01*
X122782142Y-115135952D01*
X122734523Y-115183571D01*
X122686904Y-115278809D01*
X122686904Y-115516904D01*
X122734523Y-115612142D01*
X122782142Y-115659761D01*
X122877380Y-115707380D01*
X123115476Y-115707380D01*
X123210714Y-115659761D01*
X123258333Y-115612142D01*
X122067857Y-114707380D02*
X121972619Y-114707380D01*
X121877380Y-114755000D01*
X121829761Y-114802619D01*
X121782142Y-114897857D01*
X121734523Y-115088333D01*
X121734523Y-115326428D01*
X121782142Y-115516904D01*
X121829761Y-115612142D01*
X121877380Y-115659761D01*
X121972619Y-115707380D01*
X122067857Y-115707380D01*
X122163095Y-115659761D01*
X122210714Y-115612142D01*
X122258333Y-115516904D01*
X122305952Y-115326428D01*
X122305952Y-115088333D01*
X122258333Y-114897857D01*
X122210714Y-114802619D01*
X122163095Y-114755000D01*
X122067857Y-114707380D01*
X121448809Y-114707380D02*
X121115476Y-115707380D01*
X120782142Y-114707380D01*
D11*
X124558333Y-114110714D02*
X124596428Y-114148809D01*
X124710714Y-114186904D01*
X124786904Y-114186904D01*
X124901190Y-114148809D01*
X124977380Y-114072619D01*
X125015476Y-113996428D01*
X125053571Y-113844047D01*
X125053571Y-113729761D01*
X125015476Y-113577380D01*
X124977380Y-113501190D01*
X124901190Y-113425000D01*
X124786904Y-113386904D01*
X124710714Y-113386904D01*
X124596428Y-113425000D01*
X124558333Y-113463095D01*
X124291666Y-113386904D02*
X123796428Y-113386904D01*
X124063095Y-113691666D01*
X123948809Y-113691666D01*
X123872619Y-113729761D01*
X123834523Y-113767857D01*
X123796428Y-113844047D01*
X123796428Y-114034523D01*
X123834523Y-114110714D01*
X123872619Y-114148809D01*
X123948809Y-114186904D01*
X124177380Y-114186904D01*
X124253571Y-114148809D01*
X124291666Y-114110714D01*
D10*
X130242857Y-109252380D02*
X130814285Y-109252380D01*
X130528571Y-109252380D02*
X130528571Y-108252380D01*
X130623809Y-108395238D01*
X130719047Y-108490476D01*
X130814285Y-108538095D01*
X129814285Y-109252380D02*
X129814285Y-108252380D01*
X129242857Y-109252380D01*
X129242857Y-108252380D01*
X128338095Y-108585714D02*
X128338095Y-109252380D01*
X128576190Y-108204761D02*
X128814285Y-108919047D01*
X128195238Y-108919047D01*
X127290476Y-109252380D02*
X127861904Y-109252380D01*
X127576190Y-109252380D02*
X127576190Y-108252380D01*
X127671428Y-108395238D01*
X127766666Y-108490476D01*
X127861904Y-108538095D01*
X126433333Y-108585714D02*
X126433333Y-109252380D01*
X126671428Y-108204761D02*
X126909523Y-108919047D01*
X126290476Y-108919047D01*
X125766666Y-108680952D02*
X125861904Y-108633333D01*
X125909523Y-108585714D01*
X125957142Y-108490476D01*
X125957142Y-108442857D01*
X125909523Y-108347619D01*
X125861904Y-108300000D01*
X125766666Y-108252380D01*
X125576190Y-108252380D01*
X125480952Y-108300000D01*
X125433333Y-108347619D01*
X125385714Y-108442857D01*
X125385714Y-108490476D01*
X125433333Y-108585714D01*
X125480952Y-108633333D01*
X125576190Y-108680952D01*
X125766666Y-108680952D01*
X125861904Y-108728571D01*
X125909523Y-108776190D01*
X125957142Y-108871428D01*
X125957142Y-109061904D01*
X125909523Y-109157142D01*
X125861904Y-109204761D01*
X125766666Y-109252380D01*
X125576190Y-109252380D01*
X125480952Y-109204761D01*
X125433333Y-109157142D01*
X125385714Y-109061904D01*
X125385714Y-108871428D01*
X125433333Y-108776190D01*
X125480952Y-108728571D01*
X125576190Y-108680952D01*
X168172380Y-119778571D02*
X168172380Y-119207142D01*
X168172380Y-119492857D02*
X167172380Y-119492857D01*
X167315238Y-119397619D01*
X167410476Y-119302380D01*
X167458095Y-119207142D01*
X167172380Y-120397619D02*
X167172380Y-120492857D01*
X167220000Y-120588095D01*
X167267619Y-120635714D01*
X167362857Y-120683333D01*
X167553333Y-120730952D01*
X167791428Y-120730952D01*
X167981904Y-120683333D01*
X168077142Y-120635714D01*
X168124761Y-120588095D01*
X168172380Y-120492857D01*
X168172380Y-120397619D01*
X168124761Y-120302380D01*
X168077142Y-120254761D01*
X167981904Y-120207142D01*
X167791428Y-120159523D01*
X167553333Y-120159523D01*
X167362857Y-120207142D01*
X167267619Y-120254761D01*
X167220000Y-120302380D01*
X167172380Y-120397619D01*
X167172380Y-121350000D02*
X167172380Y-121445238D01*
X167220000Y-121540476D01*
X167267619Y-121588095D01*
X167362857Y-121635714D01*
X167553333Y-121683333D01*
X167791428Y-121683333D01*
X167981904Y-121635714D01*
X168077142Y-121588095D01*
X168124761Y-121540476D01*
X168172380Y-121445238D01*
X168172380Y-121350000D01*
X168124761Y-121254761D01*
X168077142Y-121207142D01*
X167981904Y-121159523D01*
X167791428Y-121111904D01*
X167553333Y-121111904D01*
X167362857Y-121159523D01*
X167267619Y-121207142D01*
X167220000Y-121254761D01*
X167172380Y-121350000D01*
X168172380Y-122111904D02*
X167172380Y-122111904D01*
X167791428Y-122207142D02*
X168172380Y-122492857D01*
X167505714Y-122492857D02*
X167886666Y-122111904D01*
D11*
X169511904Y-120335714D02*
X169130952Y-120069047D01*
X169511904Y-119878571D02*
X168711904Y-119878571D01*
X168711904Y-120183333D01*
X168750000Y-120259523D01*
X168788095Y-120297619D01*
X168864285Y-120335714D01*
X168978571Y-120335714D01*
X169054761Y-120297619D01*
X169092857Y-120259523D01*
X169130952Y-120183333D01*
X169130952Y-119878571D01*
X168711904Y-120602380D02*
X168711904Y-121097619D01*
X169016666Y-120830952D01*
X169016666Y-120945238D01*
X169054761Y-121021428D01*
X169092857Y-121059523D01*
X169169047Y-121097619D01*
X169359523Y-121097619D01*
X169435714Y-121059523D01*
X169473809Y-121021428D01*
X169511904Y-120945238D01*
X169511904Y-120716666D01*
X169473809Y-120640476D01*
X169435714Y-120602380D01*
X169511904Y-121859523D02*
X169511904Y-121402380D01*
X169511904Y-121630952D02*
X168711904Y-121630952D01*
X168826190Y-121554761D01*
X168902380Y-121478571D01*
X168940476Y-121402380D01*
D10*
X140052380Y-106657142D02*
X140052380Y-106085714D01*
X140052380Y-106371428D02*
X139052380Y-106371428D01*
X139195238Y-106276190D01*
X139290476Y-106180952D01*
X139338095Y-106085714D01*
X140052380Y-107085714D02*
X139052380Y-107085714D01*
X140052380Y-107657142D01*
X139052380Y-107657142D01*
X139385714Y-108561904D02*
X140052380Y-108561904D01*
X139004761Y-108323809D02*
X139719047Y-108085714D01*
X139719047Y-108704761D01*
X140052380Y-109609523D02*
X140052380Y-109038095D01*
X140052380Y-109323809D02*
X139052380Y-109323809D01*
X139195238Y-109228571D01*
X139290476Y-109133333D01*
X139338095Y-109038095D01*
X139385714Y-110466666D02*
X140052380Y-110466666D01*
X139004761Y-110228571D02*
X139719047Y-109990476D01*
X139719047Y-110609523D01*
X139480952Y-111133333D02*
X139433333Y-111038095D01*
X139385714Y-110990476D01*
X139290476Y-110942857D01*
X139242857Y-110942857D01*
X139147619Y-110990476D01*
X139100000Y-111038095D01*
X139052380Y-111133333D01*
X139052380Y-111323809D01*
X139100000Y-111419047D01*
X139147619Y-111466666D01*
X139242857Y-111514285D01*
X139290476Y-111514285D01*
X139385714Y-111466666D01*
X139433333Y-111419047D01*
X139480952Y-111323809D01*
X139480952Y-111133333D01*
X139528571Y-111038095D01*
X139576190Y-110990476D01*
X139671428Y-110942857D01*
X139861904Y-110942857D01*
X139957142Y-110990476D01*
X140004761Y-111038095D01*
X140052380Y-111133333D01*
X140052380Y-111323809D01*
X140004761Y-111419047D01*
X139957142Y-111466666D01*
X139861904Y-111514285D01*
X139671428Y-111514285D01*
X139576190Y-111466666D01*
X139528571Y-111419047D01*
X139480952Y-111323809D01*
X158678571Y-124202380D02*
X158678571Y-123202380D01*
X158345238Y-123916666D01*
X158011904Y-123202380D01*
X158011904Y-124202380D01*
X157583333Y-123297619D02*
X157535714Y-123250000D01*
X157440476Y-123202380D01*
X157202380Y-123202380D01*
X157107142Y-123250000D01*
X157059523Y-123297619D01*
X157011904Y-123392857D01*
X157011904Y-123488095D01*
X157059523Y-123630952D01*
X157630952Y-124202380D01*
X157011904Y-124202380D01*
X155869047Y-124154761D02*
X155726190Y-124202380D01*
X155488095Y-124202380D01*
X155392857Y-124154761D01*
X155345238Y-124107142D01*
X155297619Y-124011904D01*
X155297619Y-123916666D01*
X155345238Y-123821428D01*
X155392857Y-123773809D01*
X155488095Y-123726190D01*
X155678571Y-123678571D01*
X155773809Y-123630952D01*
X155821428Y-123583333D01*
X155869047Y-123488095D01*
X155869047Y-123392857D01*
X155821428Y-123297619D01*
X155773809Y-123250000D01*
X155678571Y-123202380D01*
X155440476Y-123202380D01*
X155297619Y-123250000D01*
X154869047Y-124202380D02*
X154869047Y-123202380D01*
X154535714Y-123916666D01*
X154202380Y-123202380D01*
X154202380Y-124202380D01*
X153869047Y-123202380D02*
X153297619Y-123202380D01*
X153583333Y-124202380D02*
X153583333Y-123202380D01*
X152202380Y-124202380D02*
X152202380Y-123202380D01*
X151630952Y-124202380D01*
X151630952Y-123202380D01*
X151154761Y-123202380D02*
X151154761Y-124011904D01*
X151107142Y-124107142D01*
X151059523Y-124154761D01*
X150964285Y-124202380D01*
X150773809Y-124202380D01*
X150678571Y-124154761D01*
X150630952Y-124107142D01*
X150583333Y-124011904D01*
X150583333Y-123202380D01*
X150250000Y-123202380D02*
X149678571Y-123202380D01*
X149964285Y-124202380D02*
X149964285Y-123202380D01*
X172995238Y-114732380D02*
X173566666Y-114732380D01*
X173280952Y-114732380D02*
X173280952Y-113732380D01*
X173376190Y-113875238D01*
X173471428Y-113970476D01*
X173566666Y-114018095D01*
X172376190Y-113732380D02*
X172280952Y-113732380D01*
X172185714Y-113780000D01*
X172138095Y-113827619D01*
X172090476Y-113922857D01*
X172042857Y-114113333D01*
X172042857Y-114351428D01*
X172090476Y-114541904D01*
X172138095Y-114637142D01*
X172185714Y-114684761D01*
X172280952Y-114732380D01*
X172376190Y-114732380D01*
X172471428Y-114684761D01*
X172519047Y-114637142D01*
X172566666Y-114541904D01*
X172614285Y-114351428D01*
X172614285Y-114113333D01*
X172566666Y-113922857D01*
X172519047Y-113827619D01*
X172471428Y-113780000D01*
X172376190Y-113732380D01*
X171614285Y-114732380D02*
X171614285Y-113732380D01*
X171519047Y-114351428D02*
X171233333Y-114732380D01*
X171233333Y-114065714D02*
X171614285Y-114446666D01*
D11*
X172914285Y-113211904D02*
X173180952Y-112830952D01*
X173371428Y-113211904D02*
X173371428Y-112411904D01*
X173066666Y-112411904D01*
X172990476Y-112450000D01*
X172952380Y-112488095D01*
X172914285Y-112564285D01*
X172914285Y-112678571D01*
X172952380Y-112754761D01*
X172990476Y-112792857D01*
X173066666Y-112830952D01*
X173371428Y-112830952D01*
X172647619Y-112411904D02*
X172152380Y-112411904D01*
X172419047Y-112716666D01*
X172304761Y-112716666D01*
X172228571Y-112754761D01*
X172190476Y-112792857D01*
X172152380Y-112869047D01*
X172152380Y-113059523D01*
X172190476Y-113135714D01*
X172228571Y-113173809D01*
X172304761Y-113211904D01*
X172533333Y-113211904D01*
X172609523Y-113173809D01*
X172647619Y-113135714D01*
X171466666Y-112678571D02*
X171466666Y-113211904D01*
X171657142Y-112373809D02*
X171847619Y-112945238D01*
X171352380Y-112945238D01*
D10*
X180411904Y-126287142D02*
X180364285Y-126334761D01*
X180411904Y-126382380D01*
X180459523Y-126334761D01*
X180411904Y-126287142D01*
X180411904Y-126382380D01*
X179411904Y-126382380D02*
X179983333Y-126382380D01*
X179697619Y-126382380D02*
X179697619Y-125382380D01*
X179792857Y-125525238D01*
X179888095Y-125620476D01*
X179983333Y-125668095D01*
X178554761Y-125715714D02*
X178554761Y-126382380D01*
X178983333Y-125715714D02*
X178983333Y-126239523D01*
X178935714Y-126334761D01*
X178840476Y-126382380D01*
X178697619Y-126382380D01*
X178602380Y-126334761D01*
X178554761Y-126287142D01*
X177745238Y-125858571D02*
X178078571Y-125858571D01*
X178078571Y-126382380D02*
X178078571Y-125382380D01*
X177602380Y-125382380D01*
X176507142Y-125334761D02*
X177364285Y-126620476D01*
X175650000Y-126382380D02*
X176221428Y-126382380D01*
X175935714Y-126382380D02*
X175935714Y-125382380D01*
X176030952Y-125525238D01*
X176126190Y-125620476D01*
X176221428Y-125668095D01*
X174792857Y-125382380D02*
X174983333Y-125382380D01*
X175078571Y-125430000D01*
X175126190Y-125477619D01*
X175221428Y-125620476D01*
X175269047Y-125810952D01*
X175269047Y-126191904D01*
X175221428Y-126287142D01*
X175173809Y-126334761D01*
X175078571Y-126382380D01*
X174888095Y-126382380D01*
X174792857Y-126334761D01*
X174745238Y-126287142D01*
X174697619Y-126191904D01*
X174697619Y-125953809D01*
X174745238Y-125858571D01*
X174792857Y-125810952D01*
X174888095Y-125763333D01*
X175078571Y-125763333D01*
X175173809Y-125810952D01*
X175221428Y-125858571D01*
X175269047Y-125953809D01*
X174411904Y-125382380D02*
X174078571Y-126382380D01*
X173745238Y-125382380D01*
D11*
X177664285Y-124785714D02*
X177702380Y-124823809D01*
X177816666Y-124861904D01*
X177892857Y-124861904D01*
X178007142Y-124823809D01*
X178083333Y-124747619D01*
X178121428Y-124671428D01*
X178159523Y-124519047D01*
X178159523Y-124404761D01*
X178121428Y-124252380D01*
X178083333Y-124176190D01*
X178007142Y-124100000D01*
X177892857Y-124061904D01*
X177816666Y-124061904D01*
X177702380Y-124100000D01*
X177664285Y-124138095D01*
X176978571Y-124328571D02*
X176978571Y-124861904D01*
X177169047Y-124023809D02*
X177359523Y-124595238D01*
X176864285Y-124595238D01*
X176216666Y-124328571D02*
X176216666Y-124861904D01*
X176407142Y-124023809D02*
X176597619Y-124595238D01*
X176102380Y-124595238D01*
D10*
X175961904Y-123477142D02*
X175914285Y-123524761D01*
X175961904Y-123572380D01*
X176009523Y-123524761D01*
X175961904Y-123477142D01*
X175961904Y-123572380D01*
X174961904Y-123572380D02*
X175533333Y-123572380D01*
X175247619Y-123572380D02*
X175247619Y-122572380D01*
X175342857Y-122715238D01*
X175438095Y-122810476D01*
X175533333Y-122858095D01*
X174104761Y-122905714D02*
X174104761Y-123572380D01*
X174533333Y-122905714D02*
X174533333Y-123429523D01*
X174485714Y-123524761D01*
X174390476Y-123572380D01*
X174247619Y-123572380D01*
X174152380Y-123524761D01*
X174104761Y-123477142D01*
X173295238Y-123048571D02*
X173628571Y-123048571D01*
X173628571Y-123572380D02*
X173628571Y-122572380D01*
X173152380Y-122572380D01*
X172057142Y-122524761D02*
X172914285Y-123810476D01*
X171200000Y-123572380D02*
X171771428Y-123572380D01*
X171485714Y-123572380D02*
X171485714Y-122572380D01*
X171580952Y-122715238D01*
X171676190Y-122810476D01*
X171771428Y-122858095D01*
X170342857Y-122572380D02*
X170533333Y-122572380D01*
X170628571Y-122620000D01*
X170676190Y-122667619D01*
X170771428Y-122810476D01*
X170819047Y-123000952D01*
X170819047Y-123381904D01*
X170771428Y-123477142D01*
X170723809Y-123524761D01*
X170628571Y-123572380D01*
X170438095Y-123572380D01*
X170342857Y-123524761D01*
X170295238Y-123477142D01*
X170247619Y-123381904D01*
X170247619Y-123143809D01*
X170295238Y-123048571D01*
X170342857Y-123000952D01*
X170438095Y-122953333D01*
X170628571Y-122953333D01*
X170723809Y-123000952D01*
X170771428Y-123048571D01*
X170819047Y-123143809D01*
X169961904Y-122572380D02*
X169628571Y-123572380D01*
X169295238Y-122572380D01*
D11*
X173214285Y-124835714D02*
X173252380Y-124873809D01*
X173366666Y-124911904D01*
X173442857Y-124911904D01*
X173557142Y-124873809D01*
X173633333Y-124797619D01*
X173671428Y-124721428D01*
X173709523Y-124569047D01*
X173709523Y-124454761D01*
X173671428Y-124302380D01*
X173633333Y-124226190D01*
X173557142Y-124150000D01*
X173442857Y-124111904D01*
X173366666Y-124111904D01*
X173252380Y-124150000D01*
X173214285Y-124188095D01*
X172528571Y-124378571D02*
X172528571Y-124911904D01*
X172719047Y-124073809D02*
X172909523Y-124645238D01*
X172414285Y-124645238D01*
X171728571Y-124111904D02*
X172109523Y-124111904D01*
X172147619Y-124492857D01*
X172109523Y-124454761D01*
X172033333Y-124416666D01*
X171842857Y-124416666D01*
X171766666Y-124454761D01*
X171728571Y-124492857D01*
X171690476Y-124569047D01*
X171690476Y-124759523D01*
X171728571Y-124835714D01*
X171766666Y-124873809D01*
X171842857Y-124911904D01*
X172033333Y-124911904D01*
X172109523Y-124873809D01*
X172147619Y-124835714D01*
D10*
X173880952Y-134928571D02*
X174214285Y-134928571D01*
X174214285Y-135452380D02*
X174214285Y-134452380D01*
X173738095Y-134452380D01*
X173357142Y-135452380D02*
X173357142Y-134785714D01*
X173357142Y-134452380D02*
X173404761Y-134500000D01*
X173357142Y-134547619D01*
X173309523Y-134500000D01*
X173357142Y-134452380D01*
X173357142Y-134547619D01*
X172452380Y-135452380D02*
X172452380Y-134452380D01*
X172452380Y-135404761D02*
X172547619Y-135452380D01*
X172738095Y-135452380D01*
X172833333Y-135404761D01*
X172880952Y-135357142D01*
X172928571Y-135261904D01*
X172928571Y-134976190D01*
X172880952Y-134880952D01*
X172833333Y-134833333D01*
X172738095Y-134785714D01*
X172547619Y-134785714D01*
X172452380Y-134833333D01*
X171547619Y-134785714D02*
X171547619Y-135452380D01*
X171976190Y-134785714D02*
X171976190Y-135309523D01*
X171928571Y-135404761D01*
X171833333Y-135452380D01*
X171690476Y-135452380D01*
X171595238Y-135404761D01*
X171547619Y-135357142D01*
X170642857Y-135404761D02*
X170738095Y-135452380D01*
X170928571Y-135452380D01*
X171023809Y-135404761D01*
X171071428Y-135357142D01*
X171119047Y-135261904D01*
X171119047Y-134976190D01*
X171071428Y-134880952D01*
X171023809Y-134833333D01*
X170928571Y-134785714D01*
X170738095Y-134785714D01*
X170642857Y-134833333D01*
X170214285Y-135452380D02*
X170214285Y-134785714D01*
X170214285Y-134452380D02*
X170261904Y-134500000D01*
X170214285Y-134547619D01*
X170166666Y-134500000D01*
X170214285Y-134452380D01*
X170214285Y-134547619D01*
X169309523Y-135452380D02*
X169309523Y-134928571D01*
X169357142Y-134833333D01*
X169452380Y-134785714D01*
X169642857Y-134785714D01*
X169738095Y-134833333D01*
X169309523Y-135404761D02*
X169404761Y-135452380D01*
X169642857Y-135452380D01*
X169738095Y-135404761D01*
X169785714Y-135309523D01*
X169785714Y-135214285D01*
X169738095Y-135119047D01*
X169642857Y-135071428D01*
X169404761Y-135071428D01*
X169309523Y-135023809D01*
X168690476Y-135452380D02*
X168785714Y-135404761D01*
X168833333Y-135309523D01*
X168833333Y-134452380D01*
X178516666Y-112677380D02*
X177945238Y-112677380D01*
X178230952Y-113677380D02*
X178230952Y-112677380D01*
X177707142Y-112677380D02*
X177040476Y-113677380D01*
X177040476Y-112677380D02*
X177707142Y-113677380D01*
X176326190Y-113153571D02*
X176183333Y-113201190D01*
X176135714Y-113248809D01*
X176088095Y-113344047D01*
X176088095Y-113486904D01*
X176135714Y-113582142D01*
X176183333Y-113629761D01*
X176278571Y-113677380D01*
X176659523Y-113677380D01*
X176659523Y-112677380D01*
X176326190Y-112677380D01*
X176230952Y-112725000D01*
X176183333Y-112772619D01*
X176135714Y-112867857D01*
X176135714Y-112963095D01*
X176183333Y-113058333D01*
X176230952Y-113105952D01*
X176326190Y-113153571D01*
X176659523Y-113153571D01*
X175469047Y-112677380D02*
X175373809Y-112677380D01*
X175278571Y-112725000D01*
X175230952Y-112772619D01*
X175183333Y-112867857D01*
X175135714Y-113058333D01*
X175135714Y-113296428D01*
X175183333Y-113486904D01*
X175230952Y-113582142D01*
X175278571Y-113629761D01*
X175373809Y-113677380D01*
X175469047Y-113677380D01*
X175564285Y-113629761D01*
X175611904Y-113582142D01*
X175659523Y-113486904D01*
X175707142Y-113296428D01*
X175707142Y-113058333D01*
X175659523Y-112867857D01*
X175611904Y-112772619D01*
X175564285Y-112725000D01*
X175469047Y-112677380D01*
X174183333Y-113677380D02*
X174754761Y-113677380D01*
X174469047Y-113677380D02*
X174469047Y-112677380D01*
X174564285Y-112820238D01*
X174659523Y-112915476D01*
X174754761Y-112963095D01*
X173564285Y-112677380D02*
X173469047Y-112677380D01*
X173373809Y-112725000D01*
X173326190Y-112772619D01*
X173278571Y-112867857D01*
X173230952Y-113058333D01*
X173230952Y-113296428D01*
X173278571Y-113486904D01*
X173326190Y-113582142D01*
X173373809Y-113629761D01*
X173469047Y-113677380D01*
X173564285Y-113677380D01*
X173659523Y-113629761D01*
X173707142Y-113582142D01*
X173754761Y-113486904D01*
X173802380Y-113296428D01*
X173802380Y-113058333D01*
X173754761Y-112867857D01*
X173707142Y-112772619D01*
X173659523Y-112725000D01*
X173564285Y-112677380D01*
X172373809Y-113010714D02*
X172373809Y-113677380D01*
X172611904Y-112629761D02*
X172849999Y-113344047D01*
X172230952Y-113344047D01*
X171850000Y-113677380D02*
X171850000Y-112677380D01*
X171611904Y-112677380D01*
X171469047Y-112725000D01*
X171373809Y-112820238D01*
X171326190Y-112915476D01*
X171278571Y-113105952D01*
X171278571Y-113248809D01*
X171326190Y-113439285D01*
X171373809Y-113534523D01*
X171469047Y-113629761D01*
X171611904Y-113677380D01*
X171850000Y-113677380D01*
D12*
X127125000Y-114250000D02*
X127125000Y-113450000D01*
X128725000Y-113750000D02*
X128725000Y-114250000D01*
X128425000Y-113450000D02*
X128725000Y-113750000D01*
X128725000Y-114250000D02*
X127125000Y-114250000D01*
X127125000Y-113450000D02*
X128425000Y-113450000D01*
D10*
X166950000Y-133700000D02*
X159450000Y-133700000D01*
X159450000Y-136700000D02*
X166950000Y-136700000D01*
X166950000Y-136700000D02*
X166950000Y-133700000D01*
X159450000Y-133700000D02*
X159450000Y-136700000D01*
D12*
X133275000Y-114000000D02*
X134575000Y-114000000D01*
X134575000Y-114000000D02*
X134875000Y-114300000D01*
X134875000Y-114800000D02*
X133275000Y-114800000D01*
X133275000Y-114800000D02*
X133275000Y-114000000D01*
X134875000Y-114300000D02*
X134875000Y-114800000D01*
X172750000Y-80500000D02*
G75*
G03*
X172750000Y-80500000I-750000J0D01*
G01*
X133300000Y-112150000D02*
X133300000Y-112950000D01*
X133300000Y-112950000D02*
X134900000Y-112950000D01*
X134900000Y-112950000D02*
X134900000Y-112150000D01*
X134900000Y-112150000D02*
X133300000Y-112150000D01*
X128950000Y-86400000D02*
G75*
G03*
X128950000Y-86400000I-750000J0D01*
G01*
X123625000Y-114225000D02*
X125225000Y-114225000D01*
X125225000Y-113425000D02*
X123625000Y-113425000D01*
X125225000Y-114225000D02*
X125225000Y-113425000D01*
X123625000Y-113425000D02*
X123625000Y-114225000D01*
D10*
X166950000Y-129000000D02*
X166950000Y-126000000D01*
X159450000Y-129000000D02*
X166950000Y-129000000D01*
X159450000Y-126000000D02*
X159450000Y-129000000D01*
X166950000Y-126000000D02*
X159450000Y-126000000D01*
D12*
X127750000Y-110900000D02*
X127750000Y-111450000D01*
X126700000Y-111800000D02*
X129500000Y-111800000D01*
X129500000Y-110000000D02*
X126700000Y-110000000D01*
X127750000Y-110900000D02*
X127750000Y-110350000D01*
X128350000Y-110900000D02*
X128850000Y-110900000D01*
X128350000Y-110500000D02*
X127750000Y-110900000D01*
X126700000Y-110000000D02*
X126700000Y-111800000D01*
X127750000Y-110900000D02*
X128350000Y-111300000D01*
X127350000Y-110900000D02*
X127750000Y-110900000D01*
X129500000Y-111800000D02*
X129500000Y-110000000D01*
X128350000Y-111300000D02*
X128350000Y-110500000D01*
X168737500Y-120050000D02*
X168737500Y-121650000D01*
X169562500Y-121650000D02*
X169562500Y-120050000D01*
X168737500Y-121650000D02*
X169562500Y-121650000D01*
X169562500Y-120050000D02*
X168737500Y-120050000D01*
X140800000Y-110200000D02*
X142600000Y-110200000D01*
X141300000Y-108550000D02*
X141700000Y-109150000D01*
X140800000Y-107400000D02*
X140800000Y-110200000D01*
X141700000Y-109150000D02*
X142100000Y-108550000D01*
X142100000Y-108550000D02*
X141300000Y-108550000D01*
X141700000Y-109550000D02*
X141700000Y-109150000D01*
X142600000Y-110200000D02*
X142600000Y-107400000D01*
X142600000Y-107400000D02*
X140800000Y-107400000D01*
X141700000Y-109150000D02*
X141150000Y-109150000D01*
X141700000Y-109150000D02*
X142250000Y-109150000D01*
X141700000Y-108550000D02*
X141700000Y-108050000D01*
X171600000Y-113262500D02*
X173200000Y-113262500D01*
X173200000Y-112437500D02*
X171600000Y-112437500D01*
X171600000Y-112437500D02*
X171600000Y-113262500D01*
X173200000Y-113262500D02*
X173200000Y-112437500D01*
X177950000Y-124900000D02*
X177950000Y-124100000D01*
X177950000Y-124100000D02*
X176350000Y-124100000D01*
X176350000Y-124100000D02*
X176350000Y-124900000D01*
X176350000Y-124900000D02*
X177950000Y-124900000D01*
X173500000Y-124150000D02*
X171900000Y-124150000D01*
X173500000Y-124950000D02*
X173500000Y-124150000D01*
X171900000Y-124150000D02*
X171900000Y-124950000D01*
X171900000Y-124950000D02*
X173500000Y-124950000D01*
X172250000Y-137000000D02*
G75*
G03*
X172250000Y-137000000I-750000J0D01*
G01*
D10*
X176800000Y-114250000D02*
X172900000Y-114250000D01*
X173900000Y-122950000D02*
X176800000Y-122950000D01*
X172900000Y-121950000D02*
X173900000Y-122950000D01*
X172900000Y-114250000D02*
X172900000Y-121950000D01*
X176800000Y-122950000D02*
X176800000Y-114250000D01*
M02*
