G04 #@! TF.GenerationSoftware,KiCad,Pcbnew,6.0.11+dfsg-1~bpo11+1*
G04 #@! TF.CreationDate,2023-05-20T19:26:12-04:00*
G04 #@! TF.ProjectId,RUSP_Daughterboard,52555350-5f44-4617-9567-68746572626f,rev?*
G04 #@! TF.SameCoordinates,Original*
G04 #@! TF.FileFunction,AssemblyDrawing,Top*
%FSLAX46Y46*%
G04 Gerber Fmt 4.6, Leading zero omitted, Abs format (unit mm)*
G04 Created by KiCad (PCBNEW 6.0.11+dfsg-1~bpo11+1) date 2023-05-20 19:26:12*
%MOMM*%
%LPD*%
G01*
G04 APERTURE LIST*
%ADD10C,0.200000*%
%ADD11C,0.150000*%
%ADD12C,0.120000*%
%ADD13C,0.015000*%
%ADD14C,0.100000*%
G04 APERTURE END LIST*
D10*
X183000000Y-100000000D02*
G75*
G03*
X183000000Y-100000000I-33000000J0D01*
G01*
D11*
X143084860Y-121297890D02*
X143152203Y-121297890D01*
X143152203Y-121365233D01*
X143084860Y-121365233D01*
X143084860Y-121297890D01*
X143152203Y-121365233D01*
X143859310Y-120658126D02*
X143455249Y-121062187D01*
X143657279Y-120860157D02*
X142950173Y-120153050D01*
X142983844Y-120321409D01*
X142983844Y-120456096D01*
X142950173Y-120557111D01*
X143993997Y-119580630D02*
X144465401Y-120052035D01*
X143690951Y-119883676D02*
X144061340Y-120254065D01*
X144162356Y-120287737D01*
X144263371Y-120254065D01*
X144364386Y-120153050D01*
X144398058Y-120052035D01*
X144398058Y-119984691D01*
X144667432Y-119109226D02*
X144431730Y-119344928D01*
X144802119Y-119715317D02*
X144095012Y-119008211D01*
X144431730Y-118671493D01*
X145172508Y-117863371D02*
X145475554Y-119378600D01*
X146519378Y-117998058D02*
X146115317Y-118402119D01*
X146317348Y-118200088D02*
X145610241Y-117492982D01*
X145643913Y-117661340D01*
X145643913Y-117796027D01*
X145610241Y-117897043D01*
X146418363Y-116684860D02*
X146283676Y-116819547D01*
X146250004Y-116920562D01*
X146250004Y-116987905D01*
X146283676Y-117156264D01*
X146384691Y-117324623D01*
X146654065Y-117593997D01*
X146755081Y-117627669D01*
X146822424Y-117627669D01*
X146923439Y-117593997D01*
X147058126Y-117459310D01*
X147091798Y-117358295D01*
X147091798Y-117290951D01*
X147058126Y-117189936D01*
X146889768Y-117021577D01*
X146788752Y-116987905D01*
X146721409Y-116987905D01*
X146620394Y-117021577D01*
X146485707Y-117156264D01*
X146452035Y-117257279D01*
X146452035Y-117324623D01*
X146485707Y-117425638D01*
X146687737Y-116415486D02*
X147630546Y-116886890D01*
X147159142Y-115944081D01*
D12*
X146257749Y-120046311D02*
X146257749Y-120100186D01*
X146203874Y-120207935D01*
X146150000Y-120261810D01*
X146042250Y-120315685D01*
X145934500Y-120315685D01*
X145853688Y-120288748D01*
X145719001Y-120207935D01*
X145638189Y-120127123D01*
X145557377Y-119992436D01*
X145530439Y-119911624D01*
X145530439Y-119803874D01*
X145584314Y-119696125D01*
X145638189Y-119642250D01*
X145745938Y-119588375D01*
X145799813Y-119588375D01*
X146257749Y-119022690D02*
X145988375Y-119292064D01*
X146230812Y-119588375D01*
X146230812Y-119534500D01*
X146257749Y-119453688D01*
X146392436Y-119319001D01*
X146473248Y-119292064D01*
X146527123Y-119292064D01*
X146607935Y-119319001D01*
X146742622Y-119453688D01*
X146769560Y-119534500D01*
X146769560Y-119588375D01*
X146742622Y-119669187D01*
X146607935Y-119803874D01*
X146527123Y-119830812D01*
X146473248Y-119830812D01*
D11*
X136214285Y-117152380D02*
X136214285Y-116152380D01*
X136547619Y-116866666D01*
X136880952Y-116152380D01*
X136880952Y-117152380D01*
X137500000Y-117152380D02*
X137404761Y-117104761D01*
X137357142Y-117057142D01*
X137309523Y-116961904D01*
X137309523Y-116676190D01*
X137357142Y-116580952D01*
X137404761Y-116533333D01*
X137500000Y-116485714D01*
X137642857Y-116485714D01*
X137738095Y-116533333D01*
X137785714Y-116580952D01*
X137833333Y-116676190D01*
X137833333Y-116961904D01*
X137785714Y-117057142D01*
X137738095Y-117104761D01*
X137642857Y-117152380D01*
X137500000Y-117152380D01*
X138690476Y-116485714D02*
X138690476Y-117152380D01*
X138261904Y-116485714D02*
X138261904Y-117009523D01*
X138309523Y-117104761D01*
X138404761Y-117152380D01*
X138547619Y-117152380D01*
X138642857Y-117104761D01*
X138690476Y-117057142D01*
X139166666Y-116485714D02*
X139166666Y-117152380D01*
X139166666Y-116580952D02*
X139214285Y-116533333D01*
X139309523Y-116485714D01*
X139452380Y-116485714D01*
X139547619Y-116533333D01*
X139595238Y-116628571D01*
X139595238Y-117152380D01*
X139928571Y-116485714D02*
X140309523Y-116485714D01*
X140071428Y-116152380D02*
X140071428Y-117009523D01*
X140119047Y-117104761D01*
X140214285Y-117152380D01*
X140309523Y-117152380D01*
X140642857Y-117152380D02*
X140642857Y-116485714D01*
X140642857Y-116152380D02*
X140595238Y-116200000D01*
X140642857Y-116247619D01*
X140690476Y-116200000D01*
X140642857Y-116152380D01*
X140642857Y-116247619D01*
X141119047Y-116485714D02*
X141119047Y-117152380D01*
X141119047Y-116580952D02*
X141166666Y-116533333D01*
X141261904Y-116485714D01*
X141404761Y-116485714D01*
X141500000Y-116533333D01*
X141547619Y-116628571D01*
X141547619Y-117152380D01*
X142452380Y-116485714D02*
X142452380Y-117295238D01*
X142404761Y-117390476D01*
X142357142Y-117438095D01*
X142261904Y-117485714D01*
X142119047Y-117485714D01*
X142023809Y-117438095D01*
X142452380Y-117104761D02*
X142357142Y-117152380D01*
X142166666Y-117152380D01*
X142071428Y-117104761D01*
X142023809Y-117057142D01*
X141976190Y-116961904D01*
X141976190Y-116676190D01*
X142023809Y-116580952D01*
X142071428Y-116533333D01*
X142166666Y-116485714D01*
X142357142Y-116485714D01*
X142452380Y-116533333D01*
X142928571Y-117152380D02*
X142928571Y-116152380D01*
X142928571Y-116628571D02*
X143500000Y-116628571D01*
X143500000Y-117152380D02*
X143500000Y-116152380D01*
X144119047Y-117152380D02*
X144023809Y-117104761D01*
X143976190Y-117057142D01*
X143928571Y-116961904D01*
X143928571Y-116676190D01*
X143976190Y-116580952D01*
X144023809Y-116533333D01*
X144119047Y-116485714D01*
X144261904Y-116485714D01*
X144357142Y-116533333D01*
X144404761Y-116580952D01*
X144452380Y-116676190D01*
X144452380Y-116961904D01*
X144404761Y-117057142D01*
X144357142Y-117104761D01*
X144261904Y-117152380D01*
X144119047Y-117152380D01*
X145023809Y-117152380D02*
X144928571Y-117104761D01*
X144880952Y-117009523D01*
X144880952Y-116152380D01*
X145785714Y-117104761D02*
X145690476Y-117152380D01*
X145500000Y-117152380D01*
X145404761Y-117104761D01*
X145357142Y-117009523D01*
X145357142Y-116628571D01*
X145404761Y-116533333D01*
X145500000Y-116485714D01*
X145690476Y-116485714D01*
X145785714Y-116533333D01*
X145833333Y-116628571D01*
X145833333Y-116723809D01*
X145357142Y-116819047D01*
X169619047Y-82428571D02*
X169285714Y-82428571D01*
X169285714Y-82952380D02*
X169285714Y-81952380D01*
X169761904Y-81952380D01*
X170142857Y-82952380D02*
X170142857Y-82285714D01*
X170142857Y-81952380D02*
X170095238Y-82000000D01*
X170142857Y-82047619D01*
X170190476Y-82000000D01*
X170142857Y-81952380D01*
X170142857Y-82047619D01*
X171047619Y-82952380D02*
X171047619Y-81952380D01*
X171047619Y-82904761D02*
X170952380Y-82952380D01*
X170761904Y-82952380D01*
X170666666Y-82904761D01*
X170619047Y-82857142D01*
X170571428Y-82761904D01*
X170571428Y-82476190D01*
X170619047Y-82380952D01*
X170666666Y-82333333D01*
X170761904Y-82285714D01*
X170952380Y-82285714D01*
X171047619Y-82333333D01*
X171952380Y-82285714D02*
X171952380Y-82952380D01*
X171523809Y-82285714D02*
X171523809Y-82809523D01*
X171571428Y-82904761D01*
X171666666Y-82952380D01*
X171809523Y-82952380D01*
X171904761Y-82904761D01*
X171952380Y-82857142D01*
X172857142Y-82904761D02*
X172761904Y-82952380D01*
X172571428Y-82952380D01*
X172476190Y-82904761D01*
X172428571Y-82857142D01*
X172380952Y-82761904D01*
X172380952Y-82476190D01*
X172428571Y-82380952D01*
X172476190Y-82333333D01*
X172571428Y-82285714D01*
X172761904Y-82285714D01*
X172857142Y-82333333D01*
X173285714Y-82952380D02*
X173285714Y-82285714D01*
X173285714Y-81952380D02*
X173238095Y-82000000D01*
X173285714Y-82047619D01*
X173333333Y-82000000D01*
X173285714Y-81952380D01*
X173285714Y-82047619D01*
X174190476Y-82952380D02*
X174190476Y-82428571D01*
X174142857Y-82333333D01*
X174047619Y-82285714D01*
X173857142Y-82285714D01*
X173761904Y-82333333D01*
X174190476Y-82904761D02*
X174095238Y-82952380D01*
X173857142Y-82952380D01*
X173761904Y-82904761D01*
X173714285Y-82809523D01*
X173714285Y-82714285D01*
X173761904Y-82619047D01*
X173857142Y-82571428D01*
X174095238Y-82571428D01*
X174190476Y-82523809D01*
X174809523Y-82952380D02*
X174714285Y-82904761D01*
X174666666Y-82809523D01*
X174666666Y-81952380D01*
X141665486Y-119584142D02*
X142136890Y-120055546D01*
X141227753Y-119483126D02*
X141564470Y-120156561D01*
X142002203Y-119718829D01*
X141732829Y-119045394D02*
X142204234Y-118573989D01*
X142608295Y-119584142D01*
X142709310Y-118540317D02*
X143416417Y-119247424D01*
X142742982Y-118573989D02*
X142776653Y-118472974D01*
X142911340Y-118338287D01*
X143012356Y-118304615D01*
X143079699Y-118304615D01*
X143180714Y-118338287D01*
X143382745Y-118540317D01*
X143416417Y-118641333D01*
X143416417Y-118708676D01*
X143382745Y-118809691D01*
X143248058Y-118944378D01*
X143147043Y-118978050D01*
X143685791Y-117765867D02*
X143450088Y-118001569D01*
X143820478Y-118371959D02*
X143113371Y-117664852D01*
X143450088Y-117328134D01*
X144190867Y-116520012D02*
X144493913Y-118035241D01*
X144796959Y-115981264D02*
X144460241Y-116317982D01*
X144763287Y-116688371D01*
X144763287Y-116621027D01*
X144796959Y-116520012D01*
X144965317Y-116351653D01*
X145066333Y-116317982D01*
X145133676Y-116317982D01*
X145234691Y-116351653D01*
X145403050Y-116520012D01*
X145436722Y-116621027D01*
X145436722Y-116688371D01*
X145403050Y-116789386D01*
X145234691Y-116957745D01*
X145133676Y-116991417D01*
X145066333Y-116991417D01*
X145268363Y-115509860D02*
X145335707Y-115442516D01*
X145436722Y-115408844D01*
X145504065Y-115408844D01*
X145605081Y-115442516D01*
X145773439Y-115543531D01*
X145941798Y-115711890D01*
X146042813Y-115880249D01*
X146076485Y-115981264D01*
X146076485Y-116048608D01*
X146042813Y-116149623D01*
X145975470Y-116216966D01*
X145874455Y-116250638D01*
X145807111Y-116250638D01*
X145706096Y-116216966D01*
X145537737Y-116115951D01*
X145369378Y-115947592D01*
X145268363Y-115779234D01*
X145234691Y-115678218D01*
X145234691Y-115610875D01*
X145268363Y-115509860D01*
X145706096Y-115072127D02*
X146648905Y-115543531D01*
X146177500Y-114600722D01*
D12*
X145107749Y-118871311D02*
X145107749Y-118925186D01*
X145053874Y-119032935D01*
X145000000Y-119086810D01*
X144892250Y-119140685D01*
X144784500Y-119140685D01*
X144703688Y-119113748D01*
X144569001Y-119032935D01*
X144488189Y-118952123D01*
X144407377Y-118817436D01*
X144380439Y-118736624D01*
X144380439Y-118628874D01*
X144434314Y-118521125D01*
X144488189Y-118467250D01*
X144595938Y-118413375D01*
X144649813Y-118413375D01*
X145700372Y-118386438D02*
X145377123Y-118709687D01*
X145538748Y-118548062D02*
X144973062Y-117982377D01*
X145000000Y-118117064D01*
X145000000Y-118224813D01*
X144973062Y-118305625D01*
D11*
X125819047Y-88328571D02*
X125485714Y-88328571D01*
X125485714Y-88852380D02*
X125485714Y-87852380D01*
X125961904Y-87852380D01*
X126342857Y-88852380D02*
X126342857Y-88185714D01*
X126342857Y-87852380D02*
X126295238Y-87900000D01*
X126342857Y-87947619D01*
X126390476Y-87900000D01*
X126342857Y-87852380D01*
X126342857Y-87947619D01*
X127247619Y-88852380D02*
X127247619Y-87852380D01*
X127247619Y-88804761D02*
X127152380Y-88852380D01*
X126961904Y-88852380D01*
X126866666Y-88804761D01*
X126819047Y-88757142D01*
X126771428Y-88661904D01*
X126771428Y-88376190D01*
X126819047Y-88280952D01*
X126866666Y-88233333D01*
X126961904Y-88185714D01*
X127152380Y-88185714D01*
X127247619Y-88233333D01*
X128152380Y-88185714D02*
X128152380Y-88852380D01*
X127723809Y-88185714D02*
X127723809Y-88709523D01*
X127771428Y-88804761D01*
X127866666Y-88852380D01*
X128009523Y-88852380D01*
X128104761Y-88804761D01*
X128152380Y-88757142D01*
X129057142Y-88804761D02*
X128961904Y-88852380D01*
X128771428Y-88852380D01*
X128676190Y-88804761D01*
X128628571Y-88757142D01*
X128580952Y-88661904D01*
X128580952Y-88376190D01*
X128628571Y-88280952D01*
X128676190Y-88233333D01*
X128771428Y-88185714D01*
X128961904Y-88185714D01*
X129057142Y-88233333D01*
X129485714Y-88852380D02*
X129485714Y-88185714D01*
X129485714Y-87852380D02*
X129438095Y-87900000D01*
X129485714Y-87947619D01*
X129533333Y-87900000D01*
X129485714Y-87852380D01*
X129485714Y-87947619D01*
X130390476Y-88852380D02*
X130390476Y-88328571D01*
X130342857Y-88233333D01*
X130247619Y-88185714D01*
X130057142Y-88185714D01*
X129961904Y-88233333D01*
X130390476Y-88804761D02*
X130295238Y-88852380D01*
X130057142Y-88852380D01*
X129961904Y-88804761D01*
X129914285Y-88709523D01*
X129914285Y-88614285D01*
X129961904Y-88519047D01*
X130057142Y-88471428D01*
X130295238Y-88471428D01*
X130390476Y-88423809D01*
X131009523Y-88852380D02*
X130914285Y-88804761D01*
X130866666Y-88709523D01*
X130866666Y-87852380D01*
X141745012Y-118072424D02*
X141037905Y-117365317D01*
X141206264Y-117196959D01*
X141340951Y-117129615D01*
X141475638Y-117129615D01*
X141576653Y-117163287D01*
X141745012Y-117264302D01*
X141846027Y-117365317D01*
X141947043Y-117533676D01*
X141980714Y-117634691D01*
X141980714Y-117769378D01*
X141913371Y-117904065D01*
X141745012Y-118072424D01*
X142351104Y-117601020D02*
X142889852Y-117062272D01*
X142182745Y-116220478D02*
X142586806Y-115816417D01*
X143091882Y-116725554D02*
X142384775Y-116018447D01*
X142721493Y-115681730D02*
X143664302Y-116153134D01*
X143192898Y-115210325D01*
X144068363Y-115681730D02*
X144203050Y-115614386D01*
X144371409Y-115446027D01*
X144405081Y-115345012D01*
X144405081Y-115277669D01*
X144371409Y-115176653D01*
X144304065Y-115109310D01*
X144203050Y-115075638D01*
X144135707Y-115075638D01*
X144034691Y-115109310D01*
X143866333Y-115210325D01*
X143765317Y-115243997D01*
X143697974Y-115243997D01*
X143596959Y-115210325D01*
X143529615Y-115142982D01*
X143495943Y-115041966D01*
X143495943Y-114974623D01*
X143529615Y-114873608D01*
X143697974Y-114705249D01*
X143832661Y-114637905D01*
D12*
X143638375Y-118073435D02*
X143072690Y-117507749D01*
X143207377Y-117373062D01*
X143315126Y-117319187D01*
X143422876Y-117319187D01*
X143503688Y-117346125D01*
X143638375Y-117426937D01*
X143719187Y-117507749D01*
X143800000Y-117642436D01*
X143826937Y-117723248D01*
X143826937Y-117830998D01*
X143773062Y-117938748D01*
X143638375Y-118073435D01*
X144500372Y-117211438D02*
X144177123Y-117534687D01*
X144338748Y-117373062D02*
X143773062Y-116807377D01*
X143800000Y-116942064D01*
X143800000Y-117049813D01*
X143773062Y-117130625D01*
D11*
X145190486Y-123109142D02*
X145661890Y-123580546D01*
X144752753Y-123008126D02*
X145089470Y-123681561D01*
X145527203Y-123243829D01*
X145257829Y-122570394D02*
X145729234Y-122098989D01*
X146133295Y-123109142D01*
X146234310Y-122065317D02*
X146941417Y-122772424D01*
X146267982Y-122098989D02*
X146301653Y-121997974D01*
X146436340Y-121863287D01*
X146537356Y-121829615D01*
X146604699Y-121829615D01*
X146705714Y-121863287D01*
X146907745Y-122065317D01*
X146941417Y-122166333D01*
X146941417Y-122233676D01*
X146907745Y-122334691D01*
X146773058Y-122469378D01*
X146672043Y-122503050D01*
X147210791Y-121290867D02*
X146975088Y-121526569D01*
X147345478Y-121896959D02*
X146638371Y-121189852D01*
X146975088Y-120853134D01*
X147715867Y-120045012D02*
X148018913Y-121560241D01*
X148321959Y-119506264D02*
X147985241Y-119842982D01*
X148288287Y-120213371D01*
X148288287Y-120146027D01*
X148321959Y-120045012D01*
X148490317Y-119876653D01*
X148591333Y-119842982D01*
X148658676Y-119842982D01*
X148759691Y-119876653D01*
X148928050Y-120045012D01*
X148961722Y-120146027D01*
X148961722Y-120213371D01*
X148928050Y-120314386D01*
X148759691Y-120482745D01*
X148658676Y-120516417D01*
X148591333Y-120516417D01*
X148793363Y-119034860D02*
X148860707Y-118967516D01*
X148961722Y-118933844D01*
X149029065Y-118933844D01*
X149130081Y-118967516D01*
X149298439Y-119068531D01*
X149466798Y-119236890D01*
X149567813Y-119405249D01*
X149601485Y-119506264D01*
X149601485Y-119573608D01*
X149567813Y-119674623D01*
X149500470Y-119741966D01*
X149399455Y-119775638D01*
X149332111Y-119775638D01*
X149231096Y-119741966D01*
X149062737Y-119640951D01*
X148894378Y-119472592D01*
X148793363Y-119304234D01*
X148759691Y-119203218D01*
X148759691Y-119135875D01*
X148793363Y-119034860D01*
X149231096Y-118597127D02*
X150173905Y-119068531D01*
X149702500Y-118125722D01*
D12*
X148632749Y-122396311D02*
X148632749Y-122450186D01*
X148578874Y-122557935D01*
X148525000Y-122611810D01*
X148417250Y-122665685D01*
X148309500Y-122665685D01*
X148228688Y-122638748D01*
X148094001Y-122557935D01*
X148013189Y-122477123D01*
X147932377Y-122342436D01*
X147905439Y-122261624D01*
X147905439Y-122153874D01*
X147959314Y-122046125D01*
X148013189Y-121992250D01*
X148120938Y-121938375D01*
X148174813Y-121938375D01*
X148794374Y-121588189D02*
X149171497Y-121965312D01*
X148444187Y-121507377D02*
X148713561Y-122046125D01*
X149063748Y-121695938D01*
D11*
X135628571Y-78722380D02*
X135057142Y-78722380D01*
X135342857Y-78722380D02*
X135342857Y-77722380D01*
X135247619Y-77865238D01*
X135152380Y-77960476D01*
X135057142Y-78008095D01*
X136247619Y-77722380D02*
X136342857Y-77722380D01*
X136438095Y-77770000D01*
X136485714Y-77817619D01*
X136533333Y-77912857D01*
X136580952Y-78103333D01*
X136580952Y-78341428D01*
X136533333Y-78531904D01*
X136485714Y-78627142D01*
X136438095Y-78674761D01*
X136342857Y-78722380D01*
X136247619Y-78722380D01*
X136152380Y-78674761D01*
X136104761Y-78627142D01*
X136057142Y-78531904D01*
X136009523Y-78341428D01*
X136009523Y-78103333D01*
X136057142Y-77912857D01*
X136104761Y-77817619D01*
X136152380Y-77770000D01*
X136247619Y-77722380D01*
X137200000Y-77722380D02*
X137295238Y-77722380D01*
X137390476Y-77770000D01*
X137438095Y-77817619D01*
X137485714Y-77912857D01*
X137533333Y-78103333D01*
X137533333Y-78341428D01*
X137485714Y-78531904D01*
X137438095Y-78627142D01*
X137390476Y-78674761D01*
X137295238Y-78722380D01*
X137200000Y-78722380D01*
X137104761Y-78674761D01*
X137057142Y-78627142D01*
X137009523Y-78531904D01*
X136961904Y-78341428D01*
X136961904Y-78103333D01*
X137009523Y-77912857D01*
X137057142Y-77817619D01*
X137104761Y-77770000D01*
X137200000Y-77722380D01*
X137961904Y-78722380D02*
X137961904Y-77722380D01*
X138057142Y-78341428D02*
X138342857Y-78722380D01*
X138342857Y-78055714D02*
X137961904Y-78436666D01*
D12*
X136185714Y-80061904D02*
X135919047Y-79680952D01*
X135728571Y-80061904D02*
X135728571Y-79261904D01*
X136033333Y-79261904D01*
X136109523Y-79300000D01*
X136147619Y-79338095D01*
X136185714Y-79414285D01*
X136185714Y-79528571D01*
X136147619Y-79604761D01*
X136109523Y-79642857D01*
X136033333Y-79680952D01*
X135728571Y-79680952D01*
X136452380Y-79261904D02*
X136947619Y-79261904D01*
X136680952Y-79566666D01*
X136795238Y-79566666D01*
X136871428Y-79604761D01*
X136909523Y-79642857D01*
X136947619Y-79719047D01*
X136947619Y-79909523D01*
X136909523Y-79985714D01*
X136871428Y-80023809D01*
X136795238Y-80061904D01*
X136566666Y-80061904D01*
X136490476Y-80023809D01*
X136452380Y-79985714D01*
X137214285Y-79261904D02*
X137709523Y-79261904D01*
X137442857Y-79566666D01*
X137557142Y-79566666D01*
X137633333Y-79604761D01*
X137671428Y-79642857D01*
X137709523Y-79719047D01*
X137709523Y-79909523D01*
X137671428Y-79985714D01*
X137633333Y-80023809D01*
X137557142Y-80061904D01*
X137328571Y-80061904D01*
X137252380Y-80023809D01*
X137214285Y-79985714D01*
D11*
X135543571Y-70022380D02*
X134972142Y-70022380D01*
X135257857Y-70022380D02*
X135257857Y-69022380D01*
X135162619Y-69165238D01*
X135067380Y-69260476D01*
X134972142Y-69308095D01*
X136162619Y-69022380D02*
X136257857Y-69022380D01*
X136353095Y-69070000D01*
X136400714Y-69117619D01*
X136448333Y-69212857D01*
X136495952Y-69403333D01*
X136495952Y-69641428D01*
X136448333Y-69831904D01*
X136400714Y-69927142D01*
X136353095Y-69974761D01*
X136257857Y-70022380D01*
X136162619Y-70022380D01*
X136067380Y-69974761D01*
X136019761Y-69927142D01*
X135972142Y-69831904D01*
X135924523Y-69641428D01*
X135924523Y-69403333D01*
X135972142Y-69212857D01*
X136019761Y-69117619D01*
X136067380Y-69070000D01*
X136162619Y-69022380D01*
X137115000Y-69022380D02*
X137210238Y-69022380D01*
X137305476Y-69070000D01*
X137353095Y-69117619D01*
X137400714Y-69212857D01*
X137448333Y-69403333D01*
X137448333Y-69641428D01*
X137400714Y-69831904D01*
X137353095Y-69927142D01*
X137305476Y-69974761D01*
X137210238Y-70022380D01*
X137115000Y-70022380D01*
X137019761Y-69974761D01*
X136972142Y-69927142D01*
X136924523Y-69831904D01*
X136876904Y-69641428D01*
X136876904Y-69403333D01*
X136924523Y-69212857D01*
X136972142Y-69117619D01*
X137019761Y-69070000D01*
X137115000Y-69022380D01*
X137876904Y-70022380D02*
X137876904Y-69022380D01*
X137972142Y-69641428D02*
X138257857Y-70022380D01*
X138257857Y-69355714D02*
X137876904Y-69736666D01*
D12*
X136100714Y-71361904D02*
X135834047Y-70980952D01*
X135643571Y-71361904D02*
X135643571Y-70561904D01*
X135948333Y-70561904D01*
X136024523Y-70600000D01*
X136062619Y-70638095D01*
X136100714Y-70714285D01*
X136100714Y-70828571D01*
X136062619Y-70904761D01*
X136024523Y-70942857D01*
X135948333Y-70980952D01*
X135643571Y-70980952D01*
X136367380Y-70561904D02*
X136862619Y-70561904D01*
X136595952Y-70866666D01*
X136710238Y-70866666D01*
X136786428Y-70904761D01*
X136824523Y-70942857D01*
X136862619Y-71019047D01*
X136862619Y-71209523D01*
X136824523Y-71285714D01*
X136786428Y-71323809D01*
X136710238Y-71361904D01*
X136481666Y-71361904D01*
X136405476Y-71323809D01*
X136367380Y-71285714D01*
X137167380Y-70638095D02*
X137205476Y-70600000D01*
X137281666Y-70561904D01*
X137472142Y-70561904D01*
X137548333Y-70600000D01*
X137586428Y-70638095D01*
X137624523Y-70714285D01*
X137624523Y-70790476D01*
X137586428Y-70904761D01*
X137129285Y-71361904D01*
X137624523Y-71361904D01*
D13*
X118287414Y-108452474D02*
X116686949Y-108452474D01*
X117830139Y-107918986D01*
X116686949Y-107385497D01*
X118287414Y-107385497D01*
X118287414Y-106623371D02*
X117220438Y-106623371D01*
X116686949Y-106623371D02*
X116763162Y-106699584D01*
X116839375Y-106623371D01*
X116763162Y-106547159D01*
X116686949Y-106623371D01*
X116839375Y-106623371D01*
X118211202Y-105175331D02*
X118287414Y-105327757D01*
X118287414Y-105632607D01*
X118211202Y-105785032D01*
X118134989Y-105861245D01*
X117982564Y-105937458D01*
X117525288Y-105937458D01*
X117372863Y-105861245D01*
X117296650Y-105785032D01*
X117220438Y-105632607D01*
X117220438Y-105327757D01*
X117296650Y-105175331D01*
X118287414Y-104489418D02*
X117220438Y-104489418D01*
X117525288Y-104489418D02*
X117372863Y-104413205D01*
X117296650Y-104336993D01*
X117220438Y-104184567D01*
X117220438Y-104032142D01*
X118287414Y-103270016D02*
X118211202Y-103422441D01*
X118134989Y-103498654D01*
X117982564Y-103574866D01*
X117525288Y-103574866D01*
X117372863Y-103498654D01*
X117296650Y-103422441D01*
X117220438Y-103270016D01*
X117220438Y-103041378D01*
X117296650Y-102888953D01*
X117372863Y-102812740D01*
X117525288Y-102736528D01*
X117982564Y-102736528D01*
X118134989Y-102812740D01*
X118211202Y-102888953D01*
X118287414Y-103041378D01*
X118287414Y-103270016D01*
X118439840Y-102431677D02*
X118439840Y-101212275D01*
X118211202Y-100907425D02*
X118287414Y-100678787D01*
X118287414Y-100297724D01*
X118211202Y-100145299D01*
X118134989Y-100069086D01*
X117982564Y-99992873D01*
X117830139Y-99992873D01*
X117677713Y-100069086D01*
X117601501Y-100145299D01*
X117525288Y-100297724D01*
X117449076Y-100602574D01*
X117372863Y-100755000D01*
X117296650Y-100831212D01*
X117144225Y-100907425D01*
X116991800Y-100907425D01*
X116839375Y-100831212D01*
X116763162Y-100755000D01*
X116686949Y-100602574D01*
X116686949Y-100221511D01*
X116763162Y-99992873D01*
X118287414Y-99306960D02*
X116686949Y-99306960D01*
X116686949Y-98925897D01*
X116763162Y-98697259D01*
X116915587Y-98544834D01*
X117068012Y-98468621D01*
X117372863Y-98392408D01*
X117601501Y-98392408D01*
X117906351Y-98468621D01*
X118058777Y-98544834D01*
X118211202Y-98697259D01*
X118287414Y-98925897D01*
X118287414Y-99306960D01*
X118439840Y-98087558D02*
X118439840Y-96868156D01*
X118134989Y-95572541D02*
X118211202Y-95648754D01*
X118287414Y-95877392D01*
X118287414Y-96029817D01*
X118211202Y-96258455D01*
X118058777Y-96410880D01*
X117906351Y-96487093D01*
X117601501Y-96563305D01*
X117372863Y-96563305D01*
X117068012Y-96487093D01*
X116915587Y-96410880D01*
X116763162Y-96258455D01*
X116686949Y-96029817D01*
X116686949Y-95877392D01*
X116763162Y-95648754D01*
X116839375Y-95572541D01*
X118287414Y-94200714D02*
X117449076Y-94200714D01*
X117296650Y-94276927D01*
X117220438Y-94429352D01*
X117220438Y-94734203D01*
X117296650Y-94886628D01*
X118211202Y-94200714D02*
X118287414Y-94353140D01*
X118287414Y-94734203D01*
X118211202Y-94886628D01*
X118058777Y-94962840D01*
X117906351Y-94962840D01*
X117753926Y-94886628D01*
X117677713Y-94734203D01*
X117677713Y-94353140D01*
X117601501Y-94200714D01*
X118287414Y-93438588D02*
X117220438Y-93438588D01*
X117525288Y-93438588D02*
X117372863Y-93362375D01*
X117296650Y-93286163D01*
X117220438Y-93133738D01*
X117220438Y-92981312D01*
X118287414Y-91761910D02*
X116686949Y-91761910D01*
X118211202Y-91761910D02*
X118287414Y-91914336D01*
X118287414Y-92219186D01*
X118211202Y-92371611D01*
X118134989Y-92447824D01*
X117982564Y-92524037D01*
X117525288Y-92524037D01*
X117372863Y-92447824D01*
X117296650Y-92371611D01*
X117220438Y-92219186D01*
X117220438Y-91914336D01*
X117296650Y-91761910D01*
X118439840Y-91380847D02*
X118439840Y-90161445D01*
X118287414Y-89780382D02*
X116686949Y-89780382D01*
X116686949Y-89399319D01*
X116763162Y-89170681D01*
X116915587Y-89018256D01*
X117068012Y-88942044D01*
X117372863Y-88865831D01*
X117601501Y-88865831D01*
X117906351Y-88942044D01*
X118058777Y-89018256D01*
X118211202Y-89170681D01*
X118287414Y-89399319D01*
X118287414Y-89780382D01*
X118211202Y-87570216D02*
X118287414Y-87722642D01*
X118287414Y-88027492D01*
X118211202Y-88179917D01*
X118058777Y-88256130D01*
X117449076Y-88256130D01*
X117296650Y-88179917D01*
X117220438Y-88027492D01*
X117220438Y-87722642D01*
X117296650Y-87570216D01*
X117449076Y-87494004D01*
X117601501Y-87494004D01*
X117753926Y-88256130D01*
X117220438Y-87036728D02*
X117220438Y-86427027D01*
X116686949Y-86808090D02*
X118058777Y-86808090D01*
X118211202Y-86731878D01*
X118287414Y-86579452D01*
X118287414Y-86427027D01*
D11*
X171714285Y-99152380D02*
X171714285Y-98152380D01*
X172047619Y-98866666D01*
X172380952Y-98152380D01*
X172380952Y-99152380D01*
X173000000Y-99152380D02*
X172904761Y-99104761D01*
X172857142Y-99057142D01*
X172809523Y-98961904D01*
X172809523Y-98676190D01*
X172857142Y-98580952D01*
X172904761Y-98533333D01*
X173000000Y-98485714D01*
X173142857Y-98485714D01*
X173238095Y-98533333D01*
X173285714Y-98580952D01*
X173333333Y-98676190D01*
X173333333Y-98961904D01*
X173285714Y-99057142D01*
X173238095Y-99104761D01*
X173142857Y-99152380D01*
X173000000Y-99152380D01*
X174190476Y-98485714D02*
X174190476Y-99152380D01*
X173761904Y-98485714D02*
X173761904Y-99009523D01*
X173809523Y-99104761D01*
X173904761Y-99152380D01*
X174047619Y-99152380D01*
X174142857Y-99104761D01*
X174190476Y-99057142D01*
X174666666Y-98485714D02*
X174666666Y-99152380D01*
X174666666Y-98580952D02*
X174714285Y-98533333D01*
X174809523Y-98485714D01*
X174952380Y-98485714D01*
X175047619Y-98533333D01*
X175095238Y-98628571D01*
X175095238Y-99152380D01*
X175428571Y-98485714D02*
X175809523Y-98485714D01*
X175571428Y-98152380D02*
X175571428Y-99009523D01*
X175619047Y-99104761D01*
X175714285Y-99152380D01*
X175809523Y-99152380D01*
X176142857Y-99152380D02*
X176142857Y-98485714D01*
X176142857Y-98152380D02*
X176095238Y-98200000D01*
X176142857Y-98247619D01*
X176190476Y-98200000D01*
X176142857Y-98152380D01*
X176142857Y-98247619D01*
X176619047Y-98485714D02*
X176619047Y-99152380D01*
X176619047Y-98580952D02*
X176666666Y-98533333D01*
X176761904Y-98485714D01*
X176904761Y-98485714D01*
X177000000Y-98533333D01*
X177047619Y-98628571D01*
X177047619Y-99152380D01*
X177952380Y-98485714D02*
X177952380Y-99295238D01*
X177904761Y-99390476D01*
X177857142Y-99438095D01*
X177761904Y-99485714D01*
X177619047Y-99485714D01*
X177523809Y-99438095D01*
X177952380Y-99104761D02*
X177857142Y-99152380D01*
X177666666Y-99152380D01*
X177571428Y-99104761D01*
X177523809Y-99057142D01*
X177476190Y-98961904D01*
X177476190Y-98676190D01*
X177523809Y-98580952D01*
X177571428Y-98533333D01*
X177666666Y-98485714D01*
X177857142Y-98485714D01*
X177952380Y-98533333D01*
X178428571Y-99152380D02*
X178428571Y-98152380D01*
X178428571Y-98628571D02*
X179000000Y-98628571D01*
X179000000Y-99152380D02*
X179000000Y-98152380D01*
X179619047Y-99152380D02*
X179523809Y-99104761D01*
X179476190Y-99057142D01*
X179428571Y-98961904D01*
X179428571Y-98676190D01*
X179476190Y-98580952D01*
X179523809Y-98533333D01*
X179619047Y-98485714D01*
X179761904Y-98485714D01*
X179857142Y-98533333D01*
X179904761Y-98580952D01*
X179952380Y-98676190D01*
X179952380Y-98961904D01*
X179904761Y-99057142D01*
X179857142Y-99104761D01*
X179761904Y-99152380D01*
X179619047Y-99152380D01*
X180523809Y-99152380D02*
X180428571Y-99104761D01*
X180380952Y-99009523D01*
X180380952Y-98152380D01*
X181285714Y-99104761D02*
X181190476Y-99152380D01*
X181000000Y-99152380D01*
X180904761Y-99104761D01*
X180857142Y-99009523D01*
X180857142Y-98628571D01*
X180904761Y-98533333D01*
X181000000Y-98485714D01*
X181190476Y-98485714D01*
X181285714Y-98533333D01*
X181333333Y-98628571D01*
X181333333Y-98723809D01*
X180857142Y-98819047D01*
X145295012Y-121597424D02*
X144587905Y-120890317D01*
X144756264Y-120721959D01*
X144890951Y-120654615D01*
X145025638Y-120654615D01*
X145126653Y-120688287D01*
X145295012Y-120789302D01*
X145396027Y-120890317D01*
X145497043Y-121058676D01*
X145530714Y-121159691D01*
X145530714Y-121294378D01*
X145463371Y-121429065D01*
X145295012Y-121597424D01*
X145901104Y-121126020D02*
X146439852Y-120587272D01*
X145732745Y-119745478D02*
X146136806Y-119341417D01*
X146641882Y-120250554D02*
X145934775Y-119543447D01*
X146271493Y-119206730D02*
X147214302Y-119678134D01*
X146742898Y-118735325D01*
X147618363Y-119206730D02*
X147753050Y-119139386D01*
X147921409Y-118971027D01*
X147955081Y-118870012D01*
X147955081Y-118802669D01*
X147921409Y-118701653D01*
X147854065Y-118634310D01*
X147753050Y-118600638D01*
X147685707Y-118600638D01*
X147584691Y-118634310D01*
X147416333Y-118735325D01*
X147315317Y-118768997D01*
X147247974Y-118768997D01*
X147146959Y-118735325D01*
X147079615Y-118667982D01*
X147045943Y-118566966D01*
X147045943Y-118499623D01*
X147079615Y-118398608D01*
X147247974Y-118230249D01*
X147382661Y-118162905D01*
D12*
X147188375Y-121598435D02*
X146622690Y-121032749D01*
X146757377Y-120898062D01*
X146865126Y-120844187D01*
X146972876Y-120844187D01*
X147053688Y-120871125D01*
X147188375Y-120951937D01*
X147269187Y-121032749D01*
X147350000Y-121167436D01*
X147376937Y-121248248D01*
X147376937Y-121355998D01*
X147323062Y-121463748D01*
X147188375Y-121598435D01*
X147619374Y-120413189D02*
X147996497Y-120790312D01*
X147269187Y-120332377D02*
X147538561Y-120871125D01*
X147888748Y-120520938D01*
D11*
X149214285Y-137652380D02*
X149214285Y-136652380D01*
X149547619Y-137366666D01*
X149880952Y-136652380D01*
X149880952Y-137652380D01*
X150500000Y-137652380D02*
X150404761Y-137604761D01*
X150357142Y-137557142D01*
X150309523Y-137461904D01*
X150309523Y-137176190D01*
X150357142Y-137080952D01*
X150404761Y-137033333D01*
X150500000Y-136985714D01*
X150642857Y-136985714D01*
X150738095Y-137033333D01*
X150785714Y-137080952D01*
X150833333Y-137176190D01*
X150833333Y-137461904D01*
X150785714Y-137557142D01*
X150738095Y-137604761D01*
X150642857Y-137652380D01*
X150500000Y-137652380D01*
X151690476Y-136985714D02*
X151690476Y-137652380D01*
X151261904Y-136985714D02*
X151261904Y-137509523D01*
X151309523Y-137604761D01*
X151404761Y-137652380D01*
X151547619Y-137652380D01*
X151642857Y-137604761D01*
X151690476Y-137557142D01*
X152166666Y-136985714D02*
X152166666Y-137652380D01*
X152166666Y-137080952D02*
X152214285Y-137033333D01*
X152309523Y-136985714D01*
X152452380Y-136985714D01*
X152547619Y-137033333D01*
X152595238Y-137128571D01*
X152595238Y-137652380D01*
X152928571Y-136985714D02*
X153309523Y-136985714D01*
X153071428Y-136652380D02*
X153071428Y-137509523D01*
X153119047Y-137604761D01*
X153214285Y-137652380D01*
X153309523Y-137652380D01*
X153642857Y-137652380D02*
X153642857Y-136985714D01*
X153642857Y-136652380D02*
X153595238Y-136700000D01*
X153642857Y-136747619D01*
X153690476Y-136700000D01*
X153642857Y-136652380D01*
X153642857Y-136747619D01*
X154119047Y-136985714D02*
X154119047Y-137652380D01*
X154119047Y-137080952D02*
X154166666Y-137033333D01*
X154261904Y-136985714D01*
X154404761Y-136985714D01*
X154500000Y-137033333D01*
X154547619Y-137128571D01*
X154547619Y-137652380D01*
X155452380Y-136985714D02*
X155452380Y-137795238D01*
X155404761Y-137890476D01*
X155357142Y-137938095D01*
X155261904Y-137985714D01*
X155119047Y-137985714D01*
X155023809Y-137938095D01*
X155452380Y-137604761D02*
X155357142Y-137652380D01*
X155166666Y-137652380D01*
X155071428Y-137604761D01*
X155023809Y-137557142D01*
X154976190Y-137461904D01*
X154976190Y-137176190D01*
X155023809Y-137080952D01*
X155071428Y-137033333D01*
X155166666Y-136985714D01*
X155357142Y-136985714D01*
X155452380Y-137033333D01*
X155928571Y-137652380D02*
X155928571Y-136652380D01*
X155928571Y-137128571D02*
X156500000Y-137128571D01*
X156500000Y-137652380D02*
X156500000Y-136652380D01*
X157119047Y-137652380D02*
X157023809Y-137604761D01*
X156976190Y-137557142D01*
X156928571Y-137461904D01*
X156928571Y-137176190D01*
X156976190Y-137080952D01*
X157023809Y-137033333D01*
X157119047Y-136985714D01*
X157261904Y-136985714D01*
X157357142Y-137033333D01*
X157404761Y-137080952D01*
X157452380Y-137176190D01*
X157452380Y-137461904D01*
X157404761Y-137557142D01*
X157357142Y-137604761D01*
X157261904Y-137652380D01*
X157119047Y-137652380D01*
X158023809Y-137652380D02*
X157928571Y-137604761D01*
X157880952Y-137509523D01*
X157880952Y-136652380D01*
X158785714Y-137604761D02*
X158690476Y-137652380D01*
X158500000Y-137652380D01*
X158404761Y-137604761D01*
X158357142Y-137509523D01*
X158357142Y-137128571D01*
X158404761Y-137033333D01*
X158500000Y-136985714D01*
X158690476Y-136985714D01*
X158785714Y-137033333D01*
X158833333Y-137128571D01*
X158833333Y-137223809D01*
X158357142Y-137319047D01*
X169119047Y-138928571D02*
X168785714Y-138928571D01*
X168785714Y-139452380D02*
X168785714Y-138452380D01*
X169261904Y-138452380D01*
X169642857Y-139452380D02*
X169642857Y-138785714D01*
X169642857Y-138452380D02*
X169595238Y-138500000D01*
X169642857Y-138547619D01*
X169690476Y-138500000D01*
X169642857Y-138452380D01*
X169642857Y-138547619D01*
X170547619Y-139452380D02*
X170547619Y-138452380D01*
X170547619Y-139404761D02*
X170452380Y-139452380D01*
X170261904Y-139452380D01*
X170166666Y-139404761D01*
X170119047Y-139357142D01*
X170071428Y-139261904D01*
X170071428Y-138976190D01*
X170119047Y-138880952D01*
X170166666Y-138833333D01*
X170261904Y-138785714D01*
X170452380Y-138785714D01*
X170547619Y-138833333D01*
X171452380Y-138785714D02*
X171452380Y-139452380D01*
X171023809Y-138785714D02*
X171023809Y-139309523D01*
X171071428Y-139404761D01*
X171166666Y-139452380D01*
X171309523Y-139452380D01*
X171404761Y-139404761D01*
X171452380Y-139357142D01*
X172357142Y-139404761D02*
X172261904Y-139452380D01*
X172071428Y-139452380D01*
X171976190Y-139404761D01*
X171928571Y-139357142D01*
X171880952Y-139261904D01*
X171880952Y-138976190D01*
X171928571Y-138880952D01*
X171976190Y-138833333D01*
X172071428Y-138785714D01*
X172261904Y-138785714D01*
X172357142Y-138833333D01*
X172785714Y-139452380D02*
X172785714Y-138785714D01*
X172785714Y-138452380D02*
X172738095Y-138500000D01*
X172785714Y-138547619D01*
X172833333Y-138500000D01*
X172785714Y-138452380D01*
X172785714Y-138547619D01*
X173690476Y-139452380D02*
X173690476Y-138928571D01*
X173642857Y-138833333D01*
X173547619Y-138785714D01*
X173357142Y-138785714D01*
X173261904Y-138833333D01*
X173690476Y-139404761D02*
X173595238Y-139452380D01*
X173357142Y-139452380D01*
X173261904Y-139404761D01*
X173214285Y-139309523D01*
X173214285Y-139214285D01*
X173261904Y-139119047D01*
X173357142Y-139071428D01*
X173595238Y-139071428D01*
X173690476Y-139023809D01*
X174309523Y-139452380D02*
X174214285Y-139404761D01*
X174166666Y-139309523D01*
X174166666Y-138452380D01*
X175942857Y-86517142D02*
X175990476Y-86564761D01*
X175942857Y-86612380D01*
X175895238Y-86564761D01*
X175942857Y-86517142D01*
X175942857Y-86612380D01*
X176323809Y-85612380D02*
X176990476Y-85612380D01*
X176561904Y-86612380D01*
X177371428Y-85945714D02*
X177371428Y-86945714D01*
X177371428Y-85993333D02*
X177466666Y-85945714D01*
X177657142Y-85945714D01*
X177752380Y-85993333D01*
X177800000Y-86040952D01*
X177847619Y-86136190D01*
X177847619Y-86421904D01*
X177800000Y-86517142D01*
X177752380Y-86564761D01*
X177657142Y-86612380D01*
X177466666Y-86612380D01*
X177371428Y-86564761D01*
X178609523Y-86088571D02*
X178276190Y-86088571D01*
X178276190Y-86612380D02*
X178276190Y-85612380D01*
X178752380Y-85612380D01*
D12*
X177166666Y-85285714D02*
X177128571Y-85323809D01*
X177014285Y-85361904D01*
X176938095Y-85361904D01*
X176823809Y-85323809D01*
X176747619Y-85247619D01*
X176709523Y-85171428D01*
X176671428Y-85019047D01*
X176671428Y-84904761D01*
X176709523Y-84752380D01*
X176747619Y-84676190D01*
X176823809Y-84600000D01*
X176938095Y-84561904D01*
X177014285Y-84561904D01*
X177128571Y-84600000D01*
X177166666Y-84638095D01*
X177433333Y-84561904D02*
X177966666Y-84561904D01*
X177623809Y-85361904D01*
D11*
X174733333Y-84122380D02*
X174923809Y-84122380D01*
X175019047Y-84074761D01*
X175066666Y-84027142D01*
X175161904Y-83884285D01*
X175209523Y-83693809D01*
X175209523Y-83312857D01*
X175161904Y-83217619D01*
X175114285Y-83170000D01*
X175019047Y-83122380D01*
X174828571Y-83122380D01*
X174733333Y-83170000D01*
X174685714Y-83217619D01*
X174638095Y-83312857D01*
X174638095Y-83550952D01*
X174685714Y-83646190D01*
X174733333Y-83693809D01*
X174828571Y-83741428D01*
X175019047Y-83741428D01*
X175114285Y-83693809D01*
X175161904Y-83646190D01*
X175209523Y-83550952D01*
X175638095Y-83455714D02*
X175638095Y-84122380D01*
X175638095Y-83550952D02*
X175685714Y-83503333D01*
X175780952Y-83455714D01*
X175923809Y-83455714D01*
X176019047Y-83503333D01*
X176066666Y-83598571D01*
X176066666Y-84122380D01*
X176542857Y-84122380D02*
X176542857Y-83122380D01*
X176542857Y-83598571D02*
X177114285Y-83598571D01*
X177114285Y-84122380D02*
X177114285Y-83122380D01*
D12*
X175766666Y-82861904D02*
X175385714Y-82861904D01*
X175385714Y-82061904D01*
X175957142Y-82061904D02*
X176452380Y-82061904D01*
X176185714Y-82366666D01*
X176300000Y-82366666D01*
X176376190Y-82404761D01*
X176414285Y-82442857D01*
X176452380Y-82519047D01*
X176452380Y-82709523D01*
X176414285Y-82785714D01*
X176376190Y-82823809D01*
X176300000Y-82861904D01*
X176071428Y-82861904D01*
X175995238Y-82823809D01*
X175957142Y-82785714D01*
D11*
X176187619Y-85380952D02*
X176140000Y-85333333D01*
X176092380Y-85238095D01*
X176092380Y-85000000D01*
X176140000Y-84904761D01*
X176187619Y-84857142D01*
X176282857Y-84809523D01*
X176378095Y-84809523D01*
X176520952Y-84857142D01*
X177092380Y-85428571D01*
X177092380Y-84809523D01*
X176997142Y-84380952D02*
X177044761Y-84333333D01*
X177092380Y-84380952D01*
X177044761Y-84428571D01*
X176997142Y-84380952D01*
X177092380Y-84380952D01*
X177092380Y-83380952D02*
X177092380Y-83952380D01*
X177092380Y-83666666D02*
X176092380Y-83666666D01*
X176235238Y-83761904D01*
X176330476Y-83857142D01*
X176378095Y-83952380D01*
X176425714Y-82952380D02*
X177425714Y-82952380D01*
X176473333Y-82952380D02*
X176425714Y-82857142D01*
X176425714Y-82666666D01*
X176473333Y-82571428D01*
X176520952Y-82523809D01*
X176616190Y-82476190D01*
X176901904Y-82476190D01*
X176997142Y-82523809D01*
X177044761Y-82571428D01*
X177092380Y-82666666D01*
X177092380Y-82857142D01*
X177044761Y-82952380D01*
X176568571Y-81714285D02*
X176568571Y-82047619D01*
X177092380Y-82047619D02*
X176092380Y-82047619D01*
X176092380Y-81571428D01*
D12*
X178085714Y-83633333D02*
X178123809Y-83671428D01*
X178161904Y-83785714D01*
X178161904Y-83861904D01*
X178123809Y-83976190D01*
X178047619Y-84052380D01*
X177971428Y-84090476D01*
X177819047Y-84128571D01*
X177704761Y-84128571D01*
X177552380Y-84090476D01*
X177476190Y-84052380D01*
X177400000Y-83976190D01*
X177361904Y-83861904D01*
X177361904Y-83785714D01*
X177400000Y-83671428D01*
X177438095Y-83633333D01*
X177361904Y-82947619D02*
X177361904Y-83100000D01*
X177400000Y-83176190D01*
X177438095Y-83214285D01*
X177552380Y-83290476D01*
X177704761Y-83328571D01*
X178009523Y-83328571D01*
X178085714Y-83290476D01*
X178123809Y-83252380D01*
X178161904Y-83176190D01*
X178161904Y-83023809D01*
X178123809Y-82947619D01*
X178085714Y-82909523D01*
X178009523Y-82871428D01*
X177819047Y-82871428D01*
X177742857Y-82909523D01*
X177704761Y-82947619D01*
X177666666Y-83023809D01*
X177666666Y-83176190D01*
X177704761Y-83252380D01*
X177742857Y-83290476D01*
X177819047Y-83328571D01*
D11*
X175119047Y-88182380D02*
X175309523Y-88182380D01*
X175404761Y-88134761D01*
X175452380Y-88087142D01*
X175547619Y-87944285D01*
X175595238Y-87753809D01*
X175595238Y-87372857D01*
X175547619Y-87277619D01*
X175500000Y-87230000D01*
X175404761Y-87182380D01*
X175214285Y-87182380D01*
X175119047Y-87230000D01*
X175071428Y-87277619D01*
X175023809Y-87372857D01*
X175023809Y-87610952D01*
X175071428Y-87706190D01*
X175119047Y-87753809D01*
X175214285Y-87801428D01*
X175404761Y-87801428D01*
X175500000Y-87753809D01*
X175547619Y-87706190D01*
X175595238Y-87610952D01*
X176023809Y-88087142D02*
X176071428Y-88134761D01*
X176023809Y-88182380D01*
X175976190Y-88134761D01*
X176023809Y-88087142D01*
X176023809Y-88182380D01*
X177023809Y-88182380D02*
X176452380Y-88182380D01*
X176738095Y-88182380D02*
X176738095Y-87182380D01*
X176642857Y-87325238D01*
X176547619Y-87420476D01*
X176452380Y-87468095D01*
X177452380Y-87515714D02*
X177452380Y-88182380D01*
X177452380Y-87610952D02*
X177500000Y-87563333D01*
X177595238Y-87515714D01*
X177738095Y-87515714D01*
X177833333Y-87563333D01*
X177880952Y-87658571D01*
X177880952Y-88182380D01*
X178357142Y-88182380D02*
X178357142Y-87182380D01*
X178357142Y-87658571D02*
X178928571Y-87658571D01*
X178928571Y-88182380D02*
X178928571Y-87182380D01*
D12*
X176866666Y-86661904D02*
X176485714Y-86661904D01*
X176485714Y-85861904D01*
X177476190Y-86128571D02*
X177476190Y-86661904D01*
X177285714Y-85823809D02*
X177095238Y-86395238D01*
X177590476Y-86395238D01*
D11*
X173833333Y-75182380D02*
X173261904Y-75182380D01*
X173547619Y-75182380D02*
X173547619Y-74182380D01*
X173452380Y-74325238D01*
X173357142Y-74420476D01*
X173261904Y-74468095D01*
X174214285Y-74277619D02*
X174261904Y-74230000D01*
X174357142Y-74182380D01*
X174595238Y-74182380D01*
X174690476Y-74230000D01*
X174738095Y-74277619D01*
X174785714Y-74372857D01*
X174785714Y-74468095D01*
X174738095Y-74610952D01*
X174166666Y-75182380D01*
X174785714Y-75182380D01*
X175214285Y-74515714D02*
X175214285Y-75182380D01*
X175214285Y-74610952D02*
X175261904Y-74563333D01*
X175357142Y-74515714D01*
X175500000Y-74515714D01*
X175595238Y-74563333D01*
X175642857Y-74658571D01*
X175642857Y-75182380D01*
X176119047Y-75182380D02*
X176119047Y-74182380D01*
X176119047Y-74658571D02*
X176690476Y-74658571D01*
X176690476Y-75182380D02*
X176690476Y-74182380D01*
D12*
X174866666Y-73661904D02*
X174485714Y-73661904D01*
X174485714Y-72861904D01*
X175095238Y-72938095D02*
X175133333Y-72900000D01*
X175209523Y-72861904D01*
X175400000Y-72861904D01*
X175476190Y-72900000D01*
X175514285Y-72938095D01*
X175552380Y-73014285D01*
X175552380Y-73090476D01*
X175514285Y-73204761D01*
X175057142Y-73661904D01*
X175552380Y-73661904D01*
D11*
X172309523Y-94159142D02*
X172261904Y-94206761D01*
X172119047Y-94254380D01*
X172023809Y-94254380D01*
X171880952Y-94206761D01*
X171785714Y-94111523D01*
X171738095Y-94016285D01*
X171690476Y-93825809D01*
X171690476Y-93682952D01*
X171738095Y-93492476D01*
X171785714Y-93397238D01*
X171880952Y-93302000D01*
X172023809Y-93254380D01*
X172119047Y-93254380D01*
X172261904Y-93302000D01*
X172309523Y-93349619D01*
X172880952Y-94254380D02*
X172785714Y-94206761D01*
X172738095Y-94159142D01*
X172690476Y-94063904D01*
X172690476Y-93778190D01*
X172738095Y-93682952D01*
X172785714Y-93635333D01*
X172880952Y-93587714D01*
X173023809Y-93587714D01*
X173119047Y-93635333D01*
X173166666Y-93682952D01*
X173214285Y-93778190D01*
X173214285Y-94063904D01*
X173166666Y-94159142D01*
X173119047Y-94206761D01*
X173023809Y-94254380D01*
X172880952Y-94254380D01*
X173642857Y-93587714D02*
X173642857Y-94254380D01*
X173642857Y-93682952D02*
X173690476Y-93635333D01*
X173785714Y-93587714D01*
X173928571Y-93587714D01*
X174023809Y-93635333D01*
X174071428Y-93730571D01*
X174071428Y-94254380D01*
X174547619Y-93587714D02*
X174547619Y-94254380D01*
X174547619Y-93682952D02*
X174595238Y-93635333D01*
X174690476Y-93587714D01*
X174833333Y-93587714D01*
X174928571Y-93635333D01*
X174976190Y-93730571D01*
X174976190Y-94254380D01*
X175214285Y-94349619D02*
X175976190Y-94349619D01*
X176785714Y-94159142D02*
X176738095Y-94206761D01*
X176595238Y-94254380D01*
X176500000Y-94254380D01*
X176357142Y-94206761D01*
X176261904Y-94111523D01*
X176214285Y-94016285D01*
X176166666Y-93825809D01*
X176166666Y-93682952D01*
X176214285Y-93492476D01*
X176261904Y-93397238D01*
X176357142Y-93302000D01*
X176500000Y-93254380D01*
X176595238Y-93254380D01*
X176738095Y-93302000D01*
X176785714Y-93349619D01*
X177357142Y-94254380D02*
X177261904Y-94206761D01*
X177214285Y-94159142D01*
X177166666Y-94063904D01*
X177166666Y-93778190D01*
X177214285Y-93682952D01*
X177261904Y-93635333D01*
X177357142Y-93587714D01*
X177500000Y-93587714D01*
X177595238Y-93635333D01*
X177642857Y-93682952D01*
X177690476Y-93778190D01*
X177690476Y-94063904D01*
X177642857Y-94159142D01*
X177595238Y-94206761D01*
X177500000Y-94254380D01*
X177357142Y-94254380D01*
X178547619Y-94254380D02*
X178547619Y-93730571D01*
X178500000Y-93635333D01*
X178404761Y-93587714D01*
X178214285Y-93587714D01*
X178119047Y-93635333D01*
X178547619Y-94206761D02*
X178452380Y-94254380D01*
X178214285Y-94254380D01*
X178119047Y-94206761D01*
X178071428Y-94111523D01*
X178071428Y-94016285D01*
X178119047Y-93921047D01*
X178214285Y-93873428D01*
X178452380Y-93873428D01*
X178547619Y-93825809D01*
X178928571Y-94254380D02*
X179452380Y-93587714D01*
X178928571Y-93587714D02*
X179452380Y-94254380D01*
X179833333Y-94254380D02*
X179833333Y-93587714D01*
X179833333Y-93254380D02*
X179785714Y-93302000D01*
X179833333Y-93349619D01*
X179880952Y-93302000D01*
X179833333Y-93254380D01*
X179833333Y-93349619D01*
X180738095Y-94254380D02*
X180738095Y-93730571D01*
X180690476Y-93635333D01*
X180595238Y-93587714D01*
X180404761Y-93587714D01*
X180309523Y-93635333D01*
X180738095Y-94206761D02*
X180642857Y-94254380D01*
X180404761Y-94254380D01*
X180309523Y-94206761D01*
X180261904Y-94111523D01*
X180261904Y-94016285D01*
X180309523Y-93921047D01*
X180404761Y-93873428D01*
X180642857Y-93873428D01*
X180738095Y-93825809D01*
X181357142Y-94254380D02*
X181261904Y-94206761D01*
X181214285Y-94111523D01*
X181214285Y-93254380D01*
X176166666Y-86452380D02*
X176166666Y-87166666D01*
X176119047Y-87309523D01*
X176023809Y-87404761D01*
X175880952Y-87452380D01*
X175785714Y-87452380D01*
X177166666Y-87452380D02*
X176595238Y-87452380D01*
X176880952Y-87452380D02*
X176880952Y-86452380D01*
X176785714Y-86595238D01*
X176690476Y-86690476D01*
X176595238Y-86738095D01*
X170452380Y-64547619D02*
X170452380Y-65547619D01*
X169547619Y-65214285D02*
X169547619Y-64404761D01*
X169595238Y-64309523D01*
X169642857Y-64261904D01*
X169738095Y-64214285D01*
X169880952Y-64214285D01*
X169976190Y-64261904D01*
X169547619Y-64595238D02*
X169642857Y-64547619D01*
X169833333Y-64547619D01*
X169928571Y-64595238D01*
X169976190Y-64642857D01*
X170023809Y-64738095D01*
X170023809Y-65023809D01*
X169976190Y-65119047D01*
X169928571Y-65166666D01*
X169833333Y-65214285D01*
X169642857Y-65214285D01*
X169547619Y-65166666D01*
X169071428Y-65214285D02*
X169071428Y-64547619D01*
X169071428Y-65119047D02*
X169023809Y-65166666D01*
X168928571Y-65214285D01*
X168785714Y-65214285D01*
X168690476Y-65166666D01*
X168642857Y-65071428D01*
X168642857Y-64547619D01*
X168166666Y-64547619D02*
X168166666Y-65214285D01*
X168166666Y-65547619D02*
X168214285Y-65500000D01*
X168166666Y-65452380D01*
X168119047Y-65500000D01*
X168166666Y-65547619D01*
X168166666Y-65452380D01*
X167547619Y-64547619D02*
X167642857Y-64595238D01*
X167690476Y-64642857D01*
X167738095Y-64738095D01*
X167738095Y-65023809D01*
X167690476Y-65119047D01*
X167642857Y-65166666D01*
X167547619Y-65214285D01*
X167404761Y-65214285D01*
X167309523Y-65166666D01*
X167261904Y-65119047D01*
X167214285Y-65023809D01*
X167214285Y-64738095D01*
X167261904Y-64642857D01*
X167309523Y-64595238D01*
X167404761Y-64547619D01*
X167547619Y-64547619D01*
X166785714Y-65214285D02*
X166785714Y-64547619D01*
X166785714Y-65119047D02*
X166738095Y-65166666D01*
X166642857Y-65214285D01*
X166500000Y-65214285D01*
X166404761Y-65166666D01*
X166357142Y-65071428D01*
X166357142Y-64547619D01*
X165261904Y-65547619D02*
X164690476Y-65547619D01*
X164976190Y-64547619D02*
X164976190Y-65547619D01*
X164357142Y-64547619D02*
X164357142Y-65214285D01*
X164357142Y-65023809D02*
X164309523Y-65119047D01*
X164261904Y-65166666D01*
X164166666Y-65214285D01*
X164071428Y-65214285D01*
X163738095Y-64547619D02*
X163738095Y-65214285D01*
X163738095Y-65547619D02*
X163785714Y-65500000D01*
X163738095Y-65452380D01*
X163690476Y-65500000D01*
X163738095Y-65547619D01*
X163738095Y-65452380D01*
X163119047Y-64547619D02*
X163214285Y-64595238D01*
X163261904Y-64642857D01*
X163309523Y-64738095D01*
X163309523Y-65023809D01*
X163261904Y-65119047D01*
X163214285Y-65166666D01*
X163119047Y-65214285D01*
X162976190Y-65214285D01*
X162880952Y-65166666D01*
X162833333Y-65119047D01*
X162785714Y-65023809D01*
X162785714Y-64738095D01*
X162833333Y-64642857D01*
X162880952Y-64595238D01*
X162976190Y-64547619D01*
X163119047Y-64547619D01*
X161595238Y-64547619D02*
X161595238Y-65214285D01*
X161595238Y-65119047D02*
X161547619Y-65166666D01*
X161452380Y-65214285D01*
X161309523Y-65214285D01*
X161214285Y-65166666D01*
X161166666Y-65071428D01*
X161166666Y-64547619D01*
X161166666Y-65071428D02*
X161119047Y-65166666D01*
X161023809Y-65214285D01*
X160880952Y-65214285D01*
X160785714Y-65166666D01*
X160738095Y-65071428D01*
X160738095Y-64547619D01*
X160357142Y-65547619D02*
X159690476Y-64547619D01*
X159690476Y-65547619D02*
X160357142Y-64547619D01*
X159452380Y-65214285D02*
X159071428Y-65214285D01*
X159309523Y-65547619D02*
X159309523Y-64690476D01*
X159261904Y-64595238D01*
X159166666Y-64547619D01*
X159071428Y-64547619D01*
X158357142Y-64595238D02*
X158452380Y-64547619D01*
X158642857Y-64547619D01*
X158738095Y-64595238D01*
X158785714Y-64690476D01*
X158785714Y-65071428D01*
X158738095Y-65166666D01*
X158642857Y-65214285D01*
X158452380Y-65214285D01*
X158357142Y-65166666D01*
X158309523Y-65071428D01*
X158309523Y-64976190D01*
X158785714Y-64880952D01*
X157880952Y-65214285D02*
X157880952Y-64547619D01*
X157880952Y-65119047D02*
X157833333Y-65166666D01*
X157738095Y-65214285D01*
X157595238Y-65214285D01*
X157500000Y-65166666D01*
X157452380Y-65071428D01*
X157452380Y-64547619D01*
X156547619Y-64547619D02*
X156547619Y-65547619D01*
X156547619Y-64595238D02*
X156642857Y-64547619D01*
X156833333Y-64547619D01*
X156928571Y-64595238D01*
X156976190Y-64642857D01*
X157023809Y-64738095D01*
X157023809Y-65023809D01*
X156976190Y-65119047D01*
X156928571Y-65166666D01*
X156833333Y-65214285D01*
X156642857Y-65214285D01*
X156547619Y-65166666D01*
D12*
X169683333Y-68116666D02*
X169302380Y-68116666D01*
X169759523Y-67888095D02*
X169492857Y-68688095D01*
X169226190Y-67888095D01*
X168959523Y-68307142D02*
X168692857Y-68307142D01*
X168578571Y-67888095D02*
X168959523Y-67888095D01*
X168959523Y-68688095D01*
X168578571Y-68688095D01*
X167816666Y-67888095D02*
X168273809Y-67888095D01*
X168045238Y-67888095D02*
X168045238Y-68688095D01*
X168121428Y-68573809D01*
X168197619Y-68497619D01*
X168273809Y-68459523D01*
D11*
X175942857Y-89017142D02*
X175990476Y-89064761D01*
X175942857Y-89112380D01*
X175895238Y-89064761D01*
X175942857Y-89017142D01*
X175942857Y-89112380D01*
X176847619Y-88445714D02*
X176847619Y-89112380D01*
X176609523Y-88064761D02*
X176371428Y-88779047D01*
X176990476Y-88779047D01*
X177371428Y-88445714D02*
X177371428Y-89445714D01*
X177371428Y-88493333D02*
X177466666Y-88445714D01*
X177657142Y-88445714D01*
X177752380Y-88493333D01*
X177800000Y-88540952D01*
X177847619Y-88636190D01*
X177847619Y-88921904D01*
X177800000Y-89017142D01*
X177752380Y-89064761D01*
X177657142Y-89112380D01*
X177466666Y-89112380D01*
X177371428Y-89064761D01*
X178609523Y-88588571D02*
X178276190Y-88588571D01*
X178276190Y-89112380D02*
X178276190Y-88112380D01*
X178752380Y-88112380D01*
D12*
X177166666Y-87785714D02*
X177128571Y-87823809D01*
X177014285Y-87861904D01*
X176938095Y-87861904D01*
X176823809Y-87823809D01*
X176747619Y-87747619D01*
X176709523Y-87671428D01*
X176671428Y-87519047D01*
X176671428Y-87404761D01*
X176709523Y-87252380D01*
X176747619Y-87176190D01*
X176823809Y-87100000D01*
X176938095Y-87061904D01*
X177014285Y-87061904D01*
X177128571Y-87100000D01*
X177166666Y-87138095D01*
X177547619Y-87861904D02*
X177700000Y-87861904D01*
X177776190Y-87823809D01*
X177814285Y-87785714D01*
X177890476Y-87671428D01*
X177928571Y-87519047D01*
X177928571Y-87214285D01*
X177890476Y-87138095D01*
X177852380Y-87100000D01*
X177776190Y-87061904D01*
X177623809Y-87061904D01*
X177547619Y-87100000D01*
X177509523Y-87138095D01*
X177471428Y-87214285D01*
X177471428Y-87404761D01*
X177509523Y-87480952D01*
X177547619Y-87519047D01*
X177623809Y-87557142D01*
X177776190Y-87557142D01*
X177852380Y-87519047D01*
X177890476Y-87480952D01*
X177928571Y-87404761D01*
D11*
X173642857Y-76117142D02*
X173690476Y-76164761D01*
X173642857Y-76212380D01*
X173595238Y-76164761D01*
X173642857Y-76117142D01*
X173642857Y-76212380D01*
X174595238Y-75212380D02*
X174119047Y-75212380D01*
X174071428Y-75688571D01*
X174119047Y-75640952D01*
X174214285Y-75593333D01*
X174452380Y-75593333D01*
X174547619Y-75640952D01*
X174595238Y-75688571D01*
X174642857Y-75783809D01*
X174642857Y-76021904D01*
X174595238Y-76117142D01*
X174547619Y-76164761D01*
X174452380Y-76212380D01*
X174214285Y-76212380D01*
X174119047Y-76164761D01*
X174071428Y-76117142D01*
X175071428Y-75545714D02*
X175071428Y-76545714D01*
X175071428Y-75593333D02*
X175166666Y-75545714D01*
X175357142Y-75545714D01*
X175452380Y-75593333D01*
X175500000Y-75640952D01*
X175547619Y-75736190D01*
X175547619Y-76021904D01*
X175500000Y-76117142D01*
X175452380Y-76164761D01*
X175357142Y-76212380D01*
X175166666Y-76212380D01*
X175071428Y-76164761D01*
X176309523Y-75688571D02*
X175976190Y-75688571D01*
X175976190Y-76212380D02*
X175976190Y-75212380D01*
X176452380Y-75212380D01*
D12*
X174866666Y-74885714D02*
X174828571Y-74923809D01*
X174714285Y-74961904D01*
X174638095Y-74961904D01*
X174523809Y-74923809D01*
X174447619Y-74847619D01*
X174409523Y-74771428D01*
X174371428Y-74619047D01*
X174371428Y-74504761D01*
X174409523Y-74352380D01*
X174447619Y-74276190D01*
X174523809Y-74200000D01*
X174638095Y-74161904D01*
X174714285Y-74161904D01*
X174828571Y-74200000D01*
X174866666Y-74238095D01*
X175323809Y-74504761D02*
X175247619Y-74466666D01*
X175209523Y-74428571D01*
X175171428Y-74352380D01*
X175171428Y-74314285D01*
X175209523Y-74238095D01*
X175247619Y-74200000D01*
X175323809Y-74161904D01*
X175476190Y-74161904D01*
X175552380Y-74200000D01*
X175590476Y-74238095D01*
X175628571Y-74314285D01*
X175628571Y-74352380D01*
X175590476Y-74428571D01*
X175552380Y-74466666D01*
X175476190Y-74504761D01*
X175323809Y-74504761D01*
X175247619Y-74542857D01*
X175209523Y-74580952D01*
X175171428Y-74657142D01*
X175171428Y-74809523D01*
X175209523Y-74885714D01*
X175247619Y-74923809D01*
X175323809Y-74961904D01*
X175476190Y-74961904D01*
X175552380Y-74923809D01*
X175590476Y-74885714D01*
X175628571Y-74809523D01*
X175628571Y-74657142D01*
X175590476Y-74580952D01*
X175552380Y-74542857D01*
X175476190Y-74504761D01*
D11*
X175917619Y-82876190D02*
X175870000Y-82828571D01*
X175822380Y-82733333D01*
X175822380Y-82495238D01*
X175870000Y-82400000D01*
X175917619Y-82352380D01*
X176012857Y-82304761D01*
X176108095Y-82304761D01*
X176250952Y-82352380D01*
X176822380Y-82923809D01*
X176822380Y-82304761D01*
X176727142Y-81876190D02*
X176774761Y-81828571D01*
X176822380Y-81876190D01*
X176774761Y-81923809D01*
X176727142Y-81876190D01*
X176822380Y-81876190D01*
X176155714Y-80971428D02*
X176822380Y-80971428D01*
X175774761Y-81209523D02*
X176489047Y-81447619D01*
X176489047Y-80828571D01*
X176155714Y-80447619D02*
X176822380Y-80447619D01*
X176250952Y-80447619D02*
X176203333Y-80400000D01*
X176155714Y-80304761D01*
X176155714Y-80161904D01*
X176203333Y-80066666D01*
X176298571Y-80019047D01*
X176822380Y-80019047D01*
X176822380Y-79542857D02*
X175822380Y-79542857D01*
X176298571Y-79542857D02*
X176298571Y-78971428D01*
X176822380Y-78971428D02*
X175822380Y-78971428D01*
D12*
X178161904Y-81033333D02*
X178161904Y-81414285D01*
X177361904Y-81414285D01*
X178161904Y-80347619D02*
X178161904Y-80804761D01*
X178161904Y-80576190D02*
X177361904Y-80576190D01*
X177476190Y-80652380D01*
X177552380Y-80728571D01*
X177590476Y-80804761D01*
D14*
X145301472Y-120032843D02*
X146432843Y-118901472D01*
X146432843Y-118901472D02*
X146998528Y-119467157D01*
X146998528Y-119467157D02*
X145867157Y-120598528D01*
X145867157Y-120598528D02*
X145301472Y-120032843D01*
X172750000Y-80500000D02*
G75*
G03*
X172750000Y-80500000I-750000J0D01*
G01*
X144151472Y-118857843D02*
X145282843Y-117726472D01*
X145282843Y-117726472D02*
X145848528Y-118292157D01*
X144717157Y-119423528D02*
X144151472Y-118857843D01*
X145848528Y-118292157D02*
X144717157Y-119423528D01*
X128950000Y-86400000D02*
G75*
G03*
X128950000Y-86400000I-750000J0D01*
G01*
X144436396Y-116905025D02*
X144082843Y-116551472D01*
X143517157Y-118248528D02*
X144436396Y-117329289D01*
X144082843Y-116551472D02*
X142951472Y-117682843D01*
X144436396Y-117329289D02*
X144436396Y-116905025D01*
X142951472Y-117682843D02*
X143517157Y-118248528D01*
X149373528Y-121817157D02*
X148242157Y-122948528D01*
X148242157Y-122948528D02*
X147676472Y-122382843D01*
X147676472Y-122382843D02*
X148807843Y-121251472D01*
X148807843Y-121251472D02*
X149373528Y-121817157D01*
X137500000Y-80112500D02*
X135900000Y-80112500D01*
X135900000Y-80112500D02*
X135900000Y-79287500D01*
X135900000Y-79287500D02*
X137500000Y-79287500D01*
X137500000Y-79287500D02*
X137500000Y-80112500D01*
X137415000Y-70587500D02*
X137415000Y-71412500D01*
X135815000Y-70587500D02*
X137415000Y-70587500D01*
X137415000Y-71412500D02*
X135815000Y-71412500D01*
X135815000Y-71412500D02*
X135815000Y-70587500D01*
X118875000Y-69900000D02*
X118875000Y-83900000D01*
X118875000Y-69900000D02*
X134325000Y-69900000D01*
X134325000Y-69900000D02*
X134325000Y-83900000D01*
X126100000Y-76600000D02*
X127100000Y-76600000D01*
X126600000Y-76100000D02*
X126600000Y-77100000D01*
X118875000Y-83900000D02*
X134325000Y-83900000D01*
X146501472Y-121207843D02*
X147067157Y-121773528D01*
X147986396Y-120854289D02*
X147986396Y-120430025D01*
X147067157Y-121773528D02*
X147986396Y-120854289D01*
X147632843Y-120076472D02*
X146501472Y-121207843D01*
X147986396Y-120430025D02*
X147632843Y-120076472D01*
X172250000Y-137000000D02*
G75*
G03*
X172250000Y-137000000I-750000J0D01*
G01*
D11*
X121070000Y-115730000D02*
X121070000Y-86230000D01*
X138370000Y-115730000D02*
X121070000Y-115730000D01*
X121070000Y-86230000D02*
X138370000Y-86230000D01*
X138370000Y-86230000D02*
X138370000Y-115730000D01*
D14*
X177800000Y-85250000D02*
X176800000Y-85250000D01*
X176800000Y-84750000D02*
X177800000Y-84750000D01*
X177800000Y-84750000D02*
X177800000Y-85250000D01*
X176800000Y-85250000D02*
X176800000Y-84750000D01*
X176400000Y-82250000D02*
X176400000Y-82750000D01*
X176400000Y-82750000D02*
X175400000Y-82750000D01*
X175400000Y-82750000D02*
X175400000Y-82250000D01*
X175400000Y-82250000D02*
X176400000Y-82250000D01*
X178050000Y-83000000D02*
X178050000Y-84000000D01*
X177550000Y-84000000D02*
X177550000Y-83000000D01*
X177550000Y-83000000D02*
X178050000Y-83000000D01*
X178050000Y-84000000D02*
X177550000Y-84000000D01*
X176200000Y-86700000D02*
X176200000Y-85900000D01*
X177800000Y-86700000D02*
X176200000Y-86700000D01*
X176200000Y-85900000D02*
X177800000Y-85900000D01*
X177800000Y-85900000D02*
X177800000Y-86700000D01*
X174200000Y-72900000D02*
X175800000Y-72900000D01*
X174200000Y-73700000D02*
X174200000Y-72900000D01*
X175800000Y-73700000D02*
X174200000Y-73700000D01*
X175800000Y-72900000D02*
X175800000Y-73700000D01*
X177500000Y-89200000D02*
X175200000Y-89200000D01*
X176500000Y-89500000D02*
X176200000Y-89200000D01*
X176800000Y-89200000D02*
X176500000Y-89500000D01*
X175200000Y-91800000D02*
X175200000Y-89200000D01*
X177800000Y-91800000D02*
X175200000Y-91800000D01*
X177800000Y-91800000D02*
X177800000Y-89500000D01*
X177800000Y-89500000D02*
X177500000Y-89200000D01*
X176625000Y-90500000D02*
G75*
G03*
X176625000Y-90500000I-125000J0D01*
G01*
X176700000Y-90500000D02*
G75*
G03*
X176700000Y-90500000I-200000J0D01*
G01*
X176550000Y-90500000D02*
G75*
G03*
X176550000Y-90500000I-50000J0D01*
G01*
X177400000Y-90500000D02*
G75*
G03*
X177400000Y-90500000I-900000J0D01*
G01*
X177800000Y-87250000D02*
X177800000Y-87750000D01*
X176800000Y-87250000D02*
X177800000Y-87250000D01*
X176800000Y-87750000D02*
X176800000Y-87250000D01*
X177800000Y-87750000D02*
X176800000Y-87750000D01*
X175500000Y-74850000D02*
X174500000Y-74850000D01*
X174500000Y-74850000D02*
X174500000Y-74350000D01*
X175500000Y-74350000D02*
X175500000Y-74850000D01*
X174500000Y-74350000D02*
X175500000Y-74350000D01*
X178200000Y-80100000D02*
X178200000Y-81700000D01*
X177400000Y-80100000D02*
X178200000Y-80100000D01*
X178200000Y-81700000D02*
X177400000Y-81700000D01*
X177400000Y-81700000D02*
X177400000Y-80100000D01*
M02*
